G75*
%MOIN*%
%OFA0B0*%
%FSLAX24Y24*%
%IPPOS*%
%LPD*%
%AMOC8*
5,1,8,0,0,1.08239X$1,22.5*
%
%ADD10OC8,0.0740*%
%ADD11R,0.0800X0.0800*%
%ADD12C,0.0800*%
%ADD13R,0.1831X0.1969*%
%ADD14C,0.0160*%
%ADD15C,0.0356*%
%ADD16C,0.0100*%
%ADD17C,0.0120*%
%ADD18C,0.0070*%
%ADD19C,0.0065*%
D10*
X002050Y002770D03*
X003050Y002770D03*
X003050Y003770D03*
X002050Y003770D03*
X002050Y004770D03*
X003050Y004770D03*
X003050Y005770D03*
X002050Y005770D03*
X002050Y006770D03*
X003050Y006770D03*
X003050Y007770D03*
X002050Y007770D03*
X002050Y008770D03*
X003050Y008770D03*
X003050Y009770D03*
X002050Y009770D03*
X002050Y010770D03*
X003050Y010770D03*
X003050Y011770D03*
X002050Y011770D03*
X002050Y012770D03*
X003050Y012770D03*
X003050Y013770D03*
X002050Y013770D03*
X002050Y014770D03*
X003050Y014770D03*
D11*
X011675Y015355D03*
X015400Y015405D03*
X019175Y015380D03*
X022900Y015405D03*
X020908Y012027D03*
D12*
X022426Y012027D03*
X021382Y015405D03*
X017657Y015380D03*
X013882Y015405D03*
X010157Y015355D03*
D13*
X008528Y001517D03*
X005832Y001517D03*
D14*
X000774Y000658D02*
X000721Y000750D01*
X000710Y000797D01*
X000711Y002165D01*
X000789Y002087D01*
X001659Y001217D01*
X001659Y001217D01*
X001782Y001094D01*
X003174Y001094D01*
X004377Y002297D01*
X004500Y002420D01*
X004500Y004769D01*
X004570Y004839D01*
X004621Y004963D01*
X004621Y005098D01*
X004570Y005222D01*
X004475Y005317D01*
X004351Y005368D01*
X004216Y005368D01*
X004105Y005322D01*
X004105Y005361D01*
X004180Y005437D01*
X004231Y005561D01*
X004231Y005696D01*
X004180Y005820D01*
X004085Y005915D01*
X003961Y005966D01*
X003826Y005966D01*
X003702Y005915D01*
X003607Y005820D01*
X003580Y005756D01*
X003580Y005990D01*
X003506Y006064D01*
X003540Y006065D01*
X006395Y009045D01*
X011987Y009045D01*
X012063Y008968D01*
X012188Y008917D01*
X012322Y008917D01*
X012447Y008968D01*
X012542Y009063D01*
X012575Y009145D01*
X012927Y008793D01*
X012863Y008793D01*
X012738Y008742D01*
X012643Y008647D01*
X012592Y008522D01*
X012592Y008388D01*
X012643Y008263D01*
X012710Y008197D01*
X012710Y005613D01*
X012643Y005547D01*
X012592Y005422D01*
X012592Y005288D01*
X012643Y005163D01*
X012738Y005068D01*
X012863Y005017D01*
X012997Y005017D01*
X013122Y005068D01*
X013217Y005163D01*
X013268Y005288D01*
X013268Y005422D01*
X013217Y005547D01*
X013150Y005613D01*
X013150Y008197D01*
X013217Y008263D01*
X013268Y008388D01*
X013268Y008452D01*
X013290Y008431D01*
X013290Y006332D01*
X013327Y006244D01*
X014327Y005244D01*
X014394Y005177D01*
X014482Y005140D01*
X019628Y005140D01*
X019716Y005177D01*
X019881Y005342D01*
X019947Y005342D01*
X020072Y005393D01*
X020167Y005488D01*
X020218Y005613D01*
X020218Y005747D01*
X020167Y005872D01*
X020072Y005967D01*
X019947Y006018D01*
X019813Y006018D01*
X019688Y005967D01*
X019593Y005872D01*
X019542Y005747D01*
X019542Y005681D01*
X019481Y005620D01*
X014629Y005620D01*
X013770Y006479D01*
X013770Y008578D01*
X013733Y008666D01*
X013666Y008733D01*
X012558Y009842D01*
X012597Y009842D01*
X012722Y009893D01*
X012768Y009940D01*
X013328Y009940D01*
X013416Y009977D01*
X014206Y010767D01*
X014272Y010767D01*
X014397Y010818D01*
X014492Y010913D01*
X014543Y011038D01*
X014543Y011172D01*
X014492Y011297D01*
X014397Y011392D01*
X014272Y011443D01*
X014138Y011443D01*
X014013Y011392D01*
X013918Y011297D01*
X013867Y011172D01*
X013867Y011106D01*
X013181Y010420D01*
X012768Y010420D01*
X012722Y010467D01*
X012597Y010518D01*
X012463Y010518D01*
X012338Y010467D01*
X012243Y010372D01*
X012192Y010247D01*
X012192Y010113D01*
X012243Y009988D01*
X012312Y009920D01*
X011254Y009920D01*
X011145Y010029D01*
X011145Y014017D01*
X011192Y014063D01*
X011243Y014188D01*
X011243Y014322D01*
X011192Y014447D01*
X011097Y014542D01*
X010972Y014593D01*
X010838Y014593D01*
X010713Y014542D01*
X010618Y014447D01*
X010567Y014322D01*
X010567Y014188D01*
X010618Y014063D01*
X010665Y014017D01*
X010665Y009882D01*
X010702Y009794D01*
X011019Y009477D01*
X011047Y009465D01*
X008603Y009465D01*
X008672Y009493D01*
X008767Y009588D01*
X008818Y009713D01*
X008818Y009847D01*
X008767Y009972D01*
X008672Y010067D01*
X008547Y010118D01*
X008442Y010118D01*
X008094Y010472D01*
X007920Y010473D01*
X007904Y010457D01*
X003487Y010457D01*
X003580Y010550D01*
X003580Y010990D01*
X003510Y011060D01*
X003803Y011060D01*
X003818Y011045D01*
X003992Y011045D01*
X004642Y011695D01*
X008042Y011695D01*
X008314Y011967D01*
X008422Y011967D01*
X008547Y012018D01*
X008642Y012113D01*
X008693Y012238D01*
X008693Y012372D01*
X008642Y012497D01*
X008547Y012592D01*
X008422Y012643D01*
X008288Y012643D01*
X008163Y012592D01*
X008068Y012497D01*
X008017Y012372D01*
X008017Y012264D01*
X007868Y012115D01*
X004468Y012115D01*
X004345Y011992D01*
X003803Y011450D01*
X003480Y011450D01*
X003580Y011550D01*
X003580Y011990D01*
X003300Y012270D01*
X003580Y012550D01*
X003580Y012990D01*
X003493Y013077D01*
X008052Y013077D01*
X008057Y013071D01*
X008231Y013063D01*
X008319Y013142D01*
X008447Y013142D01*
X008572Y013193D01*
X008667Y013288D01*
X008718Y013413D01*
X008718Y013547D01*
X008667Y013672D01*
X008572Y013767D01*
X008447Y013818D01*
X008313Y013818D01*
X008188Y013767D01*
X008093Y013672D01*
X008042Y013547D01*
X008042Y013462D01*
X003492Y013462D01*
X003580Y013550D01*
X003580Y013990D01*
X003314Y014256D01*
X003600Y014542D01*
X003600Y014750D01*
X003070Y014750D01*
X003070Y014790D01*
X003030Y014790D01*
X003030Y015320D01*
X002822Y015320D01*
X002536Y015034D01*
X002270Y015300D01*
X001830Y015300D01*
X001520Y014990D01*
X001520Y014550D01*
X001800Y014270D01*
X001520Y013990D01*
X001520Y013550D01*
X001608Y013462D01*
X001491Y013462D01*
X001474Y013479D01*
X001300Y013479D01*
X001291Y013470D01*
X001291Y015157D01*
X001704Y015688D01*
X003428Y015688D01*
X003856Y015260D01*
X003856Y014078D01*
X003979Y013955D01*
X004189Y013745D01*
X006059Y013745D01*
X006182Y013868D01*
X006356Y014042D01*
X006356Y014186D01*
X006433Y014263D01*
X006485Y014387D01*
X006485Y014522D01*
X006433Y014646D01*
X006338Y014741D01*
X006214Y014792D01*
X006079Y014792D01*
X005955Y014741D01*
X005860Y014646D01*
X005808Y014522D01*
X005808Y014387D01*
X005860Y014263D01*
X005922Y014201D01*
X005886Y014165D01*
X004363Y014165D01*
X004276Y014252D01*
X004276Y015434D01*
X003782Y015927D01*
X005226Y015927D01*
X005302Y015851D01*
X005427Y015799D01*
X005561Y015799D01*
X005686Y015851D01*
X005781Y015946D01*
X005832Y016070D01*
X005832Y016205D01*
X005781Y016329D01*
X005686Y016424D01*
X005561Y016475D01*
X005427Y016475D01*
X005302Y016424D01*
X005226Y016347D01*
X001188Y016347D01*
X000789Y015948D01*
X000718Y015878D01*
X000718Y016708D01*
X000724Y016715D01*
X000718Y016765D01*
X000718Y016815D01*
X000717Y016817D01*
X000717Y016830D01*
X000749Y016939D01*
X000820Y017028D01*
X000920Y017083D01*
X000972Y017094D01*
X023047Y017133D01*
X023052Y017129D01*
X023104Y017133D01*
X023131Y017133D01*
X023215Y017132D01*
X023416Y017067D01*
X023576Y016930D01*
X023672Y016743D01*
X023690Y016641D01*
X023690Y000902D01*
X023684Y000837D01*
X023634Y000717D01*
X023543Y000626D01*
X023423Y000576D01*
X023358Y000570D01*
X009624Y000570D01*
X009624Y001437D01*
X008608Y001437D01*
X008608Y001597D01*
X008448Y001597D01*
X008448Y001437D01*
X007433Y001437D01*
X007433Y000570D01*
X006927Y000570D01*
X006927Y001437D01*
X005912Y001437D01*
X005912Y001597D01*
X006927Y001597D01*
X006927Y002525D01*
X006915Y002571D01*
X006891Y002612D01*
X006857Y002645D01*
X006816Y002669D01*
X006771Y002681D01*
X005912Y002681D01*
X005912Y001597D01*
X005752Y001597D01*
X005752Y002681D01*
X004893Y002681D01*
X004847Y002669D01*
X004806Y002645D01*
X004772Y002612D01*
X004748Y002571D01*
X004736Y002525D01*
X004736Y001597D01*
X005752Y001597D01*
X005752Y001437D01*
X004736Y001437D01*
X004736Y000570D01*
X001081Y000570D01*
X001072Y000576D01*
X001024Y000570D01*
X000976Y000570D01*
X000973Y000567D01*
X000962Y000567D01*
X000859Y000594D01*
X000774Y000658D01*
X000778Y000656D02*
X004736Y000656D01*
X004736Y000814D02*
X000710Y000814D01*
X000710Y000973D02*
X004736Y000973D01*
X004736Y001131D02*
X003211Y001131D01*
X003370Y001290D02*
X004736Y001290D01*
X004736Y001607D02*
X003687Y001607D01*
X003845Y001765D02*
X004736Y001765D01*
X004736Y001924D02*
X004004Y001924D01*
X004162Y002082D02*
X004736Y002082D01*
X004736Y002241D02*
X004321Y002241D01*
X004479Y002399D02*
X004736Y002399D01*
X004745Y002558D02*
X004500Y002558D01*
X004500Y002716D02*
X023690Y002716D01*
X023690Y002558D02*
X009615Y002558D01*
X009612Y002571D02*
X009588Y002612D01*
X009554Y002645D01*
X009513Y002669D01*
X009467Y002681D01*
X008608Y002681D01*
X008608Y001597D01*
X009624Y001597D01*
X009624Y002525D01*
X009612Y002571D01*
X009624Y002399D02*
X023690Y002399D01*
X023690Y002241D02*
X009624Y002241D01*
X009624Y002082D02*
X023690Y002082D01*
X023690Y001924D02*
X009624Y001924D01*
X009624Y001765D02*
X023690Y001765D01*
X023690Y001607D02*
X009624Y001607D01*
X009624Y001290D02*
X023690Y001290D01*
X023690Y001448D02*
X008608Y001448D01*
X008608Y001607D02*
X008448Y001607D01*
X008448Y001597D02*
X008448Y002681D01*
X007589Y002681D01*
X007544Y002669D01*
X007503Y002645D01*
X007469Y002612D01*
X007445Y002571D01*
X007433Y002525D01*
X007433Y001597D01*
X008448Y001597D01*
X008448Y001448D02*
X005912Y001448D01*
X005912Y001607D02*
X005752Y001607D01*
X005752Y001765D02*
X005912Y001765D01*
X005912Y001924D02*
X005752Y001924D01*
X005752Y002082D02*
X005912Y002082D01*
X005912Y002241D02*
X005752Y002241D01*
X005752Y002399D02*
X005912Y002399D01*
X005912Y002558D02*
X005752Y002558D01*
X006918Y002558D02*
X007442Y002558D01*
X007433Y002399D02*
X006927Y002399D01*
X006927Y002241D02*
X007433Y002241D01*
X007433Y002082D02*
X006927Y002082D01*
X006927Y001924D02*
X007433Y001924D01*
X007433Y001765D02*
X006927Y001765D01*
X006927Y001607D02*
X007433Y001607D01*
X007433Y001290D02*
X006927Y001290D01*
X006927Y001131D02*
X007433Y001131D01*
X007433Y000973D02*
X006927Y000973D01*
X006927Y000814D02*
X007433Y000814D01*
X007433Y000656D02*
X006927Y000656D01*
X005752Y001448D02*
X003528Y001448D01*
X001745Y001131D02*
X000710Y001131D01*
X000710Y001290D02*
X001586Y001290D01*
X001428Y001448D02*
X000710Y001448D01*
X000710Y001607D02*
X001269Y001607D01*
X001111Y001765D02*
X000711Y001765D01*
X000711Y001924D02*
X000952Y001924D01*
X000794Y002082D02*
X000711Y002082D01*
X000789Y002087D02*
X000789Y002087D01*
X004500Y002875D02*
X023690Y002875D01*
X023690Y003033D02*
X004500Y003033D01*
X004500Y003192D02*
X023690Y003192D01*
X023690Y003350D02*
X004500Y003350D01*
X004500Y003509D02*
X023690Y003509D01*
X023690Y003667D02*
X004500Y003667D01*
X004500Y003826D02*
X023690Y003826D01*
X023690Y003984D02*
X004500Y003984D01*
X004500Y004143D02*
X023690Y004143D01*
X023690Y004301D02*
X004500Y004301D01*
X004500Y004460D02*
X023690Y004460D01*
X023690Y004618D02*
X004500Y004618D01*
X004508Y004777D02*
X023690Y004777D01*
X023690Y004935D02*
X004610Y004935D01*
X004621Y005094D02*
X012713Y005094D01*
X012607Y005252D02*
X004540Y005252D01*
X004154Y005411D02*
X012592Y005411D01*
X012666Y005569D02*
X004231Y005569D01*
X004218Y005728D02*
X012710Y005728D01*
X012710Y005886D02*
X004114Y005886D01*
X003673Y005886D02*
X003580Y005886D01*
X003525Y006045D02*
X012710Y006045D01*
X012710Y006203D02*
X003672Y006203D01*
X003824Y006362D02*
X012710Y006362D01*
X012710Y006520D02*
X003976Y006520D01*
X004128Y006679D02*
X012710Y006679D01*
X012710Y006837D02*
X004280Y006837D01*
X004432Y006996D02*
X012710Y006996D01*
X012710Y007154D02*
X004583Y007154D01*
X004735Y007313D02*
X012710Y007313D01*
X012710Y007471D02*
X004887Y007471D01*
X005039Y007630D02*
X012710Y007630D01*
X012710Y007788D02*
X005191Y007788D01*
X005342Y007947D02*
X012710Y007947D01*
X012710Y008105D02*
X005494Y008105D01*
X005646Y008264D02*
X012643Y008264D01*
X012592Y008422D02*
X005798Y008422D01*
X005950Y008581D02*
X012616Y008581D01*
X012736Y008739D02*
X006102Y008739D01*
X006253Y008898D02*
X012823Y008898D01*
X012665Y009056D02*
X012534Y009056D01*
X013026Y009373D02*
X014840Y009373D01*
X014840Y009215D02*
X013185Y009215D01*
X013343Y009056D02*
X014861Y009056D01*
X014877Y009019D02*
X017202Y006694D01*
X017269Y006627D01*
X017357Y006590D01*
X018817Y006590D01*
X018863Y006543D01*
X018988Y006492D01*
X019122Y006492D01*
X019247Y006543D01*
X019342Y006638D01*
X019393Y006763D01*
X019393Y006897D01*
X019342Y007022D01*
X019271Y007092D01*
X019342Y007163D01*
X019393Y007288D01*
X019393Y007422D01*
X019342Y007547D01*
X019247Y007642D01*
X019122Y007693D01*
X018988Y007693D01*
X018863Y007642D01*
X018817Y007595D01*
X017929Y007595D01*
X017470Y008054D01*
X017470Y008562D01*
X017538Y008493D01*
X017663Y008442D01*
X017797Y008442D01*
X017913Y008490D01*
X019206Y008490D01*
X020842Y006854D01*
X020842Y006788D01*
X020893Y006663D01*
X020988Y006568D01*
X021113Y006517D01*
X021247Y006517D01*
X021372Y006568D01*
X021467Y006663D01*
X021518Y006788D01*
X021518Y006922D01*
X021479Y007016D01*
X021547Y007043D01*
X021642Y007138D01*
X021693Y007263D01*
X021693Y007397D01*
X021642Y007522D01*
X021547Y007617D01*
X021422Y007668D01*
X021356Y007668D01*
X019266Y009758D01*
X019178Y009795D01*
X018143Y009795D01*
X018097Y009842D01*
X017972Y009893D01*
X017838Y009893D01*
X017713Y009842D01*
X017618Y009747D01*
X017567Y009622D01*
X017567Y009488D01*
X017618Y009363D01*
X017713Y009268D01*
X017838Y009217D01*
X017972Y009217D01*
X018097Y009268D01*
X018143Y009315D01*
X019031Y009315D01*
X019392Y008954D01*
X019353Y008970D01*
X018017Y008970D01*
X018017Y008972D01*
X017922Y009067D01*
X017797Y009118D01*
X017663Y009118D01*
X017538Y009067D01*
X017470Y008998D01*
X017470Y014017D01*
X017517Y014063D01*
X017568Y014188D01*
X017568Y014322D01*
X017517Y014447D01*
X017422Y014542D01*
X017297Y014593D01*
X017163Y014593D01*
X017038Y014542D01*
X016943Y014447D01*
X016892Y014322D01*
X016892Y014188D01*
X016943Y014063D01*
X016990Y014017D01*
X016990Y007907D01*
X017027Y007819D01*
X017627Y007219D01*
X017694Y007152D01*
X017782Y007115D01*
X018817Y007115D01*
X018839Y007092D01*
X018817Y007070D01*
X017504Y007070D01*
X015320Y009254D01*
X015320Y013992D01*
X015367Y014038D01*
X015418Y014163D01*
X015418Y014297D01*
X015367Y014422D01*
X015272Y014517D01*
X015147Y014568D01*
X015013Y014568D01*
X014888Y014517D01*
X014793Y014422D01*
X014742Y014297D01*
X014742Y014163D01*
X014793Y014038D01*
X014840Y013992D01*
X014840Y009107D01*
X014877Y009019D01*
X014998Y008898D02*
X013502Y008898D01*
X013660Y008739D02*
X015157Y008739D01*
X015315Y008581D02*
X013769Y008581D01*
X013770Y008422D02*
X015474Y008422D01*
X015632Y008264D02*
X013770Y008264D01*
X013770Y008105D02*
X015791Y008105D01*
X015949Y007947D02*
X013770Y007947D01*
X013770Y007788D02*
X016108Y007788D01*
X016266Y007630D02*
X013770Y007630D01*
X013770Y007471D02*
X016425Y007471D01*
X016583Y007313D02*
X013770Y007313D01*
X013770Y007154D02*
X016742Y007154D01*
X016900Y006996D02*
X013770Y006996D01*
X013770Y006837D02*
X017059Y006837D01*
X017217Y006679D02*
X013770Y006679D01*
X013770Y006520D02*
X018920Y006520D01*
X019190Y006520D02*
X021105Y006520D01*
X021255Y006520D02*
X023690Y006520D01*
X023690Y006362D02*
X013888Y006362D01*
X014046Y006203D02*
X023690Y006203D01*
X023690Y006045D02*
X014205Y006045D01*
X014363Y005886D02*
X019608Y005886D01*
X019542Y005728D02*
X014522Y005728D01*
X014530Y005380D02*
X019580Y005380D01*
X019880Y005680D01*
X020200Y005569D02*
X023690Y005569D01*
X023690Y005411D02*
X020089Y005411D01*
X019791Y005252D02*
X023690Y005252D01*
X023690Y005094D02*
X013147Y005094D01*
X013253Y005252D02*
X014319Y005252D01*
X014160Y005411D02*
X013268Y005411D01*
X013194Y005569D02*
X014002Y005569D01*
X013843Y005728D02*
X013150Y005728D01*
X013150Y005886D02*
X013685Y005886D01*
X013526Y006045D02*
X013150Y006045D01*
X013150Y006203D02*
X013368Y006203D01*
X013290Y006362D02*
X013150Y006362D01*
X013150Y006520D02*
X013290Y006520D01*
X013290Y006679D02*
X013150Y006679D01*
X013150Y006837D02*
X013290Y006837D01*
X013290Y006996D02*
X013150Y006996D01*
X013150Y007154D02*
X013290Y007154D01*
X013290Y007313D02*
X013150Y007313D01*
X013150Y007471D02*
X013290Y007471D01*
X013290Y007630D02*
X013150Y007630D01*
X013150Y007788D02*
X013290Y007788D01*
X013290Y007947D02*
X013150Y007947D01*
X013150Y008105D02*
X013290Y008105D01*
X013290Y008264D02*
X013217Y008264D01*
X013268Y008422D02*
X013290Y008422D01*
X013530Y008530D02*
X013530Y006380D01*
X014530Y005380D01*
X017262Y007313D02*
X017533Y007313D01*
X017420Y007154D02*
X017692Y007154D01*
X017405Y006830D02*
X019055Y006830D01*
X019393Y006837D02*
X020842Y006837D01*
X020887Y006679D02*
X019358Y006679D01*
X019352Y006996D02*
X020700Y006996D01*
X020542Y007154D02*
X019332Y007154D01*
X019393Y007313D02*
X020383Y007313D01*
X020225Y007471D02*
X019373Y007471D01*
X019259Y007630D02*
X020066Y007630D01*
X019908Y007788D02*
X017736Y007788D01*
X017578Y007947D02*
X019749Y007947D01*
X019591Y008105D02*
X017470Y008105D01*
X017470Y008264D02*
X019432Y008264D01*
X019274Y008422D02*
X017470Y008422D01*
X017780Y008730D02*
X017730Y008780D01*
X017780Y008730D02*
X019305Y008730D01*
X021180Y006855D01*
X021488Y006996D02*
X023690Y006996D01*
X023690Y007154D02*
X021648Y007154D01*
X021693Y007313D02*
X023690Y007313D01*
X023690Y007471D02*
X021663Y007471D01*
X021515Y007630D02*
X023690Y007630D01*
X023690Y007788D02*
X021236Y007788D01*
X021078Y007947D02*
X023690Y007947D01*
X023690Y008105D02*
X020919Y008105D01*
X020761Y008264D02*
X023690Y008264D01*
X023690Y008422D02*
X020602Y008422D01*
X020444Y008581D02*
X023690Y008581D01*
X023690Y008739D02*
X020285Y008739D01*
X020127Y008898D02*
X023690Y008898D01*
X023690Y009056D02*
X019968Y009056D01*
X019810Y009215D02*
X023690Y009215D01*
X023690Y009373D02*
X019651Y009373D01*
X019493Y009532D02*
X023690Y009532D01*
X023690Y009690D02*
X019334Y009690D01*
X019130Y009555D02*
X021355Y007330D01*
X021518Y006837D02*
X023690Y006837D01*
X023690Y006679D02*
X021473Y006679D01*
X020152Y005886D02*
X023690Y005886D01*
X023690Y005728D02*
X020218Y005728D01*
X019055Y007355D02*
X017830Y007355D01*
X017230Y007955D01*
X017230Y014255D01*
X016917Y014128D02*
X015404Y014128D01*
X015418Y014287D02*
X016892Y014287D01*
X016943Y014445D02*
X015343Y014445D01*
X015080Y014230D02*
X015080Y009155D01*
X017405Y006830D01*
X017375Y007471D02*
X017103Y007471D01*
X017216Y007630D02*
X016945Y007630D01*
X017058Y007788D02*
X016786Y007788D01*
X016628Y007947D02*
X016990Y007947D01*
X016990Y008105D02*
X016469Y008105D01*
X016311Y008264D02*
X016990Y008264D01*
X016990Y008422D02*
X016152Y008422D01*
X015994Y008581D02*
X016990Y008581D01*
X016990Y008739D02*
X015835Y008739D01*
X015677Y008898D02*
X016990Y008898D01*
X016990Y009056D02*
X015518Y009056D01*
X015360Y009215D02*
X016990Y009215D01*
X016990Y009373D02*
X015320Y009373D01*
X015320Y009532D02*
X016990Y009532D01*
X016990Y009690D02*
X015320Y009690D01*
X015320Y009849D02*
X016990Y009849D01*
X016990Y010007D02*
X015320Y010007D01*
X015320Y010166D02*
X016990Y010166D01*
X016990Y010324D02*
X015320Y010324D01*
X015320Y010483D02*
X016990Y010483D01*
X016990Y010641D02*
X015320Y010641D01*
X015320Y010800D02*
X016990Y010800D01*
X016990Y010958D02*
X015320Y010958D01*
X015320Y011117D02*
X016990Y011117D01*
X016990Y011275D02*
X015320Y011275D01*
X015320Y011434D02*
X016990Y011434D01*
X016990Y011592D02*
X015320Y011592D01*
X015320Y011751D02*
X016990Y011751D01*
X016990Y011909D02*
X015320Y011909D01*
X015320Y012068D02*
X016990Y012068D01*
X016990Y012226D02*
X015320Y012226D01*
X015320Y012385D02*
X016990Y012385D01*
X016990Y012543D02*
X015320Y012543D01*
X015320Y012702D02*
X016990Y012702D01*
X016990Y012860D02*
X015320Y012860D01*
X015320Y013019D02*
X016990Y013019D01*
X016990Y013177D02*
X015320Y013177D01*
X015320Y013336D02*
X016990Y013336D01*
X016990Y013494D02*
X015320Y013494D01*
X015320Y013653D02*
X016990Y013653D01*
X016990Y013811D02*
X015320Y013811D01*
X015320Y013970D02*
X016990Y013970D01*
X017470Y013970D02*
X023690Y013970D01*
X023690Y014128D02*
X017543Y014128D01*
X017568Y014287D02*
X023690Y014287D01*
X023690Y014445D02*
X017517Y014445D01*
X017546Y014820D02*
X017768Y014820D01*
X017974Y014905D01*
X018132Y015063D01*
X018217Y015269D01*
X018217Y015491D01*
X018132Y015697D01*
X017974Y015855D01*
X017768Y015940D01*
X017546Y015940D01*
X017340Y015855D01*
X017182Y015697D01*
X017097Y015491D01*
X017097Y015269D01*
X017182Y015063D01*
X017340Y014905D01*
X017546Y014820D01*
X017325Y014921D02*
X015942Y014921D01*
X015960Y014939D02*
X015960Y015871D01*
X015866Y015965D01*
X014934Y015965D01*
X014840Y015871D01*
X014840Y014939D01*
X014934Y014845D01*
X015866Y014845D01*
X015960Y014939D01*
X015960Y015079D02*
X017176Y015079D01*
X017110Y015238D02*
X015960Y015238D01*
X015960Y015396D02*
X017097Y015396D01*
X017123Y015555D02*
X015960Y015555D01*
X015960Y015713D02*
X017198Y015713D01*
X017380Y015872D02*
X015960Y015872D01*
X014840Y015872D02*
X014207Y015872D01*
X014199Y015880D02*
X013993Y015965D01*
X013771Y015965D01*
X013565Y015880D01*
X013407Y015722D01*
X013322Y015516D01*
X013322Y015294D01*
X013407Y015088D01*
X013565Y014930D01*
X013771Y014845D01*
X013993Y014845D01*
X014199Y014930D01*
X014357Y015088D01*
X014442Y015294D01*
X014442Y015516D01*
X014357Y015722D01*
X014199Y015880D01*
X014361Y015713D02*
X014840Y015713D01*
X014840Y015555D02*
X014426Y015555D01*
X014442Y015396D02*
X014840Y015396D01*
X014840Y015238D02*
X014419Y015238D01*
X014348Y015079D02*
X014840Y015079D01*
X014858Y014921D02*
X014176Y014921D01*
X013588Y014921D02*
X012235Y014921D01*
X012235Y014889D02*
X012235Y015821D01*
X012141Y015915D01*
X011209Y015915D01*
X011115Y015821D01*
X011115Y014889D01*
X011209Y014795D01*
X012141Y014795D01*
X012235Y014889D01*
X012235Y015079D02*
X013416Y015079D01*
X013345Y015238D02*
X012235Y015238D01*
X012235Y015396D02*
X013322Y015396D01*
X013338Y015555D02*
X012235Y015555D01*
X012235Y015713D02*
X013403Y015713D01*
X013557Y015872D02*
X012185Y015872D01*
X011165Y015872D02*
X010373Y015872D01*
X010474Y015830D02*
X010268Y015915D01*
X010046Y015915D01*
X009840Y015830D01*
X009682Y015672D01*
X009597Y015466D01*
X009597Y015244D01*
X009682Y015038D01*
X009840Y014880D01*
X010046Y014795D01*
X010268Y014795D01*
X010474Y014880D01*
X010632Y015038D01*
X010717Y015244D01*
X010717Y015466D01*
X010632Y015672D01*
X010474Y015830D01*
X010591Y015713D02*
X011115Y015713D01*
X011115Y015555D02*
X010681Y015555D01*
X010717Y015396D02*
X011115Y015396D01*
X011115Y015238D02*
X010715Y015238D01*
X010649Y015079D02*
X011115Y015079D01*
X011115Y014921D02*
X010515Y014921D01*
X010618Y014445D02*
X006485Y014445D01*
X006451Y014604D02*
X023690Y014604D01*
X023690Y014762D02*
X006287Y014762D01*
X006006Y014762D02*
X004276Y014762D01*
X004276Y014604D02*
X005842Y014604D01*
X005808Y014445D02*
X004276Y014445D01*
X004276Y014287D02*
X005850Y014287D01*
X006356Y014128D02*
X010592Y014128D01*
X010567Y014287D02*
X006443Y014287D01*
X006284Y013970D02*
X010665Y013970D01*
X010665Y013811D02*
X008464Y013811D01*
X008296Y013811D02*
X006126Y013811D01*
X008042Y013494D02*
X003524Y013494D01*
X003580Y013653D02*
X008085Y013653D01*
X008675Y013653D02*
X010665Y013653D01*
X010665Y013494D02*
X008718Y013494D01*
X008686Y013336D02*
X010665Y013336D01*
X010665Y013177D02*
X008532Y013177D01*
X008595Y012543D02*
X010665Y012543D01*
X010665Y012385D02*
X008688Y012385D01*
X008688Y012226D02*
X010665Y012226D01*
X010665Y012068D02*
X008596Y012068D01*
X008256Y011909D02*
X010665Y011909D01*
X010665Y011751D02*
X008098Y011751D01*
X007979Y012226D02*
X003344Y012226D01*
X003414Y012385D02*
X008022Y012385D01*
X008115Y012543D02*
X003573Y012543D01*
X003580Y012702D02*
X010665Y012702D01*
X010665Y012860D02*
X003580Y012860D01*
X003551Y013019D02*
X010665Y013019D01*
X011145Y013019D02*
X014840Y013019D01*
X014840Y013177D02*
X011145Y013177D01*
X011145Y013336D02*
X014840Y013336D01*
X014840Y013494D02*
X011145Y013494D01*
X011145Y013653D02*
X014840Y013653D01*
X014840Y013811D02*
X011145Y013811D01*
X011145Y013970D02*
X014840Y013970D01*
X014756Y014128D02*
X011218Y014128D01*
X011243Y014287D02*
X014742Y014287D01*
X014817Y014445D02*
X011192Y014445D01*
X010905Y014255D02*
X010905Y009930D01*
X011155Y009680D01*
X012380Y009680D01*
X013530Y008530D01*
X013666Y008733D02*
X013666Y008733D01*
X012868Y009532D02*
X014840Y009532D01*
X014840Y009690D02*
X012709Y009690D01*
X012613Y009849D02*
X014840Y009849D01*
X014840Y010007D02*
X013446Y010007D01*
X013605Y010166D02*
X014840Y010166D01*
X014840Y010324D02*
X013763Y010324D01*
X013922Y010483D02*
X014840Y010483D01*
X014840Y010641D02*
X014080Y010641D01*
X014351Y010800D02*
X014840Y010800D01*
X014840Y010958D02*
X014510Y010958D01*
X014543Y011117D02*
X014840Y011117D01*
X014840Y011275D02*
X014501Y011275D01*
X014295Y011434D02*
X014840Y011434D01*
X014840Y011592D02*
X011145Y011592D01*
X011145Y011434D02*
X014115Y011434D01*
X013909Y011275D02*
X011145Y011275D01*
X011145Y011117D02*
X013867Y011117D01*
X013719Y010958D02*
X011145Y010958D01*
X011145Y010800D02*
X013560Y010800D01*
X013402Y010641D02*
X011145Y010641D01*
X011145Y010483D02*
X012377Y010483D01*
X012224Y010324D02*
X011145Y010324D01*
X011145Y010166D02*
X012192Y010166D01*
X012236Y010007D02*
X011167Y010007D01*
X010806Y009690D02*
X008809Y009690D01*
X008818Y009849D02*
X010679Y009849D01*
X010665Y010007D02*
X008731Y010007D01*
X008395Y010166D02*
X010665Y010166D01*
X010665Y010324D02*
X008239Y010324D01*
X007962Y010007D02*
X003563Y010007D01*
X003580Y009990D02*
X003502Y010067D01*
X007902Y010067D01*
X008142Y009824D01*
X008142Y009713D01*
X008193Y009588D01*
X008288Y009493D01*
X008357Y009465D01*
X006389Y009465D01*
X006387Y009467D01*
X006303Y009465D01*
X006218Y009465D01*
X006216Y009463D01*
X006214Y009463D01*
X006155Y009402D01*
X006095Y009342D01*
X006095Y009339D01*
X003600Y006735D01*
X003600Y006750D01*
X003070Y006750D01*
X003070Y006790D01*
X003600Y006790D01*
X003600Y006998D01*
X003314Y007284D01*
X003580Y007550D01*
X003580Y007990D01*
X003300Y008270D01*
X003580Y008550D01*
X003580Y008990D01*
X003300Y009270D01*
X003580Y009550D01*
X003580Y009990D01*
X003580Y009849D02*
X008118Y009849D01*
X008151Y009690D02*
X003580Y009690D01*
X003561Y009532D02*
X008250Y009532D01*
X008710Y009532D02*
X010964Y009532D01*
X010665Y010483D02*
X003512Y010483D01*
X003580Y010641D02*
X010665Y010641D01*
X010665Y010800D02*
X003580Y010800D01*
X003580Y010958D02*
X010665Y010958D01*
X010665Y011117D02*
X004064Y011117D01*
X004222Y011275D02*
X010665Y011275D01*
X010665Y011434D02*
X004381Y011434D01*
X004539Y011592D02*
X010665Y011592D01*
X011145Y011751D02*
X014840Y011751D01*
X014840Y011909D02*
X014112Y011909D01*
X014117Y011913D02*
X014168Y012038D01*
X014168Y012172D01*
X014117Y012297D01*
X014022Y012392D01*
X013897Y012443D01*
X013763Y012443D01*
X013638Y012392D01*
X013592Y012345D01*
X012818Y012345D01*
X012772Y012392D01*
X012647Y012443D01*
X012513Y012443D01*
X012388Y012392D01*
X012293Y012297D01*
X012242Y012172D01*
X012242Y012038D01*
X012293Y011913D01*
X012388Y011818D01*
X012513Y011767D01*
X012647Y011767D01*
X012772Y011818D01*
X012818Y011865D01*
X013592Y011865D01*
X013638Y011818D01*
X013763Y011767D01*
X013897Y011767D01*
X014022Y011818D01*
X014117Y011913D01*
X014168Y012068D02*
X014840Y012068D01*
X014840Y012226D02*
X014146Y012226D01*
X014029Y012385D02*
X014840Y012385D01*
X014840Y012543D02*
X011145Y012543D01*
X011145Y012385D02*
X012381Y012385D01*
X012264Y012226D02*
X011145Y012226D01*
X011145Y012068D02*
X012242Y012068D01*
X012298Y011909D02*
X011145Y011909D01*
X011145Y012702D02*
X014840Y012702D01*
X014840Y012860D02*
X011145Y012860D01*
X012580Y012105D02*
X013830Y012105D01*
X013631Y012385D02*
X012779Y012385D01*
X014205Y011105D02*
X013280Y010180D01*
X012530Y010180D01*
X012683Y010483D02*
X013243Y010483D01*
X017470Y010483D02*
X023690Y010483D01*
X023690Y010641D02*
X017470Y010641D01*
X017470Y010800D02*
X023690Y010800D01*
X023690Y010958D02*
X017470Y010958D01*
X017470Y011117D02*
X023690Y011117D01*
X023690Y011275D02*
X017470Y011275D01*
X017470Y011434D02*
X023690Y011434D01*
X023690Y011592D02*
X022783Y011592D01*
X022743Y011552D02*
X022900Y011710D01*
X022986Y011916D01*
X022986Y012138D01*
X022900Y012344D01*
X022743Y012502D01*
X022537Y012587D01*
X022314Y012587D01*
X022108Y012502D01*
X021951Y012344D01*
X021866Y012138D01*
X021866Y011916D01*
X021951Y011710D01*
X022108Y011552D01*
X022314Y011467D01*
X022537Y011467D01*
X022743Y011552D01*
X022917Y011751D02*
X023690Y011751D01*
X023690Y011909D02*
X022983Y011909D01*
X022986Y012068D02*
X023690Y012068D01*
X023690Y012226D02*
X022949Y012226D01*
X022860Y012385D02*
X023690Y012385D01*
X023690Y012543D02*
X022643Y012543D01*
X022208Y012543D02*
X021418Y012543D01*
X021374Y012587D02*
X020441Y012587D01*
X020348Y012493D01*
X020348Y011561D01*
X020441Y011467D01*
X021374Y011467D01*
X021468Y011561D01*
X021468Y012493D01*
X021374Y012587D01*
X021468Y012385D02*
X021991Y012385D01*
X021902Y012226D02*
X021468Y012226D01*
X021468Y012068D02*
X021866Y012068D01*
X021868Y011909D02*
X021468Y011909D01*
X021468Y011751D02*
X021934Y011751D01*
X022069Y011592D02*
X021468Y011592D01*
X020348Y011592D02*
X017470Y011592D01*
X017470Y011751D02*
X020348Y011751D01*
X020348Y011909D02*
X017470Y011909D01*
X017470Y012068D02*
X020348Y012068D01*
X020348Y012226D02*
X017470Y012226D01*
X017470Y012385D02*
X020348Y012385D01*
X020397Y012543D02*
X017470Y012543D01*
X017470Y012702D02*
X023690Y012702D01*
X023690Y012860D02*
X017470Y012860D01*
X017470Y013019D02*
X023690Y013019D01*
X023690Y013177D02*
X017470Y013177D01*
X017470Y013336D02*
X023690Y013336D01*
X023690Y013494D02*
X017470Y013494D01*
X017470Y013653D02*
X023690Y013653D01*
X023690Y013811D02*
X017470Y013811D01*
X018615Y014914D02*
X018709Y014820D01*
X019641Y014820D01*
X019735Y014914D01*
X019735Y015846D01*
X019641Y015940D01*
X018709Y015940D01*
X018615Y015846D01*
X018615Y014914D01*
X018615Y014921D02*
X017990Y014921D01*
X018139Y015079D02*
X018615Y015079D01*
X018615Y015238D02*
X018204Y015238D01*
X018217Y015396D02*
X018615Y015396D01*
X018615Y015555D02*
X018191Y015555D01*
X018116Y015713D02*
X018615Y015713D01*
X018640Y015872D02*
X017934Y015872D01*
X019710Y015872D02*
X021057Y015872D01*
X021065Y015880D02*
X020907Y015722D01*
X020822Y015516D01*
X020822Y015294D01*
X020907Y015088D01*
X021065Y014930D01*
X021271Y014845D01*
X021493Y014845D01*
X021699Y014930D01*
X021857Y015088D01*
X021942Y015294D01*
X021942Y015516D01*
X021857Y015722D01*
X021699Y015880D01*
X021493Y015965D01*
X021271Y015965D01*
X021065Y015880D01*
X020903Y015713D02*
X019735Y015713D01*
X019735Y015555D02*
X020838Y015555D01*
X020822Y015396D02*
X019735Y015396D01*
X019735Y015238D02*
X020845Y015238D01*
X020916Y015079D02*
X019735Y015079D01*
X019735Y014921D02*
X021088Y014921D01*
X021676Y014921D02*
X022358Y014921D01*
X022340Y014939D02*
X022434Y014845D01*
X023366Y014845D01*
X023460Y014939D01*
X023460Y015871D01*
X023366Y015965D01*
X022434Y015965D01*
X022340Y015871D01*
X022340Y014939D01*
X022340Y015079D02*
X021848Y015079D01*
X021919Y015238D02*
X022340Y015238D01*
X022340Y015396D02*
X021942Y015396D01*
X021926Y015555D02*
X022340Y015555D01*
X022340Y015713D02*
X021861Y015713D01*
X021707Y015872D02*
X022340Y015872D01*
X023460Y015872D02*
X023690Y015872D01*
X023690Y016030D02*
X005816Y016030D01*
X005832Y016189D02*
X023690Y016189D01*
X023690Y016347D02*
X005762Y016347D01*
X005706Y015872D02*
X009941Y015872D01*
X009723Y015713D02*
X003997Y015713D01*
X004155Y015555D02*
X009634Y015555D01*
X009597Y015396D02*
X004276Y015396D01*
X004276Y015238D02*
X009600Y015238D01*
X009665Y015079D02*
X004276Y015079D01*
X004276Y014921D02*
X009800Y014921D01*
X005282Y015872D02*
X003838Y015872D01*
X003561Y015555D02*
X001600Y015555D01*
X001477Y015396D02*
X003720Y015396D01*
X003856Y015238D02*
X003360Y015238D01*
X003278Y015320D02*
X003070Y015320D01*
X003070Y014790D01*
X003600Y014790D01*
X003600Y014998D01*
X003278Y015320D01*
X003070Y015238D02*
X003030Y015238D01*
X003030Y015079D02*
X003070Y015079D01*
X003070Y014921D02*
X003030Y014921D01*
X003070Y014762D02*
X003856Y014762D01*
X003856Y014604D02*
X003600Y014604D01*
X003503Y014445D02*
X003856Y014445D01*
X003856Y014287D02*
X003344Y014287D01*
X003442Y014128D02*
X003856Y014128D01*
X003964Y013970D02*
X003580Y013970D01*
X003580Y013811D02*
X004123Y013811D01*
X003856Y014921D02*
X003600Y014921D01*
X003519Y015079D02*
X003856Y015079D01*
X002740Y015238D02*
X002332Y015238D01*
X002491Y015079D02*
X002581Y015079D01*
X001768Y015238D02*
X001354Y015238D01*
X001291Y015079D02*
X001609Y015079D01*
X001520Y014921D02*
X001291Y014921D01*
X001291Y014762D02*
X001520Y014762D01*
X001520Y014604D02*
X001291Y014604D01*
X001291Y014445D02*
X001625Y014445D01*
X001784Y014287D02*
X001291Y014287D01*
X001291Y014128D02*
X001658Y014128D01*
X001520Y013970D02*
X001291Y013970D01*
X001291Y013811D02*
X001520Y013811D01*
X001520Y013653D02*
X001291Y013653D01*
X001291Y013494D02*
X001576Y013494D01*
X001585Y012485D02*
X001786Y012284D01*
X001500Y011998D01*
X001500Y011790D01*
X002030Y011790D01*
X002030Y011750D01*
X001500Y011750D01*
X001500Y011542D01*
X001592Y011450D01*
X001496Y011450D01*
X001481Y011465D01*
X001307Y011465D01*
X001290Y011447D01*
X001290Y012440D01*
X001320Y012427D01*
X001454Y012427D01*
X001579Y012479D01*
X001585Y012485D01*
X001686Y012385D02*
X001290Y012385D01*
X001290Y012226D02*
X001728Y012226D01*
X001570Y012068D02*
X001290Y012068D01*
X001290Y011909D02*
X001500Y011909D01*
X001290Y011751D02*
X002030Y011751D01*
X001500Y011592D02*
X001290Y011592D01*
X003502Y012068D02*
X004421Y012068D01*
X004262Y011909D02*
X003580Y011909D01*
X003580Y011751D02*
X004104Y011751D01*
X003945Y011592D02*
X003580Y011592D01*
X001583Y009487D02*
X001786Y009284D01*
X001500Y008998D01*
X001500Y008790D01*
X002030Y008790D01*
X002030Y008750D01*
X001500Y008750D01*
X001500Y008542D01*
X001786Y008256D01*
X001520Y007990D01*
X001520Y007550D01*
X001800Y007270D01*
X001520Y006990D01*
X001520Y006550D01*
X001603Y006468D01*
X001472Y006468D01*
X001457Y006483D01*
X001287Y006483D01*
X001289Y009449D01*
X001324Y009435D01*
X001458Y009435D01*
X001583Y009486D01*
X001583Y009487D01*
X001697Y009373D02*
X001289Y009373D01*
X001288Y009215D02*
X001717Y009215D01*
X001558Y009056D02*
X001288Y009056D01*
X001288Y008898D02*
X001500Y008898D01*
X001500Y008739D02*
X001288Y008739D01*
X001288Y008581D02*
X001500Y008581D01*
X001620Y008422D02*
X001288Y008422D01*
X001288Y008264D02*
X001779Y008264D01*
X001635Y008105D02*
X001288Y008105D01*
X001288Y007947D02*
X001520Y007947D01*
X001520Y007788D02*
X001288Y007788D01*
X001288Y007630D02*
X001520Y007630D01*
X001599Y007471D02*
X001288Y007471D01*
X001287Y007313D02*
X001758Y007313D01*
X001684Y007154D02*
X001287Y007154D01*
X001287Y006996D02*
X001526Y006996D01*
X001520Y006837D02*
X001287Y006837D01*
X001287Y006679D02*
X001520Y006679D01*
X001550Y006520D02*
X001287Y006520D01*
X003342Y007313D02*
X004154Y007313D01*
X004305Y007471D02*
X003501Y007471D01*
X003580Y007630D02*
X004457Y007630D01*
X004609Y007788D02*
X003580Y007788D01*
X003580Y007947D02*
X004761Y007947D01*
X004913Y008105D02*
X003465Y008105D01*
X003306Y008264D02*
X005065Y008264D01*
X005216Y008422D02*
X003452Y008422D01*
X003580Y008581D02*
X005368Y008581D01*
X005520Y008739D02*
X003580Y008739D01*
X003580Y008898D02*
X005672Y008898D01*
X005824Y009056D02*
X003514Y009056D01*
X003355Y009215D02*
X005975Y009215D01*
X006126Y009373D02*
X003403Y009373D01*
X003444Y007154D02*
X004002Y007154D01*
X003850Y006996D02*
X003600Y006996D01*
X003600Y006837D02*
X003698Y006837D01*
X008448Y002558D02*
X008608Y002558D01*
X008608Y002399D02*
X008448Y002399D01*
X008448Y002241D02*
X008608Y002241D01*
X008608Y002082D02*
X008448Y002082D01*
X008448Y001924D02*
X008608Y001924D01*
X008608Y001765D02*
X008448Y001765D01*
X009624Y001131D02*
X023690Y001131D01*
X023690Y000973D02*
X009624Y000973D01*
X009624Y000814D02*
X023674Y000814D01*
X023572Y000656D02*
X009624Y000656D01*
X017895Y007630D02*
X018851Y007630D01*
X019290Y009056D02*
X017932Y009056D01*
X017528Y009056D02*
X017470Y009056D01*
X017470Y009215D02*
X019131Y009215D01*
X019130Y009555D02*
X017905Y009555D01*
X017595Y009690D02*
X017470Y009690D01*
X017470Y009532D02*
X017567Y009532D01*
X017614Y009373D02*
X017470Y009373D01*
X017470Y009849D02*
X017730Y009849D01*
X017470Y010007D02*
X023690Y010007D01*
X023690Y009849D02*
X018080Y009849D01*
X017470Y010166D02*
X023690Y010166D01*
X023690Y010324D02*
X017470Y010324D01*
X023442Y014921D02*
X023690Y014921D01*
X023690Y015079D02*
X023460Y015079D01*
X023460Y015238D02*
X023690Y015238D01*
X023690Y015396D02*
X023460Y015396D01*
X023460Y015555D02*
X023690Y015555D01*
X023690Y015713D02*
X023460Y015713D01*
X023690Y016506D02*
X000718Y016506D01*
X000718Y016664D02*
X023686Y016664D01*
X023631Y016823D02*
X000717Y016823D01*
X000782Y016981D02*
X023516Y016981D01*
X001187Y016347D02*
X000718Y016347D01*
X000718Y016189D02*
X001029Y016189D01*
X000870Y016030D02*
X000718Y016030D01*
D15*
X001045Y016649D03*
X002569Y015553D03*
X005494Y016137D03*
X006380Y016150D03*
X008372Y015456D03*
X006146Y014454D03*
X007009Y013744D03*
X008380Y013480D03*
X008355Y012305D03*
X009455Y011705D03*
X008235Y010767D03*
X008480Y009780D03*
X007738Y008585D03*
X007740Y007860D03*
X007087Y007850D03*
X006320Y007249D03*
X007187Y006551D03*
X007633Y006159D03*
X008060Y006551D03*
X008484Y006152D03*
X008888Y006536D03*
X009311Y006137D03*
X009732Y006533D03*
X010167Y006134D03*
X010573Y006533D03*
X010588Y005721D03*
X010145Y005308D03*
X009746Y005721D03*
X009304Y005308D03*
X008902Y005724D03*
X008482Y005311D03*
X008075Y005738D03*
X007640Y005333D03*
X008049Y004905D03*
X007640Y004506D03*
X007212Y004115D03*
X006766Y004506D03*
X006321Y004107D03*
X006316Y003391D03*
X006023Y002805D03*
X006792Y002804D03*
X007620Y002797D03*
X008495Y002797D03*
X009356Y002797D03*
X009772Y002399D03*
X010254Y002799D03*
X010624Y003227D03*
X010602Y004089D03*
X010153Y004488D03*
X009746Y004090D03*
X009311Y004488D03*
X008891Y004093D03*
X008467Y004492D03*
X008064Y004107D03*
X008876Y004890D03*
X009732Y004887D03*
X010587Y004887D03*
X012930Y005355D03*
X015430Y006280D03*
X016937Y006241D03*
X018305Y005980D03*
X019055Y006830D03*
X019055Y007355D03*
X018460Y008190D03*
X017730Y008780D03*
X017905Y009555D03*
X018310Y009960D03*
X017605Y010555D03*
X018305Y011080D03*
X017805Y012605D03*
X016780Y013055D03*
X017230Y014255D03*
X015080Y014230D03*
X014680Y012555D03*
X013830Y012105D03*
X014655Y011605D03*
X014205Y011105D03*
X014655Y010580D03*
X014630Y009580D03*
X012930Y008455D03*
X012405Y008480D03*
X012255Y009255D03*
X012530Y010180D03*
X011730Y011630D03*
X012580Y012105D03*
X012138Y013650D03*
X010905Y014255D03*
X010555Y013680D03*
X005098Y012328D03*
X003950Y012527D03*
X005098Y010854D03*
X004000Y009310D03*
X004071Y008141D03*
X004523Y006705D03*
X005845Y006300D03*
X005248Y005763D03*
X004283Y005030D03*
X003893Y005628D03*
X006306Y004905D03*
X006766Y005333D03*
X007201Y005738D03*
X007198Y004912D03*
X005233Y002804D03*
X004610Y002435D03*
X004602Y001541D03*
X004577Y000733D03*
X001180Y000805D03*
X001370Y003769D03*
X006268Y008575D03*
X008345Y007857D03*
X009010Y007843D03*
X008793Y008285D03*
X010202Y008314D03*
X010667Y007383D03*
X012377Y007495D03*
X014015Y007538D03*
X019880Y005680D03*
X020605Y006605D03*
X021180Y006855D03*
X021355Y007330D03*
X023368Y008024D03*
X023430Y000755D03*
X016260Y000810D03*
X009786Y000796D03*
X009793Y001608D03*
X001391Y009773D03*
X001394Y010773D03*
X001387Y012765D03*
X023355Y016580D03*
D16*
X012255Y009255D02*
X006305Y009255D01*
X003449Y006273D01*
X003893Y005628D02*
X003908Y002652D01*
X003006Y001684D01*
X001948Y001686D01*
X001075Y002464D01*
X001081Y015229D01*
X001601Y015898D01*
X003515Y015898D01*
X004066Y015347D01*
X004066Y014165D01*
X004276Y013955D01*
X005973Y013955D01*
X006146Y014129D01*
X006146Y014454D01*
X008155Y013277D02*
X008380Y013480D01*
X008355Y012305D02*
X007955Y011905D01*
X004555Y011905D01*
X003905Y011255D01*
X001394Y011255D02*
X001394Y010773D01*
X001391Y010262D02*
X001391Y009773D01*
X001387Y012765D02*
X001387Y013270D01*
X000876Y015739D02*
X000876Y002297D01*
X001869Y001304D01*
X003087Y001304D01*
X004290Y002507D01*
X004290Y005023D01*
X004283Y005030D01*
X001370Y006273D02*
X001370Y003769D01*
X008005Y010262D02*
X008480Y009780D01*
X001275Y016137D02*
X000876Y015739D01*
X001275Y016137D02*
X005494Y016137D01*
D17*
X012930Y008455D02*
X012930Y005355D01*
D18*
X008005Y010262D02*
X001391Y010262D01*
X001394Y011255D02*
X003905Y011255D01*
X003448Y006273D02*
X001370Y006273D01*
X003448Y006273D02*
X003449Y006273D01*
D19*
X001387Y013270D02*
X008155Y013270D01*
X008155Y013277D01*
M02*
