%
M48
M72
T01C0.0236
T02C0.0320
T03C0.0400
T04C0.0433
T05C0.0472
T06C0.0787
T07C0.0810
%
T01
X4972Y2993
X7053Y4842
X8597Y5784
X10011Y6799
X12360Y7916
X16594Y7916
X17323Y9801
X11527Y13838
X4606Y13115
X4579Y14665
X4597Y16141
X4271Y5587
X10845Y2993
T02
X10990Y15090
X10490Y15840
X9990Y15090
T03
X2050Y2770
X3050Y2770
X3050Y3770
X2050Y3770
X2050Y4770
X3050Y4770
X3050Y5770
X2050Y5770
X2050Y6770
X3050Y6770
X3050Y7770
X2050Y7770
X2050Y8770
X3050Y8770
X3050Y9770
X2050Y9770
X2050Y10770
X3050Y10770
X3050Y11770
X2050Y11770
X2050Y12770
X3050Y12770
X3050Y13770
X2050Y13770
X2050Y14770
X3050Y14770
T04
X14718Y5837
X18718Y5837
T05
X21505Y7055
X23023Y7055
T06
X20214Y11837
X20214Y14841
T07
X13222Y10837
M30
