G75*
%MOIN*%
%OFA0B0*%
%FSLAX24Y24*%
%IPPOS*%
%LPD*%
%AMOC8*
5,1,8,0,0,1.08239X$1,22.5*
%
%ADD10C,0.0000*%
D10*
X001034Y008166D02*
X023358Y008166D01*
X023399Y008168D01*
X023440Y008173D01*
X023480Y008182D01*
X023519Y008194D01*
X023557Y008210D01*
X023594Y008229D01*
X023629Y008251D01*
X023661Y008276D01*
X023692Y008304D01*
X023720Y008335D01*
X023745Y008367D01*
X023767Y008402D01*
X023786Y008439D01*
X023802Y008477D01*
X023814Y008516D01*
X023823Y008556D01*
X023828Y008597D01*
X023830Y008638D01*
X023830Y024386D01*
X023828Y024424D01*
X023822Y024462D01*
X023813Y024500D01*
X023800Y024536D01*
X023784Y024570D01*
X023764Y024603D01*
X023741Y024634D01*
X023715Y024662D01*
X023687Y024688D01*
X023656Y024711D01*
X023623Y024731D01*
X023589Y024747D01*
X023553Y024760D01*
X023515Y024769D01*
X023477Y024775D01*
X023439Y024777D01*
X000954Y024777D01*
X000954Y024778D02*
X000923Y024776D01*
X000893Y024771D01*
X000864Y024763D01*
X000835Y024751D01*
X000808Y024736D01*
X000783Y024718D01*
X000760Y024698D01*
X000740Y024675D01*
X000722Y024650D01*
X000707Y024623D01*
X000695Y024594D01*
X000687Y024565D01*
X000682Y024535D01*
X000680Y024504D01*
X000680Y008520D01*
X000682Y008483D01*
X000688Y008446D01*
X000697Y008411D01*
X000711Y008376D01*
X000727Y008343D01*
X000748Y008312D01*
X000771Y008283D01*
X000797Y008257D01*
X000826Y008234D01*
X000857Y008213D01*
X000890Y008197D01*
X000925Y008183D01*
X000960Y008174D01*
X000997Y008168D01*
X001034Y008166D01*
M02*
