G75*
%MOIN*%
%OFA0B0*%
%FSLAX24Y24*%
%IPPOS*%
%LPD*%
%AMOC8*
5,1,8,0,0,1.08239X$1,22.5*
%
%ADD10R,0.0160X0.0080*%
%ADD11R,0.0480X0.0080*%
%ADD12R,0.0400X0.0080*%
%ADD13R,0.0240X0.0080*%
%ADD14R,0.0560X0.0080*%
%ADD15R,0.0080X0.0080*%
%ADD16R,0.0320X0.0080*%
%ADD17R,0.0210X0.0070*%
%ADD18R,0.0140X0.0070*%
%ADD19R,0.0280X0.0070*%
%ADD20R,0.0070X0.0070*%
%ADD21R,0.0350X0.0070*%
%ADD22R,0.0420X0.0070*%
%ADD23R,0.0910X0.0070*%
%ADD24R,0.0700X0.0070*%
%ADD25R,0.0840X0.0070*%
%ADD26R,0.0490X0.0070*%
%ADD27R,0.0560X0.0070*%
%ADD28R,0.0980X0.0070*%
%ADD29R,0.0630X0.0070*%
%ADD30R,0.0770X0.0070*%
%ADD31R,0.1190X0.0070*%
%ADD32R,0.1400X0.0070*%
%ADD33R,0.1260X0.0070*%
%ADD34R,0.1050X0.0070*%
%ADD35R,0.1120X0.0070*%
%ADD36R,0.2100X0.0070*%
%ADD37R,0.4830X0.0070*%
%ADD38R,0.3570X0.0070*%
%ADD39R,0.2240X0.0070*%
%ADD40C,0.0060*%
%ADD41C,0.0030*%
%ADD42C,0.0010*%
%ADD43C,0.0020*%
%ADD44C,0.0080*%
%ADD45C,0.0039*%
%ADD46C,0.0050*%
%ADD47C,0.0472*%
%ADD48R,0.0079X0.0079*%
D10*
X012280Y001815D03*
X012280Y001895D03*
X012600Y001815D03*
X012920Y001815D03*
X013000Y001975D03*
X013240Y001975D03*
X013320Y001815D03*
X013880Y001895D03*
X014200Y001895D03*
X014200Y001815D03*
X014200Y002055D03*
X014440Y002055D03*
X014760Y002055D03*
X014760Y001895D03*
X015080Y001895D03*
X015400Y002055D03*
X015960Y002055D03*
X015960Y001895D03*
X015960Y001815D03*
X016200Y001895D03*
X016280Y001815D03*
X016280Y002055D03*
X016600Y002055D03*
X016600Y001895D03*
X016600Y001815D03*
X016840Y001895D03*
X016920Y002055D03*
X017320Y001895D03*
X017480Y002135D03*
X018120Y001895D03*
X018520Y002135D03*
X018840Y002135D03*
X018840Y002055D03*
X018840Y001975D03*
X018840Y001895D03*
X018840Y001815D03*
X019480Y002135D03*
X019800Y001975D03*
X020120Y001895D03*
X020120Y001815D03*
X020120Y002055D03*
X020120Y002135D03*
X020440Y002135D03*
X020440Y002055D03*
X020440Y001895D03*
X020440Y001815D03*
X020840Y001815D03*
X020840Y001895D03*
X020840Y001975D03*
X020840Y002055D03*
X020840Y002135D03*
X021160Y002055D03*
X021160Y001895D03*
X021720Y001895D03*
X021720Y001975D03*
X021720Y002055D03*
X021720Y002135D03*
X022280Y002055D03*
X022280Y001975D03*
X022280Y001895D03*
X022600Y001895D03*
X022600Y002055D03*
X012280Y002135D03*
D11*
X012440Y002215D03*
X012440Y001975D03*
X013160Y001895D03*
X013720Y001815D03*
X014920Y002135D03*
X015480Y002135D03*
X015480Y001815D03*
X016120Y001975D03*
X016120Y002135D03*
X016760Y002135D03*
X016760Y001975D03*
X018280Y001975D03*
X019640Y001895D03*
X019640Y002055D03*
X019640Y002215D03*
X020280Y001975D03*
X021880Y001815D03*
X022440Y001815D03*
X022440Y002135D03*
D12*
X021280Y002135D03*
X021280Y001815D03*
X017360Y002055D03*
X014880Y001975D03*
X014880Y001815D03*
X014320Y001975D03*
X014320Y002135D03*
X013760Y002135D03*
X013760Y001975D03*
D13*
X013600Y002055D03*
X013120Y002135D03*
X012640Y002135D03*
X012560Y001895D03*
X015040Y002055D03*
X016880Y001815D03*
X017200Y002135D03*
X017360Y001975D03*
X017360Y001815D03*
X018160Y001815D03*
X018160Y002055D03*
X018160Y002135D03*
X018480Y002055D03*
D14*
X018320Y002215D03*
X019600Y001815D03*
X012480Y002055D03*
D15*
X015360Y001895D03*
X015600Y002055D03*
X019440Y001975D03*
X019840Y002135D03*
X021360Y002055D03*
X022640Y001975D03*
D16*
X021240Y001975D03*
X015480Y001975D03*
X013160Y002055D03*
D17*
X020921Y001316D03*
X021061Y001106D03*
X021061Y001036D03*
X021621Y001246D03*
X021621Y001316D03*
X021621Y001386D03*
X022321Y001316D03*
X022321Y001106D03*
X022601Y001176D03*
D18*
X022566Y001106D03*
X022636Y001246D03*
X022566Y001316D03*
X022286Y001246D03*
X022286Y001176D03*
X022006Y001036D03*
X021656Y001036D03*
X021656Y001106D03*
X021656Y001176D03*
X021236Y001316D03*
X021236Y001386D03*
X021166Y001246D03*
X020956Y001246D03*
X020886Y001386D03*
X017840Y003170D03*
D19*
X017770Y003240D03*
X017210Y003170D03*
X016720Y003030D03*
X016720Y002960D03*
X017210Y002750D03*
X015880Y002960D03*
X015880Y003030D03*
X015390Y003100D03*
X015390Y003170D03*
X015250Y002750D03*
X014760Y002750D03*
X014760Y002680D03*
X014760Y002820D03*
X014760Y003100D03*
X014760Y003170D03*
X014760Y003240D03*
X013500Y002820D03*
X012240Y003240D03*
X012170Y003100D03*
X012170Y003030D03*
X018960Y003100D03*
X018960Y003170D03*
X019590Y002960D03*
X019660Y003030D03*
X019660Y003100D03*
X020080Y003030D03*
X019520Y002680D03*
X019450Y002610D03*
X020920Y002680D03*
X020920Y002750D03*
X020920Y002820D03*
X020920Y003100D03*
X020920Y003170D03*
X020920Y003240D03*
X021550Y003170D03*
X021550Y003100D03*
X021410Y002750D03*
X022530Y003100D03*
X022426Y001036D03*
D20*
X022041Y001106D03*
X017105Y002820D03*
X014235Y002750D03*
X014235Y002540D03*
X014025Y002890D03*
X014025Y003100D03*
D21*
X013535Y003100D03*
X013535Y002890D03*
X013535Y002750D03*
X012835Y002750D03*
X012835Y002680D03*
X012625Y003240D03*
X012205Y003170D03*
X014725Y002610D03*
X015215Y002820D03*
X015285Y002680D03*
X015355Y002610D03*
X015915Y002890D03*
X015915Y003100D03*
X015355Y003240D03*
X016685Y003100D03*
X016685Y002890D03*
X017805Y002820D03*
X017805Y002750D03*
X018365Y002750D03*
X018365Y002680D03*
X018365Y002610D03*
X018365Y002820D03*
X018365Y003100D03*
X018365Y003170D03*
X018365Y003240D03*
X018925Y003240D03*
X020045Y003100D03*
X020115Y002960D03*
X020255Y002680D03*
X020255Y002610D03*
X020885Y002610D03*
X021375Y002820D03*
X021445Y002680D03*
X021515Y002610D03*
X022145Y002610D03*
X022145Y002680D03*
X022145Y002750D03*
X022145Y003100D03*
X022145Y003170D03*
X022145Y003240D03*
X022145Y003310D03*
X022145Y003380D03*
X022635Y003170D03*
X022705Y003240D03*
X022775Y003310D03*
X022705Y002820D03*
X022705Y002750D03*
X022775Y002680D03*
X021515Y003240D03*
X022461Y001386D03*
X021061Y001176D03*
D22*
X022810Y002610D03*
X022180Y002820D03*
X022810Y003380D03*
X020640Y003800D03*
X019870Y003380D03*
X019870Y003310D03*
X017280Y003240D03*
X016650Y003170D03*
X016650Y002820D03*
X015950Y002820D03*
X015950Y003170D03*
X012870Y002610D03*
X012800Y002820D03*
X012030Y002610D03*
D23*
X013815Y002610D03*
X013815Y002680D03*
X015075Y003030D03*
X015075Y003310D03*
X017525Y003310D03*
X017455Y002680D03*
X018645Y002960D03*
X018645Y003030D03*
X018645Y003310D03*
X019905Y002820D03*
X021235Y003030D03*
X021235Y003310D03*
D24*
X016300Y003380D03*
X016300Y002610D03*
X013710Y002960D03*
X013710Y003030D03*
X012450Y003310D03*
D25*
X013990Y003450D03*
X014340Y003520D03*
X014970Y003380D03*
X015040Y002960D03*
X016300Y002680D03*
X016300Y003310D03*
X017420Y002610D03*
X018610Y003380D03*
X019870Y002890D03*
X021130Y003380D03*
X021200Y002960D03*
X022390Y002890D03*
D26*
X017315Y003100D03*
X012415Y003590D03*
X012135Y002680D03*
D27*
X012170Y002750D03*
X012660Y003030D03*
X012800Y003100D03*
X012450Y003450D03*
X012450Y003520D03*
X019870Y003240D03*
X019870Y003170D03*
D28*
X019870Y002750D03*
X016300Y002750D03*
X016300Y003240D03*
X015600Y003730D03*
X015110Y003660D03*
X012450Y002960D03*
X012450Y002890D03*
D29*
X012205Y002820D03*
X012415Y003380D03*
X017665Y002890D03*
D30*
X017525Y002960D03*
X017455Y003030D03*
X017595Y003380D03*
X018575Y002890D03*
X021165Y002890D03*
X022355Y002960D03*
X022355Y003030D03*
X015005Y002890D03*
D31*
X013115Y003170D03*
D32*
X013570Y003240D03*
X020640Y004150D03*
D33*
X013710Y003310D03*
D34*
X013815Y003380D03*
X014725Y003590D03*
D35*
X016160Y003800D03*
X016790Y003870D03*
D36*
X020640Y003870D03*
D37*
X019485Y003940D03*
D38*
X020185Y004010D03*
D39*
X020640Y004080D03*
D40*
X021168Y010057D02*
X021168Y010484D01*
X021381Y010270D02*
X020954Y010270D01*
X022148Y010294D02*
X022575Y010294D01*
X022672Y013521D02*
X022672Y013948D01*
X022885Y013734D02*
X022458Y013734D01*
X021795Y013733D02*
X021368Y013733D01*
X019217Y013715D02*
X018790Y013715D01*
X019004Y013502D02*
X019004Y013929D01*
X018174Y013701D02*
X017747Y013701D01*
X015433Y013726D02*
X015006Y013726D01*
X015220Y013513D02*
X015220Y013940D01*
X014441Y013770D02*
X014014Y013770D01*
X011575Y013611D02*
X011148Y013611D01*
X011362Y013398D02*
X011362Y013825D01*
X010682Y013622D02*
X010255Y013622D01*
X007127Y014248D02*
X006891Y014248D01*
X006891Y014720D02*
X007127Y014720D01*
X005490Y006791D02*
X005490Y006555D01*
X005018Y006555D02*
X005018Y006791D01*
D41*
X005119Y010264D02*
X004934Y010264D01*
X004934Y010634D01*
X005119Y010634D01*
X005181Y010573D01*
X005181Y010511D01*
X005119Y010449D01*
X004934Y010449D01*
X004813Y010387D02*
X004813Y010326D01*
X004751Y010264D01*
X004628Y010264D01*
X004566Y010326D01*
X004628Y010449D02*
X004751Y010449D01*
X004813Y010387D01*
X004813Y010573D02*
X004751Y010634D01*
X004628Y010634D01*
X004566Y010573D01*
X004566Y010511D01*
X004628Y010449D01*
X005119Y010449D02*
X005181Y010387D01*
X005181Y010326D01*
X005119Y010264D01*
X005303Y010264D02*
X005488Y010264D01*
X005550Y010326D01*
X005550Y010573D01*
X005488Y010634D01*
X005303Y010634D01*
X005303Y010264D01*
X005370Y011751D02*
X005309Y011813D01*
X005309Y012060D01*
X005370Y012121D01*
X005494Y012121D01*
X005556Y012060D01*
X005556Y011936D02*
X005432Y011936D01*
X005556Y011936D02*
X005556Y011813D01*
X005494Y011751D01*
X005370Y011751D01*
X005187Y011813D02*
X005187Y012060D01*
X005125Y012121D01*
X005002Y012121D01*
X004940Y012060D01*
X004940Y011813D01*
X005002Y011751D01*
X005125Y011751D01*
X005187Y011813D01*
X004819Y011751D02*
X004572Y011751D01*
X004572Y012121D01*
X004467Y013269D02*
X004467Y013639D01*
X004652Y013639D01*
X004714Y013578D01*
X004714Y013454D01*
X004652Y013392D01*
X004467Y013392D01*
X004835Y013269D02*
X004959Y013392D01*
X005082Y013269D01*
X005082Y013639D01*
X005204Y013639D02*
X005389Y013639D01*
X005451Y013578D01*
X005451Y013454D01*
X005389Y013392D01*
X005204Y013392D01*
X005204Y013269D02*
X005204Y013639D01*
X005327Y013392D02*
X005451Y013269D01*
X004835Y013269D02*
X004835Y013639D01*
X015994Y011829D02*
X015994Y011644D01*
X016364Y011644D01*
X016364Y011829D01*
X016302Y011890D01*
X016055Y011890D01*
X015994Y011829D01*
X016117Y011522D02*
X015994Y011399D01*
X016117Y011275D01*
X016364Y011275D01*
X016302Y011154D02*
X016364Y011092D01*
X016364Y010969D01*
X016302Y010907D01*
X016302Y010785D02*
X016055Y010785D01*
X016302Y010539D01*
X016364Y010600D01*
X016364Y010724D01*
X016302Y010785D01*
X016302Y010539D02*
X016055Y010539D01*
X015994Y010600D01*
X015994Y010724D01*
X016055Y010785D01*
X016055Y010907D02*
X015994Y010969D01*
X015994Y011092D01*
X016055Y011154D01*
X016117Y011154D01*
X016179Y011092D01*
X016241Y011154D01*
X016302Y011154D01*
X016179Y011092D02*
X016179Y011030D01*
X016179Y011275D02*
X016179Y011522D01*
X016117Y011522D02*
X016364Y011522D01*
X016302Y010417D02*
X016055Y010417D01*
X016302Y010170D01*
X016364Y010232D01*
X016364Y010355D01*
X016302Y010417D01*
X016055Y010417D02*
X015994Y010355D01*
X015994Y010232D01*
X016055Y010170D01*
X016302Y010170D01*
X016364Y010049D02*
X016364Y009802D01*
X016117Y010049D01*
X016055Y010049D01*
X015994Y009987D01*
X015994Y009864D01*
X016055Y009802D01*
X016055Y009681D02*
X016302Y009681D01*
X016364Y009619D01*
X016364Y009495D01*
X016302Y009434D01*
X016055Y009434D01*
X015994Y009495D01*
X015994Y009619D01*
X016055Y009681D01*
X016241Y009557D02*
X016364Y009681D01*
X016364Y009312D02*
X016364Y009065D01*
X015994Y009065D01*
X015994Y008944D02*
X016302Y008944D01*
X016364Y008882D01*
X016364Y008759D01*
X016302Y008697D01*
X015994Y008697D01*
X020508Y008637D02*
X020878Y008390D01*
X020693Y008268D02*
X020693Y008021D01*
X020631Y007900D02*
X020569Y007900D01*
X020508Y007838D01*
X020508Y007715D01*
X020569Y007653D01*
X020569Y007532D02*
X020816Y007532D01*
X020878Y007470D01*
X020878Y007347D01*
X020816Y007285D01*
X020569Y007285D01*
X020508Y007347D01*
X020508Y007470D01*
X020569Y007532D01*
X020755Y007408D02*
X020878Y007532D01*
X020878Y007653D02*
X020631Y007900D01*
X020878Y007900D02*
X020878Y007653D01*
X020878Y007163D02*
X020878Y006917D01*
X020508Y006917D01*
X020508Y006794D02*
X020508Y006671D01*
X020508Y006733D02*
X020878Y006733D01*
X020878Y006794D02*
X020878Y006671D01*
X020508Y008390D02*
X020878Y008637D01*
X020816Y008758D02*
X020569Y008758D01*
X020508Y008820D01*
X020508Y008943D01*
X020569Y009005D01*
X020816Y008758D01*
X020878Y008820D01*
X020878Y008943D01*
X020816Y009005D01*
X020569Y009005D01*
X020569Y009126D02*
X020508Y009188D01*
X020508Y009312D01*
X020569Y009373D01*
X020816Y009126D01*
X020878Y009188D01*
X020878Y009312D01*
X020816Y009373D01*
X020569Y009373D01*
X020569Y009495D02*
X020631Y009495D01*
X020693Y009556D01*
X020693Y009742D01*
X020816Y009742D02*
X020569Y009742D01*
X020508Y009680D01*
X020508Y009556D01*
X020569Y009495D01*
X020816Y009495D02*
X020878Y009556D01*
X020878Y009680D01*
X020816Y009742D01*
X020816Y009126D02*
X020569Y009126D01*
X023210Y011123D02*
X023210Y011246D01*
X023210Y011185D02*
X023580Y011185D01*
X023580Y011246D02*
X023580Y011123D01*
X023580Y011369D02*
X023333Y011369D01*
X023333Y011554D01*
X023395Y011615D01*
X023580Y011615D01*
X023580Y011737D02*
X023580Y011922D01*
X023518Y011984D01*
X023395Y011984D01*
X023333Y011922D01*
X023333Y011737D01*
X023703Y011737D01*
X023518Y012105D02*
X023333Y012105D01*
X023518Y012105D02*
X023580Y012167D01*
X023580Y012352D01*
X023333Y012352D01*
X023333Y012473D02*
X023333Y012597D01*
X023271Y012535D02*
X023518Y012535D01*
X023580Y012597D01*
D42*
X019657Y013085D02*
X019557Y013085D01*
X019607Y013085D02*
X019607Y013235D01*
X019557Y013185D01*
X019510Y013210D02*
X019485Y013235D01*
X019410Y013235D01*
X019410Y013085D01*
X019485Y013085D01*
X019510Y013110D01*
X019510Y013210D01*
X013005Y013560D02*
X012980Y013535D01*
X012930Y013535D01*
X012905Y013560D01*
X013005Y013660D01*
X013005Y013560D01*
X013005Y013660D02*
X012980Y013685D01*
X012930Y013685D01*
X012905Y013660D01*
X012905Y013560D01*
X012857Y013535D02*
X012757Y013535D01*
X012710Y013535D02*
X012660Y013585D01*
X012685Y013585D02*
X012610Y013585D01*
X012610Y013535D02*
X012610Y013685D01*
X012685Y013685D01*
X012710Y013660D01*
X012710Y013610D01*
X012685Y013585D01*
X012757Y013635D02*
X012807Y013685D01*
X012807Y013535D01*
X011807Y012110D02*
X011807Y011960D01*
X011757Y011960D02*
X011857Y011960D01*
X011757Y012060D02*
X011807Y012110D01*
X011710Y012110D02*
X011610Y012110D01*
X011660Y012110D02*
X011660Y011960D01*
X012660Y011735D02*
X012660Y011585D01*
X012660Y011635D02*
X012735Y011635D01*
X012760Y011660D01*
X012760Y011710D01*
X012735Y011735D01*
X012660Y011735D01*
X012710Y011635D02*
X012760Y011585D01*
X012807Y011585D02*
X012907Y011585D01*
X012955Y011585D02*
X013055Y011585D01*
X013005Y011585D02*
X013005Y011735D01*
X012955Y011685D01*
X012857Y011735D02*
X012857Y011585D01*
X012807Y011685D02*
X012857Y011735D01*
X011832Y010160D02*
X011782Y010160D01*
X011757Y010135D01*
X011710Y010160D02*
X011610Y010160D01*
X011660Y010160D02*
X011660Y010010D01*
X011757Y010010D02*
X011857Y010110D01*
X011857Y010135D01*
X011832Y010160D01*
X011857Y010010D02*
X011757Y010010D01*
X012635Y009685D02*
X012635Y009535D01*
X012635Y009585D02*
X012710Y009585D01*
X012735Y009610D01*
X012735Y009660D01*
X012710Y009685D01*
X012635Y009685D01*
X012685Y009585D02*
X012735Y009535D01*
X012782Y009535D02*
X012882Y009535D01*
X012930Y009535D02*
X013030Y009635D01*
X013030Y009660D01*
X013005Y009685D01*
X012955Y009685D01*
X012930Y009660D01*
X012832Y009685D02*
X012832Y009535D01*
X012930Y009535D02*
X013030Y009535D01*
X012832Y009685D02*
X012782Y009635D01*
X011807Y008060D02*
X011832Y008035D01*
X011832Y008010D01*
X011807Y007985D01*
X011832Y007960D01*
X011832Y007935D01*
X011807Y007910D01*
X011757Y007910D01*
X011732Y007935D01*
X011782Y007985D02*
X011807Y007985D01*
X011807Y008060D02*
X011757Y008060D01*
X011732Y008035D01*
X011685Y008060D02*
X011585Y008060D01*
X011635Y008060D02*
X011635Y007910D01*
X012645Y006675D02*
X012720Y006675D01*
X012745Y006650D01*
X012745Y006600D01*
X012720Y006575D01*
X012645Y006575D01*
X012645Y006525D02*
X012645Y006675D01*
X012695Y006575D02*
X012745Y006525D01*
X012792Y006525D02*
X012892Y006525D01*
X012842Y006525D02*
X012842Y006675D01*
X012792Y006625D01*
X012940Y006650D02*
X012965Y006675D01*
X013015Y006675D01*
X013040Y006650D01*
X013040Y006625D01*
X013015Y006600D01*
X013040Y006575D01*
X013040Y006550D01*
X013015Y006525D01*
X012965Y006525D01*
X012940Y006550D01*
X012990Y006600D02*
X013015Y006600D01*
X011807Y006210D02*
X011807Y006060D01*
X011832Y006135D02*
X011732Y006135D01*
X011807Y006210D01*
X011685Y006210D02*
X011585Y006210D01*
X011635Y006210D02*
X011635Y006060D01*
X008982Y010310D02*
X009007Y010335D01*
X009007Y010435D01*
X008982Y010460D01*
X008932Y010460D01*
X008907Y010435D01*
X008907Y010410D01*
X008932Y010385D01*
X009007Y010385D01*
X008982Y010310D02*
X008932Y010310D01*
X008907Y010335D01*
X008860Y010310D02*
X008810Y010360D01*
X008835Y010360D02*
X008760Y010360D01*
X008760Y010310D02*
X008760Y010460D01*
X008835Y010460D01*
X008860Y010435D01*
X008860Y010385D01*
X008835Y010360D01*
X008860Y011510D02*
X008810Y011560D01*
X008835Y011560D02*
X008760Y011560D01*
X008760Y011510D02*
X008760Y011660D01*
X008835Y011660D01*
X008860Y011635D01*
X008860Y011585D01*
X008835Y011560D01*
X008907Y011560D02*
X008932Y011585D01*
X008982Y011585D01*
X009007Y011560D01*
X009007Y011535D01*
X008982Y011510D01*
X008932Y011510D01*
X008907Y011535D01*
X008907Y011560D01*
X008932Y011585D02*
X008907Y011610D01*
X008907Y011635D01*
X008932Y011660D01*
X008982Y011660D01*
X009007Y011635D01*
X009007Y011610D01*
X008982Y011585D01*
X008932Y012735D02*
X008932Y012760D01*
X009032Y012860D01*
X009032Y012885D01*
X008932Y012885D01*
X008885Y012860D02*
X008885Y012810D01*
X008860Y012785D01*
X008785Y012785D01*
X008785Y012735D02*
X008785Y012885D01*
X008860Y012885D01*
X008885Y012860D01*
X008835Y012785D02*
X008885Y012735D01*
X008910Y013935D02*
X008860Y013985D01*
X008885Y013985D02*
X008810Y013985D01*
X008810Y013935D02*
X008810Y014085D01*
X008885Y014085D01*
X008910Y014060D01*
X008910Y014010D01*
X008885Y013985D01*
X008957Y013960D02*
X008982Y013935D01*
X009032Y013935D01*
X009057Y013960D01*
X009057Y013985D01*
X009032Y014010D01*
X008957Y014010D01*
X008957Y013960D01*
X008957Y014010D02*
X009007Y014060D01*
X009057Y014085D01*
X006731Y014797D02*
X006631Y014797D01*
X006681Y014797D02*
X006681Y014947D01*
X006631Y014897D01*
X006583Y014922D02*
X006558Y014947D01*
X006508Y014947D01*
X006483Y014922D01*
X006483Y014822D01*
X006508Y014797D01*
X006558Y014797D01*
X006583Y014822D01*
X006557Y013435D02*
X006607Y013435D01*
X006632Y013410D01*
X006632Y013385D01*
X006607Y013360D01*
X006632Y013335D01*
X006632Y013310D01*
X006607Y013285D01*
X006557Y013285D01*
X006532Y013310D01*
X006485Y013285D02*
X006435Y013335D01*
X006460Y013335D02*
X006385Y013335D01*
X006385Y013285D02*
X006385Y013435D01*
X006460Y013435D01*
X006485Y013410D01*
X006485Y013360D01*
X006460Y013335D01*
X006532Y013410D02*
X006557Y013435D01*
X006582Y013360D02*
X006607Y013360D01*
X006657Y011960D02*
X006582Y011885D01*
X006682Y011885D01*
X006657Y011810D02*
X006657Y011960D01*
X006535Y011935D02*
X006535Y011885D01*
X006510Y011860D01*
X006435Y011860D01*
X006435Y011810D02*
X006435Y011960D01*
X006510Y011960D01*
X006535Y011935D01*
X006485Y011860D02*
X006535Y011810D01*
X006510Y010460D02*
X006535Y010435D01*
X006535Y010385D01*
X006510Y010360D01*
X006435Y010360D01*
X006435Y010310D02*
X006435Y010460D01*
X006510Y010460D01*
X006582Y010460D02*
X006582Y010385D01*
X006632Y010410D01*
X006657Y010410D01*
X006682Y010385D01*
X006682Y010335D01*
X006657Y010310D01*
X006607Y010310D01*
X006582Y010335D01*
X006535Y010310D02*
X006485Y010360D01*
X006582Y010460D02*
X006682Y010460D01*
X004941Y006392D02*
X004941Y006292D01*
X004841Y006392D01*
X004816Y006392D01*
X004791Y006367D01*
X004791Y006317D01*
X004816Y006292D01*
X004816Y006245D02*
X004791Y006220D01*
X004791Y006170D01*
X004816Y006145D01*
X004916Y006145D01*
X004941Y006170D01*
X004941Y006220D01*
X004916Y006245D01*
X004812Y014875D02*
X004712Y014875D01*
X004812Y014975D01*
X004812Y015000D01*
X004787Y015025D01*
X004737Y015025D01*
X004712Y015000D01*
X004665Y015000D02*
X004665Y014950D01*
X004640Y014925D01*
X004565Y014925D01*
X004565Y014875D02*
X004565Y015025D01*
X004640Y015025D01*
X004665Y015000D01*
X004615Y014925D02*
X004665Y014875D01*
X004675Y015865D02*
X004625Y015915D01*
X004650Y015915D02*
X004575Y015915D01*
X004575Y015865D02*
X004575Y016015D01*
X004650Y016015D01*
X004675Y015990D01*
X004675Y015940D01*
X004650Y015915D01*
X004722Y015865D02*
X004822Y015865D01*
X004772Y015865D02*
X004772Y016015D01*
X004722Y015965D01*
D43*
X006611Y016152D02*
X006758Y016152D01*
X006684Y016152D02*
X006684Y015931D01*
X006832Y015931D02*
X006832Y016152D01*
X006979Y016152D01*
X007053Y016152D02*
X007126Y016078D01*
X007200Y016152D01*
X007200Y015931D01*
X007274Y015931D02*
X007274Y016152D01*
X007384Y016152D01*
X007421Y016115D01*
X007421Y016042D01*
X007384Y016005D01*
X007274Y016005D01*
X007053Y015931D02*
X007053Y016152D01*
X006905Y016042D02*
X006832Y016042D01*
X006832Y015931D02*
X006979Y015931D01*
X009200Y015967D02*
X009200Y015820D01*
X009200Y015893D02*
X009420Y015893D01*
X009383Y015746D02*
X009200Y015746D01*
X009200Y015599D02*
X009383Y015599D01*
X009420Y015636D01*
X009420Y015709D01*
X009383Y015746D01*
X009310Y015525D02*
X009237Y015525D01*
X009200Y015488D01*
X009200Y015378D01*
X009420Y015378D01*
X009347Y015378D02*
X009347Y015488D01*
X009310Y015525D01*
X009200Y015304D02*
X009200Y015157D01*
X009200Y015230D02*
X009420Y015230D01*
X009383Y015083D02*
X009200Y015083D01*
X009200Y014936D02*
X009383Y014936D01*
X009420Y014973D01*
X009420Y015046D01*
X009383Y015083D01*
X009383Y014862D02*
X009237Y014862D01*
X009200Y014825D01*
X009200Y014752D01*
X009237Y014715D01*
X009383Y014715D01*
X009420Y014752D01*
X009420Y014825D01*
X009383Y014862D01*
X009420Y016262D02*
X009420Y016409D01*
X009420Y016335D02*
X009200Y016335D01*
X009273Y016262D01*
X012900Y016299D02*
X012937Y016262D01*
X012900Y016299D02*
X012900Y016372D01*
X012937Y016409D01*
X012973Y016409D01*
X013120Y016262D01*
X013120Y016409D01*
X012900Y015967D02*
X012900Y015820D01*
X012900Y015893D02*
X013120Y015893D01*
X013083Y015746D02*
X012900Y015746D01*
X012900Y015599D02*
X013083Y015599D01*
X013120Y015636D01*
X013120Y015709D01*
X013083Y015746D01*
X013010Y015525D02*
X013047Y015488D01*
X013047Y015378D01*
X013120Y015378D02*
X012900Y015378D01*
X012900Y015488D01*
X012937Y015525D01*
X013010Y015525D01*
X012900Y015304D02*
X012900Y015157D01*
X012900Y015230D02*
X013120Y015230D01*
X013083Y015083D02*
X012900Y015083D01*
X012900Y014936D02*
X013083Y014936D01*
X013120Y014973D01*
X013120Y015046D01*
X013083Y015083D01*
X013083Y014862D02*
X012937Y014862D01*
X012900Y014825D01*
X012900Y014752D01*
X012937Y014715D01*
X013083Y014715D01*
X013120Y014752D01*
X013120Y014825D01*
X013083Y014862D01*
X016675Y014850D02*
X016712Y014887D01*
X016858Y014887D01*
X016895Y014850D01*
X016895Y014777D01*
X016858Y014740D01*
X016712Y014740D01*
X016675Y014777D01*
X016675Y014850D01*
X016675Y014961D02*
X016858Y014961D01*
X016895Y014998D01*
X016895Y015071D01*
X016858Y015108D01*
X016675Y015108D01*
X016675Y015182D02*
X016675Y015329D01*
X016675Y015255D02*
X016895Y015255D01*
X016895Y015403D02*
X016675Y015403D01*
X016675Y015513D01*
X016712Y015550D01*
X016785Y015550D01*
X016822Y015513D01*
X016822Y015403D01*
X016858Y015624D02*
X016675Y015624D01*
X016675Y015771D02*
X016858Y015771D01*
X016895Y015734D01*
X016895Y015661D01*
X016858Y015624D01*
X016675Y015845D02*
X016675Y015992D01*
X016675Y015918D02*
X016895Y015918D01*
X016858Y016287D02*
X016895Y016324D01*
X016895Y016397D01*
X016858Y016434D01*
X016822Y016434D01*
X016785Y016397D01*
X016785Y016360D01*
X016785Y016397D02*
X016748Y016434D01*
X016712Y016434D01*
X016675Y016397D01*
X016675Y016324D01*
X016712Y016287D01*
X020400Y016422D02*
X020510Y016312D01*
X020510Y016459D01*
X020620Y016422D02*
X020400Y016422D01*
X020400Y016017D02*
X020400Y015870D01*
X020400Y015943D02*
X020620Y015943D01*
X020583Y015796D02*
X020400Y015796D01*
X020400Y015649D02*
X020583Y015649D01*
X020620Y015686D01*
X020620Y015759D01*
X020583Y015796D01*
X020510Y015575D02*
X020437Y015575D01*
X020400Y015538D01*
X020400Y015428D01*
X020620Y015428D01*
X020547Y015428D02*
X020547Y015538D01*
X020510Y015575D01*
X020400Y015354D02*
X020400Y015207D01*
X020400Y015280D02*
X020620Y015280D01*
X020583Y015133D02*
X020400Y015133D01*
X020400Y014986D02*
X020583Y014986D01*
X020620Y015023D01*
X020620Y015096D01*
X020583Y015133D01*
X020583Y014912D02*
X020437Y014912D01*
X020400Y014875D01*
X020400Y014802D01*
X020437Y014765D01*
X020583Y014765D01*
X020620Y014802D01*
X020620Y014875D01*
X020583Y014912D01*
D44*
X000778Y016746D02*
X000778Y000794D01*
X000818Y000794D02*
X004322Y000794D01*
X004322Y007904D01*
X003731Y007904D01*
X003731Y009636D01*
X004322Y009636D01*
X004322Y007904D01*
X004322Y009636D02*
X004322Y016746D01*
X000778Y016746D01*
X009538Y016772D02*
X009538Y016457D01*
X012294Y016457D01*
X012294Y014016D01*
X009538Y014016D01*
X009538Y016457D01*
X009538Y016772D02*
X012294Y016772D01*
X012294Y016457D01*
X013263Y016507D02*
X016019Y016507D01*
X016019Y014066D01*
X013263Y014066D01*
X013263Y016507D01*
X013263Y016822D01*
X016019Y016822D01*
X016019Y016507D01*
X017038Y016482D02*
X019794Y016482D01*
X019794Y014041D01*
X017038Y014041D01*
X017038Y016482D01*
X017038Y016797D01*
X019794Y016797D01*
X019794Y016482D01*
X020763Y016507D02*
X023519Y016507D01*
X023519Y014066D01*
X020763Y014066D01*
X020763Y016507D01*
X020763Y016822D01*
X023519Y016822D01*
X023519Y016507D01*
X023045Y013366D02*
X020289Y013366D01*
X020289Y010925D01*
X023045Y010925D01*
X023045Y010610D01*
X020289Y010610D01*
X020289Y010925D01*
X023045Y010925D02*
X023045Y013366D01*
X012281Y012781D02*
X012281Y012466D01*
X012281Y012781D02*
X012045Y012781D01*
X011415Y012781D02*
X011179Y012781D01*
X011179Y012466D01*
X011179Y010831D02*
X011179Y010516D01*
X011179Y010831D02*
X011415Y010831D01*
X012045Y010831D02*
X012281Y010831D01*
X012281Y010516D01*
X012256Y008731D02*
X012020Y008731D01*
X012256Y008731D02*
X012256Y008416D01*
X011390Y008731D02*
X011154Y008731D01*
X011154Y008416D01*
X011154Y006881D02*
X011154Y006566D01*
X011154Y006881D02*
X011390Y006881D01*
X012020Y006881D02*
X012256Y006881D01*
X012256Y006566D01*
X003643Y003020D02*
X003643Y002520D01*
D45*
X006514Y003422D02*
X006573Y003422D01*
X006514Y003422D02*
X006514Y007240D01*
X006573Y007240D01*
X010392Y007240D02*
X010490Y007240D01*
X010490Y003422D01*
X010392Y003422D01*
D46*
X009596Y006280D02*
X009416Y006460D01*
X009301Y006415D02*
X009256Y006460D01*
X009166Y006460D01*
X009121Y006415D01*
X009121Y006325D01*
X009166Y006280D01*
X009256Y006280D01*
X009301Y006325D01*
X009301Y006415D01*
X009416Y006280D02*
X009596Y006460D01*
X009015Y006280D02*
X008925Y006280D01*
X008970Y006280D02*
X008970Y006550D01*
X008925Y006550D01*
X008810Y006415D02*
X008765Y006460D01*
X008630Y006460D01*
X008630Y006550D02*
X008630Y006280D01*
X008765Y006280D01*
X008810Y006325D01*
X008810Y006415D01*
X008516Y006460D02*
X008516Y006280D01*
X008380Y006280D01*
X008335Y006325D01*
X008335Y006460D01*
X011283Y006703D02*
X011285Y006714D01*
X011290Y006724D01*
X011299Y006731D01*
X011309Y006735D01*
X011321Y006735D01*
X011331Y006731D01*
X011340Y006724D01*
X011345Y006714D01*
X011347Y006703D01*
X011345Y006692D01*
X011340Y006682D01*
X011331Y006675D01*
X011321Y006671D01*
X011309Y006671D01*
X011299Y006675D01*
X011290Y006682D01*
X011285Y006692D01*
X011283Y006703D01*
X011283Y008553D02*
X011285Y008564D01*
X011290Y008574D01*
X011299Y008581D01*
X011309Y008585D01*
X011321Y008585D01*
X011331Y008581D01*
X011340Y008574D01*
X011345Y008564D01*
X011347Y008553D01*
X011345Y008542D01*
X011340Y008532D01*
X011331Y008525D01*
X011321Y008521D01*
X011309Y008521D01*
X011299Y008525D01*
X011290Y008532D01*
X011285Y008542D01*
X011283Y008553D01*
X011308Y010653D02*
X011310Y010664D01*
X011315Y010674D01*
X011324Y010681D01*
X011334Y010685D01*
X011346Y010685D01*
X011356Y010681D01*
X011365Y010674D01*
X011370Y010664D01*
X011372Y010653D01*
X011370Y010642D01*
X011365Y010632D01*
X011356Y010625D01*
X011346Y010621D01*
X011334Y010621D01*
X011324Y010625D01*
X011315Y010632D01*
X011310Y010642D01*
X011308Y010653D01*
X011308Y012603D02*
X011310Y012614D01*
X011315Y012624D01*
X011324Y012631D01*
X011334Y012635D01*
X011346Y012635D01*
X011356Y012631D01*
X011365Y012624D01*
X011370Y012614D01*
X011372Y012603D01*
X011370Y012592D01*
X011365Y012582D01*
X011356Y012575D01*
X011346Y012571D01*
X011334Y012571D01*
X011324Y012575D01*
X011315Y012582D01*
X011310Y012592D01*
X011308Y012603D01*
X015230Y013355D02*
X015980Y013355D01*
X015982Y013325D01*
X015987Y013295D01*
X015996Y013266D01*
X016009Y013239D01*
X016024Y013213D01*
X016043Y013189D01*
X016064Y013168D01*
X016088Y013149D01*
X016114Y013134D01*
X016141Y013121D01*
X016170Y013112D01*
X016200Y013107D01*
X016230Y013105D01*
X016260Y013107D01*
X016290Y013112D01*
X016319Y013121D01*
X016346Y013134D01*
X016372Y013149D01*
X016396Y013168D01*
X016417Y013189D01*
X016436Y013213D01*
X016451Y013239D01*
X016464Y013266D01*
X016473Y013295D01*
X016478Y013325D01*
X016480Y013355D01*
X017230Y013355D01*
X017230Y005855D01*
X015230Y005855D01*
X015230Y013355D01*
X020380Y009855D02*
X020380Y006355D01*
X020880Y006355D01*
X020907Y006380D01*
X020937Y006402D01*
X020969Y006420D01*
X021003Y006435D01*
X021038Y006447D01*
X021075Y006455D01*
X021111Y006459D01*
X021149Y006459D01*
X021185Y006455D01*
X021222Y006447D01*
X021257Y006435D01*
X021291Y006420D01*
X021323Y006402D01*
X021353Y006380D01*
X021380Y006355D01*
X021880Y006355D01*
X021880Y009855D01*
X020380Y009855D01*
X007337Y015230D02*
X007337Y015624D01*
X006667Y015624D01*
X006667Y015230D01*
X007337Y015230D01*
X006751Y015336D02*
X006753Y015345D01*
X006758Y015352D01*
X006766Y015357D01*
X006775Y015358D01*
X006784Y015355D01*
X006791Y015349D01*
X006795Y015341D01*
X006795Y015331D01*
X006791Y015323D01*
X006784Y015317D01*
X006775Y015314D01*
X006766Y015315D01*
X006758Y015320D01*
X006753Y015327D01*
X006751Y015336D01*
D47*
X010018Y006374D03*
D48*
X005197Y009878D03*
X005197Y011356D03*
X005191Y012856D03*
M02*
