G75*
%MOIN*%
%OFA0B0*%
%FSLAX24Y24*%
%IPPOS*%
%LPD*%
%AMOC8*
5,1,8,0,0,1.08239X$1,22.5*
%
%ADD10OC8,0.0740*%
%ADD11OC8,0.0520*%
%ADD12C,0.1181*%
%ADD13C,0.1210*%
%ADD14C,0.0650*%
%ADD15R,0.0800X0.0800*%
%ADD16C,0.0800*%
%ADD17C,0.0160*%
%ADD18C,0.0396*%
D10*
X002060Y010576D03*
X003060Y010576D03*
X003060Y011576D03*
X002060Y011576D03*
X002060Y012576D03*
X003060Y012576D03*
X003060Y013576D03*
X002060Y013576D03*
X002060Y014576D03*
X003060Y014576D03*
X003060Y015576D03*
X002060Y015576D03*
X002060Y016576D03*
X003060Y016576D03*
X003060Y017576D03*
X002060Y017576D03*
X002060Y018576D03*
X003060Y018576D03*
X003060Y019576D03*
X002060Y019576D03*
X002060Y020576D03*
X003060Y020576D03*
X003060Y021576D03*
X002060Y021576D03*
X002060Y022576D03*
X003060Y022576D03*
D11*
X010490Y015576D03*
X010990Y016326D03*
X011490Y015576D03*
D12*
X020214Y019573D03*
X020214Y022577D03*
D13*
X013222Y018573D03*
D14*
X014718Y013573D03*
X018718Y013573D03*
D15*
X021505Y014791D03*
D16*
X023023Y014791D03*
D17*
X001160Y008646D02*
X001160Y024297D01*
X005092Y024297D01*
X005126Y024214D01*
X005190Y024150D01*
X005190Y023308D01*
X005126Y023244D01*
X005072Y023113D01*
X005072Y022970D01*
X005126Y022839D01*
X005227Y022738D01*
X005359Y022683D01*
X005501Y022683D01*
X005633Y022738D01*
X005734Y022839D01*
X005788Y022970D01*
X005788Y023113D01*
X005734Y023244D01*
X005670Y023308D01*
X005670Y024150D01*
X005734Y024214D01*
X005768Y024297D01*
X023350Y024297D01*
X023350Y024291D01*
X023350Y015256D01*
X023340Y015266D01*
X023134Y015351D01*
X022912Y015351D01*
X022706Y015266D01*
X022548Y015109D01*
X022463Y014903D01*
X022463Y014680D01*
X022548Y014474D01*
X022706Y014317D01*
X022912Y014231D01*
X023134Y014231D01*
X023340Y014317D01*
X023350Y014327D01*
X023350Y008646D01*
X001160Y008646D01*
X001160Y008709D02*
X023350Y008709D01*
X023350Y008867D02*
X001160Y008867D01*
X001160Y009026D02*
X023350Y009026D01*
X023350Y009184D02*
X001160Y009184D01*
X001160Y009343D02*
X023350Y009343D01*
X023350Y009501D02*
X003729Y009501D01*
X003758Y009530D02*
X006758Y012530D01*
X006795Y012619D01*
X006795Y018150D01*
X006859Y018214D01*
X006913Y018345D01*
X006913Y018488D01*
X006859Y018619D01*
X006758Y018720D01*
X006626Y018775D01*
X006484Y018775D01*
X006352Y018720D01*
X006251Y018619D01*
X006197Y018488D01*
X006197Y018345D01*
X006251Y018214D01*
X006315Y018150D01*
X006315Y012766D01*
X003456Y009906D01*
X001670Y009906D01*
X001670Y010189D01*
X001832Y010026D01*
X002040Y010026D01*
X002040Y010556D01*
X002080Y010556D01*
X002080Y010026D01*
X002288Y010026D01*
X002574Y010313D01*
X002840Y010046D01*
X003280Y010046D01*
X003590Y010357D01*
X003590Y010796D01*
X003310Y011076D01*
X003590Y011357D01*
X003590Y011796D01*
X003310Y012076D01*
X003590Y012357D01*
X003590Y012796D01*
X003324Y013062D01*
X003610Y013349D01*
X003610Y013556D01*
X003080Y013556D01*
X003080Y013596D01*
X003610Y013596D01*
X003610Y013804D01*
X003324Y014091D01*
X003590Y014357D01*
X003590Y014796D01*
X003310Y015076D01*
X003590Y015357D01*
X003590Y015796D01*
X003324Y016062D01*
X003610Y016349D01*
X003610Y016556D01*
X003080Y016556D01*
X003080Y016596D01*
X003610Y016596D01*
X003610Y016804D01*
X003324Y017091D01*
X003590Y017357D01*
X003590Y017796D01*
X003310Y018076D01*
X003590Y018357D01*
X003590Y018796D01*
X003310Y019076D01*
X003590Y019357D01*
X003590Y019796D01*
X003324Y020062D01*
X003610Y020349D01*
X003610Y020556D01*
X003080Y020556D01*
X003080Y020596D01*
X003610Y020596D01*
X003610Y020804D01*
X003324Y021091D01*
X003570Y021336D01*
X004421Y021336D01*
X007352Y018405D01*
X007419Y018338D01*
X007507Y018301D01*
X011667Y018301D01*
X014295Y013820D01*
X014233Y013670D01*
X014233Y013477D01*
X014307Y013298D01*
X014443Y013162D01*
X014621Y013088D01*
X014814Y013088D01*
X014992Y013162D01*
X015129Y013298D01*
X015202Y013477D01*
X015202Y013670D01*
X015129Y013848D01*
X014992Y013984D01*
X014814Y014058D01*
X014712Y014058D01*
X012020Y018649D01*
X012008Y018677D01*
X011996Y018689D01*
X011988Y018704D01*
X011963Y018723D01*
X011941Y018745D01*
X011925Y018751D01*
X011912Y018762D01*
X011882Y018769D01*
X011853Y018781D01*
X011836Y018781D01*
X011819Y018786D01*
X011788Y018781D01*
X007654Y018781D01*
X004656Y021780D01*
X004568Y021816D01*
X003570Y021816D01*
X003310Y022076D01*
X003590Y022357D01*
X003590Y022796D01*
X003280Y023106D01*
X002840Y023106D01*
X002560Y022826D01*
X002280Y023106D01*
X001840Y023106D01*
X001530Y022796D01*
X001530Y022357D01*
X001810Y022076D01*
X001530Y021796D01*
X001530Y021357D01*
X001810Y021076D01*
X001530Y020796D01*
X001530Y020357D01*
X001810Y020076D01*
X001530Y019796D01*
X001530Y019357D01*
X001796Y019091D01*
X001510Y018804D01*
X001510Y018596D01*
X002040Y018596D01*
X002040Y018556D01*
X001510Y018556D01*
X001510Y018349D01*
X001796Y018062D01*
X001530Y017796D01*
X001530Y017357D01*
X001810Y017076D01*
X001530Y016796D01*
X001530Y016357D01*
X001810Y016076D01*
X001530Y015796D01*
X001530Y015386D01*
X001227Y015082D01*
X001190Y014994D01*
X001190Y009619D01*
X001227Y009530D01*
X001294Y009463D01*
X001382Y009426D01*
X003603Y009426D01*
X003691Y009463D01*
X003758Y009530D01*
X003888Y009660D02*
X023350Y009660D01*
X023350Y009818D02*
X004046Y009818D01*
X004205Y009977D02*
X023350Y009977D01*
X023350Y010135D02*
X004363Y010135D01*
X004522Y010294D02*
X023350Y010294D01*
X023350Y010452D02*
X004680Y010452D01*
X004839Y010611D02*
X023350Y010611D01*
X023350Y010769D02*
X004997Y010769D01*
X005156Y010928D02*
X023350Y010928D01*
X023350Y011086D02*
X005314Y011086D01*
X005473Y011245D02*
X023350Y011245D01*
X023350Y011403D02*
X005631Y011403D01*
X005790Y011562D02*
X023350Y011562D01*
X023350Y011720D02*
X005948Y011720D01*
X006107Y011879D02*
X023350Y011879D01*
X023350Y012037D02*
X006265Y012037D01*
X006424Y012196D02*
X023350Y012196D01*
X023350Y012354D02*
X006582Y012354D01*
X006741Y012513D02*
X023350Y012513D01*
X023350Y012671D02*
X006795Y012671D01*
X006795Y012830D02*
X023350Y012830D01*
X023350Y012988D02*
X006795Y012988D01*
X006795Y013147D02*
X014480Y013147D01*
X014304Y013305D02*
X006795Y013305D01*
X006795Y013464D02*
X014238Y013464D01*
X014233Y013622D02*
X006795Y013622D01*
X006795Y013781D02*
X014279Y013781D01*
X014225Y013939D02*
X006795Y013939D01*
X006795Y014098D02*
X014132Y014098D01*
X014039Y014256D02*
X006795Y014256D01*
X006795Y014415D02*
X013946Y014415D01*
X013853Y014573D02*
X006795Y014573D01*
X006795Y014732D02*
X013760Y014732D01*
X013667Y014890D02*
X006795Y014890D01*
X006795Y015049D02*
X013574Y015049D01*
X013481Y015207D02*
X011715Y015207D01*
X011664Y015156D02*
X011910Y015402D01*
X011910Y015750D01*
X011664Y015996D01*
X011316Y015996D01*
X011070Y015750D01*
X011070Y015402D01*
X011316Y015156D01*
X011664Y015156D01*
X011873Y015366D02*
X013388Y015366D01*
X013295Y015524D02*
X011910Y015524D01*
X011910Y015683D02*
X013203Y015683D01*
X013110Y015841D02*
X011819Y015841D01*
X011410Y016152D02*
X011164Y015906D01*
X010816Y015906D01*
X010570Y016152D01*
X010570Y016500D01*
X010816Y016746D01*
X011164Y016746D01*
X011410Y016500D01*
X011410Y016152D01*
X011410Y016158D02*
X012924Y016158D01*
X013017Y016000D02*
X011257Y016000D01*
X011161Y015841D02*
X010847Y015841D01*
X010930Y015759D02*
X010672Y016016D01*
X010490Y016016D01*
X010308Y016016D01*
X010050Y015759D01*
X010050Y015576D01*
X010050Y015394D01*
X010308Y015136D01*
X010490Y015136D01*
X010672Y015136D01*
X010930Y015394D01*
X010930Y015576D01*
X010490Y015576D01*
X010490Y015136D01*
X010490Y015576D01*
X010490Y015576D01*
X010490Y015576D01*
X010050Y015576D01*
X010490Y015576D01*
X010490Y015576D01*
X010930Y015576D01*
X010930Y015759D01*
X010930Y015683D02*
X011070Y015683D01*
X011070Y015524D02*
X010930Y015524D01*
X010902Y015366D02*
X011107Y015366D01*
X011265Y015207D02*
X010743Y015207D01*
X010490Y015207D02*
X010490Y015207D01*
X010490Y015366D02*
X010490Y015366D01*
X010490Y015524D02*
X010490Y015524D01*
X010490Y015576D02*
X010490Y016016D01*
X010490Y015576D01*
X010490Y015576D01*
X010490Y015683D02*
X010490Y015683D01*
X010490Y015841D02*
X010490Y015841D01*
X010490Y016000D02*
X010490Y016000D01*
X010570Y016158D02*
X006795Y016158D01*
X006795Y016000D02*
X010291Y016000D01*
X010133Y015841D02*
X006795Y015841D01*
X006795Y015683D02*
X010050Y015683D01*
X010050Y015524D02*
X006795Y015524D01*
X006795Y015366D02*
X010078Y015366D01*
X010237Y015207D02*
X006795Y015207D01*
X006315Y015207D02*
X003441Y015207D01*
X003337Y015049D02*
X006315Y015049D01*
X006315Y014890D02*
X003496Y014890D01*
X003590Y014732D02*
X006315Y014732D01*
X006315Y014573D02*
X003590Y014573D01*
X003590Y014415D02*
X006315Y014415D01*
X006315Y014256D02*
X003490Y014256D01*
X003331Y014098D02*
X006315Y014098D01*
X006315Y013939D02*
X003475Y013939D01*
X003610Y013781D02*
X006315Y013781D01*
X006315Y013622D02*
X003610Y013622D01*
X003610Y013464D02*
X006315Y013464D01*
X006315Y013305D02*
X003567Y013305D01*
X003408Y013147D02*
X006315Y013147D01*
X006315Y012988D02*
X003398Y012988D01*
X003556Y012830D02*
X006315Y012830D01*
X006221Y012671D02*
X003590Y012671D01*
X003590Y012513D02*
X006062Y012513D01*
X005904Y012354D02*
X003588Y012354D01*
X003429Y012196D02*
X005745Y012196D01*
X005587Y012037D02*
X003349Y012037D01*
X003507Y011879D02*
X005428Y011879D01*
X005270Y011720D02*
X003590Y011720D01*
X003590Y011562D02*
X005111Y011562D01*
X004953Y011403D02*
X003590Y011403D01*
X003478Y011245D02*
X004794Y011245D01*
X004636Y011086D02*
X003320Y011086D01*
X003458Y010928D02*
X004477Y010928D01*
X004319Y010769D02*
X003590Y010769D01*
X003590Y010611D02*
X004160Y010611D01*
X004002Y010452D02*
X003590Y010452D01*
X003527Y010294D02*
X003843Y010294D01*
X003685Y010135D02*
X003369Y010135D01*
X003526Y009977D02*
X001670Y009977D01*
X001670Y010135D02*
X001723Y010135D01*
X002040Y010135D02*
X002080Y010135D01*
X002080Y010294D02*
X002040Y010294D01*
X002040Y010452D02*
X002080Y010452D01*
X002397Y010135D02*
X002751Y010135D01*
X002593Y010294D02*
X002555Y010294D01*
X003555Y009666D02*
X001430Y009666D01*
X001430Y014946D01*
X002060Y015576D01*
X001530Y015524D02*
X001160Y015524D01*
X001160Y015366D02*
X001510Y015366D01*
X001352Y015207D02*
X001160Y015207D01*
X001160Y015049D02*
X001213Y015049D01*
X001190Y014890D02*
X001160Y014890D01*
X001160Y014732D02*
X001190Y014732D01*
X001190Y014573D02*
X001160Y014573D01*
X001160Y014415D02*
X001190Y014415D01*
X001190Y014256D02*
X001160Y014256D01*
X001160Y014098D02*
X001190Y014098D01*
X001190Y013939D02*
X001160Y013939D01*
X001160Y013781D02*
X001190Y013781D01*
X001190Y013622D02*
X001160Y013622D01*
X001160Y013464D02*
X001190Y013464D01*
X001190Y013305D02*
X001160Y013305D01*
X001160Y013147D02*
X001190Y013147D01*
X001190Y012988D02*
X001160Y012988D01*
X001160Y012830D02*
X001190Y012830D01*
X001190Y012671D02*
X001160Y012671D01*
X001160Y012513D02*
X001190Y012513D01*
X001190Y012354D02*
X001160Y012354D01*
X001160Y012196D02*
X001190Y012196D01*
X001190Y012037D02*
X001160Y012037D01*
X001160Y011879D02*
X001190Y011879D01*
X001190Y011720D02*
X001160Y011720D01*
X001160Y011562D02*
X001190Y011562D01*
X001190Y011403D02*
X001160Y011403D01*
X001160Y011245D02*
X001190Y011245D01*
X001190Y011086D02*
X001160Y011086D01*
X001160Y010928D02*
X001190Y010928D01*
X001190Y010769D02*
X001160Y010769D01*
X001160Y010611D02*
X001190Y010611D01*
X001190Y010452D02*
X001160Y010452D01*
X001160Y010294D02*
X001190Y010294D01*
X001190Y010135D02*
X001160Y010135D01*
X001160Y009977D02*
X001190Y009977D01*
X001190Y009818D02*
X001160Y009818D01*
X001160Y009660D02*
X001190Y009660D01*
X001160Y009501D02*
X001256Y009501D01*
X003555Y009666D02*
X006555Y012666D01*
X006555Y018416D01*
X006217Y018536D02*
X003590Y018536D01*
X003590Y018694D02*
X006327Y018694D01*
X006197Y018377D02*
X004475Y018377D01*
X004484Y018369D02*
X004383Y018470D01*
X004251Y018525D01*
X004109Y018525D01*
X003977Y018470D01*
X003876Y018369D01*
X003822Y018238D01*
X003822Y018095D01*
X003876Y017964D01*
X003940Y017900D01*
X003940Y017058D01*
X003876Y016994D01*
X003822Y016863D01*
X003822Y016720D01*
X003876Y016589D01*
X003977Y016488D01*
X004109Y016433D01*
X004251Y016433D01*
X004383Y016488D01*
X004484Y016589D01*
X004538Y016720D01*
X004538Y016863D01*
X004484Y016994D01*
X004420Y017058D01*
X004420Y017900D01*
X004484Y017964D01*
X004538Y018095D01*
X004538Y018238D01*
X004484Y018369D01*
X004538Y018219D02*
X006249Y018219D01*
X006315Y018060D02*
X004524Y018060D01*
X004422Y017902D02*
X006315Y017902D01*
X006315Y017743D02*
X004420Y017743D01*
X004420Y017585D02*
X006315Y017585D01*
X006315Y017426D02*
X004420Y017426D01*
X004420Y017268D02*
X006315Y017268D01*
X006315Y017109D02*
X004420Y017109D01*
X004502Y016951D02*
X006315Y016951D01*
X006315Y016792D02*
X004538Y016792D01*
X004502Y016634D02*
X006315Y016634D01*
X006315Y016475D02*
X004353Y016475D01*
X004007Y016475D02*
X003610Y016475D01*
X003610Y016634D02*
X003858Y016634D01*
X003822Y016792D02*
X003610Y016792D01*
X003463Y016951D02*
X003858Y016951D01*
X003940Y017109D02*
X003343Y017109D01*
X003501Y017268D02*
X003940Y017268D01*
X003940Y017426D02*
X003590Y017426D01*
X003590Y017585D02*
X003940Y017585D01*
X003940Y017743D02*
X003590Y017743D01*
X003484Y017902D02*
X003938Y017902D01*
X003836Y018060D02*
X003326Y018060D01*
X003452Y018219D02*
X003822Y018219D01*
X003885Y018377D02*
X003590Y018377D01*
X003533Y018853D02*
X006904Y018853D01*
X006783Y018694D02*
X007063Y018694D01*
X007221Y018536D02*
X006893Y018536D01*
X006913Y018377D02*
X007380Y018377D01*
X007555Y018541D02*
X011805Y018541D01*
X014718Y013573D01*
X014956Y013147D02*
X018480Y013147D01*
X018443Y013162D02*
X018621Y013088D01*
X018814Y013088D01*
X018992Y013162D01*
X019129Y013298D01*
X019202Y013477D01*
X019202Y013670D01*
X019129Y013848D01*
X018992Y013984D01*
X018814Y014058D01*
X018621Y014058D01*
X018443Y013984D01*
X018307Y013848D01*
X018233Y013670D01*
X018233Y013477D01*
X018307Y013298D01*
X018443Y013162D01*
X018304Y013305D02*
X015132Y013305D01*
X015197Y013464D02*
X018238Y013464D01*
X018233Y013622D02*
X015202Y013622D01*
X015156Y013781D02*
X018279Y013781D01*
X018398Y013939D02*
X015037Y013939D01*
X014688Y014098D02*
X023350Y014098D01*
X023350Y014256D02*
X023195Y014256D01*
X023350Y013939D02*
X019037Y013939D01*
X019156Y013781D02*
X023350Y013781D01*
X023350Y013622D02*
X019202Y013622D01*
X019197Y013464D02*
X023350Y013464D01*
X023350Y013305D02*
X019132Y013305D01*
X018956Y013147D02*
X023350Y013147D01*
X022851Y014256D02*
X021996Y014256D01*
X021971Y014231D02*
X022065Y014325D01*
X022065Y015258D01*
X021971Y015351D01*
X021039Y015351D01*
X020945Y015258D01*
X020945Y014325D01*
X021039Y014231D01*
X021971Y014231D01*
X022065Y014415D02*
X022607Y014415D01*
X022507Y014573D02*
X022065Y014573D01*
X022065Y014732D02*
X022463Y014732D01*
X022463Y014890D02*
X022065Y014890D01*
X022065Y015049D02*
X022523Y015049D01*
X022647Y015207D02*
X022065Y015207D01*
X021014Y014256D02*
X014595Y014256D01*
X014502Y014415D02*
X020945Y014415D01*
X020945Y014573D02*
X014409Y014573D01*
X014316Y014732D02*
X020945Y014732D01*
X020945Y014890D02*
X014224Y014890D01*
X014131Y015049D02*
X020945Y015049D01*
X020945Y015207D02*
X014038Y015207D01*
X013945Y015366D02*
X023350Y015366D01*
X023350Y015524D02*
X013852Y015524D01*
X013759Y015683D02*
X023350Y015683D01*
X023350Y015841D02*
X013666Y015841D01*
X013573Y016000D02*
X023350Y016000D01*
X023350Y016158D02*
X013480Y016158D01*
X013387Y016317D02*
X023350Y016317D01*
X023350Y016475D02*
X013294Y016475D01*
X013201Y016634D02*
X023350Y016634D01*
X023350Y016792D02*
X013109Y016792D01*
X013016Y016951D02*
X023350Y016951D01*
X023350Y017109D02*
X012923Y017109D01*
X012830Y017268D02*
X023350Y017268D01*
X023350Y017426D02*
X012737Y017426D01*
X012644Y017585D02*
X023350Y017585D01*
X023350Y017743D02*
X012551Y017743D01*
X012458Y017902D02*
X012843Y017902D01*
X012788Y017925D02*
X012573Y018140D01*
X012457Y018421D01*
X012457Y018725D01*
X012573Y019006D01*
X012788Y019222D01*
X013069Y019338D01*
X013374Y019338D01*
X013655Y019222D01*
X013870Y019006D01*
X013987Y018725D01*
X013987Y018421D01*
X013870Y018140D01*
X013655Y017925D01*
X013374Y017808D01*
X013069Y017808D01*
X012788Y017925D01*
X012652Y018060D02*
X012365Y018060D01*
X012272Y018219D02*
X012540Y018219D01*
X012475Y018377D02*
X012179Y018377D01*
X012086Y018536D02*
X012457Y018536D01*
X012457Y018694D02*
X011993Y018694D01*
X012509Y018853D02*
X007583Y018853D01*
X007424Y019011D02*
X012578Y019011D01*
X012737Y019170D02*
X007266Y019170D01*
X007107Y019328D02*
X013046Y019328D01*
X013397Y019328D02*
X019503Y019328D01*
X019463Y019424D02*
X019577Y019148D01*
X019789Y018937D01*
X020064Y018823D01*
X020363Y018823D01*
X020639Y018937D01*
X020850Y019148D01*
X020964Y019424D01*
X020964Y019722D01*
X020850Y019998D01*
X020639Y020209D01*
X020363Y020324D01*
X020064Y020324D01*
X019789Y020209D01*
X019577Y019998D01*
X019463Y019722D01*
X019463Y019424D01*
X019463Y019487D02*
X006949Y019487D01*
X006790Y019645D02*
X019463Y019645D01*
X019497Y019804D02*
X006632Y019804D01*
X006473Y019962D02*
X019563Y019962D01*
X019700Y020121D02*
X006315Y020121D01*
X006156Y020279D02*
X019958Y020279D01*
X020470Y020279D02*
X023350Y020279D01*
X023350Y020121D02*
X020727Y020121D01*
X020865Y019962D02*
X023350Y019962D01*
X023350Y019804D02*
X020930Y019804D01*
X020964Y019645D02*
X023350Y019645D01*
X023350Y019487D02*
X020964Y019487D01*
X020925Y019328D02*
X023350Y019328D01*
X023350Y019170D02*
X020859Y019170D01*
X020713Y019011D02*
X023350Y019011D01*
X023350Y018853D02*
X020436Y018853D01*
X019991Y018853D02*
X013934Y018853D01*
X013987Y018694D02*
X023350Y018694D01*
X023350Y018536D02*
X013987Y018536D01*
X013969Y018377D02*
X023350Y018377D01*
X023350Y018219D02*
X013903Y018219D01*
X013791Y018060D02*
X023350Y018060D01*
X023350Y017902D02*
X013600Y017902D01*
X012459Y016951D02*
X006795Y016951D01*
X006795Y017109D02*
X012366Y017109D01*
X012273Y017268D02*
X006795Y017268D01*
X006795Y017426D02*
X012180Y017426D01*
X012088Y017585D02*
X006795Y017585D01*
X006795Y017743D02*
X011995Y017743D01*
X011902Y017902D02*
X006795Y017902D01*
X006795Y018060D02*
X011809Y018060D01*
X011716Y018219D02*
X006861Y018219D01*
X007555Y018541D02*
X004520Y021576D01*
X003060Y021576D01*
X003464Y021230D02*
X004527Y021230D01*
X004685Y021072D02*
X003342Y021072D01*
X003501Y020913D02*
X004844Y020913D01*
X005002Y020755D02*
X003610Y020755D01*
X003610Y020596D02*
X005161Y020596D01*
X005319Y020438D02*
X003610Y020438D01*
X003541Y020279D02*
X005478Y020279D01*
X005636Y020121D02*
X003382Y020121D01*
X003424Y019962D02*
X005795Y019962D01*
X005953Y019804D02*
X003582Y019804D01*
X003590Y019645D02*
X006112Y019645D01*
X006270Y019487D02*
X003590Y019487D01*
X003562Y019328D02*
X006429Y019328D01*
X006587Y019170D02*
X003403Y019170D01*
X003375Y019011D02*
X006746Y019011D01*
X005998Y020438D02*
X023350Y020438D01*
X023350Y020596D02*
X005839Y020596D01*
X005681Y020755D02*
X023350Y020755D01*
X023350Y020913D02*
X005522Y020913D01*
X005364Y021072D02*
X023350Y021072D01*
X023350Y021230D02*
X005205Y021230D01*
X005047Y021389D02*
X023350Y021389D01*
X023350Y021547D02*
X004888Y021547D01*
X004730Y021706D02*
X023350Y021706D01*
X023350Y021864D02*
X020455Y021864D01*
X020363Y021826D02*
X020639Y021941D01*
X020850Y022152D01*
X020964Y022428D01*
X020964Y022726D01*
X020850Y023002D01*
X020639Y023213D01*
X020363Y023328D01*
X020064Y023328D01*
X019789Y023213D01*
X019577Y023002D01*
X019463Y022726D01*
X019463Y022428D01*
X019577Y022152D01*
X019789Y021941D01*
X020064Y021826D01*
X020363Y021826D01*
X019973Y021864D02*
X003522Y021864D01*
X003363Y022023D02*
X019706Y022023D01*
X019565Y022181D02*
X003415Y022181D01*
X003573Y022340D02*
X019500Y022340D01*
X019463Y022498D02*
X003590Y022498D01*
X003590Y022657D02*
X019463Y022657D01*
X019500Y022815D02*
X005710Y022815D01*
X005788Y022974D02*
X019566Y022974D01*
X019708Y023132D02*
X005780Y023132D01*
X005687Y023291D02*
X019976Y023291D01*
X020451Y023291D02*
X023350Y023291D01*
X023350Y023449D02*
X005670Y023449D01*
X005670Y023608D02*
X023350Y023608D01*
X023350Y023766D02*
X005670Y023766D01*
X005670Y023925D02*
X023350Y023925D01*
X023350Y024083D02*
X005670Y024083D01*
X005745Y024242D02*
X023350Y024242D01*
X023350Y023132D02*
X020720Y023132D01*
X020862Y022974D02*
X023350Y022974D01*
X023350Y022815D02*
X020927Y022815D01*
X020964Y022657D02*
X023350Y022657D01*
X023350Y022498D02*
X020964Y022498D01*
X020928Y022340D02*
X023350Y022340D01*
X023350Y022181D02*
X020862Y022181D01*
X020721Y022023D02*
X023350Y022023D01*
X019714Y019011D02*
X013865Y019011D01*
X013707Y019170D02*
X019568Y019170D01*
X012831Y016317D02*
X011410Y016317D01*
X011410Y016475D02*
X012738Y016475D01*
X012645Y016634D02*
X011276Y016634D01*
X010723Y016000D02*
X010689Y016000D01*
X010570Y016317D02*
X006795Y016317D01*
X006795Y016475D02*
X010570Y016475D01*
X010704Y016634D02*
X006795Y016634D01*
X006795Y016792D02*
X012552Y016792D01*
X006315Y016317D02*
X003578Y016317D01*
X003420Y016158D02*
X006315Y016158D01*
X006315Y016000D02*
X003386Y016000D01*
X003545Y015841D02*
X006315Y015841D01*
X006315Y015683D02*
X003590Y015683D01*
X003590Y015524D02*
X006315Y015524D01*
X006315Y015366D02*
X003590Y015366D01*
X004180Y016791D02*
X004180Y018166D01*
X001794Y018060D02*
X001160Y018060D01*
X001160Y017902D02*
X001636Y017902D01*
X001530Y017743D02*
X001160Y017743D01*
X001160Y017585D02*
X001530Y017585D01*
X001530Y017426D02*
X001160Y017426D01*
X001160Y017268D02*
X001619Y017268D01*
X001777Y017109D02*
X001160Y017109D01*
X001160Y016951D02*
X001685Y016951D01*
X001530Y016792D02*
X001160Y016792D01*
X001160Y016634D02*
X001530Y016634D01*
X001530Y016475D02*
X001160Y016475D01*
X001160Y016317D02*
X001570Y016317D01*
X001728Y016158D02*
X001160Y016158D01*
X001160Y016000D02*
X001734Y016000D01*
X001575Y015841D02*
X001160Y015841D01*
X001160Y015683D02*
X001530Y015683D01*
X001640Y018219D02*
X001160Y018219D01*
X001160Y018377D02*
X001510Y018377D01*
X001510Y018536D02*
X001160Y018536D01*
X001160Y018694D02*
X001510Y018694D01*
X001559Y018853D02*
X001160Y018853D01*
X001160Y019011D02*
X001717Y019011D01*
X001717Y019170D02*
X001160Y019170D01*
X001160Y019328D02*
X001558Y019328D01*
X001530Y019487D02*
X001160Y019487D01*
X001160Y019645D02*
X001530Y019645D01*
X001538Y019804D02*
X001160Y019804D01*
X001160Y019962D02*
X001696Y019962D01*
X001766Y020121D02*
X001160Y020121D01*
X001160Y020279D02*
X001607Y020279D01*
X001530Y020438D02*
X001160Y020438D01*
X001160Y020596D02*
X001530Y020596D01*
X001530Y020755D02*
X001160Y020755D01*
X001160Y020913D02*
X001647Y020913D01*
X001806Y021072D02*
X001160Y021072D01*
X001160Y021230D02*
X001656Y021230D01*
X001530Y021389D02*
X001160Y021389D01*
X001160Y021547D02*
X001530Y021547D01*
X001530Y021706D02*
X001160Y021706D01*
X001160Y021864D02*
X001598Y021864D01*
X001757Y022023D02*
X001160Y022023D01*
X001160Y022181D02*
X001705Y022181D01*
X001547Y022340D02*
X001160Y022340D01*
X001160Y022498D02*
X001530Y022498D01*
X001530Y022657D02*
X001160Y022657D01*
X001160Y022815D02*
X001549Y022815D01*
X001708Y022974D02*
X001160Y022974D01*
X001160Y023132D02*
X005080Y023132D01*
X005072Y022974D02*
X003412Y022974D01*
X003571Y022815D02*
X005150Y022815D01*
X005430Y023041D02*
X005430Y024416D01*
X005190Y024083D02*
X001160Y024083D01*
X001160Y023925D02*
X005190Y023925D01*
X005190Y023766D02*
X001160Y023766D01*
X001160Y023608D02*
X005190Y023608D01*
X005190Y023449D02*
X001160Y023449D01*
X001160Y023291D02*
X005173Y023291D01*
X005115Y024242D02*
X001160Y024242D01*
X002412Y022974D02*
X002708Y022974D01*
D18*
X005430Y023041D03*
X005430Y024416D03*
X006555Y018416D03*
X004180Y018166D03*
X004180Y016791D03*
M02*
