G75*
%MOIN*%
%OFA0B0*%
%FSLAX24Y24*%
%IPPOS*%
%LPD*%
%AMOC8*
5,1,8,0,0,1.08239X$1,22.5*
%
%ADD10R,0.0160X0.0080*%
%ADD11R,0.0480X0.0080*%
%ADD12R,0.0400X0.0080*%
%ADD13R,0.0240X0.0080*%
%ADD14R,0.0560X0.0080*%
%ADD15R,0.0080X0.0080*%
%ADD16R,0.0320X0.0080*%
%ADD17R,0.0210X0.0070*%
%ADD18R,0.0140X0.0070*%
%ADD19R,0.0280X0.0070*%
%ADD20R,0.0070X0.0070*%
%ADD21R,0.0350X0.0070*%
%ADD22R,0.0420X0.0070*%
%ADD23R,0.0910X0.0070*%
%ADD24R,0.0700X0.0070*%
%ADD25R,0.0840X0.0070*%
%ADD26R,0.0490X0.0070*%
%ADD27R,0.0560X0.0070*%
%ADD28R,0.0980X0.0070*%
%ADD29R,0.0630X0.0070*%
%ADD30R,0.0770X0.0070*%
%ADD31R,0.1190X0.0070*%
%ADD32R,0.1400X0.0070*%
%ADD33R,0.1260X0.0070*%
%ADD34R,0.1050X0.0070*%
%ADD35R,0.1120X0.0070*%
%ADD36R,0.2100X0.0070*%
%ADD37R,0.4830X0.0070*%
%ADD38R,0.3570X0.0070*%
%ADD39R,0.2240X0.0070*%
%ADD40C,0.0080*%
%ADD41C,0.0010*%
%ADD42C,0.0039*%
%ADD43C,0.0050*%
%ADD44C,0.0472*%
%ADD45C,0.0020*%
%ADD46C,0.0040*%
%ADD47C,0.0060*%
%ADD48R,0.0079X0.0079*%
D10*
X010205Y008476D03*
X010205Y008556D03*
X010205Y008796D03*
X010525Y008476D03*
X010845Y008476D03*
X010925Y008636D03*
X011165Y008636D03*
X011245Y008476D03*
X011805Y008556D03*
X012125Y008556D03*
X012125Y008476D03*
X012125Y008716D03*
X012365Y008716D03*
X012685Y008716D03*
X012685Y008556D03*
X013005Y008556D03*
X013325Y008716D03*
X013885Y008716D03*
X013885Y008556D03*
X013885Y008476D03*
X014125Y008556D03*
X014205Y008476D03*
X014205Y008716D03*
X014525Y008716D03*
X014525Y008556D03*
X014525Y008476D03*
X014765Y008556D03*
X014845Y008716D03*
X015245Y008556D03*
X015405Y008796D03*
X016045Y008556D03*
X016445Y008796D03*
X016765Y008796D03*
X016765Y008716D03*
X016765Y008636D03*
X016765Y008556D03*
X016765Y008476D03*
X017405Y008796D03*
X017725Y008636D03*
X018045Y008556D03*
X018045Y008476D03*
X018045Y008716D03*
X018045Y008796D03*
X018365Y008796D03*
X018365Y008716D03*
X018365Y008556D03*
X018365Y008476D03*
X018765Y008476D03*
X018765Y008556D03*
X018765Y008636D03*
X018765Y008716D03*
X018765Y008796D03*
X019085Y008716D03*
X019085Y008556D03*
X019645Y008556D03*
X019645Y008636D03*
X019645Y008716D03*
X019645Y008796D03*
X020205Y008716D03*
X020205Y008636D03*
X020205Y008556D03*
X020525Y008556D03*
X020525Y008716D03*
D11*
X020365Y008796D03*
X020365Y008476D03*
X019805Y008476D03*
X018205Y008636D03*
X017565Y008556D03*
X017565Y008716D03*
X017565Y008876D03*
X016205Y008636D03*
X014685Y008636D03*
X014685Y008796D03*
X014045Y008796D03*
X014045Y008636D03*
X013405Y008476D03*
X013405Y008796D03*
X012845Y008796D03*
X011645Y008476D03*
X011085Y008556D03*
X010365Y008636D03*
X010365Y008876D03*
D12*
X011685Y008796D03*
X011685Y008636D03*
X012245Y008636D03*
X012245Y008796D03*
X012805Y008636D03*
X012805Y008476D03*
X015285Y008716D03*
X019205Y008796D03*
X019205Y008476D03*
D13*
X016405Y008716D03*
X016085Y008716D03*
X016085Y008796D03*
X016085Y008476D03*
X015285Y008476D03*
X015285Y008636D03*
X015125Y008796D03*
X014805Y008476D03*
X012965Y008716D03*
X011525Y008716D03*
X011045Y008796D03*
X010565Y008796D03*
X010485Y008556D03*
D14*
X010405Y008716D03*
X016245Y008876D03*
X017525Y008476D03*
D15*
X017365Y008636D03*
X017765Y008796D03*
X019285Y008716D03*
X020565Y008636D03*
X013525Y008716D03*
X013285Y008556D03*
D16*
X013405Y008636D03*
X011085Y008716D03*
X019165Y008636D03*
D17*
X021110Y008756D03*
X021250Y008546D03*
X021250Y008476D03*
X021810Y008686D03*
X021810Y008756D03*
X021810Y008826D03*
X022510Y008756D03*
X022510Y008546D03*
X022790Y008616D03*
D18*
X022755Y008546D03*
X022825Y008686D03*
X022755Y008756D03*
X022475Y008686D03*
X022475Y008616D03*
X022195Y008476D03*
X021845Y008476D03*
X021845Y008546D03*
X021845Y008616D03*
X021425Y008756D03*
X021425Y008826D03*
X021355Y008686D03*
X021145Y008686D03*
X021075Y008826D03*
X016940Y009806D03*
D19*
X016870Y009876D03*
X016310Y009806D03*
X016310Y009386D03*
X015820Y009596D03*
X015820Y009666D03*
X014980Y009666D03*
X014980Y009596D03*
X014490Y009736D03*
X014490Y009806D03*
X014350Y009386D03*
X013860Y009386D03*
X013860Y009316D03*
X013860Y009456D03*
X013860Y009736D03*
X013860Y009806D03*
X013860Y009876D03*
X012600Y009456D03*
X011340Y009876D03*
X011270Y009736D03*
X011270Y009666D03*
X018060Y009736D03*
X018060Y009806D03*
X018690Y009596D03*
X018760Y009666D03*
X018760Y009736D03*
X019180Y009666D03*
X018620Y009316D03*
X018550Y009246D03*
X020020Y009316D03*
X020020Y009386D03*
X020020Y009456D03*
X020020Y009736D03*
X020020Y009806D03*
X020020Y009876D03*
X020650Y009806D03*
X020650Y009736D03*
X020510Y009386D03*
X021630Y009736D03*
X022615Y008476D03*
D20*
X022230Y008546D03*
X016205Y009456D03*
X013335Y009386D03*
X013335Y009176D03*
X013125Y009526D03*
X013125Y009736D03*
D21*
X012635Y009736D03*
X012635Y009526D03*
X012635Y009386D03*
X011935Y009386D03*
X011935Y009316D03*
X011305Y009806D03*
X011725Y009876D03*
X013825Y009246D03*
X014315Y009456D03*
X014385Y009316D03*
X014455Y009246D03*
X015015Y009526D03*
X015015Y009736D03*
X014455Y009876D03*
X015785Y009736D03*
X015785Y009526D03*
X016905Y009456D03*
X016905Y009386D03*
X017465Y009386D03*
X017465Y009316D03*
X017465Y009246D03*
X017465Y009456D03*
X017465Y009736D03*
X017465Y009806D03*
X017465Y009876D03*
X018025Y009876D03*
X019145Y009736D03*
X019215Y009596D03*
X019355Y009316D03*
X019355Y009246D03*
X019985Y009246D03*
X020475Y009456D03*
X020545Y009316D03*
X020615Y009246D03*
X021245Y009246D03*
X021245Y009316D03*
X021245Y009386D03*
X021245Y009736D03*
X021245Y009806D03*
X021245Y009876D03*
X021245Y009946D03*
X021245Y010016D03*
X021735Y009806D03*
X021805Y009876D03*
X021875Y009946D03*
X021805Y009456D03*
X021805Y009386D03*
X021875Y009316D03*
X021250Y008616D03*
X020615Y009876D03*
X022650Y008826D03*
D22*
X021910Y009246D03*
X021280Y009456D03*
X021910Y010016D03*
X019740Y010436D03*
X018970Y010016D03*
X018970Y009946D03*
X016380Y009876D03*
X015750Y009806D03*
X015750Y009456D03*
X015050Y009456D03*
X015050Y009806D03*
X011970Y009246D03*
X011900Y009456D03*
X011130Y009246D03*
D23*
X012915Y009246D03*
X012915Y009316D03*
X014175Y009666D03*
X014175Y009946D03*
X016555Y009316D03*
X016625Y009946D03*
X017745Y009946D03*
X017745Y009666D03*
X017745Y009596D03*
X019005Y009456D03*
X020335Y009666D03*
X020335Y009946D03*
D24*
X015400Y010016D03*
X015400Y009246D03*
X012810Y009596D03*
X012810Y009666D03*
X011550Y009946D03*
D25*
X013090Y010086D03*
X013440Y010156D03*
X014070Y010016D03*
X014140Y009596D03*
X015400Y009316D03*
X015400Y009946D03*
X016520Y009246D03*
X017710Y010016D03*
X018970Y009526D03*
X020300Y009596D03*
X020230Y010016D03*
X021490Y009526D03*
D26*
X016415Y009736D03*
X011515Y010226D03*
X011235Y009316D03*
D27*
X011270Y009386D03*
X011760Y009666D03*
X011900Y009736D03*
X011550Y010086D03*
X011550Y010156D03*
X018970Y009876D03*
X018970Y009806D03*
D28*
X018970Y009386D03*
X015400Y009386D03*
X015400Y009876D03*
X014700Y010366D03*
X014210Y010296D03*
X011550Y009596D03*
X011550Y009526D03*
D29*
X011305Y009456D03*
X011515Y010016D03*
X016765Y009526D03*
D30*
X016625Y009596D03*
X016555Y009666D03*
X016695Y010016D03*
X017675Y009526D03*
X020265Y009526D03*
X021455Y009596D03*
X021455Y009666D03*
X014105Y009526D03*
D31*
X012215Y009806D03*
D32*
X012670Y009876D03*
X019740Y010786D03*
D33*
X012810Y009946D03*
D34*
X012915Y010016D03*
X013825Y010226D03*
D35*
X015260Y010436D03*
X015890Y010506D03*
D36*
X019740Y010506D03*
D37*
X018585Y010576D03*
D38*
X019285Y010646D03*
D39*
X019740Y010716D03*
D40*
X020273Y011258D02*
X012989Y011258D01*
X012989Y011259D02*
X012956Y011264D01*
X012924Y011273D01*
X012892Y011285D01*
X012863Y011301D01*
X012835Y011319D01*
X012809Y011341D01*
X012786Y011365D01*
X012765Y011391D01*
X012747Y011420D01*
X012733Y011450D01*
X012722Y011482D01*
X012714Y011514D01*
X012714Y016750D01*
X012438Y017046D02*
X012202Y017046D01*
X012170Y017049D01*
X012138Y017055D01*
X012108Y017064D01*
X012078Y017078D01*
X012051Y017094D01*
X012025Y017113D01*
X012002Y017136D01*
X011981Y017160D01*
X011964Y017187D01*
X011949Y017216D01*
X011938Y017246D01*
X011931Y017277D01*
X011927Y017309D01*
X011926Y017341D01*
X011926Y023616D01*
X011932Y023655D01*
X011942Y023692D01*
X011955Y023729D01*
X011972Y023764D01*
X011992Y023797D01*
X012015Y023828D01*
X012041Y023857D01*
X012070Y023883D01*
X012101Y023907D01*
X012134Y023927D01*
X012169Y023943D01*
X012206Y023957D01*
X012243Y023967D01*
X012282Y023973D01*
X012320Y023975D01*
X022320Y023975D01*
X022354Y023980D01*
X022389Y023981D01*
X022423Y023979D01*
X022457Y023973D01*
X022490Y023963D01*
X022522Y023951D01*
X022552Y023935D01*
X022581Y023916D01*
X022607Y023894D01*
X022631Y023870D01*
X022653Y023843D01*
X022671Y023814D01*
X022687Y023784D01*
X022699Y023752D01*
X022708Y023719D01*
X022714Y023685D01*
X022716Y023651D01*
X022715Y023616D01*
X022714Y023616D02*
X022714Y019231D01*
X022438Y018935D02*
X020824Y018935D01*
X020824Y018936D02*
X020790Y018931D01*
X020757Y018922D01*
X020726Y018910D01*
X020696Y018894D01*
X020667Y018875D01*
X020642Y018853D01*
X020619Y018828D01*
X020598Y018800D01*
X020581Y018771D01*
X020567Y018740D01*
X020557Y018708D01*
X020551Y018674D01*
X020548Y018640D01*
X020548Y011553D01*
X020548Y011554D02*
X020545Y011520D01*
X020539Y011486D01*
X020529Y011454D01*
X020515Y011423D01*
X020498Y011394D01*
X020477Y011366D01*
X020454Y011341D01*
X020429Y011319D01*
X020400Y011300D01*
X020370Y011284D01*
X020339Y011272D01*
X020306Y011263D01*
X020272Y011258D01*
X020886Y013374D02*
X020886Y013689D01*
X023642Y013689D01*
X023642Y013374D01*
X020886Y013374D01*
X020886Y013689D02*
X020886Y016130D01*
X023642Y016130D01*
X023642Y013689D01*
X022438Y018935D02*
X022472Y018940D01*
X022505Y018949D01*
X022536Y018961D01*
X022566Y018977D01*
X022595Y018996D01*
X022620Y019018D01*
X022643Y019043D01*
X022664Y019071D01*
X022681Y019100D01*
X022695Y019131D01*
X022705Y019163D01*
X022711Y019197D01*
X022714Y019231D01*
X012714Y016750D02*
X012711Y016784D01*
X012705Y016818D01*
X012695Y016850D01*
X012681Y016881D01*
X012664Y016910D01*
X012643Y016938D01*
X012620Y016963D01*
X012595Y016985D01*
X012566Y017004D01*
X012536Y017020D01*
X012505Y017032D01*
X012472Y017041D01*
X012438Y017046D01*
X011324Y013034D02*
X010536Y013034D01*
X010930Y013034D02*
X010536Y012493D01*
X011324Y012493D01*
X010930Y013034D01*
X004332Y008600D02*
X000788Y008600D01*
X000788Y015710D01*
X001379Y015710D01*
X001379Y017443D01*
X000788Y017443D01*
X000788Y024553D01*
X004292Y024553D01*
X004332Y024553D02*
X004332Y008600D01*
X000788Y015710D02*
X000788Y017443D01*
X001467Y022326D02*
X001467Y022826D01*
D41*
X001515Y024681D02*
X001465Y024731D01*
X001490Y024731D02*
X001415Y024731D01*
X001415Y024681D02*
X001415Y024832D01*
X001490Y024832D01*
X001515Y024807D01*
X001515Y024756D01*
X001490Y024731D01*
X001562Y024756D02*
X001662Y024756D01*
X001662Y024782D02*
X001662Y024681D01*
X001710Y024706D02*
X001735Y024681D01*
X001785Y024681D01*
X001810Y024706D01*
X001810Y024731D01*
X001785Y024756D01*
X001735Y024756D01*
X001710Y024782D01*
X001710Y024807D01*
X001735Y024832D01*
X001785Y024832D01*
X001810Y024807D01*
X001857Y024832D02*
X001932Y024832D01*
X001957Y024807D01*
X001957Y024756D01*
X001932Y024731D01*
X001857Y024731D01*
X001857Y024681D02*
X001857Y024832D01*
X002004Y024832D02*
X002004Y024681D01*
X002079Y024681D01*
X002104Y024706D01*
X002104Y024731D01*
X002079Y024756D01*
X002004Y024756D01*
X002079Y024756D02*
X002104Y024782D01*
X002104Y024807D01*
X002079Y024832D01*
X002004Y024832D01*
X002152Y024832D02*
X002152Y024681D01*
X002252Y024681D01*
X002299Y024681D02*
X002299Y024832D01*
X002374Y024832D01*
X002399Y024807D01*
X002399Y024756D01*
X002374Y024731D01*
X002299Y024731D01*
X002349Y024731D02*
X002399Y024681D01*
X002446Y024681D02*
X002446Y024832D01*
X002521Y024832D01*
X002546Y024807D01*
X002546Y024756D01*
X002521Y024731D01*
X002446Y024731D01*
X002496Y024731D02*
X002546Y024681D01*
X002644Y024681D02*
X002644Y024756D01*
X002694Y024807D01*
X002694Y024832D01*
X002741Y024832D02*
X002816Y024832D01*
X002841Y024807D01*
X002841Y024756D01*
X002816Y024731D01*
X002741Y024731D01*
X002741Y024681D02*
X002741Y024832D01*
X002644Y024756D02*
X002594Y024807D01*
X002594Y024832D01*
X002888Y024832D02*
X002938Y024832D01*
X002913Y024832D02*
X002913Y024681D01*
X002888Y024681D02*
X002938Y024681D01*
X002986Y024756D02*
X003087Y024756D01*
X003134Y024706D02*
X003134Y024807D01*
X003159Y024832D01*
X003209Y024832D01*
X003234Y024807D01*
X003234Y024756D02*
X003184Y024756D01*
X003234Y024756D02*
X003234Y024706D01*
X003209Y024681D01*
X003159Y024681D01*
X003134Y024706D01*
X003281Y024681D02*
X003281Y024832D01*
X003356Y024832D01*
X003381Y024807D01*
X003381Y024756D01*
X003356Y024731D01*
X003281Y024731D01*
X003428Y024681D02*
X003478Y024681D01*
X003453Y024681D02*
X003453Y024832D01*
X003428Y024832D02*
X003478Y024832D01*
X003527Y024807D02*
X003527Y024706D01*
X003552Y024681D01*
X003602Y024681D01*
X003627Y024706D01*
X003627Y024807D01*
X003602Y024832D01*
X003552Y024832D01*
X003527Y024807D01*
X003674Y024832D02*
X003674Y024681D01*
X003674Y024731D02*
X003749Y024731D01*
X003774Y024756D01*
X003774Y024807D01*
X003749Y024832D01*
X003674Y024832D01*
X003821Y024832D02*
X003921Y024832D01*
X003969Y024832D02*
X003969Y024681D01*
X003969Y024756D02*
X004069Y024756D01*
X004069Y024681D02*
X004069Y024832D01*
X003871Y024832D02*
X003871Y024681D01*
X002252Y024832D02*
X002152Y024832D01*
X002152Y024756D02*
X002202Y024756D01*
X001662Y024782D02*
X001612Y024832D01*
X001562Y024782D01*
X001562Y024681D01*
X005575Y012858D02*
X005575Y012758D01*
X005725Y012758D01*
X005725Y012711D02*
X005575Y012711D01*
X005650Y012758D02*
X005650Y012808D01*
X005725Y012711D02*
X005575Y012611D01*
X005725Y012611D01*
X005700Y012416D02*
X005600Y012416D01*
X005700Y012316D01*
X005725Y012341D01*
X005725Y012391D01*
X005700Y012416D01*
X005700Y012316D02*
X005600Y012316D01*
X005575Y012341D01*
X005575Y012391D01*
X005600Y012416D01*
X005600Y012269D02*
X005700Y012169D01*
X005725Y012194D01*
X005725Y012244D01*
X005700Y012269D01*
X005600Y012269D01*
X005575Y012244D01*
X005575Y012194D01*
X005600Y012169D01*
X005700Y012169D01*
X005725Y012122D02*
X005725Y012021D01*
X005725Y012071D02*
X005575Y012071D01*
X005625Y012021D01*
X004850Y012146D02*
X004850Y012196D01*
X004825Y012222D01*
X004850Y012269D02*
X004750Y012369D01*
X004725Y012369D01*
X004700Y012344D01*
X004700Y012294D01*
X004725Y012269D01*
X004725Y012222D02*
X004700Y012196D01*
X004700Y012146D01*
X004725Y012121D01*
X004825Y012121D01*
X004850Y012146D01*
X004850Y012269D02*
X004850Y012369D01*
X021080Y015447D02*
X021180Y015447D01*
X021130Y015447D02*
X021130Y015296D01*
X021227Y015321D02*
X021227Y015371D01*
X021252Y015397D01*
X021302Y015397D01*
X021327Y015371D01*
X021327Y015346D01*
X021227Y015346D01*
X021227Y015321D02*
X021252Y015296D01*
X021302Y015296D01*
X021375Y015296D02*
X021375Y015397D01*
X021425Y015397D02*
X021450Y015397D01*
X021425Y015397D02*
X021375Y015346D01*
X021497Y015296D02*
X021497Y015397D01*
X021522Y015397D01*
X021547Y015371D01*
X021572Y015397D01*
X021598Y015371D01*
X021598Y015296D01*
X021645Y015296D02*
X021695Y015296D01*
X021670Y015296D02*
X021670Y015397D01*
X021645Y015397D01*
X021670Y015447D02*
X021670Y015472D01*
X021743Y015397D02*
X021743Y015296D01*
X021843Y015296D02*
X021843Y015371D01*
X021818Y015397D01*
X021743Y015397D01*
X021890Y015321D02*
X021915Y015346D01*
X021990Y015346D01*
X021990Y015371D02*
X021990Y015296D01*
X021915Y015296D01*
X021890Y015321D01*
X021915Y015397D02*
X021965Y015397D01*
X021990Y015371D01*
X022038Y015296D02*
X022088Y015296D01*
X022063Y015296D02*
X022063Y015447D01*
X022038Y015447D01*
X021547Y015371D02*
X021547Y015296D01*
X021475Y015796D02*
X021375Y015796D01*
X021475Y015897D01*
X021475Y015922D01*
X021450Y015947D01*
X021400Y015947D01*
X021375Y015922D01*
X021327Y015922D02*
X021327Y015871D01*
X021302Y015846D01*
X021227Y015846D01*
X021227Y015796D02*
X021227Y015947D01*
X021302Y015947D01*
X021327Y015922D01*
X021180Y015947D02*
X021130Y015947D01*
X021155Y015947D02*
X021155Y015821D01*
X021130Y015796D01*
X021105Y015796D01*
X021080Y015821D01*
D42*
X009031Y017346D02*
X009031Y017444D01*
X005212Y017444D01*
X005212Y017346D01*
X005212Y013527D02*
X005212Y013468D01*
X009031Y013468D01*
X009031Y013527D01*
D43*
X004512Y005613D02*
X004728Y001271D01*
X004730Y001204D01*
X004736Y001138D01*
X004745Y001072D01*
X004759Y001007D01*
X004776Y000942D01*
X004797Y000879D01*
X004822Y000817D01*
X004850Y000757D01*
X004882Y000698D01*
X004917Y000641D01*
X004955Y000587D01*
X004996Y000534D01*
X005040Y000485D01*
X005088Y000437D01*
X005137Y000393D01*
X005190Y000352D01*
X005244Y000314D01*
X005301Y000279D01*
X005360Y000247D01*
X005420Y000219D01*
X005482Y000194D01*
X005545Y000173D01*
X005610Y000156D01*
X005675Y000142D01*
X005741Y000133D01*
X005807Y000127D01*
X005874Y000125D01*
X008386Y000125D01*
X008453Y000127D01*
X008519Y000133D01*
X008585Y000142D01*
X008650Y000156D01*
X008715Y000173D01*
X008778Y000194D01*
X008840Y000219D01*
X008900Y000247D01*
X008959Y000279D01*
X009016Y000314D01*
X009070Y000352D01*
X009123Y000393D01*
X009172Y000437D01*
X009220Y000485D01*
X009264Y000534D01*
X009305Y000587D01*
X009343Y000641D01*
X009378Y000698D01*
X009410Y000757D01*
X009438Y000817D01*
X009463Y000879D01*
X009484Y000942D01*
X009501Y001007D01*
X009515Y001072D01*
X009524Y001138D01*
X009530Y001204D01*
X009532Y001271D01*
X009748Y005613D01*
X004512Y005613D01*
X004906Y005613D02*
X004906Y006204D01*
X004512Y006204D01*
X004512Y007716D01*
X009748Y007716D01*
X009748Y006204D01*
X009354Y006204D01*
X009354Y005613D01*
X009354Y006204D02*
X004906Y006204D01*
X004906Y007716D02*
X004906Y008786D01*
X004906Y010153D01*
X005890Y008786D01*
X004906Y008786D01*
X005890Y008786D02*
X008370Y008786D01*
X009354Y010153D01*
X009354Y008786D01*
X009354Y007716D01*
X004906Y007716D01*
X008370Y008786D02*
X009354Y008786D01*
X010165Y014926D02*
X011815Y014926D01*
X011877Y015476D02*
X012035Y015476D01*
X012415Y015851D02*
X012415Y016302D01*
X012265Y016302D02*
X012565Y016302D01*
X012725Y016152D02*
X012876Y016302D01*
X012876Y015851D01*
X013026Y015851D02*
X012725Y015851D01*
X011103Y015476D02*
X010877Y015476D01*
X010165Y014926D02*
X010130Y014974D01*
X010097Y015024D01*
X010066Y015076D01*
X010039Y015130D01*
X010015Y015185D01*
X009995Y015242D01*
X009977Y015299D01*
X009963Y015357D01*
X009952Y015416D01*
X009945Y015476D01*
X010103Y015476D01*
X009945Y015476D02*
X009941Y015538D01*
X009940Y015601D01*
X009944Y015663D01*
X009951Y015725D01*
X009961Y015786D01*
X009976Y015847D01*
X009994Y015907D01*
X010015Y015966D01*
X010040Y016023D01*
X010068Y016078D01*
X010099Y016132D01*
X010134Y016184D01*
X010172Y016234D01*
X010212Y016281D01*
X010256Y016326D01*
X010301Y016369D01*
X010350Y016408D01*
X010400Y016445D01*
X010453Y016478D01*
X010507Y016509D01*
X010564Y016536D01*
X010621Y016559D01*
X010680Y016579D01*
X011300Y016579D02*
X011360Y016559D01*
X011419Y016535D01*
X011476Y016507D01*
X011531Y016476D01*
X011585Y016441D01*
X011636Y016404D01*
X011685Y016363D01*
X011731Y016319D01*
X011775Y016273D01*
X011816Y016224D01*
X011854Y016173D01*
X011888Y016120D01*
X011920Y016064D01*
X011947Y016007D01*
X011972Y015948D01*
X011992Y015888D01*
X012010Y015827D01*
X012023Y015765D01*
X012032Y015702D01*
X012038Y015639D01*
X012040Y015575D01*
X012038Y015511D01*
X012032Y015448D01*
X012023Y015385D01*
X012009Y015323D01*
X011992Y015262D01*
X011971Y015202D01*
X011947Y015143D01*
X011919Y015086D01*
X011887Y015030D01*
X011852Y014977D01*
X011815Y014926D01*
X006173Y015334D02*
X006173Y015469D01*
X005993Y015469D01*
X005993Y015584D02*
X005993Y015719D01*
X006038Y015764D01*
X006128Y015764D01*
X006173Y015719D01*
X006173Y015584D01*
X005902Y015584D01*
X005902Y015879D02*
X005902Y015924D01*
X006173Y015924D01*
X006173Y015879D02*
X006173Y015969D01*
X006128Y016075D02*
X006173Y016120D01*
X006173Y016210D01*
X006128Y016255D01*
X006038Y016255D01*
X005993Y016210D01*
X005993Y016120D01*
X006038Y016075D01*
X006128Y016075D01*
X006173Y016370D02*
X005993Y016550D01*
X005993Y016370D02*
X006173Y016550D01*
X006173Y015334D02*
X006128Y015289D01*
X005993Y015289D01*
D44*
X006078Y016972D03*
D45*
X012830Y022626D02*
X012830Y022847D01*
X012940Y022847D01*
X012977Y022810D01*
X012977Y022737D01*
X012940Y022700D01*
X012830Y022700D01*
X012903Y022700D02*
X012977Y022626D01*
X013051Y022626D02*
X013198Y022626D01*
X013272Y022626D02*
X013419Y022626D01*
X013493Y022626D02*
X013493Y022773D01*
X013566Y022847D01*
X013640Y022773D01*
X013640Y022626D01*
X013640Y022737D02*
X013493Y022737D01*
X013714Y022810D02*
X013787Y022737D01*
X013787Y022626D01*
X013787Y022737D02*
X013861Y022810D01*
X013861Y022847D01*
X013935Y022847D02*
X013935Y022626D01*
X013935Y022700D02*
X014045Y022700D01*
X014082Y022737D01*
X014082Y022810D01*
X014045Y022847D01*
X013935Y022847D01*
X014156Y022847D02*
X014303Y022847D01*
X014229Y022847D02*
X014229Y022626D01*
X014377Y022626D02*
X014377Y022847D01*
X014377Y022737D02*
X014524Y022737D01*
X014598Y022810D02*
X014635Y022847D01*
X014708Y022847D01*
X014745Y022810D01*
X014745Y022773D01*
X014708Y022737D01*
X014745Y022700D01*
X014745Y022663D01*
X014708Y022626D01*
X014635Y022626D01*
X014598Y022663D01*
X014524Y022626D02*
X014524Y022847D01*
X014671Y022737D02*
X014708Y022737D01*
X013714Y022810D02*
X013714Y022847D01*
X013419Y023126D02*
X013272Y023126D01*
X013345Y023126D02*
X013345Y023347D01*
X013272Y023273D01*
X013198Y023310D02*
X013161Y023347D01*
X013088Y023347D01*
X013051Y023310D01*
X013051Y023273D01*
X013088Y023237D01*
X013161Y023237D01*
X013198Y023200D01*
X013198Y023163D01*
X013161Y023126D01*
X013088Y023126D01*
X013051Y023163D01*
X012977Y023163D02*
X012977Y023347D01*
X012830Y023347D02*
X012830Y023163D01*
X012867Y023126D01*
X012940Y023126D01*
X012977Y023163D01*
X013124Y023090D02*
X013124Y023383D01*
X013051Y022847D02*
X013051Y022626D01*
X013051Y022737D02*
X013124Y022737D01*
X013198Y022847D02*
X013051Y022847D01*
X013272Y022847D02*
X013272Y022626D01*
D46*
X011167Y022836D02*
X010860Y022836D01*
X010707Y022836D02*
X010553Y022990D01*
X010630Y022990D02*
X010400Y022990D01*
X010400Y022836D02*
X010400Y023297D01*
X010630Y023297D01*
X010707Y023220D01*
X010707Y023067D01*
X010630Y022990D01*
X010860Y023143D02*
X011014Y023297D01*
X011014Y022836D01*
X011091Y021797D02*
X010937Y021797D01*
X010860Y021720D01*
X010707Y021720D02*
X010707Y021567D01*
X010630Y021490D01*
X010400Y021490D01*
X010553Y021490D02*
X010707Y021336D01*
X010860Y021336D02*
X011167Y021643D01*
X011167Y021720D01*
X011091Y021797D01*
X010707Y021720D02*
X010630Y021797D01*
X010400Y021797D01*
X010400Y021336D01*
X010860Y021336D02*
X011167Y021336D01*
X011091Y020297D02*
X010937Y020297D01*
X010860Y020220D01*
X010707Y020220D02*
X010707Y020067D01*
X010630Y019990D01*
X010400Y019990D01*
X010553Y019990D02*
X010707Y019836D01*
X010860Y019913D02*
X010937Y019836D01*
X011091Y019836D01*
X011167Y019913D01*
X011167Y019990D01*
X011091Y020067D01*
X011014Y020067D01*
X011091Y020067D02*
X011167Y020143D01*
X011167Y020220D01*
X011091Y020297D01*
X010707Y020220D02*
X010630Y020297D01*
X010400Y020297D01*
X010400Y019836D01*
X010400Y018797D02*
X010630Y018797D01*
X010707Y018720D01*
X010707Y018567D01*
X010630Y018490D01*
X010400Y018490D01*
X010553Y018490D02*
X010707Y018336D01*
X010860Y018567D02*
X011167Y018567D01*
X011091Y018797D02*
X011091Y018336D01*
X010860Y018567D02*
X011091Y018797D01*
X010400Y018797D02*
X010400Y018336D01*
X008851Y019936D02*
X008621Y019936D01*
X008621Y020397D01*
X008851Y020397D01*
X008928Y020320D01*
X008928Y020013D01*
X008851Y019936D01*
X008467Y020013D02*
X008391Y019936D01*
X008160Y019936D01*
X008160Y020397D01*
X008391Y020397D01*
X008467Y020320D01*
X008467Y020243D01*
X008391Y020167D01*
X008160Y020167D01*
X008007Y020090D02*
X008007Y020013D01*
X007930Y019936D01*
X007777Y019936D01*
X007700Y020013D01*
X007777Y020167D02*
X007930Y020167D01*
X008007Y020090D01*
X008007Y020320D02*
X007930Y020397D01*
X007777Y020397D01*
X007700Y020320D01*
X007700Y020243D01*
X007777Y020167D01*
X008391Y020167D02*
X008467Y020090D01*
X008467Y020013D01*
X008391Y021436D02*
X008237Y021436D01*
X008160Y021513D01*
X008160Y021820D01*
X008237Y021897D01*
X008391Y021897D01*
X008467Y021820D01*
X008467Y021513D01*
X008391Y021436D01*
X008621Y021513D02*
X008698Y021436D01*
X008851Y021436D01*
X008928Y021513D01*
X008928Y021667D01*
X008774Y021667D01*
X008621Y021820D02*
X008621Y021513D01*
X008621Y021820D02*
X008698Y021897D01*
X008851Y021897D01*
X008928Y021820D01*
X008007Y021436D02*
X007700Y021436D01*
X007700Y021897D01*
X007700Y022936D02*
X007700Y023397D01*
X007930Y023397D01*
X008007Y023320D01*
X008007Y023167D01*
X007930Y023090D01*
X007700Y023090D01*
X008160Y022936D02*
X008314Y023090D01*
X008467Y022936D01*
X008467Y023397D01*
X008621Y023397D02*
X008851Y023397D01*
X008928Y023320D01*
X008928Y023167D01*
X008851Y023090D01*
X008621Y023090D01*
X008774Y023090D02*
X008928Y022936D01*
X008621Y022936D02*
X008621Y023397D01*
X008160Y023397D02*
X008160Y022936D01*
X010180Y013636D02*
X010180Y011856D01*
X011680Y011856D02*
X011680Y013636D01*
X011800Y013386D02*
X012030Y013156D01*
X012030Y013463D01*
X012260Y013386D02*
X011800Y013386D01*
X011876Y013003D02*
X011800Y012926D01*
X011800Y012696D01*
X012260Y012696D01*
X012260Y012926D01*
X012183Y013003D01*
X011876Y013003D01*
D47*
X005416Y012535D02*
X005416Y012298D01*
X004944Y012298D02*
X004944Y012535D01*
D48*
X008219Y019416D03*
X008219Y020916D03*
X008219Y022416D03*
M02*
