G75*
%MOIN*%
%OFA0B0*%
%FSLAX24Y24*%
%IPPOS*%
%LPD*%
%AMOC8*
5,1,8,0,0,1.08239X$1,22.5*
%
%ADD10C,0.1182*%
%ADD11OC8,0.0780*%
%ADD12R,0.0840X0.0840*%
%ADD13C,0.0840*%
%ADD14R,0.1871X0.2009*%
%ADD15C,0.0555*%
D10*
X015963Y011811D03*
D11*
X002050Y002770D03*
X003050Y002770D03*
X003050Y003770D03*
X002050Y003770D03*
X002050Y004770D03*
X003050Y004770D03*
X003050Y005770D03*
X002050Y005770D03*
X002050Y006770D03*
X003050Y006770D03*
X003050Y007770D03*
X002050Y007770D03*
X002050Y008770D03*
X003050Y008770D03*
X003050Y009770D03*
X002050Y009770D03*
X002050Y010770D03*
X003050Y010770D03*
X003050Y011770D03*
X002050Y011770D03*
X002050Y012770D03*
X003050Y012770D03*
X003050Y013770D03*
X002050Y013770D03*
X002050Y014770D03*
X003050Y014770D03*
D12*
X011675Y015355D03*
X015400Y015405D03*
X019175Y015380D03*
X022900Y015405D03*
X020908Y012027D03*
D13*
X022426Y012027D03*
X021382Y015405D03*
X017657Y015380D03*
X013882Y015405D03*
X010157Y015355D03*
D14*
X008528Y001517D03*
X005832Y001517D03*
D15*
X014272Y006095D02*
X014787Y006095D01*
X014787Y007095D02*
X014272Y007095D01*
X014272Y008095D02*
X014787Y008095D01*
X014787Y009095D02*
X014272Y009095D01*
X014272Y010095D02*
X014787Y010095D01*
X014787Y011095D02*
X014272Y011095D01*
X014272Y012095D02*
X014787Y012095D01*
X014787Y013095D02*
X014272Y013095D01*
X017272Y013095D02*
X017787Y013095D01*
X017787Y012095D02*
X017272Y012095D01*
X017272Y011095D02*
X017787Y011095D01*
X017787Y010095D02*
X017272Y010095D01*
X017272Y009095D02*
X017787Y009095D01*
X017787Y008095D02*
X017272Y008095D01*
X017272Y007095D02*
X017787Y007095D01*
X017787Y006095D02*
X017272Y006095D01*
M02*
