G75*
%MOIN*%
%OFA0B0*%
%FSLAX24Y24*%
%IPPOS*%
%LPD*%
%AMOC8*
5,1,8,0,0,1.08239X$1,22.5*
%
%ADD10C,0.0000*%
%ADD11OC8,0.0740*%
%ADD12R,0.0315X0.0709*%
%ADD13R,0.0276X0.0709*%
%ADD14R,0.0800X0.0800*%
%ADD15C,0.0800*%
%ADD16R,0.0472X0.0315*%
%ADD17R,0.0472X0.0472*%
%ADD18R,0.0512X0.0591*%
%ADD19R,0.0315X0.1969*%
%ADD20R,0.1831X0.1969*%
%ADD21R,0.0500X0.0250*%
%ADD22R,0.0315X0.0354*%
%ADD23R,0.1000X0.1051*%
%ADD24R,0.0500X0.0300*%
%ADD25R,0.0118X0.0177*%
%ADD26R,0.0315X0.0472*%
%ADD27C,0.0160*%
%ADD28C,0.0356*%
%ADD29C,0.0100*%
%ADD30C,0.0120*%
D10*
X000570Y000784D02*
X000578Y016758D01*
X000579Y016758D02*
X000576Y016798D01*
X000577Y016838D01*
X000582Y016877D01*
X000591Y016916D01*
X000603Y016954D01*
X000618Y016991D01*
X000637Y017026D01*
X000659Y017059D01*
X000684Y017091D01*
X000712Y017119D01*
X000742Y017145D01*
X000774Y017168D01*
X000809Y017188D01*
X000845Y017205D01*
X000883Y017218D01*
X000921Y017228D01*
X000961Y017234D01*
X023098Y017273D01*
X023830Y016650D02*
X023830Y000902D01*
X023828Y000861D01*
X023823Y000820D01*
X023814Y000780D01*
X023802Y000741D01*
X023786Y000703D01*
X023767Y000666D01*
X023745Y000631D01*
X023720Y000599D01*
X023692Y000568D01*
X023661Y000540D01*
X023629Y000515D01*
X023594Y000493D01*
X023557Y000474D01*
X023519Y000458D01*
X023480Y000446D01*
X023440Y000437D01*
X023399Y000432D01*
X023358Y000430D01*
X001034Y000430D01*
X001034Y000431D02*
X000996Y000427D01*
X000958Y000428D01*
X000920Y000431D01*
X000883Y000438D01*
X000846Y000449D01*
X000811Y000463D01*
X000777Y000480D01*
X000745Y000500D01*
X000714Y000523D01*
X000686Y000549D01*
X000661Y000577D01*
X000638Y000608D01*
X000618Y000640D01*
X000601Y000674D01*
X000588Y000710D01*
X000577Y000747D01*
X000571Y000784D01*
X023099Y017274D02*
X023149Y017276D01*
X023200Y017274D01*
X023251Y017269D01*
X023301Y017260D01*
X023350Y017247D01*
X023398Y017230D01*
X023445Y017210D01*
X023490Y017187D01*
X023533Y017160D01*
X023574Y017130D01*
X023613Y017097D01*
X023649Y017061D01*
X023682Y017023D01*
X023713Y016982D01*
X023740Y016939D01*
X023764Y016894D01*
X023785Y016848D01*
X023802Y016800D01*
X023815Y016751D01*
X023825Y016701D01*
X023831Y016650D01*
D11*
X003050Y014770D03*
X002050Y014770D03*
X002050Y013770D03*
X003050Y013770D03*
X003050Y012770D03*
X002050Y012770D03*
X002050Y011770D03*
X003050Y011770D03*
X003050Y010770D03*
X002050Y010770D03*
X002050Y009770D03*
X003050Y009770D03*
X003050Y008770D03*
X002050Y008770D03*
X002050Y007770D03*
X003050Y007770D03*
X003050Y006770D03*
X002050Y006770D03*
X002050Y005770D03*
X003050Y005770D03*
X003050Y004770D03*
X002050Y004770D03*
X002050Y003770D03*
X003050Y003770D03*
X003050Y002770D03*
X002050Y002770D03*
D12*
X007183Y003461D03*
X007616Y003461D03*
X008049Y003461D03*
X008482Y003461D03*
X008915Y003461D03*
X009348Y003461D03*
X009781Y003461D03*
X009781Y007201D03*
X009348Y007201D03*
X008915Y007201D03*
X008482Y007201D03*
X008049Y007201D03*
X007616Y007201D03*
X007183Y007201D03*
D13*
X006770Y007201D03*
X010195Y007201D03*
X010195Y003461D03*
X006770Y003461D03*
D14*
X020908Y012027D03*
X019175Y015380D03*
X015400Y015405D03*
X011675Y015355D03*
X022900Y015405D03*
D15*
X021382Y015405D03*
X017657Y015380D03*
X013882Y015405D03*
X010157Y015355D03*
X022426Y012027D03*
D16*
X005254Y007027D03*
X005254Y006319D03*
D17*
X005571Y009878D03*
X004745Y009878D03*
X004745Y011356D03*
X005571Y011356D03*
X005565Y012856D03*
X004738Y012856D03*
D18*
X006729Y012856D03*
X007398Y012856D03*
X009070Y012305D03*
X009740Y012305D03*
X009740Y013505D03*
X009070Y013505D03*
X007427Y011363D03*
X006758Y011363D03*
X006751Y009878D03*
X007420Y009878D03*
X009070Y009880D03*
X009740Y009880D03*
X009740Y011080D03*
X009070Y011080D03*
X012895Y013105D03*
X013565Y013105D03*
X013615Y011155D03*
X012945Y011155D03*
X012920Y009105D03*
X013590Y009105D03*
X013590Y006105D03*
X012920Y006105D03*
X005485Y014454D03*
X004816Y014454D03*
X004826Y015449D03*
X005495Y015449D03*
D19*
X007180Y001517D03*
D20*
X005832Y001517D03*
X008528Y001517D03*
D21*
X014730Y006105D03*
X014730Y007105D03*
X014730Y008105D03*
X014730Y009105D03*
X014730Y010105D03*
X014730Y011105D03*
X014730Y012105D03*
X014730Y013105D03*
X017730Y013105D03*
X017730Y012105D03*
X017730Y011105D03*
X017730Y010105D03*
X017730Y009105D03*
X017730Y008105D03*
X017730Y007105D03*
X017730Y006105D03*
X019880Y006355D03*
X019880Y006855D03*
X019880Y007355D03*
X019880Y007855D03*
X019880Y008355D03*
X019880Y008855D03*
X019880Y009355D03*
X019880Y009855D03*
X022380Y009855D03*
X022380Y009355D03*
X022380Y008855D03*
X022380Y008355D03*
X022380Y007855D03*
X022380Y007355D03*
X022380Y006855D03*
X022380Y006355D03*
D22*
X012079Y006211D03*
X011331Y006211D03*
X011705Y007038D03*
X011331Y008061D03*
X012079Y008061D03*
X011705Y008888D03*
X011356Y010161D03*
X012104Y010161D03*
X011730Y010988D03*
X011356Y012111D03*
X012104Y012111D03*
X011730Y012938D03*
D23*
X019180Y012405D03*
D24*
X019180Y011479D03*
D25*
X007199Y015210D03*
X007002Y015210D03*
X006805Y015210D03*
X006805Y015643D03*
X007002Y015643D03*
X007199Y015643D03*
D26*
X007364Y014484D03*
X006655Y014484D03*
D27*
X000721Y000750D02*
X000774Y000658D01*
X000859Y000594D01*
X000962Y000567D01*
X000973Y000567D01*
X000976Y000570D01*
X001024Y000570D01*
X001072Y000576D01*
X001081Y000570D01*
X004736Y000570D01*
X004736Y001437D01*
X005752Y001437D01*
X005752Y001597D01*
X005752Y002681D01*
X004893Y002681D01*
X004847Y002669D01*
X004806Y002645D01*
X004772Y002612D01*
X004748Y002571D01*
X004736Y002525D01*
X004736Y001597D01*
X005752Y001597D01*
X005912Y001597D01*
X005912Y002681D01*
X006771Y002681D01*
X006816Y002669D01*
X006857Y002645D01*
X006891Y002612D01*
X006897Y002602D01*
X006943Y002648D01*
X006943Y002947D01*
X006566Y002947D01*
X006472Y003040D01*
X006472Y003882D01*
X006566Y003975D01*
X007376Y003975D01*
X007389Y003983D01*
X007435Y003995D01*
X007616Y003995D01*
X007616Y003461D01*
X007616Y003461D01*
X007616Y003995D01*
X007797Y003995D01*
X007843Y003983D01*
X007856Y003975D01*
X010399Y003975D01*
X010493Y003882D01*
X010493Y003040D01*
X010399Y002947D01*
X007856Y002947D01*
X007843Y002939D01*
X007797Y002927D01*
X007616Y002927D01*
X007616Y003461D01*
X007616Y003461D01*
X007616Y002927D01*
X007435Y002927D01*
X007423Y002930D01*
X007423Y002642D01*
X007463Y002602D01*
X007469Y002612D01*
X007503Y002645D01*
X007544Y002669D01*
X007589Y002681D01*
X008448Y002681D01*
X008448Y001597D01*
X008608Y001597D01*
X008608Y002681D01*
X009467Y002681D01*
X009513Y002669D01*
X009554Y002645D01*
X009588Y002612D01*
X009612Y002571D01*
X009624Y002525D01*
X009624Y001597D01*
X008608Y001597D01*
X008608Y001437D01*
X009624Y001437D01*
X009624Y000570D01*
X023358Y000570D01*
X023423Y000576D01*
X023543Y000626D01*
X023634Y000717D01*
X023684Y000837D01*
X023690Y000902D01*
X023690Y016641D01*
X023672Y016743D01*
X023576Y016930D01*
X023416Y017067D01*
X023215Y017132D01*
X023131Y017133D01*
X023104Y017133D01*
X023052Y017129D01*
X023047Y017133D01*
X000972Y017094D01*
X000920Y017083D01*
X000820Y017028D01*
X000749Y016939D01*
X000717Y016830D01*
X000717Y016817D01*
X000718Y016815D01*
X000718Y016765D01*
X000724Y016715D01*
X000718Y016708D01*
X000710Y000797D01*
X000721Y000750D01*
X000710Y000814D02*
X004736Y000814D01*
X004736Y000656D02*
X000778Y000656D01*
X000710Y000973D02*
X004736Y000973D01*
X004736Y001131D02*
X000710Y001131D01*
X000710Y001290D02*
X004736Y001290D01*
X004736Y001607D02*
X002183Y001607D01*
X002077Y001500D02*
X001832Y001500D01*
X001751Y001495D01*
X001746Y001500D01*
X001739Y001500D01*
X001681Y001557D01*
X000890Y002261D01*
X000883Y002261D01*
X000826Y002318D01*
X000765Y002372D01*
X000765Y002379D01*
X000760Y002384D01*
X000760Y002465D01*
X000755Y002546D01*
X000760Y002551D01*
X000760Y015231D01*
X000755Y015237D01*
X000760Y015317D01*
X000760Y015398D01*
X000765Y015403D01*
X000766Y015411D01*
X000826Y015464D01*
X000883Y015521D01*
X000891Y015521D01*
X001500Y016058D01*
X001557Y016115D01*
X001565Y016115D01*
X001571Y016120D01*
X001651Y016115D01*
X003609Y016115D01*
X003732Y015992D01*
X004290Y015434D01*
X004290Y014107D01*
X004435Y013962D01*
X004617Y013962D01*
X004617Y013999D01*
X004494Y013999D01*
X004400Y014093D01*
X004400Y014816D01*
X004494Y014910D01*
X004616Y014910D01*
X004616Y014993D01*
X004504Y014993D01*
X004410Y015087D01*
X004410Y015810D01*
X004504Y015904D01*
X004617Y015904D01*
X004617Y016521D01*
X004740Y016644D01*
X004878Y016782D01*
X006886Y016782D01*
X007009Y016659D01*
X007212Y016456D01*
X007212Y015912D01*
X007282Y015912D01*
X007327Y015900D01*
X007368Y015876D01*
X007402Y015842D01*
X007426Y015801D01*
X007438Y015756D01*
X007438Y015643D01*
X007221Y015643D01*
X007221Y015643D01*
X007438Y015643D01*
X007438Y015531D01*
X007426Y015485D01*
X007402Y015444D01*
X007370Y015413D01*
X007418Y015365D01*
X007418Y015055D01*
X007324Y014962D01*
X007144Y014962D01*
X007131Y014954D01*
X007085Y014942D01*
X007002Y014942D01*
X007002Y015033D01*
X007002Y015033D01*
X007002Y014942D01*
X006919Y014942D01*
X006873Y014954D01*
X006860Y014962D01*
X006680Y014962D01*
X006642Y014999D01*
X006400Y014999D01*
X006193Y014792D01*
X006214Y014792D01*
X006337Y014741D01*
X006337Y014787D01*
X006431Y014880D01*
X006879Y014880D01*
X006972Y014787D01*
X006972Y014182D01*
X006879Y014088D01*
X006865Y014088D01*
X006865Y013999D01*
X006530Y013665D01*
X006407Y013542D01*
X004262Y013542D01*
X003993Y013810D01*
X003870Y013933D01*
X003870Y015260D01*
X003435Y015695D01*
X001724Y015695D01*
X001180Y015216D01*
X001180Y013037D01*
X001195Y013052D01*
X001320Y013104D01*
X001454Y013104D01*
X001579Y013052D01*
X001581Y013050D01*
X001800Y013270D01*
X001520Y013550D01*
X001520Y013990D01*
X001800Y014270D01*
X001520Y014550D01*
X001520Y014990D01*
X001830Y015300D01*
X002270Y015300D01*
X002536Y015034D01*
X002822Y015320D01*
X003030Y015320D01*
X003030Y014790D01*
X003070Y014790D01*
X003070Y015320D01*
X003278Y015320D01*
X003600Y014998D01*
X003600Y014790D01*
X003070Y014790D01*
X003070Y014750D01*
X003600Y014750D01*
X003600Y014542D01*
X003314Y014256D01*
X003580Y013990D01*
X003580Y013550D01*
X003300Y013270D01*
X003580Y012990D01*
X003580Y012550D01*
X003300Y012270D01*
X003580Y011990D01*
X003580Y011550D01*
X003300Y011270D01*
X003580Y010990D01*
X003580Y010844D01*
X003865Y011129D01*
X003865Y011928D01*
X003902Y012016D01*
X003969Y012083D01*
X003969Y012083D01*
X004391Y012505D01*
X004342Y012554D01*
X004342Y013159D01*
X004436Y013252D01*
X005041Y013252D01*
X005134Y013159D01*
X005134Y012554D01*
X005041Y012460D01*
X005000Y012460D01*
X004983Y012419D01*
X004916Y012352D01*
X004916Y012352D01*
X004345Y011781D01*
X004345Y010982D01*
X004308Y010894D01*
X004241Y010827D01*
X003492Y010078D01*
X003580Y009990D01*
X003580Y009869D01*
X004490Y010779D01*
X004490Y010960D01*
X004442Y010960D01*
X004348Y011054D01*
X004348Y011659D01*
X004442Y011752D01*
X005047Y011752D01*
X005141Y011659D01*
X005141Y011054D01*
X005047Y010960D01*
X004970Y010960D01*
X004970Y010632D01*
X004933Y010544D01*
X004866Y010477D01*
X004664Y010274D01*
X005047Y010274D01*
X005141Y010180D01*
X005141Y009576D01*
X005047Y009482D01*
X004970Y009482D01*
X004970Y009407D01*
X004933Y009319D01*
X004866Y009252D01*
X003580Y007966D01*
X003580Y007550D01*
X003509Y007480D01*
X003714Y007480D01*
X005623Y009388D01*
X005716Y009482D01*
X005269Y009482D01*
X005175Y009576D01*
X005175Y010180D01*
X005269Y010274D01*
X005874Y010274D01*
X005968Y010180D01*
X005968Y010118D01*
X006335Y010118D01*
X006335Y010240D01*
X006428Y010333D01*
X007073Y010333D01*
X007076Y010330D01*
X007095Y010341D01*
X007140Y010353D01*
X007372Y010353D01*
X007372Y009926D01*
X007468Y009926D01*
X007856Y009926D01*
X007856Y010197D01*
X007844Y010243D01*
X007820Y010284D01*
X007786Y010317D01*
X007745Y010341D01*
X007699Y010353D01*
X007468Y010353D01*
X007468Y009926D01*
X007468Y009830D01*
X007856Y009830D01*
X007856Y009559D01*
X007844Y009513D01*
X007843Y009511D01*
X008270Y009511D01*
X008193Y009588D01*
X008142Y009713D01*
X008142Y009847D01*
X008193Y009972D01*
X008288Y010067D01*
X008413Y010118D01*
X008547Y010118D01*
X008654Y010074D01*
X008654Y010242D01*
X008748Y010335D01*
X008860Y010335D01*
X008860Y010625D01*
X008748Y010625D01*
X008654Y010718D01*
X008654Y011442D01*
X008748Y011535D01*
X009393Y011535D01*
X009405Y011523D01*
X009417Y011535D01*
X010062Y011535D01*
X010156Y011442D01*
X010156Y011002D01*
X011039Y010112D01*
X011039Y010405D01*
X011115Y010481D01*
X011115Y010906D01*
X010116Y011904D01*
X010062Y011850D01*
X009417Y011850D01*
X009405Y011862D01*
X009393Y011850D01*
X008748Y011850D01*
X008654Y011943D01*
X008654Y012095D01*
X008623Y012095D01*
X008547Y012018D01*
X008422Y011967D01*
X008288Y011967D01*
X008163Y012018D01*
X008068Y012113D01*
X008017Y012238D01*
X008017Y012372D01*
X008068Y012497D01*
X008163Y012592D01*
X008288Y012643D01*
X008422Y012643D01*
X008547Y012592D01*
X008623Y012515D01*
X008654Y012515D01*
X008654Y012667D01*
X008748Y012760D01*
X009393Y012760D01*
X009405Y012748D01*
X009417Y012760D01*
X010062Y012760D01*
X010156Y012667D01*
X010156Y012523D01*
X010191Y012508D01*
X011427Y011273D01*
X011428Y011276D01*
X011462Y011309D01*
X011503Y011333D01*
X011549Y011345D01*
X011730Y011345D01*
X011730Y010988D01*
X011730Y010631D01*
X011911Y010631D01*
X011957Y010643D01*
X011998Y010667D01*
X012032Y010700D01*
X012055Y010741D01*
X012067Y010787D01*
X012067Y010988D01*
X011730Y010988D01*
X011730Y010988D01*
X011730Y010631D01*
X011595Y010631D01*
X011595Y010483D01*
X011673Y010405D01*
X011673Y009918D01*
X011580Y009824D01*
X011325Y009824D01*
X011466Y009683D01*
X011533Y009616D01*
X011570Y009528D01*
X011570Y009245D01*
X011705Y009245D01*
X011705Y008888D01*
X011705Y008531D01*
X011886Y008531D01*
X011932Y008543D01*
X011973Y008567D01*
X012007Y008600D01*
X012030Y008641D01*
X012042Y008687D01*
X012042Y008888D01*
X011705Y008888D01*
X011705Y008888D01*
X011705Y008531D01*
X011570Y008531D01*
X011570Y008383D01*
X011648Y008305D01*
X011648Y007818D01*
X011555Y007724D01*
X011275Y007724D01*
X011416Y007583D01*
X011483Y007516D01*
X011520Y007428D01*
X011520Y007394D01*
X011524Y007395D01*
X011705Y007395D01*
X011705Y007038D01*
X011705Y006681D01*
X011886Y006681D01*
X011932Y006693D01*
X011932Y006693D01*
X011859Y006620D01*
X011859Y006548D01*
X011855Y006548D01*
X011762Y006455D01*
X011762Y005968D01*
X011855Y005874D01*
X012303Y005874D01*
X012396Y005968D01*
X012396Y006455D01*
X012356Y006495D01*
X012746Y006885D01*
X014349Y006885D01*
X014414Y006820D01*
X015046Y006820D01*
X015140Y006914D01*
X015140Y007296D01*
X015046Y007390D01*
X014414Y007390D01*
X014349Y007325D01*
X012564Y007325D01*
X012435Y007196D01*
X012030Y006791D01*
X012030Y006791D01*
X012042Y006837D01*
X012076Y006837D01*
X012042Y006837D02*
X012042Y007038D01*
X011705Y007038D01*
X011705Y007038D01*
X011705Y006681D01*
X011524Y006681D01*
X011520Y006682D01*
X011520Y006548D01*
X011555Y006548D01*
X011648Y006455D01*
X011648Y005968D01*
X011555Y005874D01*
X011107Y005874D01*
X011014Y005968D01*
X011014Y006455D01*
X011040Y006481D01*
X011040Y007281D01*
X010677Y007644D01*
X010640Y007732D01*
X010640Y008856D01*
X010066Y009429D01*
X010062Y009425D01*
X009417Y009425D01*
X009405Y009437D01*
X009393Y009425D01*
X008999Y009425D01*
X009886Y008537D01*
X010009Y008414D01*
X010009Y007729D01*
X010033Y007735D01*
X010195Y007735D01*
X010195Y007201D01*
X010195Y007201D01*
X010513Y007201D01*
X010513Y006823D01*
X010500Y006777D01*
X010477Y006736D01*
X010443Y006703D01*
X010402Y006679D01*
X010356Y006667D01*
X010195Y006667D01*
X010195Y007201D01*
X010513Y007201D01*
X010513Y007579D01*
X010500Y007625D01*
X010477Y007666D01*
X010443Y007699D01*
X010402Y007723D01*
X010356Y007735D01*
X010195Y007735D01*
X010195Y007201D01*
X010195Y007201D01*
X010195Y007201D01*
X010195Y006667D01*
X010033Y006667D01*
X009988Y006679D01*
X009974Y006687D01*
X008289Y006687D01*
X008276Y006679D01*
X008230Y006667D01*
X008049Y006667D01*
X008049Y007201D01*
X008049Y007201D01*
X008049Y006667D01*
X007868Y006667D01*
X007822Y006679D01*
X007809Y006687D01*
X007010Y006687D01*
X007010Y006442D01*
X006973Y006354D01*
X003580Y002961D01*
X003580Y002550D01*
X003270Y002240D01*
X002830Y002240D01*
X002824Y002247D01*
X002077Y001500D01*
X002342Y001765D02*
X004736Y001765D01*
X004736Y001924D02*
X002500Y001924D01*
X002659Y002082D02*
X004736Y002082D01*
X004736Y002241D02*
X003270Y002241D01*
X003429Y002399D02*
X004736Y002399D01*
X004745Y002558D02*
X003580Y002558D01*
X003580Y002716D02*
X006943Y002716D01*
X006943Y002875D02*
X003580Y002875D01*
X003652Y003033D02*
X006479Y003033D01*
X006472Y003192D02*
X003811Y003192D01*
X003969Y003350D02*
X006472Y003350D01*
X006472Y003509D02*
X004128Y003509D01*
X004286Y003667D02*
X006472Y003667D01*
X006472Y003826D02*
X004445Y003826D01*
X004603Y003984D02*
X007393Y003984D01*
X007616Y003984D02*
X007616Y003984D01*
X007616Y003826D02*
X007616Y003826D01*
X007616Y003667D02*
X007616Y003667D01*
X007616Y003509D02*
X007616Y003509D01*
X007616Y003350D02*
X007616Y003350D01*
X007616Y003192D02*
X007616Y003192D01*
X007616Y003033D02*
X007616Y003033D01*
X007423Y002875D02*
X023690Y002875D01*
X023690Y003033D02*
X010485Y003033D01*
X010493Y003192D02*
X023690Y003192D01*
X023690Y003350D02*
X010493Y003350D01*
X010493Y003509D02*
X023690Y003509D01*
X023690Y003667D02*
X010493Y003667D01*
X010493Y003826D02*
X023690Y003826D01*
X023690Y003984D02*
X007839Y003984D01*
X007183Y003461D02*
X007183Y001433D01*
X007180Y001517D01*
X008448Y001607D02*
X008608Y001607D01*
X008608Y001765D02*
X008448Y001765D01*
X008448Y001924D02*
X008608Y001924D01*
X008608Y002082D02*
X008448Y002082D01*
X008448Y002241D02*
X008608Y002241D01*
X008608Y002399D02*
X008448Y002399D01*
X008448Y002558D02*
X008608Y002558D01*
X009615Y002558D02*
X023690Y002558D01*
X023690Y002716D02*
X007423Y002716D01*
X005912Y002558D02*
X005752Y002558D01*
X005752Y002399D02*
X005912Y002399D01*
X005912Y002241D02*
X005752Y002241D01*
X005752Y002082D02*
X005912Y002082D01*
X005912Y001924D02*
X005752Y001924D01*
X005752Y001765D02*
X005912Y001765D01*
X005912Y001607D02*
X005752Y001607D01*
X005752Y001448D02*
X000710Y001448D01*
X000710Y001607D02*
X001626Y001607D01*
X001448Y001765D02*
X000711Y001765D01*
X000711Y001924D02*
X001269Y001924D01*
X001091Y002082D02*
X000711Y002082D01*
X000711Y002241D02*
X000913Y002241D01*
X000760Y002399D02*
X000711Y002399D01*
X000711Y002558D02*
X000760Y002558D01*
X000760Y002716D02*
X000711Y002716D01*
X000711Y002875D02*
X000760Y002875D01*
X000760Y003033D02*
X000711Y003033D01*
X000711Y003192D02*
X000760Y003192D01*
X000760Y003350D02*
X000711Y003350D01*
X000711Y003509D02*
X000760Y003509D01*
X000760Y003667D02*
X000711Y003667D01*
X000712Y003826D02*
X000760Y003826D01*
X000760Y003984D02*
X000712Y003984D01*
X000712Y004143D02*
X000760Y004143D01*
X000760Y004301D02*
X000712Y004301D01*
X000712Y004460D02*
X000760Y004460D01*
X000760Y004618D02*
X000712Y004618D01*
X000712Y004777D02*
X000760Y004777D01*
X000760Y004935D02*
X000712Y004935D01*
X000712Y005094D02*
X000760Y005094D01*
X000760Y005252D02*
X000712Y005252D01*
X000712Y005411D02*
X000760Y005411D01*
X000760Y005569D02*
X000712Y005569D01*
X000713Y005728D02*
X000760Y005728D01*
X000760Y005886D02*
X000713Y005886D01*
X000713Y006045D02*
X000760Y006045D01*
X000760Y006203D02*
X000713Y006203D01*
X000713Y006362D02*
X000760Y006362D01*
X000760Y006520D02*
X000713Y006520D01*
X000713Y006679D02*
X000760Y006679D01*
X000760Y006837D02*
X000713Y006837D01*
X000713Y006996D02*
X000760Y006996D01*
X000760Y007154D02*
X000713Y007154D01*
X000713Y007313D02*
X000760Y007313D01*
X000760Y007471D02*
X000713Y007471D01*
X000714Y007630D02*
X000760Y007630D01*
X000760Y007788D02*
X000714Y007788D01*
X000714Y007947D02*
X000760Y007947D01*
X000760Y008105D02*
X000714Y008105D01*
X000714Y008264D02*
X000760Y008264D01*
X000760Y008422D02*
X000714Y008422D01*
X000714Y008581D02*
X000760Y008581D01*
X000760Y008739D02*
X000714Y008739D01*
X000714Y008898D02*
X000760Y008898D01*
X000760Y009056D02*
X000714Y009056D01*
X000714Y009215D02*
X000760Y009215D01*
X000760Y009373D02*
X000714Y009373D01*
X000715Y009532D02*
X000760Y009532D01*
X000760Y009690D02*
X000715Y009690D01*
X000715Y009849D02*
X000760Y009849D01*
X000760Y010007D02*
X000715Y010007D01*
X000715Y010166D02*
X000760Y010166D01*
X000760Y010324D02*
X000715Y010324D01*
X000715Y010483D02*
X000760Y010483D01*
X000760Y010641D02*
X000715Y010641D01*
X000715Y010800D02*
X000760Y010800D01*
X000760Y010958D02*
X000715Y010958D01*
X000715Y011117D02*
X000760Y011117D01*
X000760Y011275D02*
X000715Y011275D01*
X000715Y011434D02*
X000760Y011434D01*
X000760Y011592D02*
X000716Y011592D01*
X000716Y011751D02*
X000760Y011751D01*
X000760Y011909D02*
X000716Y011909D01*
X000716Y012068D02*
X000760Y012068D01*
X000760Y012226D02*
X000716Y012226D01*
X000716Y012385D02*
X000760Y012385D01*
X000760Y012543D02*
X000716Y012543D01*
X000716Y012702D02*
X000760Y012702D01*
X000760Y012860D02*
X000716Y012860D01*
X000716Y013019D02*
X000760Y013019D01*
X000760Y013177D02*
X000716Y013177D01*
X000716Y013336D02*
X000760Y013336D01*
X000760Y013494D02*
X000717Y013494D01*
X000717Y013653D02*
X000760Y013653D01*
X000760Y013811D02*
X000717Y013811D01*
X000717Y013970D02*
X000760Y013970D01*
X000760Y014128D02*
X000717Y014128D01*
X000717Y014287D02*
X000760Y014287D01*
X000760Y014445D02*
X000717Y014445D01*
X000717Y014604D02*
X000760Y014604D01*
X000760Y014762D02*
X000717Y014762D01*
X000717Y014921D02*
X000760Y014921D01*
X000760Y015079D02*
X000717Y015079D01*
X000717Y015238D02*
X000755Y015238D01*
X000760Y015396D02*
X000718Y015396D01*
X000718Y015555D02*
X000929Y015555D01*
X001109Y015713D02*
X000718Y015713D01*
X000718Y015872D02*
X001288Y015872D01*
X001468Y016030D02*
X000718Y016030D01*
X000718Y016189D02*
X004617Y016189D01*
X004617Y016347D02*
X000718Y016347D01*
X000718Y016506D02*
X004617Y016506D01*
X004760Y016664D02*
X000718Y016664D01*
X000717Y016823D02*
X023631Y016823D01*
X023686Y016664D02*
X007004Y016664D01*
X007163Y016506D02*
X011947Y016506D01*
X011982Y016520D02*
X011894Y016483D01*
X011544Y016133D01*
X011477Y016066D01*
X011440Y015978D01*
X011440Y015915D01*
X011209Y015915D01*
X011115Y015821D01*
X011115Y014889D01*
X011209Y014795D01*
X012141Y014795D01*
X012235Y014889D01*
X012235Y015821D01*
X012141Y015915D01*
X012004Y015915D01*
X012129Y016040D01*
X014881Y016040D01*
X014956Y015965D01*
X014934Y015965D01*
X014840Y015871D01*
X014840Y014939D01*
X014934Y014845D01*
X015866Y014845D01*
X015960Y014939D01*
X015960Y015871D01*
X015866Y015965D01*
X015754Y015965D01*
X015854Y016065D01*
X018631Y016065D01*
X018756Y015940D01*
X018709Y015940D01*
X018615Y015846D01*
X018615Y014914D01*
X018709Y014820D01*
X018935Y014820D01*
X018935Y013091D01*
X018614Y013091D01*
X018520Y012997D01*
X018520Y012234D01*
X017676Y011390D01*
X017414Y011390D01*
X017320Y011296D01*
X017320Y010914D01*
X017414Y010820D01*
X017601Y010820D01*
X018031Y010390D01*
X017414Y010390D01*
X017320Y010296D01*
X017320Y009914D01*
X017414Y009820D01*
X017490Y009820D01*
X017490Y009682D01*
X017527Y009594D01*
X017567Y009554D01*
X017567Y009488D01*
X017607Y009390D01*
X017414Y009390D01*
X017320Y009296D01*
X017320Y008914D01*
X017392Y008842D01*
X017392Y008713D01*
X017443Y008588D01*
X017538Y008493D01*
X017620Y008460D01*
X017551Y008390D01*
X017414Y008390D01*
X017320Y008296D01*
X017320Y007914D01*
X017414Y007820D01*
X017490Y007820D01*
X017490Y007390D01*
X017414Y007390D01*
X017320Y007296D01*
X017320Y006914D01*
X017414Y006820D01*
X018046Y006820D01*
X018140Y006914D01*
X018140Y007296D01*
X018046Y007390D01*
X017970Y007390D01*
X017970Y007820D01*
X018046Y007820D01*
X018140Y007914D01*
X018140Y008296D01*
X018138Y008298D01*
X019041Y009202D01*
X019108Y009269D01*
X019145Y009357D01*
X019145Y009615D01*
X019519Y009615D01*
X019529Y009605D01*
X019470Y009546D01*
X019470Y009164D01*
X019529Y009105D01*
X019470Y009046D01*
X019470Y008664D01*
X019529Y008605D01*
X019470Y008546D01*
X019470Y008164D01*
X019529Y008105D01*
X019470Y008046D01*
X019470Y007664D01*
X019529Y007605D01*
X019519Y007595D01*
X019293Y007595D01*
X019247Y007642D01*
X019122Y007693D01*
X018988Y007693D01*
X018863Y007642D01*
X018768Y007547D01*
X018717Y007422D01*
X018717Y007288D01*
X018768Y007163D01*
X018839Y007092D01*
X018768Y007022D01*
X018717Y006897D01*
X018717Y006763D01*
X018768Y006638D01*
X018863Y006543D01*
X018988Y006492D01*
X019122Y006492D01*
X019247Y006543D01*
X019293Y006590D01*
X019514Y006590D01*
X019470Y006546D01*
X019470Y006164D01*
X019564Y006070D01*
X019640Y006070D01*
X019640Y005918D01*
X019593Y005872D01*
X019542Y005747D01*
X019542Y005613D01*
X019593Y005488D01*
X019688Y005393D01*
X019813Y005342D01*
X019947Y005342D01*
X020072Y005393D01*
X020167Y005488D01*
X020218Y005613D01*
X020218Y005747D01*
X020167Y005872D01*
X020120Y005918D01*
X020120Y006070D01*
X020196Y006070D01*
X020290Y006164D01*
X020290Y006546D01*
X020231Y006605D01*
X020290Y006664D01*
X020290Y007046D01*
X020231Y007105D01*
X020290Y007164D01*
X020290Y007546D01*
X020231Y007605D01*
X020241Y007615D01*
X020453Y007615D01*
X020541Y007652D01*
X020608Y007719D01*
X021883Y008994D01*
X021920Y009082D01*
X021920Y011785D01*
X021951Y011710D01*
X022108Y011552D01*
X022180Y011523D01*
X022164Y010140D01*
X022064Y010140D01*
X021970Y010046D01*
X021970Y009664D01*
X022029Y009605D01*
X021970Y009546D01*
X021970Y009164D01*
X022029Y009105D01*
X021970Y009046D01*
X021970Y008664D01*
X022029Y008605D01*
X021970Y008546D01*
X021970Y008164D01*
X022029Y008105D01*
X021970Y008046D01*
X021970Y007664D01*
X022029Y007605D01*
X021994Y007570D01*
X021593Y007570D01*
X021547Y007617D01*
X021422Y007668D01*
X021288Y007668D01*
X021163Y007617D01*
X021068Y007522D01*
X021017Y007397D01*
X021017Y007263D01*
X021056Y007169D01*
X020988Y007142D01*
X020893Y007047D01*
X020842Y006922D01*
X020842Y006788D01*
X020893Y006663D01*
X020988Y006568D01*
X021113Y006517D01*
X021247Y006517D01*
X021372Y006568D01*
X021418Y006615D01*
X022019Y006615D01*
X022029Y006605D01*
X021970Y006546D01*
X021970Y006164D01*
X022064Y006070D01*
X022165Y006070D01*
X022165Y005829D01*
X021406Y005070D01*
X018854Y005070D01*
X018075Y005849D01*
X018140Y005914D01*
X018140Y006296D01*
X018046Y006390D01*
X017414Y006390D01*
X017320Y006296D01*
X017320Y005914D01*
X017414Y005820D01*
X017490Y005820D01*
X017490Y005807D01*
X017527Y005719D01*
X018552Y004694D01*
X018619Y004627D01*
X018707Y004590D01*
X021553Y004590D01*
X021641Y004627D01*
X022541Y005527D01*
X022608Y005594D01*
X022645Y005682D01*
X022645Y006070D01*
X022696Y006070D01*
X022790Y006164D01*
X022790Y006546D01*
X022731Y006605D01*
X022790Y006664D01*
X022790Y007046D01*
X022731Y007105D01*
X022790Y007164D01*
X022790Y007546D01*
X022731Y007605D01*
X022790Y007664D01*
X022790Y008046D01*
X022731Y008105D01*
X022790Y008164D01*
X022790Y008546D01*
X022731Y008605D01*
X022790Y008664D01*
X022790Y009046D01*
X022731Y009105D01*
X022790Y009164D01*
X022790Y009546D01*
X022731Y009605D01*
X022790Y009664D01*
X022790Y010046D01*
X022696Y010140D01*
X022644Y010140D01*
X022660Y011518D01*
X022743Y011552D01*
X022900Y011710D01*
X022986Y011916D01*
X022986Y012138D01*
X022900Y012344D01*
X022743Y012502D01*
X022537Y012587D01*
X022314Y012587D01*
X022108Y012502D01*
X021951Y012344D01*
X021920Y012269D01*
X021920Y015153D01*
X021902Y015197D01*
X021942Y015294D01*
X021942Y015516D01*
X021857Y015722D01*
X021699Y015880D01*
X021493Y015965D01*
X021271Y015965D01*
X021065Y015880D01*
X020907Y015722D01*
X020822Y015516D01*
X020822Y015294D01*
X020907Y015088D01*
X021065Y014930D01*
X021271Y014845D01*
X021440Y014845D01*
X021440Y012521D01*
X021374Y012587D01*
X020441Y012587D01*
X020348Y012493D01*
X020348Y011806D01*
X020261Y011719D01*
X019566Y011719D01*
X019566Y011719D01*
X019746Y011719D01*
X019840Y011813D01*
X019840Y012997D01*
X019746Y013091D01*
X019415Y013091D01*
X019415Y014820D01*
X019641Y014820D01*
X019735Y014914D01*
X019735Y015846D01*
X019641Y015940D01*
X019579Y015940D01*
X019704Y016065D01*
X022381Y016065D01*
X022481Y015965D01*
X022434Y015965D01*
X022340Y015871D01*
X022340Y014939D01*
X022434Y014845D01*
X023366Y014845D01*
X023460Y014939D01*
X023460Y015871D01*
X023366Y015965D01*
X023130Y015965D01*
X023108Y016016D01*
X023041Y016083D01*
X022616Y016508D01*
X022528Y016545D01*
X019557Y016545D01*
X019469Y016508D01*
X019402Y016441D01*
X019168Y016207D01*
X018866Y016508D01*
X018778Y016545D01*
X015707Y016545D01*
X015619Y016508D01*
X015552Y016441D01*
X015355Y016244D01*
X015183Y016416D01*
X015116Y016483D01*
X015028Y016520D01*
X011982Y016520D01*
X012030Y016280D02*
X011680Y015930D01*
X011680Y015360D01*
X011675Y015355D01*
X011115Y015396D02*
X010717Y015396D01*
X010717Y015466D02*
X010632Y015672D01*
X010474Y015830D01*
X010268Y015915D01*
X010046Y015915D01*
X009840Y015830D01*
X009682Y015672D01*
X009597Y015466D01*
X009597Y015244D01*
X009682Y015038D01*
X009840Y014880D01*
X010011Y014809D01*
X010567Y014254D01*
X010567Y014188D01*
X010618Y014063D01*
X010713Y013968D01*
X010838Y013917D01*
X010972Y013917D01*
X011097Y013968D01*
X011192Y014063D01*
X011243Y014188D01*
X011243Y014322D01*
X011192Y014447D01*
X011097Y014542D01*
X010972Y014593D01*
X010906Y014593D01*
X010547Y014953D01*
X010632Y015038D01*
X010717Y015244D01*
X010717Y015466D01*
X010681Y015555D02*
X011115Y015555D01*
X011115Y015713D02*
X010591Y015713D01*
X010373Y015872D02*
X011165Y015872D01*
X011462Y016030D02*
X007212Y016030D01*
X007212Y016189D02*
X011599Y016189D01*
X011758Y016347D02*
X007212Y016347D01*
X006792Y016282D02*
X006792Y015892D01*
X006680Y015892D01*
X006641Y015853D01*
X005964Y015853D01*
X005911Y015800D01*
X005911Y015810D01*
X005817Y015904D01*
X005739Y015904D01*
X005781Y015946D01*
X005832Y016070D01*
X005832Y016205D01*
X005781Y016329D01*
X005747Y016362D01*
X006712Y016362D01*
X006792Y016282D01*
X006727Y016347D02*
X005762Y016347D01*
X005832Y016189D02*
X006792Y016189D01*
X006792Y016030D02*
X005816Y016030D01*
X005850Y015872D02*
X006659Y015872D01*
X007373Y015872D02*
X009941Y015872D01*
X009723Y015713D02*
X007438Y015713D01*
X007438Y015555D02*
X009634Y015555D01*
X009597Y015396D02*
X007387Y015396D01*
X007418Y015238D02*
X009600Y015238D01*
X009665Y015079D02*
X007418Y015079D01*
X007364Y014900D02*
X007364Y014484D01*
X007364Y014484D01*
X007701Y014484D01*
X007701Y014224D01*
X007689Y014179D01*
X007665Y014138D01*
X007632Y014104D01*
X007591Y014080D01*
X007545Y014068D01*
X007364Y014068D01*
X007364Y014484D01*
X007364Y014484D01*
X007701Y014484D01*
X007701Y014744D01*
X007689Y014790D01*
X007665Y014831D01*
X007632Y014865D01*
X007591Y014888D01*
X007545Y014900D01*
X007364Y014900D01*
X007182Y014900D01*
X007137Y014888D01*
X007096Y014865D01*
X007062Y014831D01*
X007038Y014790D01*
X007026Y014744D01*
X007026Y014484D01*
X007026Y014224D01*
X007038Y014179D01*
X007062Y014138D01*
X007096Y014104D01*
X007137Y014080D01*
X007182Y014068D01*
X007364Y014068D01*
X007364Y014484D01*
X007364Y014484D01*
X007026Y014484D01*
X007364Y014484D01*
X007364Y014484D01*
X007364Y014900D01*
X007364Y014762D02*
X007364Y014762D01*
X007364Y014604D02*
X007364Y014604D01*
X007364Y014445D02*
X007364Y014445D01*
X007364Y014287D02*
X007364Y014287D01*
X007364Y014128D02*
X007364Y014128D01*
X007656Y014128D02*
X010592Y014128D01*
X010534Y014287D02*
X007701Y014287D01*
X007701Y014445D02*
X010376Y014445D01*
X010217Y014604D02*
X007701Y014604D01*
X007696Y014762D02*
X010059Y014762D01*
X010157Y015003D02*
X010905Y014255D01*
X011192Y014445D02*
X014526Y014445D01*
X014684Y014287D02*
X011243Y014287D01*
X011218Y014128D02*
X014756Y014128D01*
X014742Y014163D02*
X014793Y014038D01*
X014888Y013943D01*
X015013Y013892D01*
X015147Y013892D01*
X015272Y013943D01*
X015367Y014038D01*
X015418Y014163D01*
X015418Y014297D01*
X015367Y014422D01*
X015272Y014517D01*
X015147Y014568D01*
X015081Y014568D01*
X014417Y015233D01*
X014442Y015294D01*
X014442Y015516D01*
X014357Y015722D01*
X014199Y015880D01*
X013993Y015965D01*
X013771Y015965D01*
X013565Y015880D01*
X013407Y015722D01*
X013322Y015516D01*
X013322Y015294D01*
X013407Y015088D01*
X013565Y014930D01*
X013771Y014845D01*
X013993Y014845D01*
X014087Y014884D01*
X014742Y014229D01*
X014742Y014163D01*
X015080Y014230D02*
X013905Y015405D01*
X013882Y015405D01*
X013403Y015713D02*
X012235Y015713D01*
X012235Y015555D02*
X013338Y015555D01*
X013322Y015396D02*
X012235Y015396D01*
X012235Y015238D02*
X013345Y015238D01*
X013416Y015079D02*
X012235Y015079D01*
X012235Y014921D02*
X013588Y014921D01*
X014209Y014762D02*
X010737Y014762D01*
X010579Y014921D02*
X011115Y014921D01*
X011115Y015079D02*
X010649Y015079D01*
X010715Y015238D02*
X011115Y015238D01*
X010896Y014604D02*
X014367Y014604D01*
X014729Y014921D02*
X014858Y014921D01*
X014840Y015079D02*
X014570Y015079D01*
X014419Y015238D02*
X014840Y015238D01*
X014840Y015396D02*
X014442Y015396D01*
X014426Y015555D02*
X014840Y015555D01*
X014840Y015713D02*
X014361Y015713D01*
X014207Y015872D02*
X014840Y015872D01*
X014891Y016030D02*
X012119Y016030D01*
X012185Y015872D02*
X013557Y015872D01*
X014980Y016280D02*
X012030Y016280D01*
X010157Y015355D02*
X010157Y015003D01*
X009800Y014921D02*
X006322Y014921D01*
X006337Y014762D02*
X006287Y014762D01*
X006972Y014762D02*
X007031Y014762D01*
X007026Y014604D02*
X006972Y014604D01*
X006972Y014445D02*
X007026Y014445D01*
X007026Y014287D02*
X006972Y014287D01*
X006919Y014128D02*
X007072Y014128D01*
X006835Y013970D02*
X010712Y013970D01*
X011098Y013970D02*
X014862Y013970D01*
X015298Y013970D02*
X017037Y013970D01*
X017038Y013968D02*
X017163Y013917D01*
X017297Y013917D01*
X017422Y013968D01*
X017517Y014063D01*
X017568Y014188D01*
X017568Y014254D01*
X017861Y014546D01*
X017897Y014634D01*
X017897Y014873D01*
X017974Y014905D01*
X018132Y015063D01*
X018217Y015269D01*
X018217Y015491D01*
X018132Y015697D01*
X017974Y015855D01*
X017768Y015940D01*
X017546Y015940D01*
X017340Y015855D01*
X017182Y015697D01*
X017097Y015491D01*
X017097Y015269D01*
X017182Y015063D01*
X017340Y014905D01*
X017417Y014873D01*
X017417Y014781D01*
X017229Y014593D01*
X017163Y014593D01*
X017038Y014542D01*
X016943Y014447D01*
X016892Y014322D01*
X016892Y014188D01*
X016943Y014063D01*
X017038Y013968D01*
X016917Y014128D02*
X015404Y014128D01*
X015418Y014287D02*
X016892Y014287D01*
X016943Y014445D02*
X015343Y014445D01*
X015046Y014604D02*
X017239Y014604D01*
X017398Y014762D02*
X014887Y014762D01*
X015400Y015405D02*
X015380Y015425D01*
X015380Y015880D01*
X014980Y016280D01*
X015063Y016506D02*
X015616Y016506D01*
X015552Y016441D02*
X015552Y016441D01*
X015458Y016347D02*
X015252Y016347D01*
X015380Y015930D02*
X015380Y015880D01*
X015380Y015930D02*
X015755Y016305D01*
X018730Y016305D01*
X019155Y015880D01*
X019180Y015880D01*
X019605Y016305D01*
X022480Y016305D01*
X022905Y015880D01*
X022905Y015410D01*
X022900Y015405D01*
X023460Y015396D02*
X023690Y015396D01*
X023690Y015238D02*
X023460Y015238D01*
X023460Y015079D02*
X023690Y015079D01*
X023690Y014921D02*
X023442Y014921D01*
X023690Y014762D02*
X021920Y014762D01*
X021920Y014604D02*
X023690Y014604D01*
X023690Y014445D02*
X021920Y014445D01*
X021920Y014287D02*
X023690Y014287D01*
X023690Y014128D02*
X021920Y014128D01*
X021920Y013970D02*
X023690Y013970D01*
X023690Y013811D02*
X021920Y013811D01*
X021920Y013653D02*
X023690Y013653D01*
X023690Y013494D02*
X021920Y013494D01*
X021920Y013336D02*
X023690Y013336D01*
X023690Y013177D02*
X021920Y013177D01*
X021920Y013019D02*
X023690Y013019D01*
X023690Y012860D02*
X021920Y012860D01*
X021920Y012702D02*
X023690Y012702D01*
X023690Y012543D02*
X022643Y012543D01*
X022860Y012385D02*
X023690Y012385D01*
X023690Y012226D02*
X022949Y012226D01*
X022986Y012068D02*
X023690Y012068D01*
X023690Y011909D02*
X022983Y011909D01*
X022917Y011751D02*
X023690Y011751D01*
X023690Y011592D02*
X022783Y011592D01*
X022659Y011434D02*
X023690Y011434D01*
X023690Y011275D02*
X022657Y011275D01*
X022655Y011117D02*
X023690Y011117D01*
X023690Y010958D02*
X022653Y010958D01*
X022651Y010800D02*
X023690Y010800D01*
X023690Y010641D02*
X022650Y010641D01*
X022648Y010483D02*
X023690Y010483D01*
X023690Y010324D02*
X022646Y010324D01*
X022644Y010166D02*
X023690Y010166D01*
X023690Y010007D02*
X022790Y010007D01*
X022790Y009849D02*
X023690Y009849D01*
X023690Y009690D02*
X022790Y009690D01*
X022790Y009532D02*
X023690Y009532D01*
X023690Y009373D02*
X022790Y009373D01*
X022790Y009215D02*
X023690Y009215D01*
X023690Y009056D02*
X022780Y009056D01*
X022790Y008898D02*
X023690Y008898D01*
X023690Y008739D02*
X022790Y008739D01*
X022756Y008581D02*
X023690Y008581D01*
X023690Y008422D02*
X022790Y008422D01*
X022790Y008264D02*
X023690Y008264D01*
X023690Y008105D02*
X022731Y008105D01*
X022790Y007947D02*
X023690Y007947D01*
X023690Y007788D02*
X022790Y007788D01*
X022756Y007630D02*
X023690Y007630D01*
X023690Y007471D02*
X022790Y007471D01*
X022790Y007313D02*
X023690Y007313D01*
X023690Y007154D02*
X022780Y007154D01*
X022790Y006996D02*
X023690Y006996D01*
X023690Y006837D02*
X022790Y006837D01*
X022790Y006679D02*
X023690Y006679D01*
X023690Y006520D02*
X022790Y006520D01*
X022790Y006362D02*
X023690Y006362D01*
X023690Y006203D02*
X022790Y006203D01*
X022645Y006045D02*
X023690Y006045D01*
X023690Y005886D02*
X022645Y005886D01*
X022645Y005728D02*
X023690Y005728D01*
X023690Y005569D02*
X022583Y005569D01*
X022425Y005411D02*
X023690Y005411D01*
X023690Y005252D02*
X022266Y005252D01*
X022108Y005094D02*
X023690Y005094D01*
X023690Y004935D02*
X021949Y004935D01*
X021791Y004777D02*
X023690Y004777D01*
X023690Y004618D02*
X021620Y004618D01*
X021505Y004830D02*
X022405Y005730D01*
X022405Y006330D01*
X022380Y006355D01*
X021970Y006362D02*
X020290Y006362D01*
X020290Y006520D02*
X021105Y006520D01*
X021255Y006520D02*
X021970Y006520D01*
X021970Y006203D02*
X020290Y006203D01*
X020120Y006045D02*
X022165Y006045D01*
X022165Y005886D02*
X020152Y005886D01*
X020218Y005728D02*
X022063Y005728D01*
X021905Y005569D02*
X020200Y005569D01*
X020089Y005411D02*
X021746Y005411D01*
X021588Y005252D02*
X018672Y005252D01*
X018514Y005411D02*
X019671Y005411D01*
X019560Y005569D02*
X018355Y005569D01*
X018197Y005728D02*
X019542Y005728D01*
X019608Y005886D02*
X018112Y005886D01*
X018140Y006045D02*
X019640Y006045D01*
X019470Y006203D02*
X018140Y006203D01*
X018075Y006362D02*
X019470Y006362D01*
X019470Y006520D02*
X019190Y006520D01*
X018920Y006520D02*
X013952Y006520D01*
X013912Y006560D02*
X013267Y006560D01*
X013255Y006548D01*
X013243Y006560D01*
X012598Y006560D01*
X012504Y006467D01*
X012504Y005743D01*
X012598Y005650D01*
X012710Y005650D01*
X012710Y005613D01*
X012643Y005547D01*
X012592Y005422D01*
X012592Y005288D01*
X012643Y005163D01*
X012738Y005068D01*
X012863Y005017D01*
X012997Y005017D01*
X013122Y005068D01*
X013217Y005163D01*
X013268Y005288D01*
X013268Y005422D01*
X013217Y005547D01*
X013150Y005613D01*
X013150Y005650D01*
X013243Y005650D01*
X013255Y005662D01*
X013267Y005650D01*
X013912Y005650D01*
X014006Y005743D01*
X014006Y005885D01*
X014349Y005885D01*
X014414Y005820D01*
X015046Y005820D01*
X015140Y005914D01*
X015140Y006296D01*
X015046Y006390D01*
X014414Y006390D01*
X014349Y006325D01*
X014006Y006325D01*
X014006Y006467D01*
X013912Y006560D01*
X014006Y006362D02*
X014385Y006362D01*
X015075Y006362D02*
X017385Y006362D01*
X017320Y006203D02*
X015140Y006203D01*
X015140Y006045D02*
X017320Y006045D01*
X017348Y005886D02*
X015112Y005886D01*
X013990Y005728D02*
X017523Y005728D01*
X017677Y005569D02*
X013194Y005569D01*
X013268Y005411D02*
X017835Y005411D01*
X017994Y005252D02*
X013253Y005252D01*
X013147Y005094D02*
X018152Y005094D01*
X018311Y004935D02*
X005554Y004935D01*
X005396Y004777D02*
X018469Y004777D01*
X018640Y004618D02*
X005237Y004618D01*
X005079Y004460D02*
X023690Y004460D01*
X023690Y004301D02*
X004920Y004301D01*
X004762Y004143D02*
X023690Y004143D01*
X021505Y004830D02*
X018755Y004830D01*
X017730Y005855D01*
X017730Y006105D01*
X018752Y006679D02*
X012540Y006679D01*
X012558Y006520D02*
X012381Y006520D01*
X012396Y006362D02*
X012504Y006362D01*
X012504Y006203D02*
X012396Y006203D01*
X012396Y006045D02*
X012504Y006045D01*
X012504Y005886D02*
X012315Y005886D01*
X012520Y005728D02*
X006347Y005728D01*
X006505Y005886D02*
X011095Y005886D01*
X011014Y006045D02*
X006664Y006045D01*
X006822Y006203D02*
X011014Y006203D01*
X011014Y006362D02*
X006976Y006362D01*
X007010Y006520D02*
X011040Y006520D01*
X011040Y006679D02*
X010400Y006679D01*
X010513Y006837D02*
X011040Y006837D01*
X011040Y006996D02*
X010513Y006996D01*
X010513Y007154D02*
X011040Y007154D01*
X011008Y007313D02*
X010513Y007313D01*
X010513Y007471D02*
X010850Y007471D01*
X010691Y007630D02*
X010498Y007630D01*
X010640Y007788D02*
X010009Y007788D01*
X010009Y007947D02*
X010640Y007947D01*
X010640Y008105D02*
X010009Y008105D01*
X010009Y008264D02*
X010640Y008264D01*
X010640Y008422D02*
X010001Y008422D01*
X009843Y008581D02*
X010640Y008581D01*
X010640Y008739D02*
X009684Y008739D01*
X009526Y008898D02*
X010598Y008898D01*
X010440Y009056D02*
X009367Y009056D01*
X009209Y009215D02*
X010281Y009215D01*
X010123Y009373D02*
X009050Y009373D01*
X008945Y009780D02*
X008480Y009780D01*
X008250Y009532D02*
X007848Y009532D01*
X007856Y009690D02*
X008151Y009690D01*
X008142Y009849D02*
X007468Y009849D01*
X007468Y010007D02*
X007372Y010007D01*
X007372Y010166D02*
X007468Y010166D01*
X007468Y010324D02*
X007372Y010324D01*
X007775Y010324D02*
X008737Y010324D01*
X008654Y010166D02*
X007856Y010166D01*
X007856Y010007D02*
X008229Y010007D01*
X008860Y010483D02*
X004872Y010483D01*
X004970Y010641D02*
X008732Y010641D01*
X008654Y010800D02*
X004970Y010800D01*
X004970Y010958D02*
X006386Y010958D01*
X006342Y011002D02*
X006436Y010908D01*
X007080Y010908D01*
X007083Y010911D01*
X007102Y010900D01*
X007148Y010888D01*
X007379Y010888D01*
X007379Y011316D01*
X007475Y011316D01*
X007475Y011411D01*
X007863Y011411D01*
X007863Y011682D01*
X007851Y011728D01*
X007827Y011769D01*
X007794Y011803D01*
X007753Y011827D01*
X007707Y011839D01*
X007475Y011839D01*
X007475Y011411D01*
X007379Y011411D01*
X007379Y011839D01*
X007148Y011839D01*
X007102Y011827D01*
X007083Y011816D01*
X007080Y011819D01*
X006436Y011819D01*
X006342Y011725D01*
X006342Y011596D01*
X005968Y011596D01*
X005968Y011659D01*
X005874Y011752D01*
X005269Y011752D01*
X005175Y011659D01*
X005175Y011054D01*
X005269Y010960D01*
X005874Y010960D01*
X005968Y011054D01*
X005968Y011116D01*
X006342Y011116D01*
X006342Y011002D01*
X006751Y011356D02*
X006758Y011363D01*
X006751Y011356D02*
X005571Y011356D01*
X005175Y011434D02*
X005141Y011434D01*
X005141Y011592D02*
X005175Y011592D01*
X005267Y011751D02*
X005049Y011751D01*
X004632Y012068D02*
X008114Y012068D01*
X008022Y012226D02*
X004790Y012226D01*
X004949Y012385D02*
X007105Y012385D01*
X007119Y012381D02*
X007350Y012381D01*
X007350Y012808D01*
X007446Y012808D01*
X007446Y012381D01*
X007678Y012381D01*
X007724Y012393D01*
X007765Y012417D01*
X007798Y012450D01*
X007822Y012491D01*
X007834Y012537D01*
X007834Y012808D01*
X007446Y012808D01*
X007446Y012904D01*
X007834Y012904D01*
X007834Y013175D01*
X007822Y013221D01*
X007798Y013262D01*
X007765Y013296D01*
X007724Y013319D01*
X007678Y013332D01*
X007446Y013332D01*
X007446Y012904D01*
X007350Y012904D01*
X007350Y013332D01*
X007119Y013332D01*
X007073Y013319D01*
X007054Y013308D01*
X007051Y013312D01*
X006407Y013312D01*
X006313Y013218D01*
X006313Y013096D01*
X005961Y013096D01*
X005961Y013159D01*
X005867Y013252D01*
X005262Y013252D01*
X005169Y013159D01*
X005169Y012554D01*
X005262Y012460D01*
X005867Y012460D01*
X005961Y012554D01*
X005961Y012616D01*
X006313Y012616D01*
X006313Y012495D01*
X006407Y012401D01*
X007051Y012401D01*
X007054Y012404D01*
X007073Y012393D01*
X007119Y012381D01*
X007350Y012385D02*
X007446Y012385D01*
X007446Y012543D02*
X007350Y012543D01*
X007350Y012702D02*
X007446Y012702D01*
X007446Y012860D02*
X010268Y012860D01*
X010121Y012702D02*
X010426Y012702D01*
X010585Y012543D02*
X010156Y012543D01*
X010315Y012385D02*
X010743Y012385D01*
X010902Y012226D02*
X010473Y012226D01*
X010632Y012068D02*
X011039Y012068D01*
X011039Y012089D02*
X011039Y011868D01*
X011132Y011774D01*
X011580Y011774D01*
X011673Y011868D01*
X011673Y012355D01*
X011580Y012448D01*
X011358Y012448D01*
X010156Y013651D01*
X010156Y013867D01*
X010062Y013960D01*
X009417Y013960D01*
X009405Y013948D01*
X009393Y013960D01*
X008748Y013960D01*
X008654Y013867D01*
X008654Y013690D01*
X008648Y013690D01*
X008572Y013767D01*
X008447Y013818D01*
X008313Y013818D01*
X008188Y013767D01*
X008093Y013672D01*
X008042Y013547D01*
X008042Y013413D01*
X008093Y013288D01*
X008188Y013193D01*
X008313Y013142D01*
X008447Y013142D01*
X008572Y013193D01*
X008648Y013270D01*
X008654Y013270D01*
X008654Y013143D01*
X008748Y013050D01*
X009393Y013050D01*
X009405Y013062D01*
X009417Y013050D01*
X010062Y013050D01*
X010070Y013058D01*
X011039Y012089D01*
X011039Y011909D02*
X010790Y011909D01*
X010949Y011751D02*
X012705Y011751D01*
X012705Y011791D02*
X012705Y011610D01*
X012623Y011610D01*
X012529Y011517D01*
X012529Y010793D01*
X012623Y010700D01*
X012680Y010700D01*
X012680Y010484D01*
X012597Y010518D01*
X012463Y010518D01*
X012353Y010473D01*
X012328Y010498D01*
X011880Y010498D01*
X011787Y010405D01*
X011787Y009918D01*
X011880Y009824D01*
X012328Y009824D01*
X012380Y009876D01*
X012463Y009842D01*
X012597Y009842D01*
X012680Y009876D01*
X012680Y009560D01*
X012598Y009560D01*
X012513Y009475D01*
X012447Y009542D01*
X012322Y009593D01*
X012188Y009593D01*
X012063Y009542D01*
X011968Y009447D01*
X011917Y009322D01*
X011917Y009237D01*
X011886Y009245D01*
X011705Y009245D01*
X011705Y008888D01*
X011705Y008888D01*
X012042Y008888D01*
X012042Y008989D01*
X012063Y008968D01*
X012188Y008917D01*
X012322Y008917D01*
X012447Y008968D01*
X012491Y009013D01*
X012504Y009012D01*
X012504Y008743D01*
X012598Y008650D01*
X012647Y008650D01*
X012643Y008647D01*
X012592Y008522D01*
X012592Y008388D01*
X012628Y008301D01*
X012396Y008301D01*
X012396Y008305D01*
X012303Y008398D01*
X011855Y008398D01*
X011762Y008305D01*
X011762Y007818D01*
X011855Y007724D01*
X012303Y007724D01*
X012396Y007818D01*
X012396Y007821D01*
X014412Y007821D01*
X014414Y007820D01*
X015046Y007820D01*
X015140Y007914D01*
X015140Y008296D01*
X015046Y008390D01*
X014414Y008390D01*
X014325Y008301D01*
X013232Y008301D01*
X013268Y008388D01*
X013268Y008522D01*
X013217Y008647D01*
X013213Y008650D01*
X013243Y008650D01*
X013255Y008662D01*
X013267Y008650D01*
X013912Y008650D01*
X014006Y008743D01*
X014006Y008865D01*
X014369Y008865D01*
X014414Y008820D01*
X015046Y008820D01*
X015140Y008914D01*
X015140Y009296D01*
X015046Y009390D01*
X014414Y009390D01*
X014369Y009345D01*
X014006Y009345D01*
X014006Y009467D01*
X013912Y009560D01*
X013267Y009560D01*
X013255Y009548D01*
X013243Y009560D01*
X013160Y009560D01*
X013160Y010700D01*
X013268Y010700D01*
X013280Y010712D01*
X013292Y010700D01*
X013375Y010700D01*
X013375Y010573D01*
X013411Y010484D01*
X013952Y009944D01*
X014019Y009877D01*
X014107Y009840D01*
X014394Y009840D01*
X014414Y009820D01*
X015046Y009820D01*
X015140Y009914D01*
X015140Y010296D01*
X015046Y010390D01*
X014414Y010390D01*
X014344Y010320D01*
X014254Y010320D01*
X013875Y010700D01*
X013937Y010700D01*
X014031Y010793D01*
X014031Y010811D01*
X014138Y010767D01*
X014272Y010767D01*
X014397Y010818D01*
X014406Y010828D01*
X014414Y010820D01*
X015046Y010820D01*
X015140Y010914D01*
X015140Y011296D01*
X015046Y011390D01*
X014414Y011390D01*
X014406Y011382D01*
X014397Y011392D01*
X014272Y011443D01*
X014138Y011443D01*
X014031Y011399D01*
X014031Y011517D01*
X013937Y011610D01*
X013292Y011610D01*
X013280Y011598D01*
X013268Y011610D01*
X013185Y011610D01*
X013185Y012650D01*
X013218Y012650D01*
X013230Y012662D01*
X013242Y012650D01*
X013887Y012650D01*
X013981Y012743D01*
X013981Y012865D01*
X014369Y012865D01*
X014414Y012820D01*
X015046Y012820D01*
X015140Y012914D01*
X015140Y013296D01*
X015046Y013390D01*
X014414Y013390D01*
X014369Y013345D01*
X013981Y013345D01*
X013981Y013467D01*
X013887Y013560D01*
X013242Y013560D01*
X013230Y013548D01*
X013218Y013560D01*
X012573Y013560D01*
X012479Y013467D01*
X012479Y012743D01*
X012573Y012650D01*
X012705Y012650D01*
X012705Y012419D01*
X012647Y012443D01*
X012513Y012443D01*
X012388Y012392D01*
X012387Y012390D01*
X012328Y012448D01*
X011880Y012448D01*
X011787Y012355D01*
X011787Y011868D01*
X011880Y011774D01*
X012328Y011774D01*
X012380Y011827D01*
X012388Y011818D01*
X012513Y011767D01*
X012647Y011767D01*
X012705Y011791D01*
X012605Y011592D02*
X011107Y011592D01*
X011266Y011434D02*
X012529Y011434D01*
X012529Y011275D02*
X012032Y011275D01*
X012032Y011276D02*
X011998Y011309D01*
X011957Y011333D01*
X011911Y011345D01*
X011730Y011345D01*
X011730Y010988D01*
X011730Y010988D01*
X012067Y010988D01*
X012067Y011189D01*
X012055Y011235D01*
X012032Y011276D01*
X012067Y011117D02*
X012529Y011117D01*
X012529Y010958D02*
X012067Y010958D01*
X012067Y010800D02*
X012529Y010800D01*
X012680Y010641D02*
X011949Y010641D01*
X011864Y010483D02*
X011596Y010483D01*
X011673Y010324D02*
X011787Y010324D01*
X011787Y010166D02*
X011673Y010166D01*
X011673Y010007D02*
X011787Y010007D01*
X011856Y009849D02*
X011604Y009849D01*
X011459Y009690D02*
X012680Y009690D01*
X012680Y009849D02*
X012613Y009849D01*
X012447Y009849D02*
X012352Y009849D01*
X012457Y009532D02*
X012569Y009532D01*
X012053Y009532D02*
X011568Y009532D01*
X011570Y009373D02*
X011938Y009373D01*
X011705Y009215D02*
X011705Y009215D01*
X011705Y009056D02*
X011705Y009056D01*
X011705Y008898D02*
X011705Y008898D01*
X011705Y008888D02*
X011705Y008888D01*
X011705Y008739D02*
X011705Y008739D01*
X011705Y008581D02*
X011705Y008581D01*
X011570Y008422D02*
X012592Y008422D01*
X012616Y008581D02*
X011987Y008581D01*
X012042Y008739D02*
X012509Y008739D01*
X012504Y008898D02*
X012042Y008898D01*
X011762Y008264D02*
X011648Y008264D01*
X011648Y008105D02*
X011762Y008105D01*
X011762Y007947D02*
X011648Y007947D01*
X011619Y007788D02*
X011791Y007788D01*
X012079Y008061D02*
X014686Y008061D01*
X014730Y008105D01*
X015140Y008105D02*
X017320Y008105D01*
X017320Y007947D02*
X015140Y007947D01*
X015140Y008264D02*
X017320Y008264D01*
X017583Y008422D02*
X013268Y008422D01*
X013244Y008581D02*
X017451Y008581D01*
X017392Y008739D02*
X014001Y008739D01*
X013590Y009105D02*
X014730Y009105D01*
X015063Y009373D02*
X017397Y009373D01*
X017320Y009215D02*
X015140Y009215D01*
X015140Y009056D02*
X017320Y009056D01*
X017336Y008898D02*
X015124Y008898D01*
X014397Y009373D02*
X014006Y009373D01*
X013941Y009532D02*
X017567Y009532D01*
X017490Y009690D02*
X013160Y009690D01*
X013160Y009849D02*
X014087Y009849D01*
X014155Y010080D02*
X014705Y010080D01*
X014730Y010105D01*
X015075Y009849D02*
X017385Y009849D01*
X017320Y010007D02*
X015140Y010007D01*
X015140Y010166D02*
X017320Y010166D01*
X017348Y010324D02*
X015112Y010324D01*
X015140Y010958D02*
X017320Y010958D01*
X017320Y011117D02*
X015140Y011117D01*
X015140Y011275D02*
X017320Y011275D01*
X017719Y011434D02*
X014295Y011434D01*
X014115Y011434D02*
X014031Y011434D01*
X013955Y011592D02*
X017878Y011592D01*
X018036Y011751D02*
X013185Y011751D01*
X013185Y011909D02*
X013548Y011909D01*
X013543Y011913D02*
X013638Y011818D01*
X013763Y011767D01*
X013897Y011767D01*
X014022Y011818D01*
X014068Y011865D01*
X014369Y011865D01*
X014414Y011820D01*
X015046Y011820D01*
X015140Y011914D01*
X015140Y012296D01*
X015046Y012390D01*
X014414Y012390D01*
X014369Y012345D01*
X014068Y012345D01*
X014022Y012392D01*
X013897Y012443D01*
X013763Y012443D01*
X013638Y012392D01*
X013543Y012297D01*
X013492Y012172D01*
X013492Y012038D01*
X013543Y011913D01*
X013492Y012068D02*
X013185Y012068D01*
X013185Y012226D02*
X013514Y012226D01*
X013631Y012385D02*
X013185Y012385D01*
X013185Y012543D02*
X018520Y012543D01*
X018520Y012385D02*
X018052Y012385D01*
X018046Y012390D02*
X017414Y012390D01*
X017320Y012296D01*
X017320Y011914D01*
X017414Y011820D01*
X018046Y011820D01*
X018140Y011914D01*
X018140Y012296D01*
X018046Y012390D01*
X018140Y012226D02*
X018512Y012226D01*
X018353Y012068D02*
X018140Y012068D01*
X018135Y011909D02*
X018195Y011909D01*
X018556Y011592D02*
X018770Y011592D01*
X018770Y011696D02*
X018770Y011263D01*
X018864Y011169D01*
X019496Y011169D01*
X019566Y011239D01*
X020408Y011239D01*
X020496Y011276D01*
X020687Y011467D01*
X021374Y011467D01*
X021440Y011533D01*
X021440Y009229D01*
X020306Y008095D01*
X020241Y008095D01*
X020231Y008105D01*
X020290Y008164D01*
X020290Y008546D01*
X020231Y008605D01*
X020290Y008664D01*
X020290Y009046D01*
X020231Y009105D01*
X020290Y009164D01*
X020290Y009546D01*
X020231Y009605D01*
X020290Y009664D01*
X020290Y010046D01*
X020196Y010140D01*
X019564Y010140D01*
X019519Y010095D01*
X019004Y010095D01*
X018140Y010959D01*
X018140Y011176D01*
X018684Y011719D01*
X018794Y011719D01*
X018770Y011696D01*
X018770Y011434D02*
X018398Y011434D01*
X018239Y011275D02*
X018770Y011275D01*
X019180Y011479D02*
X020360Y011479D01*
X020908Y012027D01*
X020348Y012068D02*
X019840Y012068D01*
X019840Y012226D02*
X020348Y012226D01*
X020348Y012385D02*
X019840Y012385D01*
X019840Y012543D02*
X020397Y012543D01*
X019840Y012702D02*
X021440Y012702D01*
X021440Y012860D02*
X019840Y012860D01*
X019818Y013019D02*
X021440Y013019D01*
X021440Y013177D02*
X019415Y013177D01*
X019415Y013336D02*
X021440Y013336D01*
X021440Y013494D02*
X019415Y013494D01*
X019415Y013653D02*
X021440Y013653D01*
X021440Y013811D02*
X019415Y013811D01*
X019415Y013970D02*
X021440Y013970D01*
X021440Y014128D02*
X019415Y014128D01*
X019415Y014287D02*
X021440Y014287D01*
X021440Y014445D02*
X019415Y014445D01*
X019415Y014604D02*
X021440Y014604D01*
X021440Y014762D02*
X019415Y014762D01*
X019735Y014921D02*
X021088Y014921D01*
X020916Y015079D02*
X019735Y015079D01*
X019735Y015238D02*
X020845Y015238D01*
X020822Y015396D02*
X019735Y015396D01*
X019735Y015555D02*
X020838Y015555D01*
X020903Y015713D02*
X019735Y015713D01*
X019710Y015872D02*
X021057Y015872D01*
X021382Y015405D02*
X021382Y015403D01*
X021680Y015105D01*
X021680Y009130D01*
X020405Y007855D01*
X019880Y007855D01*
X019504Y007630D02*
X019259Y007630D01*
X019470Y007788D02*
X017970Y007788D01*
X017970Y007630D02*
X018851Y007630D01*
X018737Y007471D02*
X017970Y007471D01*
X018124Y007313D02*
X018717Y007313D01*
X018778Y007154D02*
X018140Y007154D01*
X018140Y006996D02*
X018758Y006996D01*
X018717Y006837D02*
X018063Y006837D01*
X017730Y007105D02*
X017730Y008105D01*
X017730Y008230D01*
X018905Y009405D01*
X018905Y009855D01*
X019880Y009855D01*
X020290Y009849D02*
X021440Y009849D01*
X021440Y010007D02*
X020290Y010007D01*
X020290Y009690D02*
X021440Y009690D01*
X021440Y009532D02*
X020290Y009532D01*
X020290Y009373D02*
X021440Y009373D01*
X021425Y009215D02*
X020290Y009215D01*
X020280Y009056D02*
X021267Y009056D01*
X021108Y008898D02*
X020290Y008898D01*
X020290Y008739D02*
X020950Y008739D01*
X020791Y008581D02*
X020256Y008581D01*
X020290Y008422D02*
X020633Y008422D01*
X020474Y008264D02*
X020290Y008264D01*
X020316Y008105D02*
X020231Y008105D01*
X020677Y007788D02*
X021970Y007788D01*
X021970Y007947D02*
X020836Y007947D01*
X020994Y008105D02*
X022029Y008105D01*
X021970Y008264D02*
X021153Y008264D01*
X021311Y008422D02*
X021970Y008422D01*
X022004Y008581D02*
X021470Y008581D01*
X021628Y008739D02*
X021970Y008739D01*
X021970Y008898D02*
X021787Y008898D01*
X021909Y009056D02*
X021980Y009056D01*
X021970Y009215D02*
X021920Y009215D01*
X021920Y009373D02*
X021970Y009373D01*
X021970Y009532D02*
X021920Y009532D01*
X021920Y009690D02*
X021970Y009690D01*
X021970Y009849D02*
X021920Y009849D01*
X021920Y010007D02*
X021970Y010007D01*
X021920Y010166D02*
X022164Y010166D01*
X022166Y010324D02*
X021920Y010324D01*
X021920Y010483D02*
X022168Y010483D01*
X022170Y010641D02*
X021920Y010641D01*
X021920Y010800D02*
X022171Y010800D01*
X022173Y010958D02*
X021920Y010958D01*
X021920Y011117D02*
X022175Y011117D01*
X022177Y011275D02*
X021920Y011275D01*
X021920Y011434D02*
X022179Y011434D01*
X022069Y011592D02*
X021920Y011592D01*
X021920Y011751D02*
X021934Y011751D01*
X022426Y012027D02*
X022401Y009876D01*
X022380Y009855D01*
X021440Y010166D02*
X018934Y010166D01*
X018775Y010324D02*
X021440Y010324D01*
X021440Y010483D02*
X018617Y010483D01*
X018458Y010641D02*
X021440Y010641D01*
X021440Y010800D02*
X018300Y010800D01*
X018141Y010958D02*
X021440Y010958D01*
X021440Y011117D02*
X018140Y011117D01*
X017730Y011105D02*
X017730Y011030D01*
X018905Y009855D01*
X018665Y009756D02*
X018665Y009504D01*
X018140Y008979D01*
X018140Y009296D01*
X018132Y009304D01*
X018192Y009363D01*
X018243Y009488D01*
X018243Y009622D01*
X018192Y009747D01*
X018097Y009842D01*
X018076Y009850D01*
X018140Y009914D01*
X018140Y010281D01*
X018665Y009756D01*
X018665Y009690D02*
X018215Y009690D01*
X018243Y009532D02*
X018665Y009532D01*
X018534Y009373D02*
X018196Y009373D01*
X018140Y009215D02*
X018375Y009215D01*
X018217Y009056D02*
X018140Y009056D01*
X017730Y009105D02*
X017730Y008780D01*
X017730Y008755D01*
X018261Y008422D02*
X019470Y008422D01*
X019470Y008264D02*
X018140Y008264D01*
X018140Y008105D02*
X019529Y008105D01*
X019470Y007947D02*
X018140Y007947D01*
X017490Y007788D02*
X012367Y007788D01*
X011973Y007359D02*
X011932Y007383D01*
X011886Y007395D01*
X011705Y007395D01*
X011705Y007038D01*
X011705Y007038D01*
X012042Y007038D01*
X012042Y007239D01*
X012030Y007285D01*
X012007Y007326D01*
X011973Y007359D01*
X012014Y007313D02*
X012551Y007313D01*
X012393Y007154D02*
X012042Y007154D01*
X012042Y006996D02*
X012234Y006996D01*
X011917Y006679D02*
X011520Y006679D01*
X011583Y006520D02*
X011827Y006520D01*
X011762Y006362D02*
X011648Y006362D01*
X011648Y006203D02*
X011762Y006203D01*
X011762Y006045D02*
X011648Y006045D01*
X011567Y005886D02*
X011843Y005886D01*
X011331Y006211D02*
X011280Y006262D01*
X011280Y007380D01*
X010880Y007780D01*
X010880Y008955D01*
X009955Y009880D01*
X009740Y009880D01*
X010513Y010641D02*
X011115Y010641D01*
X011115Y010483D02*
X010671Y010483D01*
X010828Y010324D02*
X011039Y010324D01*
X011039Y010166D02*
X010985Y010166D01*
X011355Y010162D02*
X011356Y010161D01*
X011355Y010162D02*
X011355Y011005D01*
X010055Y012305D01*
X009740Y012305D01*
X010270Y011751D02*
X007838Y011751D01*
X007863Y011592D02*
X010429Y011592D01*
X010587Y011434D02*
X010156Y011434D01*
X010156Y011275D02*
X010746Y011275D01*
X010904Y011117D02*
X010156Y011117D01*
X010199Y010958D02*
X011063Y010958D01*
X011115Y010800D02*
X010356Y010800D01*
X009740Y011080D02*
X010955Y009855D01*
X011330Y009480D01*
X011330Y008062D01*
X011331Y008061D01*
X011370Y007630D02*
X017490Y007630D01*
X017490Y007471D02*
X011502Y007471D01*
X011705Y007313D02*
X011705Y007313D01*
X011705Y007154D02*
X011705Y007154D01*
X011705Y007038D02*
X011705Y007038D01*
X011705Y006996D02*
X011705Y006996D01*
X011705Y006837D02*
X011705Y006837D01*
X012698Y006837D02*
X014397Y006837D01*
X015063Y006837D02*
X017397Y006837D01*
X017320Y006996D02*
X015140Y006996D01*
X015140Y007154D02*
X017320Y007154D01*
X017336Y007313D02*
X015124Y007313D01*
X012920Y009105D02*
X012920Y011130D01*
X012945Y011155D01*
X012945Y013055D01*
X012895Y013105D01*
X012479Y013177D02*
X012057Y013177D01*
X012055Y013185D02*
X012032Y013226D01*
X011998Y013259D01*
X011957Y013283D01*
X011911Y013295D01*
X011730Y013295D01*
X011549Y013295D01*
X011503Y013283D01*
X011462Y013259D01*
X011428Y013226D01*
X011405Y013185D01*
X011393Y013139D01*
X011393Y012938D01*
X011393Y012737D01*
X011405Y012691D01*
X011428Y012650D01*
X011462Y012617D01*
X011503Y012593D01*
X011549Y012581D01*
X011730Y012581D01*
X011911Y012581D01*
X011957Y012593D01*
X011998Y012617D01*
X012032Y012650D01*
X012055Y012691D01*
X012067Y012737D01*
X012067Y012938D01*
X011730Y012938D01*
X011730Y012581D01*
X011730Y012938D01*
X011730Y012938D01*
X011730Y012938D01*
X011393Y012938D01*
X011730Y012938D01*
X011730Y012938D01*
X012067Y012938D01*
X012067Y013139D01*
X012055Y013185D01*
X012067Y013019D02*
X012479Y013019D01*
X012479Y012860D02*
X012067Y012860D01*
X012058Y012702D02*
X012521Y012702D01*
X012705Y012543D02*
X011264Y012543D01*
X011402Y012702D02*
X011105Y012702D01*
X010947Y012860D02*
X011393Y012860D01*
X011393Y013019D02*
X010788Y013019D01*
X010630Y013177D02*
X011403Y013177D01*
X011730Y013177D02*
X011730Y013177D01*
X011730Y013295D02*
X011730Y012938D01*
X011730Y012938D01*
X011730Y013295D01*
X011730Y013019D02*
X011730Y013019D01*
X011730Y012860D02*
X011730Y012860D01*
X011730Y012702D02*
X011730Y012702D01*
X011644Y012385D02*
X011816Y012385D01*
X011787Y012226D02*
X011673Y012226D01*
X011673Y012068D02*
X011787Y012068D01*
X011787Y011909D02*
X011673Y011909D01*
X011356Y012111D02*
X009962Y013505D01*
X009740Y013505D01*
X010156Y013653D02*
X018935Y013653D01*
X018935Y013811D02*
X010156Y013811D01*
X010313Y013494D02*
X012507Y013494D01*
X012479Y013336D02*
X010471Y013336D01*
X010109Y013019D02*
X007834Y013019D01*
X007834Y013177D02*
X008228Y013177D01*
X008074Y013336D02*
X003365Y013336D01*
X003393Y013177D02*
X004360Y013177D01*
X004342Y013019D02*
X003551Y013019D01*
X003580Y012860D02*
X004342Y012860D01*
X004342Y012702D02*
X003580Y012702D01*
X003573Y012543D02*
X004353Y012543D01*
X004270Y012385D02*
X003414Y012385D01*
X003344Y012226D02*
X004112Y012226D01*
X003953Y012068D02*
X003502Y012068D01*
X003580Y011909D02*
X003865Y011909D01*
X003865Y011751D02*
X003580Y011751D01*
X003580Y011592D02*
X003865Y011592D01*
X003865Y011434D02*
X003463Y011434D01*
X003305Y011275D02*
X003865Y011275D01*
X003852Y011117D02*
X003453Y011117D01*
X003580Y010958D02*
X003694Y010958D01*
X004105Y011030D02*
X004105Y011880D01*
X004780Y012555D01*
X004780Y012848D01*
X004738Y012856D01*
X005134Y012860D02*
X005169Y012860D01*
X005169Y012702D02*
X005134Y012702D01*
X005124Y012543D02*
X005179Y012543D01*
X005565Y012856D02*
X006729Y012856D01*
X006729Y012856D01*
X006313Y012543D02*
X005950Y012543D01*
X005169Y013019D02*
X005134Y013019D01*
X005116Y013177D02*
X005187Y013177D01*
X005943Y013177D02*
X006313Y013177D01*
X006518Y013653D02*
X008085Y013653D01*
X008042Y013494D02*
X003524Y013494D01*
X003580Y013653D02*
X004151Y013653D01*
X003992Y013811D02*
X003580Y013811D01*
X003580Y013970D02*
X003870Y013970D01*
X003870Y014128D02*
X003442Y014128D01*
X003344Y014287D02*
X003870Y014287D01*
X003870Y014445D02*
X003503Y014445D01*
X003600Y014604D02*
X003870Y014604D01*
X003870Y014762D02*
X003070Y014762D01*
X003070Y014921D02*
X003030Y014921D01*
X003030Y015079D02*
X003070Y015079D01*
X003070Y015238D02*
X003030Y015238D01*
X002740Y015238D02*
X002332Y015238D01*
X002491Y015079D02*
X002581Y015079D01*
X003360Y015238D02*
X003870Y015238D01*
X003870Y015079D02*
X003519Y015079D01*
X003600Y014921D02*
X003870Y014921D01*
X004290Y014921D02*
X004616Y014921D01*
X004418Y015079D02*
X004290Y015079D01*
X004290Y015238D02*
X004410Y015238D01*
X004410Y015396D02*
X004290Y015396D01*
X004170Y015555D02*
X004410Y015555D01*
X004410Y015713D02*
X004011Y015713D01*
X003853Y015872D02*
X004471Y015872D01*
X004617Y016030D02*
X003694Y016030D01*
X003576Y015555D02*
X001564Y015555D01*
X001384Y015396D02*
X003734Y015396D01*
X004290Y014762D02*
X004400Y014762D01*
X004400Y014604D02*
X004290Y014604D01*
X004290Y014445D02*
X004400Y014445D01*
X004400Y014287D02*
X004290Y014287D01*
X004290Y014128D02*
X004400Y014128D01*
X004428Y013970D02*
X004617Y013970D01*
X006677Y013811D02*
X008296Y013811D01*
X008464Y013811D02*
X008654Y013811D01*
X008654Y013177D02*
X008532Y013177D01*
X008689Y012702D02*
X007834Y012702D01*
X007834Y012543D02*
X008115Y012543D01*
X008022Y012385D02*
X007691Y012385D01*
X007475Y011751D02*
X007379Y011751D01*
X007379Y011592D02*
X007475Y011592D01*
X007475Y011434D02*
X007379Y011434D01*
X007475Y011316D02*
X007863Y011316D01*
X007863Y011045D01*
X007851Y010999D01*
X007827Y010958D01*
X008654Y010958D01*
X008654Y011117D02*
X007863Y011117D01*
X007863Y011275D02*
X008654Y011275D01*
X008654Y011434D02*
X007863Y011434D01*
X007475Y011316D02*
X007475Y010888D01*
X007707Y010888D01*
X007753Y010900D01*
X007794Y010924D01*
X007827Y010958D01*
X007475Y010958D02*
X007379Y010958D01*
X007379Y011117D02*
X007475Y011117D01*
X007475Y011275D02*
X007379Y011275D01*
X006367Y011751D02*
X005876Y011751D01*
X005175Y011275D02*
X005141Y011275D01*
X005141Y011117D02*
X005175Y011117D01*
X004745Y011356D02*
X004730Y011342D01*
X004730Y010680D01*
X003050Y009000D01*
X003050Y008770D01*
X003580Y008739D02*
X003675Y008739D01*
X003580Y008644D02*
X003580Y008990D01*
X003479Y009090D01*
X004348Y009959D01*
X004348Y009576D01*
X004430Y009494D01*
X003580Y008644D01*
X003580Y008898D02*
X003833Y008898D01*
X003992Y009056D02*
X003514Y009056D01*
X003604Y009215D02*
X004150Y009215D01*
X004309Y009373D02*
X003762Y009373D01*
X003921Y009532D02*
X004392Y009532D01*
X004348Y009690D02*
X004079Y009690D01*
X004238Y009849D02*
X004348Y009849D01*
X004730Y009863D02*
X004730Y009455D01*
X003050Y007775D01*
X003050Y007770D01*
X003580Y007788D02*
X004022Y007788D01*
X003864Y007630D02*
X003580Y007630D01*
X003580Y007947D02*
X004181Y007947D01*
X004339Y008105D02*
X003719Y008105D01*
X003878Y008264D02*
X004498Y008264D01*
X004656Y008422D02*
X004036Y008422D01*
X004195Y008581D02*
X004815Y008581D01*
X004973Y008739D02*
X004353Y008739D01*
X004512Y008898D02*
X005132Y008898D01*
X005290Y009056D02*
X004670Y009056D01*
X004829Y009215D02*
X005449Y009215D01*
X005607Y009373D02*
X004956Y009373D01*
X005097Y009532D02*
X005219Y009532D01*
X005175Y009690D02*
X005141Y009690D01*
X005141Y009849D02*
X005175Y009849D01*
X005175Y010007D02*
X005141Y010007D01*
X005141Y010166D02*
X005175Y010166D01*
X004713Y010324D02*
X006419Y010324D01*
X006335Y010166D02*
X005968Y010166D01*
X005571Y009878D02*
X006751Y009878D01*
X006751Y009878D01*
X005960Y009091D02*
X005886Y009018D01*
X003600Y006732D01*
X003600Y006750D01*
X003070Y006750D01*
X003070Y006790D01*
X003600Y006790D01*
X003600Y006998D01*
X003538Y007060D01*
X003709Y007060D01*
X003712Y007058D01*
X003885Y007058D01*
X004008Y007181D01*
X005919Y009091D01*
X005960Y009091D01*
X005924Y009056D02*
X005884Y009056D01*
X005766Y008898D02*
X005725Y008898D01*
X005607Y008739D02*
X005567Y008739D01*
X005449Y008581D02*
X005408Y008581D01*
X005290Y008422D02*
X005250Y008422D01*
X005132Y008264D02*
X005091Y008264D01*
X004973Y008105D02*
X004933Y008105D01*
X004815Y007947D02*
X004774Y007947D01*
X004656Y007788D02*
X004616Y007788D01*
X004498Y007630D02*
X004457Y007630D01*
X004339Y007471D02*
X004299Y007471D01*
X004181Y007313D02*
X004140Y007313D01*
X004008Y007181D02*
X004008Y007181D01*
X004022Y007154D02*
X003982Y007154D01*
X003864Y006996D02*
X003600Y006996D01*
X003600Y006837D02*
X003705Y006837D01*
X004140Y006679D02*
X006530Y006679D01*
X006530Y006723D02*
X006530Y006589D01*
X003580Y003639D01*
X003580Y003990D01*
X003573Y003996D01*
X004269Y004692D01*
X004351Y004692D01*
X004475Y004744D01*
X004570Y004839D01*
X004621Y004963D01*
X004621Y005098D01*
X004570Y005222D01*
X004475Y005317D01*
X004351Y005368D01*
X004216Y005368D01*
X004092Y005317D01*
X003997Y005222D01*
X003945Y005098D01*
X003945Y004963D01*
X003945Y004962D01*
X003580Y004597D01*
X003580Y004990D01*
X003571Y004999D01*
X003858Y005290D01*
X003961Y005290D01*
X004085Y005342D01*
X004180Y005437D01*
X004231Y005561D01*
X004231Y005696D01*
X004180Y005820D01*
X004085Y005915D01*
X003961Y005966D01*
X003826Y005966D01*
X003702Y005915D01*
X003607Y005820D01*
X003580Y005756D01*
X003580Y005990D01*
X003510Y006060D01*
X003522Y006060D01*
X006183Y008721D01*
X008583Y008721D01*
X009148Y008155D01*
X009148Y007715D01*
X008289Y007715D01*
X008276Y007723D01*
X008230Y007735D01*
X008049Y007735D01*
X007868Y007735D01*
X007822Y007723D01*
X007809Y007715D01*
X006992Y007715D01*
X006990Y007720D01*
X006972Y007763D01*
X006971Y007764D01*
X006938Y007797D01*
X006904Y007831D01*
X006904Y007831D01*
X006904Y007831D01*
X006860Y007849D01*
X006816Y007867D01*
X006816Y007867D01*
X006815Y007868D01*
X006768Y007867D01*
X005792Y007867D01*
X005703Y007831D01*
X005636Y007763D01*
X005478Y007606D01*
X005476Y007605D01*
X005445Y007572D01*
X005413Y007540D01*
X005412Y007538D01*
X005226Y007345D01*
X004951Y007345D01*
X004858Y007251D01*
X004858Y006804D01*
X004951Y006710D01*
X005556Y006710D01*
X005650Y006804D01*
X005650Y007093D01*
X005787Y007236D01*
X005939Y007388D01*
X006472Y007388D01*
X006472Y006780D01*
X006530Y006723D01*
X006472Y006837D02*
X005650Y006837D01*
X005650Y006996D02*
X006472Y006996D01*
X006472Y007154D02*
X005708Y007154D01*
X005864Y007313D02*
X006472Y007313D01*
X006770Y007201D02*
X006768Y007628D01*
X005839Y007628D01*
X005616Y007404D01*
X005254Y007027D01*
X004919Y007313D02*
X004774Y007313D01*
X004858Y007154D02*
X004616Y007154D01*
X004457Y006996D02*
X004858Y006996D01*
X004858Y006837D02*
X004299Y006837D01*
X003982Y006520D02*
X004843Y006520D01*
X004838Y006500D02*
X004838Y006319D01*
X005254Y006319D01*
X005254Y006319D01*
X005254Y006656D01*
X005514Y006656D01*
X005559Y006644D01*
X005600Y006620D01*
X005634Y006587D01*
X005658Y006546D01*
X005670Y006500D01*
X005670Y006319D01*
X005254Y006319D01*
X005254Y006319D01*
X005254Y006656D01*
X004994Y006656D01*
X004948Y006644D01*
X004907Y006620D01*
X004873Y006587D01*
X004850Y006546D01*
X004838Y006500D01*
X004838Y006362D02*
X003823Y006362D01*
X003665Y006203D02*
X004838Y006203D01*
X004838Y006137D02*
X004850Y006092D01*
X004873Y006051D01*
X004907Y006017D01*
X004948Y005993D01*
X004994Y005981D01*
X005254Y005981D01*
X005514Y005981D01*
X005559Y005993D01*
X005600Y006017D01*
X005634Y006051D01*
X005658Y006092D01*
X005670Y006137D01*
X005670Y006319D01*
X005254Y006319D01*
X005254Y006319D01*
X005254Y005981D01*
X005254Y006319D01*
X005254Y006319D01*
X004838Y006319D01*
X004838Y006137D01*
X004880Y006045D02*
X003525Y006045D01*
X003580Y005886D02*
X003673Y005886D01*
X004114Y005886D02*
X005827Y005886D01*
X005985Y006045D02*
X005628Y006045D01*
X005670Y006203D02*
X006144Y006203D01*
X006302Y006362D02*
X005670Y006362D01*
X005665Y006520D02*
X006461Y006520D01*
X006770Y006490D02*
X003050Y002770D01*
X002830Y002241D02*
X002817Y002241D01*
X003580Y003667D02*
X003608Y003667D01*
X003580Y003826D02*
X003766Y003826D01*
X003925Y003984D02*
X003580Y003984D01*
X003719Y004143D02*
X004083Y004143D01*
X004242Y004301D02*
X003878Y004301D01*
X004036Y004460D02*
X004400Y004460D01*
X004559Y004618D02*
X004195Y004618D01*
X004508Y004777D02*
X004717Y004777D01*
X004610Y004935D02*
X004876Y004935D01*
X005034Y005094D02*
X004621Y005094D01*
X004540Y005252D02*
X005193Y005252D01*
X005351Y005411D02*
X004154Y005411D01*
X004231Y005569D02*
X005510Y005569D01*
X005668Y005728D02*
X004218Y005728D01*
X004027Y005252D02*
X003820Y005252D01*
X003945Y005094D02*
X003664Y005094D01*
X003580Y004935D02*
X003918Y004935D01*
X003760Y004777D02*
X003580Y004777D01*
X003580Y004618D02*
X003601Y004618D01*
X002030Y004750D02*
X001500Y004750D01*
X001500Y004542D01*
X001786Y004256D01*
X001574Y004043D01*
X001562Y004055D01*
X001437Y004107D01*
X001303Y004107D01*
X001180Y004056D01*
X001180Y009506D01*
X001199Y009486D01*
X001324Y009435D01*
X001458Y009435D01*
X001583Y009486D01*
X001583Y009487D01*
X001786Y009284D01*
X001500Y008998D01*
X001500Y008790D01*
X002030Y008790D01*
X002030Y008750D01*
X001500Y008750D01*
X001500Y008542D01*
X001786Y008256D01*
X001520Y007990D01*
X001520Y007550D01*
X001800Y007270D01*
X001520Y006990D01*
X001520Y006550D01*
X001800Y006270D01*
X001520Y005990D01*
X001520Y005550D01*
X001786Y005284D01*
X001500Y004998D01*
X001500Y004790D01*
X002030Y004790D01*
X002030Y004750D01*
X002030Y004777D02*
X001180Y004777D01*
X001180Y004935D02*
X001500Y004935D01*
X001596Y005094D02*
X001180Y005094D01*
X001180Y005252D02*
X001754Y005252D01*
X001660Y005411D02*
X001180Y005411D01*
X001180Y005569D02*
X001520Y005569D01*
X001520Y005728D02*
X001180Y005728D01*
X001180Y005886D02*
X001520Y005886D01*
X001575Y006045D02*
X001180Y006045D01*
X001180Y006203D02*
X001733Y006203D01*
X001709Y006362D02*
X001180Y006362D01*
X001180Y006520D02*
X001550Y006520D01*
X001520Y006679D02*
X001180Y006679D01*
X001180Y006837D02*
X001520Y006837D01*
X001526Y006996D02*
X001180Y006996D01*
X001180Y007154D02*
X001684Y007154D01*
X001758Y007313D02*
X001180Y007313D01*
X001180Y007471D02*
X001599Y007471D01*
X001520Y007630D02*
X001180Y007630D01*
X001180Y007788D02*
X001520Y007788D01*
X001520Y007947D02*
X001180Y007947D01*
X001180Y008105D02*
X001635Y008105D01*
X001779Y008264D02*
X001180Y008264D01*
X001180Y008422D02*
X001620Y008422D01*
X001500Y008581D02*
X001180Y008581D01*
X001180Y008739D02*
X001500Y008739D01*
X001500Y008898D02*
X001180Y008898D01*
X001180Y009056D02*
X001558Y009056D01*
X001717Y009215D02*
X001180Y009215D01*
X001180Y009373D02*
X001697Y009373D01*
X001474Y009770D02*
X001391Y009773D01*
X001474Y009770D02*
X002050Y009770D01*
X003050Y009770D02*
X003050Y009975D01*
X004105Y011030D01*
X004335Y010958D02*
X004490Y010958D01*
X004490Y010800D02*
X004214Y010800D01*
X004352Y010641D02*
X004055Y010641D01*
X004193Y010483D02*
X003897Y010483D01*
X004035Y010324D02*
X003738Y010324D01*
X003876Y010166D02*
X003580Y010166D01*
X003563Y010007D02*
X003718Y010007D01*
X004730Y009863D02*
X004745Y009878D01*
X004345Y011117D02*
X004348Y011117D01*
X004345Y011275D02*
X004348Y011275D01*
X004345Y011434D02*
X004348Y011434D01*
X004345Y011592D02*
X004348Y011592D01*
X004345Y011751D02*
X004440Y011751D01*
X004473Y011909D02*
X008689Y011909D01*
X008654Y012068D02*
X008596Y012068D01*
X008595Y012543D02*
X008654Y012543D01*
X007446Y013019D02*
X007350Y013019D01*
X007350Y013177D02*
X007446Y013177D01*
X007002Y015033D02*
X007002Y015033D01*
X002030Y011790D02*
X002030Y011750D01*
X001500Y011750D01*
X001500Y011542D01*
X001786Y011256D01*
X001588Y011057D01*
X001586Y011059D01*
X001462Y011111D01*
X001327Y011111D01*
X001203Y011059D01*
X001180Y011037D01*
X001180Y012494D01*
X001195Y012479D01*
X001320Y012427D01*
X001454Y012427D01*
X001579Y012479D01*
X001585Y012485D01*
X001786Y012284D01*
X001500Y011998D01*
X001500Y011790D01*
X002030Y011790D01*
X002030Y011751D02*
X001180Y011751D01*
X001180Y011909D02*
X001500Y011909D01*
X001570Y012068D02*
X001180Y012068D01*
X001180Y012226D02*
X001728Y012226D01*
X001686Y012385D02*
X001180Y012385D01*
X001180Y011592D02*
X001500Y011592D01*
X001609Y011434D02*
X001180Y011434D01*
X001180Y011275D02*
X001767Y011275D01*
X001647Y011117D02*
X001180Y011117D01*
X001180Y013177D02*
X001707Y013177D01*
X001735Y013336D02*
X001180Y013336D01*
X001180Y013494D02*
X001576Y013494D01*
X001520Y013653D02*
X001180Y013653D01*
X001180Y013811D02*
X001520Y013811D01*
X001520Y013970D02*
X001180Y013970D01*
X001180Y014128D02*
X001658Y014128D01*
X001784Y014287D02*
X001180Y014287D01*
X001180Y014445D02*
X001625Y014445D01*
X001520Y014604D02*
X001180Y014604D01*
X001180Y014762D02*
X001520Y014762D01*
X001520Y014921D02*
X001180Y014921D01*
X001180Y015079D02*
X001609Y015079D01*
X001768Y015238D02*
X001204Y015238D01*
X000782Y016981D02*
X023516Y016981D01*
X023690Y016506D02*
X022619Y016506D01*
X022777Y016347D02*
X023690Y016347D01*
X023690Y016189D02*
X022936Y016189D01*
X023094Y016030D02*
X023690Y016030D01*
X023690Y015872D02*
X023460Y015872D01*
X023460Y015713D02*
X023690Y015713D01*
X023690Y015555D02*
X023460Y015555D01*
X022416Y016030D02*
X019669Y016030D01*
X019308Y016347D02*
X019027Y016347D01*
X018869Y016506D02*
X019466Y016506D01*
X019402Y016441D02*
X019402Y016441D01*
X018666Y016030D02*
X015819Y016030D01*
X015960Y015872D02*
X017380Y015872D01*
X017198Y015713D02*
X015960Y015713D01*
X015960Y015555D02*
X017123Y015555D01*
X017097Y015396D02*
X015960Y015396D01*
X015960Y015238D02*
X017110Y015238D01*
X017176Y015079D02*
X015960Y015079D01*
X015942Y014921D02*
X017325Y014921D01*
X017657Y014682D02*
X017230Y014255D01*
X017543Y014128D02*
X018935Y014128D01*
X018935Y013970D02*
X017423Y013970D01*
X017601Y014287D02*
X018935Y014287D01*
X018935Y014445D02*
X017759Y014445D01*
X017884Y014604D02*
X018935Y014604D01*
X018935Y014762D02*
X017897Y014762D01*
X017990Y014921D02*
X018615Y014921D01*
X018615Y015079D02*
X018139Y015079D01*
X018204Y015238D02*
X018615Y015238D01*
X018615Y015396D02*
X018217Y015396D01*
X018191Y015555D02*
X018615Y015555D01*
X018615Y015713D02*
X018116Y015713D01*
X017934Y015872D02*
X018640Y015872D01*
X019155Y015880D02*
X019155Y015400D01*
X019175Y015380D01*
X019175Y015860D01*
X019155Y015880D01*
X019175Y015380D02*
X019175Y012410D01*
X019035Y012410D01*
X017730Y011105D01*
X017621Y010800D02*
X014351Y010800D01*
X014059Y010800D02*
X014031Y010800D01*
X013933Y010641D02*
X017780Y010641D01*
X017938Y010483D02*
X014092Y010483D01*
X014250Y010324D02*
X014348Y010324D01*
X014155Y010080D02*
X013615Y010620D01*
X013615Y011155D01*
X013375Y010641D02*
X013160Y010641D01*
X013160Y010483D02*
X013413Y010483D01*
X013572Y010324D02*
X013160Y010324D01*
X013160Y010166D02*
X013730Y010166D01*
X013889Y010007D02*
X013160Y010007D01*
X012530Y010180D02*
X012511Y010161D01*
X012104Y010161D01*
X012344Y010483D02*
X012377Y010483D01*
X011730Y010641D02*
X011730Y010641D01*
X011730Y010800D02*
X011730Y010800D01*
X011730Y010958D02*
X011730Y010958D01*
X011730Y010988D02*
X011730Y010988D01*
X011730Y011117D02*
X011730Y011117D01*
X011730Y011275D02*
X011730Y011275D01*
X011428Y011275D02*
X011424Y011275D01*
X012104Y012111D02*
X012574Y012111D01*
X012580Y012105D01*
X013830Y012105D02*
X014730Y012105D01*
X014408Y012385D02*
X014029Y012385D01*
X013939Y012702D02*
X018520Y012702D01*
X018520Y012860D02*
X018086Y012860D01*
X018046Y012820D02*
X018140Y012914D01*
X018140Y013296D01*
X018046Y013390D01*
X017414Y013390D01*
X017320Y013296D01*
X017320Y012914D01*
X017414Y012820D01*
X018046Y012820D01*
X018140Y013019D02*
X018542Y013019D01*
X018935Y013177D02*
X018140Y013177D01*
X018101Y013336D02*
X018935Y013336D01*
X018935Y013494D02*
X013953Y013494D01*
X013565Y013105D02*
X014730Y013105D01*
X015086Y012860D02*
X017374Y012860D01*
X017320Y013019D02*
X015140Y013019D01*
X015140Y013177D02*
X017320Y013177D01*
X017359Y013336D02*
X015101Y013336D01*
X014374Y012860D02*
X013981Y012860D01*
X015052Y012385D02*
X017408Y012385D01*
X017320Y012226D02*
X015140Y012226D01*
X015140Y012068D02*
X017320Y012068D01*
X017325Y011909D02*
X015135Y011909D01*
X014730Y011105D02*
X014205Y011105D01*
X017730Y010105D02*
X017730Y009730D01*
X017905Y009555D01*
X018080Y009849D02*
X018572Y009849D01*
X018414Y010007D02*
X018140Y010007D01*
X018140Y010166D02*
X018255Y010166D01*
X019145Y009532D02*
X019470Y009532D01*
X019470Y009373D02*
X019145Y009373D01*
X019054Y009215D02*
X019470Y009215D01*
X019480Y009056D02*
X018895Y009056D01*
X018737Y008898D02*
X019470Y008898D01*
X019470Y008739D02*
X018578Y008739D01*
X018420Y008581D02*
X019504Y008581D01*
X020488Y007630D02*
X021195Y007630D01*
X021047Y007471D02*
X020290Y007471D01*
X020290Y007313D02*
X021017Y007313D01*
X021018Y007154D02*
X020280Y007154D01*
X020290Y006996D02*
X020872Y006996D01*
X020842Y006837D02*
X020290Y006837D01*
X020290Y006679D02*
X020887Y006679D01*
X021180Y006855D02*
X022380Y006855D01*
X022355Y007330D02*
X022380Y007355D01*
X022355Y007330D02*
X021355Y007330D01*
X021515Y007630D02*
X022004Y007630D01*
X019880Y007355D02*
X019055Y007355D01*
X019055Y006830D02*
X019855Y006830D01*
X019880Y006855D01*
X019880Y006355D02*
X019880Y005680D01*
X018831Y005094D02*
X021429Y005094D01*
X023690Y002399D02*
X009624Y002399D01*
X009624Y002241D02*
X023690Y002241D01*
X023690Y002082D02*
X009624Y002082D01*
X009624Y001924D02*
X023690Y001924D01*
X023690Y001765D02*
X009624Y001765D01*
X009624Y001607D02*
X023690Y001607D01*
X023690Y001448D02*
X008608Y001448D01*
X009624Y001290D02*
X023690Y001290D01*
X023690Y001131D02*
X009624Y001131D01*
X009624Y000973D02*
X023690Y000973D01*
X023674Y000814D02*
X009624Y000814D01*
X009624Y000656D02*
X023572Y000656D01*
X012713Y005094D02*
X005713Y005094D01*
X005871Y005252D02*
X012607Y005252D01*
X012592Y005411D02*
X006030Y005411D01*
X006188Y005569D02*
X012666Y005569D01*
X010195Y006679D02*
X010195Y006679D01*
X010195Y006837D02*
X010195Y006837D01*
X010195Y006996D02*
X010195Y006996D01*
X010195Y007154D02*
X010195Y007154D01*
X010195Y007313D02*
X010195Y007313D01*
X010195Y007471D02*
X010195Y007471D01*
X010195Y007630D02*
X010195Y007630D01*
X009148Y007788D02*
X006947Y007788D01*
X006971Y007764D02*
X006971Y007764D01*
X006770Y007201D02*
X006770Y006490D01*
X007010Y006679D02*
X007824Y006679D01*
X008049Y006679D02*
X008049Y006679D01*
X008049Y006837D02*
X008049Y006837D01*
X008049Y006996D02*
X008049Y006996D01*
X008049Y007154D02*
X008049Y007154D01*
X008049Y007201D02*
X008049Y007735D01*
X008049Y007201D01*
X008049Y007201D01*
X008049Y007313D02*
X008049Y007313D01*
X008049Y007471D02*
X008049Y007471D01*
X008049Y007630D02*
X008049Y007630D01*
X007616Y007201D02*
X007183Y007201D01*
X006770Y007201D01*
X005660Y007788D02*
X005250Y007788D01*
X005091Y007630D02*
X005502Y007630D01*
X005347Y007471D02*
X004933Y007471D01*
X005408Y007947D02*
X009148Y007947D01*
X009148Y008105D02*
X005567Y008105D01*
X005725Y008264D02*
X009040Y008264D01*
X008881Y008422D02*
X005884Y008422D01*
X006042Y008581D02*
X008723Y008581D01*
X008274Y006679D02*
X009989Y006679D01*
X005254Y006520D02*
X005254Y006520D01*
X005254Y006362D02*
X005254Y006362D01*
X005254Y006203D02*
X005254Y006203D01*
X005254Y006045D02*
X005254Y006045D01*
X002050Y003770D02*
X001572Y003770D01*
X001370Y003769D01*
X001180Y004143D02*
X001673Y004143D01*
X001741Y004301D02*
X001180Y004301D01*
X001180Y004460D02*
X001583Y004460D01*
X001500Y004618D02*
X001180Y004618D01*
X017657Y014682D02*
X017657Y015380D01*
X021418Y012543D02*
X021440Y012543D01*
X021920Y012543D02*
X022208Y012543D01*
X021991Y012385D02*
X021920Y012385D01*
X021440Y011434D02*
X020654Y011434D01*
X020494Y011275D02*
X021440Y011275D01*
X020292Y011751D02*
X019777Y011751D01*
X019840Y011909D02*
X020348Y011909D01*
X019180Y012405D02*
X019175Y012410D01*
X021920Y014921D02*
X022358Y014921D01*
X022340Y015079D02*
X021920Y015079D01*
X021919Y015238D02*
X022340Y015238D01*
X022340Y015396D02*
X021942Y015396D01*
X021926Y015555D02*
X022340Y015555D01*
X022340Y015713D02*
X021861Y015713D01*
X021707Y015872D02*
X022340Y015872D01*
D28*
X023355Y016580D03*
X017805Y012605D03*
X016780Y013055D03*
X017230Y014255D03*
X015080Y014230D03*
X014680Y012555D03*
X013830Y012105D03*
X014655Y011605D03*
X014205Y011105D03*
X014655Y010580D03*
X014630Y009580D03*
X012930Y008455D03*
X012405Y008480D03*
X012255Y009255D03*
X012530Y010180D03*
X011730Y011630D03*
X012580Y012105D03*
X012138Y013650D03*
X010905Y014255D03*
X010555Y013680D03*
X008380Y013480D03*
X007009Y013744D03*
X006146Y014454D03*
X008372Y015456D03*
X006380Y016150D03*
X005494Y016137D03*
X002569Y015553D03*
X001045Y016649D03*
X001387Y012765D03*
X003950Y012527D03*
X005098Y012328D03*
X005098Y010854D03*
X004000Y009310D03*
X004071Y008141D03*
X004523Y006705D03*
X005845Y006300D03*
X005248Y005763D03*
X004283Y005030D03*
X003893Y005628D03*
X006306Y004905D03*
X006766Y005333D03*
X007201Y005738D03*
X007640Y005333D03*
X008049Y004905D03*
X008482Y005311D03*
X008902Y005724D03*
X009304Y005308D03*
X009746Y005721D03*
X010145Y005308D03*
X010588Y005721D03*
X010167Y006134D03*
X010573Y006533D03*
X009732Y006533D03*
X009311Y006137D03*
X008888Y006536D03*
X008484Y006152D03*
X008060Y006551D03*
X007633Y006159D03*
X007187Y006551D03*
X006320Y007249D03*
X007087Y007850D03*
X007740Y007860D03*
X008345Y007857D03*
X009010Y007843D03*
X008793Y008285D03*
X007738Y008585D03*
X008480Y009780D03*
X008235Y010767D03*
X009455Y011705D03*
X008355Y012305D03*
X006268Y008575D03*
X010202Y008314D03*
X010667Y007383D03*
X012377Y007495D03*
X014015Y007538D03*
X015430Y006280D03*
X016937Y006241D03*
X018305Y005980D03*
X019055Y006830D03*
X019055Y007355D03*
X018460Y008190D03*
X017730Y008780D03*
X017905Y009555D03*
X018310Y009960D03*
X017605Y010555D03*
X018305Y011080D03*
X023368Y008024D03*
X021355Y007330D03*
X021180Y006855D03*
X020605Y006605D03*
X019880Y005680D03*
X016260Y000810D03*
X010624Y003227D03*
X010254Y002799D03*
X009772Y002399D03*
X009356Y002797D03*
X008495Y002797D03*
X007620Y002797D03*
X006792Y002804D03*
X006316Y003391D03*
X006023Y002805D03*
X005233Y002804D03*
X004610Y002435D03*
X004602Y001541D03*
X004577Y000733D03*
X001180Y000805D03*
X001370Y003769D03*
X006321Y004107D03*
X006766Y004506D03*
X007212Y004115D03*
X007640Y004506D03*
X008064Y004107D03*
X008467Y004492D03*
X008876Y004890D03*
X009311Y004488D03*
X008891Y004093D03*
X009746Y004090D03*
X010153Y004488D03*
X009732Y004887D03*
X010587Y004887D03*
X010602Y004089D03*
X012930Y005355D03*
X008075Y005738D03*
X007198Y004912D03*
X009793Y001608D03*
X009786Y000796D03*
X001391Y009773D03*
X001394Y010773D03*
X023430Y000755D03*
D29*
X012920Y009105D02*
X012845Y009180D01*
X012255Y009255D01*
X009799Y008327D02*
X009799Y007647D01*
X009781Y007201D01*
X009348Y007201D02*
X009358Y007639D01*
X009358Y008242D01*
X008670Y008931D01*
X006096Y008931D01*
X003435Y006270D01*
X002558Y006270D01*
X002543Y006256D01*
X002543Y006255D01*
X002058Y005770D01*
X002050Y005770D01*
X003050Y004770D02*
X003890Y005621D01*
X003893Y005628D01*
X004283Y005030D02*
X004283Y005003D01*
X003050Y003770D01*
X003050Y002770D02*
X001990Y001710D01*
X001825Y001710D01*
X000970Y002471D01*
X000970Y015311D01*
X001644Y015905D01*
X003522Y015905D01*
X004080Y015347D01*
X004080Y014020D01*
X004348Y013752D01*
X004834Y013752D01*
X004827Y013759D01*
X004827Y014483D01*
X004816Y014454D01*
X004826Y014484D01*
X004826Y015231D01*
X004827Y015232D01*
X004827Y016435D01*
X004965Y016572D01*
X006799Y016572D01*
X007002Y016369D01*
X007002Y015643D01*
X007199Y015650D02*
X007199Y015643D01*
X007199Y015650D02*
X007540Y015650D01*
X007540Y014960D01*
X007010Y014960D01*
X007010Y015210D01*
X007002Y015210D01*
X006805Y015210D02*
X006804Y015209D01*
X006313Y015209D01*
X006045Y014941D01*
X005581Y014941D01*
X005495Y014855D01*
X005485Y014454D01*
X006146Y014454D01*
X006655Y014484D02*
X006655Y014086D01*
X006320Y013752D01*
X004834Y013752D01*
X004826Y015231D02*
X004826Y015449D01*
X005495Y015449D02*
X005495Y016136D01*
X005494Y016137D01*
X006051Y015643D02*
X005856Y015449D01*
X005495Y015449D01*
X006051Y015643D02*
X006805Y015643D01*
X008380Y013480D02*
X009045Y013480D01*
X009070Y013505D01*
X009070Y012305D02*
X008355Y012305D01*
X009070Y011080D02*
X009070Y009880D01*
X008825Y009301D02*
X009799Y008327D01*
X008825Y009301D02*
X005833Y009301D01*
X003799Y007268D01*
X003796Y007270D01*
X002554Y007270D01*
X002552Y007268D01*
X002552Y007268D01*
X002518Y007234D01*
X002516Y007234D01*
X002052Y006770D01*
X002050Y006770D01*
X002050Y010770D02*
X001499Y010770D01*
X001394Y010773D01*
X001387Y012765D02*
X001636Y012770D01*
X002050Y012770D01*
X015400Y015405D02*
X015400Y015410D01*
D30*
X012920Y009105D02*
X012920Y008465D01*
X012930Y008455D01*
X012655Y007105D02*
X014730Y007105D01*
X014730Y006105D02*
X013590Y006105D01*
X012930Y006095D02*
X012920Y006105D01*
X012930Y006095D02*
X012930Y005355D01*
X012079Y006211D02*
X012079Y006529D01*
X012655Y007105D01*
M02*
