G75*
%MOIN*%
%OFA0B0*%
%FSLAX24Y24*%
%IPPOS*%
%LPD*%
%AMOC8*
5,1,8,0,0,1.08239X$1,22.5*
%
%ADD10C,0.0000*%
%ADD11OC8,0.0740*%
%ADD12R,0.0315X0.0709*%
%ADD13R,0.0276X0.0709*%
%ADD14OC8,0.0520*%
%ADD15C,0.1181*%
%ADD16C,0.1210*%
%ADD17C,0.0650*%
%ADD18R,0.0945X0.0945*%
%ADD19R,0.0800X0.0800*%
%ADD20C,0.0800*%
%ADD21R,0.0472X0.0315*%
%ADD22R,0.0472X0.0472*%
%ADD23R,0.0512X0.0591*%
%ADD24R,0.0315X0.1969*%
%ADD25R,0.1831X0.1969*%
%ADD26C,0.0160*%
%ADD27C,0.0356*%
%ADD28C,0.0100*%
D10*
X000680Y000784D02*
X000680Y016768D01*
X000682Y016799D01*
X000687Y016829D01*
X000695Y016858D01*
X000707Y016887D01*
X000722Y016914D01*
X000740Y016939D01*
X000760Y016962D01*
X000783Y016982D01*
X000808Y017000D01*
X000835Y017015D01*
X000864Y017027D01*
X000893Y017035D01*
X000923Y017040D01*
X000954Y017042D01*
X000954Y017041D02*
X023439Y017041D01*
X023477Y017039D01*
X023515Y017033D01*
X023553Y017024D01*
X023589Y017011D01*
X023623Y016995D01*
X023656Y016975D01*
X023687Y016952D01*
X023715Y016926D01*
X023741Y016898D01*
X023764Y016867D01*
X023784Y016834D01*
X023800Y016800D01*
X023813Y016764D01*
X023822Y016726D01*
X023828Y016688D01*
X023830Y016650D01*
X023830Y000902D01*
X023828Y000861D01*
X023823Y000820D01*
X023814Y000780D01*
X023802Y000741D01*
X023786Y000703D01*
X023767Y000666D01*
X023745Y000631D01*
X023720Y000599D01*
X023692Y000568D01*
X023661Y000540D01*
X023629Y000515D01*
X023594Y000493D01*
X023557Y000474D01*
X023519Y000458D01*
X023480Y000446D01*
X023440Y000437D01*
X023399Y000432D01*
X023358Y000430D01*
X001034Y000430D01*
X000997Y000432D01*
X000960Y000438D01*
X000925Y000447D01*
X000890Y000461D01*
X000857Y000477D01*
X000826Y000498D01*
X000797Y000521D01*
X000771Y000547D01*
X000748Y000576D01*
X000727Y000607D01*
X000711Y000640D01*
X000697Y000675D01*
X000688Y000710D01*
X000682Y000747D01*
X000680Y000784D01*
D11*
X002050Y002770D03*
X003050Y002770D03*
X003050Y003770D03*
X002050Y003770D03*
X002050Y004770D03*
X003050Y004770D03*
X003050Y005770D03*
X002050Y005770D03*
X002050Y006770D03*
X003050Y006770D03*
X003050Y007770D03*
X002050Y007770D03*
X002050Y008770D03*
X003050Y008770D03*
X003050Y009770D03*
X002050Y009770D03*
X002050Y010770D03*
X003050Y010770D03*
X003050Y011770D03*
X002050Y011770D03*
X002050Y012770D03*
X003050Y012770D03*
X003050Y013770D03*
X002050Y013770D03*
X002050Y014770D03*
X003050Y014770D03*
D12*
X007183Y007629D03*
X007616Y007629D03*
X008049Y007629D03*
X008482Y007629D03*
X008915Y007629D03*
X009348Y007629D03*
X009781Y007629D03*
X009781Y003889D03*
X009348Y003889D03*
X008915Y003889D03*
X008482Y003889D03*
X008049Y003889D03*
X007616Y003889D03*
X007183Y003889D03*
D13*
X006770Y003889D03*
X010195Y003889D03*
X010195Y007629D03*
X006770Y007629D03*
D14*
X009990Y015090D03*
X010490Y015840D03*
X010990Y015090D03*
D15*
X020214Y014841D03*
X020214Y011837D03*
D16*
X013222Y010837D03*
D17*
X014718Y005837D03*
X018718Y005837D03*
D18*
X010430Y011144D03*
X010430Y012876D03*
D19*
X021505Y007055D03*
D20*
X023023Y007055D03*
D21*
X005254Y007027D03*
X005254Y006319D03*
D22*
X005267Y012430D03*
X006093Y012430D03*
X006093Y013930D03*
X005267Y013930D03*
X005267Y015430D03*
X006093Y015430D03*
D23*
X007845Y015430D03*
X008515Y015430D03*
X008515Y013930D03*
X007845Y013930D03*
X007845Y012430D03*
X008515Y012430D03*
X008515Y010930D03*
X007845Y010930D03*
D24*
X007180Y001517D03*
D25*
X005832Y001517D03*
X008528Y001517D03*
D26*
X000856Y000665D02*
X000824Y000742D01*
X000820Y000784D01*
X000820Y016768D01*
X000825Y016802D01*
X000859Y016862D01*
X000919Y016897D01*
X000954Y016901D01*
X023439Y016901D01*
X023488Y016896D01*
X023579Y016859D01*
X023648Y016790D01*
X023685Y016699D01*
X023690Y016650D01*
X023690Y000902D01*
X023684Y000837D01*
X023634Y000717D01*
X023543Y000626D01*
X023423Y000576D01*
X023358Y000570D01*
X009624Y000570D01*
X009624Y001437D01*
X008608Y001437D01*
X008608Y001597D01*
X008448Y001597D01*
X008448Y002681D01*
X007589Y002681D01*
X007544Y002669D01*
X007503Y002645D01*
X007469Y002612D01*
X007463Y002602D01*
X007423Y002642D01*
X007423Y003358D01*
X007435Y003354D01*
X007616Y003354D01*
X007797Y003354D01*
X007843Y003367D01*
X007856Y003374D01*
X010399Y003374D01*
X010493Y003468D01*
X010493Y004309D01*
X010399Y004403D01*
X007856Y004403D01*
X007843Y004411D01*
X007797Y004423D01*
X007616Y004423D01*
X007435Y004423D01*
X007389Y004411D01*
X007376Y004403D01*
X006566Y004403D01*
X006472Y004309D01*
X006472Y003468D01*
X006566Y003374D01*
X006943Y003374D01*
X006943Y002648D01*
X006897Y002602D01*
X006891Y002612D01*
X006857Y002645D01*
X006816Y002669D01*
X006771Y002681D01*
X005912Y002681D01*
X005912Y001597D01*
X005752Y001597D01*
X005752Y002681D01*
X005103Y002681D01*
X005164Y002706D01*
X005259Y002801D01*
X005310Y002926D01*
X005310Y003060D01*
X005259Y003185D01*
X005164Y003280D01*
X005039Y003331D01*
X004905Y003331D01*
X004780Y003280D01*
X004685Y003185D01*
X004634Y003060D01*
X004634Y002994D01*
X003589Y001950D01*
X002440Y001950D01*
X002290Y002099D01*
X002290Y002260D01*
X002550Y002520D01*
X002830Y002240D01*
X003270Y002240D01*
X003580Y002550D01*
X003580Y002961D01*
X006973Y006354D01*
X007010Y006442D01*
X007010Y007114D01*
X007809Y007114D01*
X007822Y007107D01*
X007868Y007094D01*
X008049Y007094D01*
X008049Y007629D01*
X008049Y008163D01*
X007868Y008163D01*
X007822Y008151D01*
X007809Y008143D01*
X006566Y008143D01*
X006472Y008049D01*
X006472Y007867D01*
X005792Y007867D01*
X005703Y007831D01*
X005636Y007763D01*
X005478Y007606D01*
X005476Y007605D01*
X005445Y007572D01*
X005413Y007540D01*
X005412Y007538D01*
X005226Y007345D01*
X004951Y007345D01*
X004858Y007251D01*
X004858Y006804D01*
X004951Y006710D01*
X005556Y006710D01*
X005650Y006804D01*
X005650Y007093D01*
X005787Y007236D01*
X005939Y007388D01*
X006472Y007388D01*
X006472Y007208D01*
X006530Y007150D01*
X006530Y006589D01*
X003580Y003639D01*
X003580Y003990D01*
X003300Y004270D01*
X003580Y004550D01*
X003580Y004990D01*
X003300Y005270D01*
X003580Y005550D01*
X003580Y005990D01*
X003510Y006060D01*
X003522Y006060D01*
X006183Y008721D01*
X008583Y008721D01*
X009148Y008155D01*
X009148Y008143D01*
X008289Y008143D01*
X008276Y008151D01*
X008230Y008163D01*
X008049Y008163D01*
X008049Y007629D01*
X008049Y007629D01*
X008049Y007629D01*
X008049Y007094D01*
X008230Y007094D01*
X008276Y007107D01*
X008289Y007114D01*
X009974Y007114D01*
X009988Y007107D01*
X010033Y007094D01*
X010195Y007094D01*
X010356Y007094D01*
X010402Y007107D01*
X010443Y007130D01*
X010477Y007164D01*
X010500Y007205D01*
X010513Y007251D01*
X010513Y007629D01*
X010513Y008007D01*
X010500Y008053D01*
X010477Y008094D01*
X010443Y008127D01*
X010402Y008151D01*
X010356Y008163D01*
X010195Y008163D01*
X010195Y007629D01*
X010195Y007629D01*
X010513Y007629D01*
X010195Y007629D01*
X010195Y007629D01*
X010195Y008163D01*
X010033Y008163D01*
X010009Y008157D01*
X010009Y008414D01*
X009886Y008537D01*
X008912Y009511D01*
X005746Y009511D01*
X005623Y009388D01*
X003714Y007480D01*
X003509Y007480D01*
X003580Y007550D01*
X003580Y007990D01*
X003300Y008270D01*
X003580Y008550D01*
X003580Y008968D01*
X004231Y009619D01*
X004298Y009687D01*
X004335Y009775D01*
X004335Y010832D01*
X004999Y011496D01*
X007483Y011496D01*
X007594Y011385D01*
X007523Y011385D01*
X007429Y011292D01*
X007429Y010568D01*
X007523Y010475D01*
X008168Y010475D01*
X008180Y010487D01*
X008192Y010475D01*
X008837Y010475D01*
X008931Y010568D01*
X008931Y011292D01*
X008871Y011352D01*
X009342Y011823D01*
X009377Y011858D01*
X009798Y011437D01*
X009798Y010605D01*
X009891Y010511D01*
X010190Y010511D01*
X010190Y009798D01*
X010227Y009710D01*
X012022Y007914D01*
X012022Y007848D01*
X012073Y007724D01*
X012168Y007629D01*
X012292Y007578D01*
X012427Y007578D01*
X012551Y007629D01*
X012646Y007724D01*
X012698Y007848D01*
X012698Y007983D01*
X012646Y008107D01*
X012551Y008202D01*
X012427Y008254D01*
X012361Y008254D01*
X010670Y009945D01*
X010670Y010511D01*
X010969Y010511D01*
X011062Y010605D01*
X011062Y011683D01*
X010969Y011776D01*
X010137Y011776D01*
X009816Y012098D01*
X009816Y012319D01*
X009891Y012244D01*
X010969Y012244D01*
X011062Y012337D01*
X011062Y012636D01*
X012933Y012636D01*
X014454Y011115D01*
X014454Y006252D01*
X014443Y006248D01*
X014307Y006111D01*
X014233Y005933D01*
X014233Y005740D01*
X014247Y005706D01*
X011775Y003233D01*
X011083Y003233D01*
X011036Y003280D01*
X010912Y003331D01*
X010777Y003331D01*
X010653Y003280D01*
X010558Y003185D01*
X010506Y003060D01*
X010506Y002926D01*
X010558Y002801D01*
X010653Y002706D01*
X010777Y002655D01*
X010912Y002655D01*
X011036Y002706D01*
X011083Y002753D01*
X011922Y002753D01*
X012010Y002790D01*
X014587Y005366D01*
X014621Y005352D01*
X014814Y005352D01*
X014992Y005426D01*
X015129Y005562D01*
X015202Y005740D01*
X015202Y005933D01*
X015129Y006111D01*
X014992Y006248D01*
X014934Y006272D01*
X014934Y011262D01*
X014898Y011350D01*
X014830Y011418D01*
X013169Y013080D01*
X013080Y013116D01*
X011062Y013116D01*
X011062Y013415D01*
X010969Y013509D01*
X010092Y013509D01*
X011193Y014610D01*
X011230Y014698D01*
X011230Y014736D01*
X011410Y014916D01*
X011410Y015264D01*
X011164Y015510D01*
X010816Y015510D01*
X010570Y015264D01*
X010570Y014916D01*
X010695Y014791D01*
X009446Y013541D01*
X009446Y015364D01*
X009668Y015585D01*
X010151Y015585D01*
X010316Y015420D01*
X010664Y015420D01*
X010910Y015666D01*
X010910Y016014D01*
X010664Y016260D01*
X010316Y016260D01*
X010122Y016065D01*
X009521Y016065D01*
X009433Y016029D01*
X009365Y015961D01*
X009003Y015599D01*
X008966Y015511D01*
X008966Y012126D01*
X008950Y012110D01*
X008951Y012111D01*
X008951Y012382D01*
X008563Y012382D01*
X008563Y012478D01*
X008951Y012478D01*
X008951Y012749D01*
X008938Y012795D01*
X008915Y012836D01*
X008881Y012869D01*
X008840Y012893D01*
X008794Y012905D01*
X008563Y012905D01*
X008563Y012478D01*
X008467Y012478D01*
X008467Y012905D01*
X008235Y012905D01*
X008189Y012893D01*
X008171Y012882D01*
X008168Y012885D01*
X007523Y012885D01*
X007429Y012792D01*
X007429Y012640D01*
X006490Y012640D01*
X006490Y012732D01*
X006396Y012826D01*
X005791Y012826D01*
X005697Y012732D01*
X005697Y012128D01*
X005791Y012034D01*
X006396Y012034D01*
X006490Y012128D01*
X006490Y012220D01*
X007429Y012220D01*
X007429Y012068D01*
X007521Y011976D01*
X004852Y011976D01*
X004764Y011940D01*
X004696Y011872D01*
X003891Y011068D01*
X003855Y010979D01*
X003855Y009922D01*
X003580Y009647D01*
X003580Y009990D01*
X003300Y010270D01*
X003580Y010550D01*
X003580Y010990D01*
X003300Y011270D01*
X003580Y011550D01*
X003580Y011955D01*
X003824Y012200D01*
X004870Y012200D01*
X004870Y012128D01*
X004964Y012034D01*
X005569Y012034D01*
X005663Y012128D01*
X005663Y012732D01*
X005569Y012826D01*
X004964Y012826D01*
X004870Y012732D01*
X004870Y012680D01*
X003677Y012680D01*
X003589Y012643D01*
X003580Y012634D01*
X003580Y012956D01*
X004317Y013693D01*
X004870Y013693D01*
X004870Y013628D01*
X004964Y013534D01*
X005569Y013534D01*
X005663Y013628D01*
X005663Y014232D01*
X005569Y014326D01*
X004964Y014326D01*
X004870Y014232D01*
X004870Y014173D01*
X004170Y014173D01*
X004082Y014137D01*
X004015Y014069D01*
X003580Y013635D01*
X003580Y013942D01*
X004825Y015187D01*
X004870Y015187D01*
X004870Y015128D01*
X004964Y015034D01*
X005569Y015034D01*
X005663Y015128D01*
X005663Y015732D01*
X005569Y015826D01*
X004964Y015826D01*
X004870Y015732D01*
X004870Y015667D01*
X004678Y015667D01*
X004590Y015630D01*
X004522Y015563D01*
X003600Y014641D01*
X003600Y014750D01*
X003070Y014750D01*
X003070Y014790D01*
X003030Y014790D01*
X003030Y015320D01*
X002822Y015320D01*
X002536Y015034D01*
X002270Y015300D01*
X001830Y015300D01*
X001520Y014990D01*
X001520Y014550D01*
X001800Y014270D01*
X001520Y013990D01*
X001520Y013550D01*
X001800Y013270D01*
X001520Y012990D01*
X001520Y012550D01*
X001786Y012284D01*
X001500Y011998D01*
X001500Y011790D01*
X002030Y011790D01*
X002030Y011750D01*
X001500Y011750D01*
X001500Y011542D01*
X001786Y011256D01*
X001520Y010990D01*
X001520Y010550D01*
X001800Y010270D01*
X001520Y009990D01*
X001520Y009550D01*
X001786Y009284D01*
X001500Y008998D01*
X001500Y008790D01*
X002030Y008790D01*
X002030Y008750D01*
X001500Y008750D01*
X001500Y008542D01*
X001786Y008256D01*
X001520Y007990D01*
X001520Y007550D01*
X001800Y007270D01*
X001520Y006990D01*
X001520Y006550D01*
X001800Y006270D01*
X001520Y005990D01*
X001520Y005550D01*
X001786Y005284D01*
X001500Y004998D01*
X001500Y004790D01*
X002030Y004790D01*
X002030Y004750D01*
X001500Y004750D01*
X001500Y004542D01*
X001786Y004256D01*
X001520Y003990D01*
X001520Y003550D01*
X001800Y003270D01*
X001520Y002990D01*
X001520Y002550D01*
X001810Y002260D01*
X001810Y001952D01*
X001847Y001864D01*
X002204Y001506D01*
X002293Y001470D01*
X003722Y001470D01*
X003810Y001506D01*
X003814Y001511D01*
X003839Y001521D01*
X004736Y002418D01*
X004736Y001597D01*
X005752Y001597D01*
X005752Y001437D01*
X004736Y001437D01*
X004736Y000570D01*
X001034Y000570D01*
X000992Y000574D01*
X000915Y000606D01*
X000856Y000665D01*
X000865Y000656D02*
X004736Y000656D01*
X004736Y000814D02*
X000820Y000814D01*
X000820Y000973D02*
X004736Y000973D01*
X004736Y001131D02*
X000820Y001131D01*
X000820Y001290D02*
X004736Y001290D01*
X004736Y001607D02*
X003925Y001607D01*
X004083Y001765D02*
X004736Y001765D01*
X004736Y001924D02*
X004242Y001924D01*
X004400Y002082D02*
X004736Y002082D01*
X004736Y002241D02*
X004559Y002241D01*
X004717Y002399D02*
X004736Y002399D01*
X004356Y002716D02*
X003580Y002716D01*
X003580Y002558D02*
X004197Y002558D01*
X004039Y002399D02*
X003429Y002399D01*
X003270Y002241D02*
X003880Y002241D01*
X003722Y002082D02*
X002307Y002082D01*
X002290Y002241D02*
X002830Y002241D01*
X002671Y002399D02*
X002429Y002399D01*
X002050Y002770D02*
X002050Y002000D01*
X002340Y001710D01*
X003674Y001710D01*
X003689Y001724D01*
X003703Y001724D01*
X004972Y002993D01*
X005289Y002875D02*
X006943Y002875D01*
X006943Y003033D02*
X005310Y003033D01*
X005252Y003192D02*
X006943Y003192D01*
X006943Y003350D02*
X003969Y003350D01*
X003811Y003192D02*
X004692Y003192D01*
X004634Y003033D02*
X003652Y003033D01*
X003580Y002875D02*
X004514Y002875D01*
X005173Y002716D02*
X006943Y002716D01*
X007423Y002716D02*
X010643Y002716D01*
X010528Y002875D02*
X007423Y002875D01*
X007423Y003033D02*
X010506Y003033D01*
X010565Y003192D02*
X007423Y003192D01*
X007423Y003350D02*
X011892Y003350D01*
X012050Y003509D02*
X010493Y003509D01*
X010493Y003667D02*
X012209Y003667D01*
X012367Y003826D02*
X010493Y003826D01*
X010493Y003984D02*
X012526Y003984D01*
X012684Y004143D02*
X010493Y004143D01*
X010493Y004301D02*
X012843Y004301D01*
X013001Y004460D02*
X005079Y004460D01*
X005237Y004618D02*
X013160Y004618D01*
X013318Y004777D02*
X005396Y004777D01*
X005554Y004935D02*
X013477Y004935D01*
X013635Y005094D02*
X005713Y005094D01*
X005871Y005252D02*
X013794Y005252D01*
X013952Y005411D02*
X006030Y005411D01*
X006188Y005569D02*
X014111Y005569D01*
X014238Y005728D02*
X006347Y005728D01*
X006505Y005886D02*
X014233Y005886D01*
X014279Y006045D02*
X006664Y006045D01*
X006822Y006203D02*
X014398Y006203D01*
X014454Y006362D02*
X006976Y006362D01*
X007010Y006520D02*
X014454Y006520D01*
X014454Y006679D02*
X007010Y006679D01*
X007010Y006837D02*
X014454Y006837D01*
X014454Y006996D02*
X007010Y006996D01*
X006530Y006996D02*
X005650Y006996D01*
X005650Y006837D02*
X006530Y006837D01*
X006530Y006679D02*
X004140Y006679D01*
X003982Y006520D02*
X004843Y006520D01*
X004838Y006500D02*
X004838Y006319D01*
X005254Y006319D01*
X005254Y006319D01*
X005254Y006656D01*
X005514Y006656D01*
X005559Y006644D01*
X005600Y006620D01*
X005634Y006587D01*
X005658Y006546D01*
X005670Y006500D01*
X005670Y006319D01*
X005254Y006319D01*
X005254Y006319D01*
X005254Y006656D01*
X004994Y006656D01*
X004948Y006644D01*
X004907Y006620D01*
X004873Y006587D01*
X004850Y006546D01*
X004838Y006500D01*
X004838Y006362D02*
X003823Y006362D01*
X003665Y006203D02*
X004838Y006203D01*
X004838Y006137D02*
X004850Y006092D01*
X004873Y006051D01*
X004907Y006017D01*
X004948Y005993D01*
X004994Y005981D01*
X005254Y005981D01*
X005514Y005981D01*
X005559Y005993D01*
X005600Y006017D01*
X005634Y006051D01*
X005658Y006092D01*
X005670Y006137D01*
X005670Y006319D01*
X005254Y006319D01*
X005254Y006319D01*
X005254Y005981D01*
X005254Y006319D01*
X005254Y006319D01*
X004838Y006319D01*
X004838Y006137D01*
X004880Y006045D02*
X003525Y006045D01*
X003580Y005886D02*
X005827Y005886D01*
X005985Y006045D02*
X005628Y006045D01*
X005670Y006203D02*
X006144Y006203D01*
X006302Y006362D02*
X005670Y006362D01*
X005665Y006520D02*
X006461Y006520D01*
X006770Y006490D02*
X003050Y002770D01*
X003580Y003667D02*
X003608Y003667D01*
X003580Y003826D02*
X003766Y003826D01*
X003925Y003984D02*
X003580Y003984D01*
X003427Y004143D02*
X004083Y004143D01*
X004242Y004301D02*
X003331Y004301D01*
X003489Y004460D02*
X004400Y004460D01*
X004559Y004618D02*
X003580Y004618D01*
X003580Y004777D02*
X004717Y004777D01*
X004876Y004935D02*
X003580Y004935D01*
X003476Y005094D02*
X005034Y005094D01*
X005193Y005252D02*
X003318Y005252D01*
X003440Y005411D02*
X005351Y005411D01*
X005510Y005569D02*
X003580Y005569D01*
X003580Y005728D02*
X005668Y005728D01*
X005254Y006045D02*
X005254Y006045D01*
X005254Y006203D02*
X005254Y006203D01*
X005254Y006362D02*
X005254Y006362D01*
X005254Y006520D02*
X005254Y006520D01*
X004858Y006837D02*
X004299Y006837D01*
X004457Y006996D02*
X004858Y006996D01*
X004858Y007154D02*
X004616Y007154D01*
X004774Y007313D02*
X004919Y007313D01*
X004933Y007471D02*
X005347Y007471D01*
X005502Y007630D02*
X005091Y007630D01*
X005250Y007788D02*
X005660Y007788D01*
X005839Y007628D02*
X006768Y007628D01*
X006770Y007629D01*
X006770Y006490D01*
X006526Y007154D02*
X005708Y007154D01*
X005864Y007313D02*
X006472Y007313D01*
X006770Y007629D02*
X007183Y007629D01*
X007616Y007629D01*
X008049Y007630D02*
X008049Y007630D01*
X008049Y007788D02*
X008049Y007788D01*
X008049Y007947D02*
X008049Y007947D01*
X008049Y008105D02*
X008049Y008105D01*
X008723Y008581D02*
X006042Y008581D01*
X005884Y008422D02*
X008881Y008422D01*
X009040Y008264D02*
X005725Y008264D01*
X005567Y008105D02*
X006527Y008105D01*
X006472Y007947D02*
X005408Y007947D01*
X005132Y008264D02*
X005091Y008264D01*
X004973Y008105D02*
X004933Y008105D01*
X004815Y007947D02*
X004774Y007947D01*
X004656Y007788D02*
X004616Y007788D01*
X004498Y007630D02*
X004457Y007630D01*
X004339Y007471D02*
X004299Y007471D01*
X004181Y007313D02*
X004140Y007313D01*
X004008Y007181D02*
X005919Y009091D01*
X005960Y009091D01*
X005886Y009018D01*
X003600Y006732D01*
X003600Y006750D01*
X003070Y006750D01*
X003070Y006790D01*
X003600Y006790D01*
X003600Y006998D01*
X003538Y007060D01*
X003709Y007060D01*
X003712Y007058D01*
X003885Y007058D01*
X004008Y007181D01*
X004022Y007154D02*
X003982Y007154D01*
X003864Y006996D02*
X003600Y006996D01*
X003600Y006837D02*
X003705Y006837D01*
X003580Y007630D02*
X003864Y007630D01*
X004022Y007788D02*
X003580Y007788D01*
X003580Y007947D02*
X004181Y007947D01*
X004339Y008105D02*
X003465Y008105D01*
X003306Y008264D02*
X004498Y008264D01*
X004656Y008422D02*
X003452Y008422D01*
X003580Y008581D02*
X004815Y008581D01*
X004973Y008739D02*
X003580Y008739D01*
X003580Y008898D02*
X005132Y008898D01*
X005290Y009056D02*
X003668Y009056D01*
X003826Y009215D02*
X005449Y009215D01*
X005607Y009373D02*
X003985Y009373D01*
X004143Y009532D02*
X010405Y009532D01*
X010246Y009690D02*
X004300Y009690D01*
X004335Y009849D02*
X010190Y009849D01*
X010190Y010007D02*
X004335Y010007D01*
X004335Y010166D02*
X010190Y010166D01*
X010190Y010324D02*
X004335Y010324D01*
X004335Y010483D02*
X007515Y010483D01*
X007429Y010641D02*
X004335Y010641D01*
X004335Y010800D02*
X007429Y010800D01*
X007429Y010958D02*
X004460Y010958D01*
X004619Y011117D02*
X007429Y011117D01*
X007429Y011275D02*
X004777Y011275D01*
X004936Y011434D02*
X007546Y011434D01*
X007582Y011736D02*
X007858Y011461D01*
X007858Y010942D01*
X007845Y010930D01*
X008490Y010930D02*
X008490Y011310D01*
X009206Y012026D01*
X009206Y015463D01*
X009569Y015825D01*
X010475Y015825D01*
X010490Y015840D01*
X010910Y015872D02*
X023690Y015872D01*
X023690Y016030D02*
X010894Y016030D01*
X010735Y016189D02*
X023690Y016189D01*
X023690Y016347D02*
X000820Y016347D01*
X000820Y016189D02*
X010245Y016189D01*
X010910Y015713D02*
X023690Y015713D01*
X023690Y015555D02*
X020451Y015555D01*
X020363Y015591D02*
X020064Y015591D01*
X019789Y015477D01*
X019577Y015266D01*
X019463Y014990D01*
X019463Y014928D01*
X018977Y014441D01*
X018940Y014353D01*
X018940Y009332D01*
X018977Y009244D01*
X020945Y007276D01*
X020945Y006589D01*
X021039Y006495D01*
X021971Y006495D01*
X022065Y006589D01*
X022065Y007521D01*
X021971Y007615D01*
X021284Y007615D01*
X019420Y009479D01*
X019420Y014206D01*
X019604Y014389D01*
X019789Y014204D01*
X020064Y014090D01*
X020363Y014090D01*
X020639Y014204D01*
X020850Y014415D01*
X020964Y014691D01*
X020964Y014990D01*
X020850Y015266D01*
X020639Y015477D01*
X020363Y015591D01*
X019976Y015555D02*
X010798Y015555D01*
X010702Y015396D02*
X010306Y015396D01*
X010430Y015272D02*
X010172Y015530D01*
X009990Y015530D01*
X009990Y015090D01*
X010430Y015090D01*
X010430Y015272D01*
X010430Y015238D02*
X010570Y015238D01*
X010570Y015079D02*
X010430Y015079D01*
X010430Y015090D02*
X009990Y015090D01*
X009990Y015090D01*
X009990Y015090D01*
X009990Y014650D01*
X010172Y014650D01*
X010430Y014908D01*
X010430Y015090D01*
X010430Y014921D02*
X010570Y014921D01*
X010667Y014762D02*
X010284Y014762D01*
X010508Y014604D02*
X009446Y014604D01*
X009446Y014762D02*
X009696Y014762D01*
X009808Y014650D02*
X009550Y014908D01*
X009550Y015090D01*
X009990Y015090D01*
X009990Y015090D01*
X009990Y015090D01*
X009990Y015530D01*
X009808Y015530D01*
X009550Y015272D01*
X009550Y015090D01*
X009990Y015090D01*
X009990Y014650D01*
X009808Y014650D01*
X009990Y014762D02*
X009990Y014762D01*
X009990Y014921D02*
X009990Y014921D01*
X009990Y015079D02*
X009990Y015079D01*
X009990Y015238D02*
X009990Y015238D01*
X009990Y015396D02*
X009990Y015396D01*
X010182Y015555D02*
X009637Y015555D01*
X009674Y015396D02*
X009478Y015396D01*
X009446Y015238D02*
X009550Y015238D01*
X009550Y015079D02*
X009446Y015079D01*
X009446Y014921D02*
X009550Y014921D01*
X009446Y014445D02*
X010350Y014445D01*
X010191Y014287D02*
X009446Y014287D01*
X009446Y014128D02*
X010033Y014128D01*
X009874Y013970D02*
X009446Y013970D01*
X009446Y013811D02*
X009716Y013811D01*
X009557Y013653D02*
X009446Y013653D01*
X009576Y013331D02*
X009576Y011998D01*
X010430Y011144D01*
X010430Y009846D01*
X012360Y007916D01*
X012047Y007788D02*
X010513Y007788D01*
X010513Y007630D02*
X012168Y007630D01*
X011990Y007947D02*
X010513Y007947D01*
X010465Y008105D02*
X011831Y008105D01*
X011673Y008264D02*
X010009Y008264D01*
X010001Y008422D02*
X011514Y008422D01*
X011356Y008581D02*
X009843Y008581D01*
X009684Y008739D02*
X011197Y008739D01*
X011039Y008898D02*
X009526Y008898D01*
X009367Y009056D02*
X010880Y009056D01*
X010722Y009215D02*
X009209Y009215D01*
X009050Y009373D02*
X010563Y009373D01*
X010925Y009690D02*
X014454Y009690D01*
X014454Y009532D02*
X011083Y009532D01*
X011242Y009373D02*
X014454Y009373D01*
X014454Y009215D02*
X011400Y009215D01*
X011559Y009056D02*
X014454Y009056D01*
X014454Y008898D02*
X011717Y008898D01*
X011876Y008739D02*
X014454Y008739D01*
X014454Y008581D02*
X012034Y008581D01*
X012193Y008422D02*
X014454Y008422D01*
X014454Y008264D02*
X012351Y008264D01*
X012647Y008105D02*
X014454Y008105D01*
X014454Y007947D02*
X012698Y007947D01*
X012673Y007788D02*
X014454Y007788D01*
X014454Y007630D02*
X012552Y007630D01*
X014454Y007471D02*
X010513Y007471D01*
X010513Y007313D02*
X014454Y007313D01*
X014454Y007154D02*
X010467Y007154D01*
X010195Y007154D02*
X010195Y007154D01*
X010195Y007094D02*
X010195Y007629D01*
X010195Y007629D01*
X010195Y007094D01*
X010195Y007313D02*
X010195Y007313D01*
X010195Y007471D02*
X010195Y007471D01*
X010195Y007630D02*
X010195Y007630D01*
X010195Y007788D02*
X010195Y007788D01*
X010195Y007947D02*
X010195Y007947D01*
X010195Y008105D02*
X010195Y008105D01*
X008049Y007471D02*
X008049Y007471D01*
X008049Y007313D02*
X008049Y007313D01*
X008049Y007154D02*
X008049Y007154D01*
X005839Y007628D02*
X005616Y007404D01*
X005254Y007027D01*
X005250Y008422D02*
X005290Y008422D01*
X005408Y008581D02*
X005449Y008581D01*
X005567Y008739D02*
X005607Y008739D01*
X005725Y008898D02*
X005766Y008898D01*
X005884Y009056D02*
X005924Y009056D01*
X004095Y009823D02*
X004095Y010932D01*
X004900Y011736D01*
X007582Y011736D01*
X007749Y011909D02*
X008749Y011909D01*
X008794Y011955D02*
X008563Y011955D01*
X008563Y012382D01*
X008467Y012382D01*
X008467Y011955D01*
X008235Y011955D01*
X008189Y011967D01*
X008171Y011978D01*
X008168Y011975D01*
X007634Y011975D01*
X007718Y011940D01*
X007993Y011664D01*
X008061Y011597D01*
X008097Y011509D01*
X008097Y011385D01*
X008168Y011385D01*
X008180Y011373D01*
X008192Y011385D01*
X008261Y011385D01*
X008287Y011446D01*
X008795Y011955D01*
X008794Y011955D01*
X008563Y012068D02*
X008467Y012068D01*
X008467Y012226D02*
X008563Y012226D01*
X008563Y012385D02*
X008966Y012385D01*
X008951Y012543D02*
X008966Y012543D01*
X008951Y012702D02*
X008966Y012702D01*
X008966Y012860D02*
X008890Y012860D01*
X008966Y013019D02*
X003643Y013019D01*
X003580Y012860D02*
X007498Y012860D01*
X007429Y012702D02*
X006490Y012702D01*
X006430Y012068D02*
X007430Y012068D01*
X007907Y011751D02*
X008591Y011751D01*
X008432Y011592D02*
X008063Y011592D01*
X008097Y011434D02*
X008281Y011434D01*
X008490Y010930D02*
X008515Y010930D01*
X008931Y010958D02*
X009798Y010958D01*
X009798Y010800D02*
X008931Y010800D01*
X008931Y010641D02*
X009798Y010641D01*
X010190Y010483D02*
X008845Y010483D01*
X008185Y010483D02*
X008175Y010483D01*
X008931Y011117D02*
X009798Y011117D01*
X009798Y011275D02*
X008931Y011275D01*
X008952Y011434D02*
X009798Y011434D01*
X009642Y011592D02*
X009111Y011592D01*
X009269Y011751D02*
X009484Y011751D01*
X009846Y012068D02*
X013502Y012068D01*
X013343Y012226D02*
X009816Y012226D01*
X010004Y011909D02*
X013660Y011909D01*
X013819Y011751D02*
X010994Y011751D01*
X011062Y011592D02*
X013046Y011592D01*
X013069Y011602D02*
X012788Y011485D01*
X012573Y011270D01*
X012457Y010989D01*
X012457Y010685D01*
X012573Y010403D01*
X012788Y010188D01*
X013069Y010072D01*
X013374Y010072D01*
X013655Y010188D01*
X013870Y010403D01*
X013987Y010685D01*
X013987Y010989D01*
X013870Y011270D01*
X013655Y011485D01*
X013374Y011602D01*
X013069Y011602D01*
X013397Y011592D02*
X013977Y011592D01*
X014136Y011434D02*
X013707Y011434D01*
X013865Y011275D02*
X014294Y011275D01*
X014453Y011117D02*
X013934Y011117D01*
X013987Y010958D02*
X014454Y010958D01*
X014454Y010800D02*
X013987Y010800D01*
X013969Y010641D02*
X014454Y010641D01*
X014454Y010483D02*
X013903Y010483D01*
X013791Y010324D02*
X014454Y010324D01*
X014454Y010166D02*
X013600Y010166D01*
X012843Y010166D02*
X010670Y010166D01*
X010670Y010324D02*
X012652Y010324D01*
X012540Y010483D02*
X010670Y010483D01*
X011062Y010641D02*
X012475Y010641D01*
X012457Y010800D02*
X011062Y010800D01*
X011062Y010958D02*
X012457Y010958D01*
X012509Y011117D02*
X011062Y011117D01*
X011062Y011275D02*
X012578Y011275D01*
X012737Y011434D02*
X011062Y011434D01*
X011062Y012385D02*
X013185Y012385D01*
X013026Y012543D02*
X011062Y012543D01*
X010430Y012876D02*
X013033Y012876D01*
X014694Y011215D01*
X014694Y005860D01*
X014718Y005837D01*
X011874Y002993D01*
X010845Y002993D01*
X011046Y002716D02*
X023690Y002716D01*
X023690Y002558D02*
X009615Y002558D01*
X009612Y002571D02*
X009588Y002612D01*
X009554Y002645D01*
X009513Y002669D01*
X009467Y002681D01*
X008608Y002681D01*
X008608Y001597D01*
X009624Y001597D01*
X009624Y002525D01*
X009612Y002571D01*
X009624Y002399D02*
X023690Y002399D01*
X023690Y002241D02*
X009624Y002241D01*
X009624Y002082D02*
X023690Y002082D01*
X023690Y001924D02*
X009624Y001924D01*
X009624Y001765D02*
X023690Y001765D01*
X023690Y001607D02*
X009624Y001607D01*
X009624Y001290D02*
X023690Y001290D01*
X023690Y001448D02*
X008608Y001448D01*
X008608Y001607D02*
X008448Y001607D01*
X008448Y001765D02*
X008608Y001765D01*
X008608Y001924D02*
X008448Y001924D01*
X008448Y002082D02*
X008608Y002082D01*
X008608Y002241D02*
X008448Y002241D01*
X008448Y002399D02*
X008608Y002399D01*
X008608Y002558D02*
X008448Y002558D01*
X007616Y003354D02*
X007616Y003889D01*
X007616Y004423D01*
X007616Y003889D01*
X007616Y003889D01*
X007616Y003889D01*
X007616Y003354D01*
X007616Y003509D02*
X007616Y003509D01*
X007616Y003667D02*
X007616Y003667D01*
X007616Y003826D02*
X007616Y003826D01*
X007616Y003984D02*
X007616Y003984D01*
X007616Y004143D02*
X007616Y004143D01*
X007616Y004301D02*
X007616Y004301D01*
X007183Y003889D02*
X007183Y001433D01*
X007180Y001517D01*
X005912Y001607D02*
X005752Y001607D01*
X005752Y001765D02*
X005912Y001765D01*
X005912Y001924D02*
X005752Y001924D01*
X005752Y002082D02*
X005912Y002082D01*
X005912Y002241D02*
X005752Y002241D01*
X005752Y002399D02*
X005912Y002399D01*
X005912Y002558D02*
X005752Y002558D01*
X005752Y001448D02*
X000820Y001448D01*
X000820Y001607D02*
X002104Y001607D01*
X001946Y001765D02*
X000820Y001765D01*
X000820Y001924D02*
X001822Y001924D01*
X001810Y002082D02*
X000820Y002082D01*
X000820Y002241D02*
X001810Y002241D01*
X001671Y002399D02*
X000820Y002399D01*
X000820Y002558D02*
X001520Y002558D01*
X001520Y002716D02*
X000820Y002716D01*
X000820Y002875D02*
X001520Y002875D01*
X001563Y003033D02*
X000820Y003033D01*
X000820Y003192D02*
X001722Y003192D01*
X001720Y003350D02*
X000820Y003350D01*
X000820Y003509D02*
X001562Y003509D01*
X001520Y003667D02*
X000820Y003667D01*
X000820Y003826D02*
X001520Y003826D01*
X001520Y003984D02*
X000820Y003984D01*
X000820Y004143D02*
X001673Y004143D01*
X001741Y004301D02*
X000820Y004301D01*
X000820Y004460D02*
X001583Y004460D01*
X001500Y004618D02*
X000820Y004618D01*
X000820Y004777D02*
X002030Y004777D01*
X001596Y005094D02*
X000820Y005094D01*
X000820Y005252D02*
X001754Y005252D01*
X001660Y005411D02*
X000820Y005411D01*
X000820Y005569D02*
X001520Y005569D01*
X001520Y005728D02*
X000820Y005728D01*
X000820Y005886D02*
X001520Y005886D01*
X001575Y006045D02*
X000820Y006045D01*
X000820Y006203D02*
X001733Y006203D01*
X001709Y006362D02*
X000820Y006362D01*
X000820Y006520D02*
X001550Y006520D01*
X001520Y006679D02*
X000820Y006679D01*
X000820Y006837D02*
X001520Y006837D01*
X001526Y006996D02*
X000820Y006996D01*
X000820Y007154D02*
X001684Y007154D01*
X001758Y007313D02*
X000820Y007313D01*
X000820Y007471D02*
X001599Y007471D01*
X001520Y007630D02*
X000820Y007630D01*
X000820Y007788D02*
X001520Y007788D01*
X001520Y007947D02*
X000820Y007947D01*
X000820Y008105D02*
X001635Y008105D01*
X001779Y008264D02*
X000820Y008264D01*
X000820Y008422D02*
X001620Y008422D01*
X001500Y008581D02*
X000820Y008581D01*
X000820Y008739D02*
X001500Y008739D01*
X001500Y008898D02*
X000820Y008898D01*
X000820Y009056D02*
X001558Y009056D01*
X001717Y009215D02*
X000820Y009215D01*
X000820Y009373D02*
X001697Y009373D01*
X001539Y009532D02*
X000820Y009532D01*
X000820Y009690D02*
X001520Y009690D01*
X001520Y009849D02*
X000820Y009849D01*
X000820Y010007D02*
X001537Y010007D01*
X001696Y010166D02*
X000820Y010166D01*
X000820Y010324D02*
X001746Y010324D01*
X001588Y010483D02*
X000820Y010483D01*
X000820Y010641D02*
X001520Y010641D01*
X001520Y010800D02*
X000820Y010800D01*
X000820Y010958D02*
X001520Y010958D01*
X001647Y011117D02*
X000820Y011117D01*
X000820Y011275D02*
X001767Y011275D01*
X001609Y011434D02*
X000820Y011434D01*
X000820Y011592D02*
X001500Y011592D01*
X001500Y011909D02*
X000820Y011909D01*
X000820Y011751D02*
X002030Y011751D01*
X001570Y012068D02*
X000820Y012068D01*
X000820Y012226D02*
X001728Y012226D01*
X001686Y012385D02*
X000820Y012385D01*
X000820Y012543D02*
X001527Y012543D01*
X001520Y012702D02*
X000820Y012702D01*
X000820Y012860D02*
X001520Y012860D01*
X001549Y013019D02*
X000820Y013019D01*
X000820Y013177D02*
X001707Y013177D01*
X001735Y013336D02*
X000820Y013336D01*
X000820Y013494D02*
X001576Y013494D01*
X001520Y013653D02*
X000820Y013653D01*
X000820Y013811D02*
X001520Y013811D01*
X001520Y013970D02*
X000820Y013970D01*
X000820Y014128D02*
X001658Y014128D01*
X001784Y014287D02*
X000820Y014287D01*
X000820Y014445D02*
X001625Y014445D01*
X001520Y014604D02*
X000820Y014604D01*
X000820Y014762D02*
X001520Y014762D01*
X001520Y014921D02*
X000820Y014921D01*
X000820Y015079D02*
X001609Y015079D01*
X001768Y015238D02*
X000820Y015238D01*
X000820Y015396D02*
X004355Y015396D01*
X004197Y015238D02*
X003360Y015238D01*
X003278Y015320D02*
X003070Y015320D01*
X003070Y014790D01*
X003600Y014790D01*
X003600Y014998D01*
X003278Y015320D01*
X003070Y015238D02*
X003030Y015238D01*
X003030Y015079D02*
X003070Y015079D01*
X003070Y014921D02*
X003030Y014921D01*
X003070Y014762D02*
X003721Y014762D01*
X003600Y014921D02*
X003880Y014921D01*
X004038Y015079D02*
X003519Y015079D01*
X002740Y015238D02*
X002332Y015238D01*
X002491Y015079D02*
X002581Y015079D01*
X003766Y014128D02*
X004073Y014128D01*
X003925Y014287D02*
X004924Y014287D01*
X005263Y013933D02*
X005267Y013930D01*
X005263Y013933D02*
X004218Y013933D01*
X003055Y012770D01*
X003050Y012770D01*
X003580Y012702D02*
X004870Y012702D01*
X005257Y012440D02*
X005267Y012430D01*
X005257Y012440D02*
X003725Y012440D01*
X003055Y011770D01*
X003050Y011770D01*
X003580Y011751D02*
X004574Y011751D01*
X004733Y011909D02*
X003580Y011909D01*
X003692Y012068D02*
X004930Y012068D01*
X005603Y012068D02*
X005757Y012068D01*
X005697Y012226D02*
X005663Y012226D01*
X005663Y012385D02*
X005697Y012385D01*
X005697Y012543D02*
X005663Y012543D01*
X005663Y012702D02*
X005697Y012702D01*
X005791Y013534D02*
X005697Y013628D01*
X005697Y014232D01*
X005791Y014326D01*
X006396Y014326D01*
X006490Y014232D01*
X006490Y014140D01*
X007429Y014140D01*
X007429Y014292D01*
X007523Y014385D01*
X008168Y014385D01*
X008171Y014382D01*
X008189Y014393D01*
X008235Y014405D01*
X008467Y014405D01*
X008467Y013978D01*
X008563Y013978D01*
X008951Y013978D01*
X008951Y014249D01*
X008938Y014295D01*
X008915Y014336D01*
X008881Y014369D01*
X008840Y014393D01*
X008794Y014405D01*
X008563Y014405D01*
X008563Y013978D01*
X008563Y013882D01*
X008951Y013882D01*
X008951Y013611D01*
X008938Y013565D01*
X008915Y013524D01*
X008881Y013491D01*
X008840Y013467D01*
X008794Y013455D01*
X008563Y013455D01*
X008563Y013882D01*
X008467Y013882D01*
X008467Y013455D01*
X008235Y013455D01*
X008189Y013467D01*
X008171Y013478D01*
X008168Y013475D01*
X007523Y013475D01*
X007429Y013568D01*
X007429Y013720D01*
X006490Y013720D01*
X006490Y013628D01*
X006396Y013534D01*
X005791Y013534D01*
X005697Y013653D02*
X005663Y013653D01*
X005663Y013811D02*
X005697Y013811D01*
X005697Y013970D02*
X005663Y013970D01*
X005663Y014128D02*
X005697Y014128D01*
X005751Y014287D02*
X005609Y014287D01*
X006436Y014287D02*
X007429Y014287D01*
X007429Y013653D02*
X006490Y013653D01*
X007504Y013494D02*
X004118Y013494D01*
X003960Y013336D02*
X008966Y013336D01*
X008966Y013494D02*
X008884Y013494D01*
X008951Y013653D02*
X008966Y013653D01*
X008951Y013811D02*
X008966Y013811D01*
X008966Y013970D02*
X008563Y013970D01*
X008563Y014128D02*
X008467Y014128D01*
X008467Y014287D02*
X008563Y014287D01*
X008940Y014287D02*
X008966Y014287D01*
X008966Y014445D02*
X004083Y014445D01*
X004242Y014604D02*
X008966Y014604D01*
X008966Y014762D02*
X004400Y014762D01*
X004559Y014921D02*
X008966Y014921D01*
X008881Y014991D02*
X008915Y015024D01*
X008938Y015065D01*
X008951Y015111D01*
X008951Y015382D01*
X008563Y015382D01*
X008563Y015478D01*
X008951Y015478D01*
X008951Y015749D01*
X008938Y015795D01*
X008915Y015836D01*
X008881Y015869D01*
X008840Y015893D01*
X008794Y015905D01*
X008563Y015905D01*
X008563Y015478D01*
X008467Y015478D01*
X008467Y015905D01*
X008235Y015905D01*
X008189Y015893D01*
X008171Y015882D01*
X008168Y015885D01*
X007523Y015885D01*
X007429Y015792D01*
X007429Y015640D01*
X006490Y015640D01*
X006490Y015732D01*
X006396Y015826D01*
X005791Y015826D01*
X005697Y015732D01*
X005697Y015128D01*
X005791Y015034D01*
X006396Y015034D01*
X006490Y015128D01*
X006490Y015220D01*
X007429Y015220D01*
X007429Y015068D01*
X007523Y014975D01*
X008168Y014975D01*
X008171Y014978D01*
X008189Y014967D01*
X008235Y014955D01*
X008467Y014955D01*
X008467Y015382D01*
X008563Y015382D01*
X008563Y014955D01*
X008794Y014955D01*
X008840Y014967D01*
X008881Y014991D01*
X008942Y015079D02*
X008966Y015079D01*
X008951Y015238D02*
X008966Y015238D01*
X008966Y015396D02*
X008563Y015396D01*
X008563Y015238D02*
X008467Y015238D01*
X008467Y015079D02*
X008563Y015079D01*
X008563Y015555D02*
X008467Y015555D01*
X008467Y015713D02*
X008563Y015713D01*
X008563Y015872D02*
X008467Y015872D01*
X008877Y015872D02*
X009275Y015872D01*
X009117Y015713D02*
X008951Y015713D01*
X008951Y015555D02*
X008984Y015555D01*
X009435Y016030D02*
X000820Y016030D01*
X000820Y015872D02*
X007509Y015872D01*
X007429Y015713D02*
X006490Y015713D01*
X006441Y015079D02*
X007429Y015079D01*
X008951Y014128D02*
X008966Y014128D01*
X008563Y013811D02*
X008467Y013811D01*
X008467Y013653D02*
X008563Y013653D01*
X008563Y013494D02*
X008467Y013494D01*
X008966Y013177D02*
X003801Y013177D01*
X003598Y013653D02*
X003580Y013653D01*
X003580Y013811D02*
X003756Y013811D01*
X003608Y013970D02*
X003915Y013970D01*
X004277Y013653D02*
X004870Y013653D01*
X004725Y015427D02*
X003069Y013770D01*
X003050Y013770D01*
X004717Y015079D02*
X004919Y015079D01*
X004725Y015427D02*
X005263Y015427D01*
X005267Y015430D01*
X005663Y015396D02*
X005697Y015396D01*
X005697Y015238D02*
X005663Y015238D01*
X005614Y015079D02*
X005746Y015079D01*
X005697Y015555D02*
X005663Y015555D01*
X005663Y015713D02*
X005697Y015713D01*
X004870Y015713D02*
X000820Y015713D01*
X000820Y015555D02*
X004514Y015555D01*
X000820Y016506D02*
X023690Y016506D01*
X023689Y016664D02*
X000820Y016664D01*
X000836Y016823D02*
X023615Y016823D01*
X023690Y015396D02*
X020720Y015396D01*
X020862Y015238D02*
X023690Y015238D01*
X023690Y015079D02*
X020927Y015079D01*
X020964Y014921D02*
X023690Y014921D01*
X023690Y014762D02*
X020964Y014762D01*
X020928Y014604D02*
X023690Y014604D01*
X023690Y014445D02*
X020862Y014445D01*
X020721Y014287D02*
X023690Y014287D01*
X023690Y014128D02*
X020455Y014128D01*
X019973Y014128D02*
X019420Y014128D01*
X019420Y013970D02*
X023690Y013970D01*
X023690Y013811D02*
X019420Y013811D01*
X019420Y013653D02*
X023690Y013653D01*
X023690Y013494D02*
X019420Y013494D01*
X019420Y013336D02*
X023690Y013336D01*
X023690Y013177D02*
X019420Y013177D01*
X019420Y013019D02*
X023690Y013019D01*
X023690Y012860D02*
X019420Y012860D01*
X019420Y012702D02*
X023690Y012702D01*
X023690Y012543D02*
X020470Y012543D01*
X020363Y012587D02*
X020639Y012473D01*
X020850Y012262D01*
X020927Y012077D01*
X021446Y012077D01*
X021534Y012040D01*
X023191Y010383D01*
X023258Y010316D01*
X023295Y010228D01*
X023295Y007548D01*
X023340Y007530D01*
X023498Y007372D01*
X023583Y007166D01*
X023583Y006944D01*
X023498Y006738D01*
X023340Y006580D01*
X023134Y006495D01*
X022912Y006495D01*
X022706Y006580D01*
X022548Y006738D01*
X022463Y006944D01*
X022463Y007166D01*
X022548Y007372D01*
X022706Y007530D01*
X022815Y007575D01*
X022815Y010081D01*
X021299Y011597D01*
X020927Y011597D01*
X020850Y011412D01*
X020639Y011200D01*
X020363Y011086D01*
X020064Y011086D01*
X019789Y011200D01*
X019577Y011412D01*
X019463Y011687D01*
X019463Y011986D01*
X019577Y012262D01*
X019789Y012473D01*
X020064Y012587D01*
X020363Y012587D01*
X019958Y012543D02*
X019420Y012543D01*
X019420Y012385D02*
X019700Y012385D01*
X019563Y012226D02*
X019420Y012226D01*
X019420Y012068D02*
X019497Y012068D01*
X019463Y011909D02*
X019420Y011909D01*
X019420Y011751D02*
X019463Y011751D01*
X019503Y011592D02*
X019420Y011592D01*
X019420Y011434D02*
X019568Y011434D01*
X019714Y011275D02*
X019420Y011275D01*
X019420Y011117D02*
X019991Y011117D01*
X020436Y011117D02*
X021779Y011117D01*
X021621Y011275D02*
X020713Y011275D01*
X020859Y011434D02*
X021462Y011434D01*
X021304Y011592D02*
X020925Y011592D01*
X021398Y011837D02*
X023055Y010180D01*
X023055Y007087D01*
X023023Y007055D01*
X023539Y006837D02*
X023690Y006837D01*
X023690Y006679D02*
X023438Y006679D01*
X023195Y006520D02*
X023690Y006520D01*
X023690Y006362D02*
X018532Y006362D01*
X018587Y006307D02*
X016932Y007962D01*
X016932Y007983D01*
X016880Y008107D01*
X016785Y008202D01*
X016661Y008254D01*
X016526Y008254D01*
X016402Y008202D01*
X016307Y008107D01*
X016256Y007983D01*
X016256Y007848D01*
X016307Y007724D01*
X016402Y007629D01*
X016526Y007578D01*
X016637Y007578D01*
X018247Y005968D01*
X018233Y005933D01*
X018233Y005740D01*
X018307Y005562D01*
X018443Y005426D01*
X018621Y005352D01*
X018814Y005352D01*
X018992Y005426D01*
X019129Y005562D01*
X019202Y005740D01*
X019202Y005933D01*
X019129Y006111D01*
X018992Y006248D01*
X018814Y006321D01*
X018621Y006321D01*
X018587Y006307D01*
X018374Y006520D02*
X021014Y006520D01*
X020945Y006679D02*
X018215Y006679D01*
X018057Y006837D02*
X020945Y006837D01*
X020945Y006996D02*
X017898Y006996D01*
X017740Y007154D02*
X020945Y007154D01*
X020908Y007313D02*
X017581Y007313D01*
X017423Y007471D02*
X020750Y007471D01*
X020591Y007630D02*
X017264Y007630D01*
X017106Y007788D02*
X020433Y007788D01*
X020274Y007947D02*
X016947Y007947D01*
X016881Y008105D02*
X020116Y008105D01*
X019957Y008264D02*
X014934Y008264D01*
X014934Y008422D02*
X019799Y008422D01*
X019640Y008581D02*
X014934Y008581D01*
X014934Y008739D02*
X019482Y008739D01*
X019323Y008898D02*
X014934Y008898D01*
X014934Y009056D02*
X019165Y009056D01*
X019006Y009215D02*
X014934Y009215D01*
X014934Y009373D02*
X018940Y009373D01*
X018940Y009532D02*
X014934Y009532D01*
X014934Y009690D02*
X018940Y009690D01*
X018940Y009849D02*
X014934Y009849D01*
X014934Y010007D02*
X018940Y010007D01*
X018940Y010166D02*
X014934Y010166D01*
X014934Y010324D02*
X018940Y010324D01*
X018940Y010483D02*
X014934Y010483D01*
X014934Y010641D02*
X018940Y010641D01*
X018940Y010800D02*
X014934Y010800D01*
X014934Y010958D02*
X018940Y010958D01*
X018940Y011117D02*
X014934Y011117D01*
X014929Y011275D02*
X018940Y011275D01*
X018940Y011434D02*
X014815Y011434D01*
X014656Y011592D02*
X018940Y011592D01*
X018940Y011751D02*
X014498Y011751D01*
X014339Y011909D02*
X018940Y011909D01*
X018940Y012068D02*
X014181Y012068D01*
X014022Y012226D02*
X018940Y012226D01*
X018940Y012385D02*
X013864Y012385D01*
X013705Y012543D02*
X018940Y012543D01*
X018940Y012702D02*
X013547Y012702D01*
X013388Y012860D02*
X018940Y012860D01*
X018940Y013019D02*
X013230Y013019D01*
X011062Y013177D02*
X018940Y013177D01*
X018940Y013336D02*
X011062Y013336D01*
X010983Y013494D02*
X018940Y013494D01*
X018940Y013653D02*
X010236Y013653D01*
X010395Y013811D02*
X018940Y013811D01*
X018940Y013970D02*
X010553Y013970D01*
X010712Y014128D02*
X018940Y014128D01*
X018940Y014287D02*
X010870Y014287D01*
X011029Y014445D02*
X018981Y014445D01*
X019139Y014604D02*
X011187Y014604D01*
X011256Y014762D02*
X019298Y014762D01*
X019456Y014921D02*
X011410Y014921D01*
X011410Y015079D02*
X019500Y015079D01*
X019566Y015238D02*
X011410Y015238D01*
X011278Y015396D02*
X019708Y015396D01*
X019716Y014841D02*
X019180Y014305D01*
X019180Y009380D01*
X021505Y007055D01*
X022065Y006996D02*
X022463Y006996D01*
X022463Y007154D02*
X022065Y007154D01*
X022065Y007313D02*
X022523Y007313D01*
X022647Y007471D02*
X022065Y007471D01*
X022065Y006837D02*
X022507Y006837D01*
X022607Y006679D02*
X022065Y006679D01*
X021996Y006520D02*
X022851Y006520D01*
X023583Y006996D02*
X023690Y006996D01*
X023690Y007154D02*
X023583Y007154D01*
X023522Y007313D02*
X023690Y007313D01*
X023690Y007471D02*
X023399Y007471D01*
X023295Y007630D02*
X023690Y007630D01*
X023690Y007788D02*
X023295Y007788D01*
X023295Y007947D02*
X023690Y007947D01*
X023690Y008105D02*
X023295Y008105D01*
X023295Y008264D02*
X023690Y008264D01*
X023690Y008422D02*
X023295Y008422D01*
X023295Y008581D02*
X023690Y008581D01*
X023690Y008739D02*
X023295Y008739D01*
X023295Y008898D02*
X023690Y008898D01*
X023690Y009056D02*
X023295Y009056D01*
X023295Y009215D02*
X023690Y009215D01*
X023690Y009373D02*
X023295Y009373D01*
X023295Y009532D02*
X023690Y009532D01*
X023690Y009690D02*
X023295Y009690D01*
X023295Y009849D02*
X023690Y009849D01*
X023690Y010007D02*
X023295Y010007D01*
X023295Y010166D02*
X023690Y010166D01*
X023690Y010324D02*
X023250Y010324D01*
X023092Y010483D02*
X023690Y010483D01*
X023690Y010641D02*
X022933Y010641D01*
X022775Y010800D02*
X023690Y010800D01*
X023690Y010958D02*
X022616Y010958D01*
X022458Y011117D02*
X023690Y011117D01*
X023690Y011275D02*
X022299Y011275D01*
X022141Y011434D02*
X023690Y011434D01*
X023690Y011592D02*
X021982Y011592D01*
X021824Y011751D02*
X023690Y011751D01*
X023690Y011909D02*
X021665Y011909D01*
X021468Y012068D02*
X023690Y012068D01*
X023690Y012226D02*
X020865Y012226D01*
X020727Y012385D02*
X023690Y012385D01*
X021938Y010958D02*
X019420Y010958D01*
X019420Y010800D02*
X022096Y010800D01*
X022255Y010641D02*
X019420Y010641D01*
X019420Y010483D02*
X022413Y010483D01*
X022572Y010324D02*
X019420Y010324D01*
X019420Y010166D02*
X022730Y010166D01*
X022815Y010007D02*
X019420Y010007D01*
X019420Y009849D02*
X022815Y009849D01*
X022815Y009690D02*
X019420Y009690D01*
X019420Y009532D02*
X022815Y009532D01*
X022815Y009373D02*
X019526Y009373D01*
X019685Y009215D02*
X022815Y009215D01*
X022815Y009056D02*
X019843Y009056D01*
X020002Y008898D02*
X022815Y008898D01*
X022815Y008739D02*
X020160Y008739D01*
X020319Y008581D02*
X022815Y008581D01*
X022815Y008422D02*
X020477Y008422D01*
X020636Y008264D02*
X022815Y008264D01*
X022815Y008105D02*
X020794Y008105D01*
X020953Y007947D02*
X022815Y007947D01*
X022815Y007788D02*
X021111Y007788D01*
X021270Y007630D02*
X022815Y007630D01*
X023690Y006203D02*
X019037Y006203D01*
X019156Y006045D02*
X023690Y006045D01*
X023690Y005886D02*
X019202Y005886D01*
X019197Y005728D02*
X023690Y005728D01*
X023690Y005569D02*
X019132Y005569D01*
X018956Y005411D02*
X023690Y005411D01*
X023690Y005252D02*
X014472Y005252D01*
X014314Y005094D02*
X023690Y005094D01*
X023690Y004935D02*
X014155Y004935D01*
X013997Y004777D02*
X023690Y004777D01*
X023690Y004618D02*
X013838Y004618D01*
X013680Y004460D02*
X023690Y004460D01*
X023690Y004301D02*
X013521Y004301D01*
X013363Y004143D02*
X023690Y004143D01*
X023690Y003984D02*
X013204Y003984D01*
X013046Y003826D02*
X023690Y003826D01*
X023690Y003667D02*
X012887Y003667D01*
X012729Y003509D02*
X023690Y003509D01*
X023690Y003350D02*
X012570Y003350D01*
X012412Y003192D02*
X023690Y003192D01*
X023690Y003033D02*
X012253Y003033D01*
X012095Y002875D02*
X023690Y002875D01*
X023690Y001131D02*
X009624Y001131D01*
X009624Y000973D02*
X023690Y000973D01*
X023674Y000814D02*
X009624Y000814D01*
X009624Y000656D02*
X023572Y000656D01*
X018480Y005411D02*
X014956Y005411D01*
X015132Y005569D02*
X018304Y005569D01*
X018238Y005728D02*
X015197Y005728D01*
X015202Y005886D02*
X018233Y005886D01*
X018170Y006045D02*
X015156Y006045D01*
X015037Y006203D02*
X018012Y006203D01*
X017853Y006362D02*
X014934Y006362D01*
X014934Y006520D02*
X017695Y006520D01*
X017536Y006679D02*
X014934Y006679D01*
X014934Y006837D02*
X017378Y006837D01*
X017219Y006996D02*
X014934Y006996D01*
X014934Y007154D02*
X017061Y007154D01*
X016902Y007313D02*
X014934Y007313D01*
X014934Y007471D02*
X016744Y007471D01*
X016402Y007630D02*
X014934Y007630D01*
X014934Y007788D02*
X016281Y007788D01*
X016256Y007947D02*
X014934Y007947D01*
X014934Y008105D02*
X016306Y008105D01*
X016594Y007916D02*
X016639Y007916D01*
X018718Y005837D01*
X014454Y009849D02*
X010766Y009849D01*
X010670Y010007D02*
X014454Y010007D01*
X010990Y014746D02*
X009576Y013331D01*
X008563Y012860D02*
X008467Y012860D01*
X008467Y012702D02*
X008563Y012702D01*
X008563Y012543D02*
X008467Y012543D01*
X008951Y012226D02*
X008966Y012226D01*
X010990Y014746D02*
X010990Y015090D01*
X004416Y011592D02*
X003580Y011592D01*
X003463Y011434D02*
X004257Y011434D01*
X004099Y011275D02*
X003305Y011275D01*
X003453Y011117D02*
X003940Y011117D01*
X003855Y010958D02*
X003580Y010958D01*
X003580Y010800D02*
X003855Y010800D01*
X003855Y010641D02*
X003580Y010641D01*
X003512Y010483D02*
X003855Y010483D01*
X003855Y010324D02*
X003354Y010324D01*
X003404Y010166D02*
X003855Y010166D01*
X003855Y010007D02*
X003563Y010007D01*
X003580Y009849D02*
X003781Y009849D01*
X003623Y009690D02*
X003580Y009690D01*
X004095Y009823D02*
X003050Y008778D01*
X003050Y008770D01*
X001500Y004935D02*
X000820Y004935D01*
X004128Y003509D02*
X006472Y003509D01*
X006472Y003667D02*
X004286Y003667D01*
X004445Y003826D02*
X006472Y003826D01*
X006472Y003984D02*
X004603Y003984D01*
X004762Y004143D02*
X006472Y004143D01*
X006472Y004301D02*
X004920Y004301D01*
X019501Y014287D02*
X019706Y014287D01*
X019716Y014841D02*
X020214Y014841D01*
X020214Y011837D02*
X021398Y011837D01*
D27*
X017323Y009801D03*
X016594Y007916D03*
X012360Y007916D03*
X010011Y006799D03*
X008597Y005784D03*
X007053Y004842D03*
X004972Y002993D03*
X004271Y005587D03*
X010845Y002993D03*
X004606Y013115D03*
X004579Y014665D03*
X004597Y016141D03*
X011527Y013838D03*
D28*
X007845Y013930D02*
X006093Y013930D01*
X006093Y012430D02*
X007845Y012430D01*
X007845Y015430D02*
X006093Y015430D01*
X005833Y009301D02*
X008825Y009301D01*
X009799Y008327D01*
X009799Y007647D01*
X009781Y007629D01*
X009358Y007639D02*
X009348Y007629D01*
X009358Y007639D02*
X009358Y008242D01*
X008670Y008931D01*
X006096Y008931D01*
X003435Y006270D01*
X002558Y006270D01*
X002543Y006256D01*
X002543Y006255D01*
X002058Y005770D01*
X002050Y005770D01*
X002050Y006770D02*
X002052Y006770D01*
X002516Y007234D01*
X002518Y007234D01*
X002552Y007268D01*
X002554Y007270D01*
X003796Y007270D01*
X003799Y007268D01*
X005833Y009301D01*
X002552Y007268D02*
X002552Y007268D01*
M02*
