%
M48
M72
T01C0.0236
T02C0.0320
T03C0.0400
T04C0.0433
T05C0.0472
T06C0.0787
T07C0.0810
%
T01
X4180Y16791
X4180Y18166
X6555Y18416
X5430Y23041
X5430Y24416
T02
X10990Y16326
X10490Y15576
X11490Y15576
T03
X2060Y10576
X3060Y10576
X3060Y11576
X2060Y11576
X2060Y12576
X3060Y12576
X3060Y13576
X2060Y13576
X2060Y14576
X3060Y14576
X3060Y15576
X2060Y15576
X2060Y16576
X3060Y16576
X3060Y17576
X2060Y17576
X2060Y18576
X3060Y18576
X3060Y19576
X2060Y19576
X2060Y20576
X3060Y20576
X3060Y21576
X2060Y21576
X2060Y22576
X3060Y22576
T04
X14718Y13573
X18718Y13573
T05
X21505Y14791
X23023Y14791
T06
X20214Y19573
X20214Y22577
T07
X13222Y18573
M30
