G75*
%MOIN*%
%OFA0B0*%
%FSLAX24Y24*%
%IPPOS*%
%LPD*%
%AMOC8*
5,1,8,0,0,1.08239X$1,22.5*
%
%ADD10C,0.0000*%
D10*
X000680Y000784D02*
X000680Y016768D01*
X000682Y016799D01*
X000687Y016829D01*
X000695Y016858D01*
X000707Y016887D01*
X000722Y016914D01*
X000740Y016939D01*
X000760Y016962D01*
X000783Y016982D01*
X000808Y017000D01*
X000835Y017015D01*
X000864Y017027D01*
X000893Y017035D01*
X000923Y017040D01*
X000954Y017042D01*
X000954Y017041D02*
X023439Y017041D01*
X023477Y017039D01*
X023515Y017033D01*
X023553Y017024D01*
X023589Y017011D01*
X023623Y016995D01*
X023656Y016975D01*
X023687Y016952D01*
X023715Y016926D01*
X023741Y016898D01*
X023764Y016867D01*
X023784Y016834D01*
X023800Y016800D01*
X023813Y016764D01*
X023822Y016726D01*
X023828Y016688D01*
X023830Y016650D01*
X023830Y000902D01*
X023828Y000861D01*
X023823Y000820D01*
X023814Y000780D01*
X023802Y000741D01*
X023786Y000703D01*
X023767Y000666D01*
X023745Y000631D01*
X023720Y000599D01*
X023692Y000568D01*
X023661Y000540D01*
X023629Y000515D01*
X023594Y000493D01*
X023557Y000474D01*
X023519Y000458D01*
X023480Y000446D01*
X023440Y000437D01*
X023399Y000432D01*
X023358Y000430D01*
X001034Y000430D01*
X000997Y000432D01*
X000960Y000438D01*
X000925Y000447D01*
X000890Y000461D01*
X000857Y000477D01*
X000826Y000498D01*
X000797Y000521D01*
X000771Y000547D01*
X000748Y000576D01*
X000727Y000607D01*
X000711Y000640D01*
X000697Y000675D01*
X000688Y000710D01*
X000682Y000747D01*
X000680Y000784D01*
M02*
