G75*
%MOIN*%
%OFA0B0*%
%FSLAX24Y24*%
%IPPOS*%
%LPD*%
%AMOC8*
5,1,8,0,0,1.08239X$1,22.5*
%
%ADD10OC8,0.0780*%
%ADD11R,0.0355X0.0749*%
%ADD12R,0.0316X0.0749*%
%ADD13OC8,0.0560*%
%ADD14C,0.1221*%
%ADD15C,0.1250*%
%ADD16C,0.0690*%
%ADD17R,0.0985X0.0985*%
%ADD18R,0.0840X0.0840*%
%ADD19C,0.0840*%
%ADD20R,0.0512X0.0355*%
%ADD21R,0.0512X0.0512*%
%ADD22R,0.0552X0.0631*%
%ADD23R,0.0355X0.2009*%
%ADD24R,0.1871X0.2009*%
D10*
X002050Y002770D03*
X003050Y002770D03*
X003050Y003770D03*
X002050Y003770D03*
X002050Y004770D03*
X003050Y004770D03*
X003050Y005770D03*
X002050Y005770D03*
X002050Y006770D03*
X003050Y006770D03*
X003050Y007770D03*
X002050Y007770D03*
X002050Y008770D03*
X003050Y008770D03*
X003050Y009770D03*
X002050Y009770D03*
X002050Y010770D03*
X003050Y010770D03*
X003050Y011770D03*
X002050Y011770D03*
X002050Y012770D03*
X003050Y012770D03*
X003050Y013770D03*
X002050Y013770D03*
X002050Y014770D03*
X003050Y014770D03*
D11*
X007183Y007629D03*
X007616Y007629D03*
X008049Y007629D03*
X008482Y007629D03*
X008915Y007629D03*
X009348Y007629D03*
X009781Y007629D03*
X009781Y003889D03*
X009348Y003889D03*
X008915Y003889D03*
X008482Y003889D03*
X008049Y003889D03*
X007616Y003889D03*
X007183Y003889D03*
D12*
X006770Y003889D03*
X010195Y003889D03*
X010195Y007629D03*
X006770Y007629D03*
D13*
X009990Y015090D03*
X010490Y015840D03*
X010990Y015090D03*
D14*
X020214Y014841D03*
X020214Y011837D03*
D15*
X013222Y010837D03*
D16*
X014718Y005837D03*
X018718Y005837D03*
D17*
X010430Y011144D03*
X010430Y012876D03*
D18*
X021505Y007055D03*
D19*
X023023Y007055D03*
D20*
X005254Y007027D03*
X005254Y006319D03*
D21*
X005267Y012430D03*
X006093Y012430D03*
X006093Y013930D03*
X005267Y013930D03*
X005267Y015430D03*
X006093Y015430D03*
D22*
X007845Y015430D03*
X008515Y015430D03*
X008515Y013930D03*
X007845Y013930D03*
X007845Y012430D03*
X008515Y012430D03*
X008515Y010930D03*
X007845Y010930D03*
D23*
X007180Y001517D03*
D24*
X005832Y001517D03*
X008528Y001517D03*
M02*
