G75*
%MOIN*%
%OFA0B0*%
%FSLAX24Y24*%
%IPPOS*%
%LPD*%
%AMOC8*
5,1,8,0,0,1.08239X$1,22.5*
%
%ADD10C,0.1202*%
%ADD11OC8,0.0800*%
%ADD12R,0.0860X0.0860*%
%ADD13C,0.0860*%
%ADD14R,0.1891X0.2029*%
%ADD15C,0.0532*%
%ADD16C,0.0436*%
D10*
X015963Y011811D03*
D11*
X003050Y011770D03*
X002050Y011770D03*
X002050Y010770D03*
X003050Y010770D03*
X003050Y009770D03*
X002050Y009770D03*
X002050Y008770D03*
X003050Y008770D03*
X003050Y007770D03*
X002050Y007770D03*
X002050Y006770D03*
X003050Y006770D03*
X003050Y005770D03*
X002050Y005770D03*
X002050Y004770D03*
X003050Y004770D03*
X003050Y003770D03*
X002050Y003770D03*
X002050Y002770D03*
X003050Y002770D03*
X003050Y012770D03*
X002050Y012770D03*
X002050Y013770D03*
X003050Y013770D03*
X003050Y014770D03*
X002050Y014770D03*
D12*
X011675Y015355D03*
X015400Y015405D03*
X019175Y015380D03*
X022900Y015405D03*
X020908Y012027D03*
D13*
X022426Y012027D03*
X021382Y015405D03*
X017657Y015380D03*
X013882Y015405D03*
X010157Y015355D03*
D14*
X008528Y001517D03*
X005832Y001517D03*
D15*
X014293Y006095D02*
X014766Y006095D01*
X014766Y007095D02*
X014293Y007095D01*
X014293Y008095D02*
X014766Y008095D01*
X014766Y009095D02*
X014293Y009095D01*
X014293Y010095D02*
X014766Y010095D01*
X014766Y011095D02*
X014293Y011095D01*
X014293Y012095D02*
X014766Y012095D01*
X014766Y013095D02*
X014293Y013095D01*
X017293Y013095D02*
X017766Y013095D01*
X017766Y012095D02*
X017293Y012095D01*
X017293Y011095D02*
X017766Y011095D01*
X017766Y010095D02*
X017293Y010095D01*
X017293Y009095D02*
X017766Y009095D01*
X017766Y008095D02*
X017293Y008095D01*
X017293Y007095D02*
X017766Y007095D01*
X017766Y006095D02*
X017293Y006095D01*
D16*
X001050Y000865D03*
X001724Y001780D03*
X001395Y003769D03*
X003930Y005730D03*
X004255Y004955D03*
X005248Y005763D03*
X005845Y006300D03*
X006320Y007249D03*
X007087Y007850D03*
X007740Y007860D03*
X008345Y007857D03*
X009010Y007843D03*
X008793Y008285D03*
X007738Y008585D03*
X008480Y009780D03*
X008235Y010767D03*
X009455Y011705D03*
X008355Y012305D03*
X008380Y013480D03*
X008122Y014456D03*
X007805Y015255D03*
X006380Y016150D03*
X005255Y016230D03*
X006155Y014430D03*
X005280Y013830D03*
X007009Y013744D03*
X005098Y012328D03*
X003950Y012527D03*
X005098Y010854D03*
X004000Y009310D03*
X004071Y008141D03*
X004523Y006705D03*
X006766Y005333D03*
X007201Y005738D03*
X007640Y005333D03*
X008049Y004905D03*
X008482Y005311D03*
X008902Y005724D03*
X009304Y005308D03*
X009746Y005721D03*
X010145Y005308D03*
X010588Y005721D03*
X010167Y006134D03*
X010573Y006533D03*
X009732Y006533D03*
X009311Y006137D03*
X008888Y006536D03*
X008484Y006152D03*
X008060Y006551D03*
X007633Y006159D03*
X007187Y006551D03*
X008075Y005738D03*
X007198Y004912D03*
X006766Y004506D03*
X007212Y004115D03*
X007640Y004506D03*
X008064Y004107D03*
X008467Y004492D03*
X008876Y004890D03*
X009311Y004488D03*
X008891Y004093D03*
X009746Y004090D03*
X010153Y004488D03*
X009732Y004887D03*
X010587Y004887D03*
X010602Y004089D03*
X010624Y003227D03*
X010254Y002799D03*
X009772Y002399D03*
X009356Y002797D03*
X008495Y002797D03*
X007620Y002797D03*
X006792Y002804D03*
X006316Y003391D03*
X006023Y002805D03*
X005233Y002804D03*
X004610Y002435D03*
X004602Y001541D03*
X004577Y000793D03*
X006321Y004107D03*
X006306Y004905D03*
X010667Y007383D03*
X010202Y008314D03*
X012197Y009255D03*
X012405Y008480D03*
X012930Y008455D03*
X013922Y007574D03*
X012930Y006772D03*
X012377Y007495D03*
X014055Y009600D03*
X013522Y010072D03*
X012592Y010128D03*
X012100Y011567D03*
X011463Y011582D03*
X013564Y012098D03*
X013941Y012534D03*
X014063Y011601D03*
X015964Y009982D03*
X018233Y009445D03*
X019286Y009379D03*
X018296Y010516D03*
X019728Y010932D03*
X021227Y009721D03*
X021248Y007940D03*
X021180Y006855D03*
X021008Y005663D03*
X019880Y005680D03*
X018305Y005980D03*
X019055Y006830D03*
X019170Y007565D03*
X018424Y008060D03*
X016024Y006012D03*
X009793Y001608D03*
X009796Y000836D03*
X016260Y000900D03*
X023290Y000925D03*
X023011Y007356D03*
X023016Y007853D03*
X018322Y012613D03*
X016805Y014303D03*
X015984Y013282D03*
X015199Y014351D03*
X012138Y013650D03*
X010905Y014255D03*
X010555Y013680D03*
X006268Y008575D03*
X001401Y009773D03*
X001404Y010773D03*
X001401Y012765D03*
X002569Y015553D03*
X001045Y016649D03*
X023175Y016710D03*
M02*
