G75*
%MOIN*%
%OFA0B0*%
%FSLAX24Y24*%
%IPPOS*%
%LPD*%
%AMOC8*
5,1,8,0,0,1.08239X$1,22.5*
%
%ADD10C,0.0000*%
D10*
X000570Y000784D02*
X000578Y016758D01*
X000579Y016758D02*
X000576Y016798D01*
X000577Y016838D01*
X000582Y016877D01*
X000591Y016916D01*
X000603Y016954D01*
X000618Y016991D01*
X000637Y017026D01*
X000659Y017059D01*
X000684Y017091D01*
X000712Y017119D01*
X000742Y017145D01*
X000774Y017168D01*
X000809Y017188D01*
X000845Y017205D01*
X000883Y017218D01*
X000921Y017228D01*
X000961Y017234D01*
X023098Y017273D01*
X023830Y016650D02*
X023830Y000902D01*
X023828Y000861D01*
X023823Y000820D01*
X023814Y000780D01*
X023802Y000741D01*
X023786Y000703D01*
X023767Y000666D01*
X023745Y000631D01*
X023720Y000599D01*
X023692Y000568D01*
X023661Y000540D01*
X023629Y000515D01*
X023594Y000493D01*
X023557Y000474D01*
X023519Y000458D01*
X023480Y000446D01*
X023440Y000437D01*
X023399Y000432D01*
X023358Y000430D01*
X001034Y000430D01*
X001034Y000431D02*
X000996Y000427D01*
X000958Y000428D01*
X000920Y000431D01*
X000883Y000438D01*
X000846Y000449D01*
X000811Y000463D01*
X000777Y000480D01*
X000745Y000500D01*
X000714Y000523D01*
X000686Y000549D01*
X000661Y000577D01*
X000638Y000608D01*
X000618Y000640D01*
X000601Y000674D01*
X000588Y000710D01*
X000577Y000747D01*
X000571Y000784D01*
X023099Y017274D02*
X023149Y017276D01*
X023200Y017274D01*
X023251Y017269D01*
X023301Y017260D01*
X023350Y017247D01*
X023398Y017230D01*
X023445Y017210D01*
X023490Y017187D01*
X023533Y017160D01*
X023574Y017130D01*
X023613Y017097D01*
X023649Y017061D01*
X023682Y017023D01*
X023713Y016982D01*
X023740Y016939D01*
X023764Y016894D01*
X023785Y016848D01*
X023802Y016800D01*
X023815Y016751D01*
X023825Y016701D01*
X023831Y016650D01*
M02*
