G75*
%MOIN*%
%OFA0B0*%
%FSLAX24Y24*%
%IPPOS*%
%LPD*%
%AMOC8*
5,1,8,0,0,1.08239X$1,22.5*
%
%ADD10C,0.0000*%
%ADD11OC8,0.0740*%
%ADD12R,0.0709X0.0315*%
%ADD13R,0.0709X0.0276*%
%ADD14R,0.0315X0.0984*%
%ADD15R,0.0394X0.0984*%
%ADD16OC8,0.0520*%
%ADD17C,0.1181*%
%ADD18C,0.1210*%
%ADD19C,0.0650*%
%ADD20R,0.0945X0.0945*%
%ADD21R,0.0800X0.0800*%
%ADD22C,0.0800*%
%ADD23R,0.0472X0.0315*%
%ADD24R,0.0472X0.0472*%
%ADD25R,0.0512X0.0591*%
%ADD26C,0.0160*%
%ADD27C,0.0396*%
%ADD28C,0.0100*%
D10*
X001034Y008166D02*
X023358Y008166D01*
X023399Y008168D01*
X023440Y008173D01*
X023480Y008182D01*
X023519Y008194D01*
X023557Y008210D01*
X023594Y008229D01*
X023629Y008251D01*
X023661Y008276D01*
X023692Y008304D01*
X023720Y008335D01*
X023745Y008367D01*
X023767Y008402D01*
X023786Y008439D01*
X023802Y008477D01*
X023814Y008516D01*
X023823Y008556D01*
X023828Y008597D01*
X023830Y008638D01*
X023830Y024386D01*
X023828Y024424D01*
X023822Y024462D01*
X023813Y024500D01*
X023800Y024536D01*
X023784Y024570D01*
X023764Y024603D01*
X023741Y024634D01*
X023715Y024662D01*
X023687Y024688D01*
X023656Y024711D01*
X023623Y024731D01*
X023589Y024747D01*
X023553Y024760D01*
X023515Y024769D01*
X023477Y024775D01*
X023439Y024777D01*
X000954Y024777D01*
X000954Y024778D02*
X000923Y024776D01*
X000893Y024771D01*
X000864Y024763D01*
X000835Y024751D01*
X000808Y024736D01*
X000783Y024718D01*
X000760Y024698D01*
X000740Y024675D01*
X000722Y024650D01*
X000707Y024623D01*
X000695Y024594D01*
X000687Y024565D01*
X000682Y024535D01*
X000680Y024504D01*
X000680Y008520D01*
X000682Y008483D01*
X000688Y008446D01*
X000697Y008411D01*
X000711Y008376D01*
X000727Y008343D01*
X000748Y008312D01*
X000771Y008283D01*
X000797Y008257D01*
X000826Y008234D01*
X000857Y008213D01*
X000890Y008197D01*
X000925Y008183D01*
X000960Y008174D01*
X000997Y008168D01*
X001034Y008166D01*
D11*
X002060Y010576D03*
X003060Y010576D03*
X003060Y011576D03*
X002060Y011576D03*
X002060Y012576D03*
X003060Y012576D03*
X003060Y013576D03*
X002060Y013576D03*
X002060Y014576D03*
X003060Y014576D03*
X003060Y015576D03*
X002060Y015576D03*
X002060Y016576D03*
X003060Y016576D03*
X003060Y017576D03*
X002060Y017576D03*
X002060Y018576D03*
X003060Y018576D03*
X003060Y019576D03*
X002060Y019576D03*
X002060Y020576D03*
X003060Y020576D03*
X003060Y021576D03*
X002060Y021576D03*
X002060Y022576D03*
X003060Y022576D03*
D12*
X005251Y016735D03*
X005251Y016302D03*
X005251Y015869D03*
X005251Y015436D03*
X005251Y015003D03*
X005251Y014570D03*
X005251Y014137D03*
X008991Y014137D03*
X008991Y014570D03*
X008991Y015003D03*
X008991Y015436D03*
X008991Y015869D03*
X008991Y016302D03*
X008991Y016735D03*
D13*
X008991Y017149D03*
X008991Y013724D03*
X005251Y013724D03*
X005251Y017149D03*
D14*
X007130Y009286D03*
D15*
X006599Y009286D03*
X007681Y009286D03*
D16*
X010490Y015576D03*
X010990Y016326D03*
X011490Y015576D03*
D17*
X020214Y019573D03*
X020214Y022577D03*
D18*
X013222Y018573D03*
D19*
X014718Y013573D03*
X018718Y013573D03*
D20*
X010930Y013613D03*
X010930Y011880D03*
D21*
X021505Y014791D03*
D22*
X023023Y014791D03*
D23*
X005180Y012771D03*
X005180Y012062D03*
D24*
X007767Y019416D03*
X008593Y019416D03*
X008593Y020916D03*
X007767Y020916D03*
X007767Y022416D03*
X008593Y022416D03*
D25*
X010345Y022416D03*
X011015Y022416D03*
X011015Y020916D03*
X010345Y020916D03*
X010345Y019416D03*
X011015Y019416D03*
X011015Y017916D03*
X010345Y017916D03*
D26*
X007180Y017916D01*
X006805Y017541D01*
X006805Y012541D01*
X003680Y009416D01*
X001180Y009416D01*
X001180Y015666D01*
X002060Y016546D01*
X002060Y016576D01*
X001530Y015677D02*
X001530Y015357D01*
X001810Y015076D01*
X001530Y014796D01*
X001530Y014357D01*
X001810Y014076D01*
X001530Y013796D01*
X001530Y013357D01*
X001810Y013076D01*
X001530Y012796D01*
X001530Y012357D01*
X001810Y012076D01*
X001530Y011796D01*
X001530Y011357D01*
X001796Y011091D01*
X001510Y010804D01*
X001510Y010596D01*
X002040Y010596D01*
X002040Y010556D01*
X002080Y010556D01*
X002080Y010026D01*
X002288Y010026D01*
X002574Y010313D01*
X002840Y010046D01*
X003280Y010046D01*
X003590Y010357D01*
X003590Y010796D01*
X003310Y011076D01*
X003590Y011357D01*
X003590Y011796D01*
X003310Y012076D01*
X003590Y012357D01*
X003590Y012796D01*
X003324Y013062D01*
X003610Y013349D01*
X003610Y013556D01*
X003080Y013556D01*
X003080Y013596D01*
X003610Y013596D01*
X003610Y013804D01*
X003324Y014091D01*
X003590Y014357D01*
X003590Y014796D01*
X003310Y015076D01*
X003590Y015357D01*
X003590Y015796D01*
X003324Y016062D01*
X003610Y016349D01*
X003610Y016556D01*
X003080Y016556D01*
X003080Y016596D01*
X003610Y016596D01*
X003610Y016804D01*
X003324Y017091D01*
X003590Y017357D01*
X003590Y017707D01*
X004147Y017150D01*
X004109Y017150D01*
X003977Y017095D01*
X003876Y016994D01*
X003822Y016863D01*
X003822Y016720D01*
X003876Y016589D01*
X003977Y016488D01*
X004109Y016433D01*
X004199Y016433D01*
X004477Y016155D01*
X004544Y016088D01*
X004632Y016051D01*
X004737Y016051D01*
X004737Y015243D01*
X004729Y015230D01*
X004717Y015184D01*
X004717Y015003D01*
X004717Y014822D01*
X004729Y014776D01*
X004737Y014763D01*
X004737Y013519D01*
X004831Y013426D01*
X005015Y013426D01*
X005015Y013266D01*
X004977Y013227D01*
X004940Y013139D01*
X004940Y013088D01*
X004878Y013088D01*
X004784Y012995D01*
X004784Y012547D01*
X004878Y012453D01*
X005482Y012453D01*
X005576Y012547D01*
X005576Y012995D01*
X005482Y013088D01*
X005495Y013119D01*
X005495Y013426D01*
X005672Y013426D01*
X005766Y013519D01*
X005766Y014344D01*
X005819Y014366D01*
X006066Y014613D01*
X006133Y014680D01*
X006170Y014769D01*
X006170Y021389D01*
X007368Y021389D01*
X007454Y021303D02*
X007370Y021219D01*
X007370Y020614D01*
X007464Y020520D01*
X008069Y020520D01*
X008163Y020614D01*
X008163Y021219D01*
X008069Y021313D01*
X008045Y021313D01*
X008045Y021339D01*
X008008Y021427D01*
X007941Y021495D01*
X006191Y023245D01*
X006103Y023281D01*
X005696Y023281D01*
X005633Y023345D01*
X005501Y023400D01*
X005359Y023400D01*
X005227Y023345D01*
X005126Y023244D01*
X005072Y023113D01*
X005072Y022970D01*
X005126Y022839D01*
X005227Y022738D01*
X005359Y022683D01*
X005501Y022683D01*
X005633Y022738D01*
X005696Y022801D01*
X005956Y022801D01*
X007454Y021303D01*
X007382Y021230D02*
X006170Y021230D01*
X006170Y021072D02*
X007370Y021072D01*
X007370Y020913D02*
X006170Y020913D01*
X006170Y020755D02*
X007370Y020755D01*
X007388Y020596D02*
X006170Y020596D01*
X006170Y020438D02*
X018940Y020438D01*
X018940Y020596D02*
X011450Y020596D01*
X011451Y020597D02*
X011451Y020868D01*
X011063Y020868D01*
X011063Y020964D01*
X011451Y020964D01*
X011451Y021235D01*
X011438Y021281D01*
X011415Y021322D01*
X011381Y021356D01*
X011340Y021379D01*
X011294Y021392D01*
X011063Y021392D01*
X011063Y020964D01*
X010967Y020964D01*
X010967Y021392D01*
X010735Y021392D01*
X010689Y021379D01*
X010671Y021369D01*
X010668Y021372D01*
X010023Y021372D01*
X009929Y021278D01*
X009929Y021126D01*
X008990Y021126D01*
X008990Y021219D01*
X008896Y021313D01*
X008291Y021313D01*
X008197Y021219D01*
X008197Y020614D01*
X008291Y020520D01*
X008896Y020520D01*
X008990Y020614D01*
X008990Y020706D01*
X009929Y020706D01*
X009929Y020555D01*
X010023Y020461D01*
X010668Y020461D01*
X010671Y020464D01*
X010689Y020453D01*
X010735Y020441D01*
X010967Y020441D01*
X010967Y020868D01*
X011063Y020868D01*
X011063Y020441D01*
X011294Y020441D01*
X011340Y020453D01*
X011381Y020477D01*
X011415Y020511D01*
X011438Y020552D01*
X011451Y020597D01*
X011451Y020755D02*
X018940Y020755D01*
X018940Y020913D02*
X011063Y020913D01*
X011063Y020755D02*
X010967Y020755D01*
X010967Y020596D02*
X011063Y020596D01*
X011063Y021072D02*
X010967Y021072D01*
X010967Y021230D02*
X011063Y021230D01*
X011063Y021389D02*
X010967Y021389D01*
X010725Y021389D02*
X008024Y021389D01*
X008151Y021230D02*
X008209Y021230D01*
X008197Y021072D02*
X008163Y021072D01*
X008163Y020913D02*
X008197Y020913D01*
X008197Y020755D02*
X008163Y020755D01*
X008145Y020596D02*
X008215Y020596D01*
X007805Y020955D02*
X007767Y020916D01*
X007805Y020955D02*
X007805Y021291D01*
X006055Y023041D01*
X005430Y023041D01*
X005687Y023291D02*
X006553Y023291D01*
X006711Y023132D02*
X006303Y023132D01*
X006462Y022974D02*
X006870Y022974D01*
X007028Y022815D02*
X006620Y022815D01*
X006779Y022657D02*
X007187Y022657D01*
X007345Y022498D02*
X006937Y022498D01*
X007096Y022340D02*
X007370Y022340D01*
X007370Y022473D02*
X007370Y022114D01*
X007464Y022020D01*
X008069Y022020D01*
X008163Y022114D01*
X008163Y022719D01*
X008069Y022813D01*
X007710Y022813D01*
X006528Y023995D01*
X006439Y024031D01*
X002384Y024031D01*
X002529Y024176D01*
X005164Y024176D01*
X005227Y024113D01*
X005359Y024058D01*
X005501Y024058D01*
X005633Y024113D01*
X005734Y024214D01*
X005768Y024297D01*
X023350Y024297D01*
X023350Y015256D01*
X023340Y015266D01*
X023295Y015285D01*
X023295Y017964D01*
X023258Y018052D01*
X023191Y018120D01*
X021534Y019777D01*
X021446Y019813D01*
X020927Y019813D01*
X020850Y019998D01*
X020639Y020209D01*
X020363Y020324D01*
X020064Y020324D01*
X019789Y020209D01*
X019577Y019998D01*
X019463Y019722D01*
X019463Y019424D01*
X019577Y019148D01*
X019789Y018937D01*
X020064Y018823D01*
X020363Y018823D01*
X020639Y018937D01*
X020850Y019148D01*
X020927Y019333D01*
X021299Y019333D01*
X022815Y017817D01*
X022815Y015311D01*
X022706Y015266D01*
X022548Y015109D01*
X022463Y014903D01*
X022463Y014680D01*
X022548Y014474D01*
X022706Y014317D01*
X022912Y014231D01*
X023134Y014231D01*
X023340Y014317D01*
X023350Y014327D01*
X023350Y008646D01*
X007982Y008646D01*
X007989Y008650D01*
X008022Y008684D01*
X008046Y008725D01*
X008058Y008771D01*
X008058Y009268D01*
X007700Y009268D01*
X007700Y009305D01*
X008058Y009305D01*
X008058Y009802D01*
X008046Y009848D01*
X008022Y009889D01*
X007989Y009923D01*
X007948Y009946D01*
X007902Y009959D01*
X007700Y009959D01*
X007700Y009305D01*
X007663Y009305D01*
X007663Y009959D01*
X007461Y009959D01*
X007415Y009946D01*
X007374Y009923D01*
X007372Y009921D01*
X007370Y009922D01*
X007370Y010267D01*
X007941Y010838D01*
X008008Y010905D01*
X008045Y010994D01*
X008045Y013317D01*
X008457Y013729D01*
X008457Y013724D01*
X008991Y013724D01*
X008991Y013723D01*
X008991Y013723D01*
X008991Y013406D01*
X008613Y013406D01*
X008568Y013418D01*
X008526Y013442D01*
X008493Y013475D01*
X008469Y013516D01*
X008457Y013562D01*
X008457Y013723D01*
X008991Y013723D01*
X008991Y013406D01*
X009369Y013406D01*
X009415Y013418D01*
X009456Y013442D01*
X009490Y013475D01*
X009513Y013516D01*
X009526Y013562D01*
X009526Y013723D01*
X008991Y013723D01*
X008991Y013724D01*
X009526Y013724D01*
X009526Y013885D01*
X009513Y013931D01*
X009506Y013944D01*
X009506Y014330D01*
X009513Y014343D01*
X009526Y014389D01*
X009526Y014570D01*
X009526Y014751D01*
X009513Y014797D01*
X009506Y014810D01*
X009506Y017353D01*
X009412Y017446D01*
X008571Y017446D01*
X008477Y017353D01*
X008477Y014810D01*
X008469Y014797D01*
X008457Y014751D01*
X008457Y014570D01*
X008991Y014570D01*
X008991Y014570D01*
X008457Y014570D01*
X008457Y014389D01*
X008458Y014386D01*
X008419Y014370D01*
X008352Y014302D01*
X007602Y013552D01*
X007565Y013464D01*
X007045Y013464D01*
X007045Y013622D02*
X007672Y013622D01*
X007565Y013464D02*
X007565Y011141D01*
X006927Y010502D01*
X006890Y010414D01*
X006890Y009932D01*
X006865Y009946D01*
X006819Y009959D01*
X006617Y009959D01*
X006617Y009305D01*
X006580Y009305D01*
X006580Y009959D01*
X006378Y009959D01*
X006332Y009946D01*
X006291Y009923D01*
X006258Y009889D01*
X006234Y009848D01*
X006222Y009802D01*
X006222Y009305D01*
X006580Y009305D01*
X006580Y009268D01*
X006222Y009268D01*
X006222Y008771D01*
X006234Y008725D01*
X006258Y008684D01*
X006291Y008650D01*
X006298Y008646D01*
X001160Y008646D01*
X001160Y009176D01*
X003728Y009176D01*
X003816Y009213D01*
X006941Y012338D01*
X007008Y012405D01*
X007045Y012494D01*
X007045Y017442D01*
X007279Y017676D01*
X009929Y017676D01*
X009929Y017555D01*
X010023Y017461D01*
X010668Y017461D01*
X010680Y017474D01*
X010692Y017461D01*
X010750Y017461D01*
X010750Y016680D01*
X010570Y016500D01*
X010570Y016152D01*
X010816Y015906D01*
X011164Y015906D01*
X011410Y016152D01*
X011410Y016500D01*
X011230Y016680D01*
X011230Y017461D01*
X011337Y017461D01*
X011431Y017555D01*
X011431Y018278D01*
X011337Y018372D01*
X010692Y018372D01*
X010680Y018359D01*
X010668Y018372D01*
X010023Y018372D01*
X009929Y018278D01*
X009929Y018156D01*
X007132Y018156D01*
X007044Y018120D01*
X006977Y018052D01*
X006602Y017677D01*
X006565Y017589D01*
X006565Y012641D01*
X003581Y009656D01*
X001420Y009656D01*
X001420Y015567D01*
X001530Y015677D01*
X001530Y015524D02*
X001420Y015524D01*
X001420Y015366D02*
X001530Y015366D01*
X001420Y015207D02*
X001679Y015207D01*
X001783Y015049D02*
X001420Y015049D01*
X001420Y014890D02*
X001624Y014890D01*
X001530Y014732D02*
X001420Y014732D01*
X001420Y014573D02*
X001530Y014573D01*
X001530Y014415D02*
X001420Y014415D01*
X001420Y014256D02*
X001630Y014256D01*
X001789Y014098D02*
X001420Y014098D01*
X001420Y013939D02*
X001673Y013939D01*
X001530Y013781D02*
X001420Y013781D01*
X001420Y013622D02*
X001530Y013622D01*
X001530Y013464D02*
X001420Y013464D01*
X001420Y013305D02*
X001581Y013305D01*
X001740Y013147D02*
X001420Y013147D01*
X001420Y012988D02*
X001722Y012988D01*
X001564Y012830D02*
X001420Y012830D01*
X001420Y012671D02*
X001530Y012671D01*
X001530Y012513D02*
X001420Y012513D01*
X001420Y012354D02*
X001532Y012354D01*
X001420Y012196D02*
X001691Y012196D01*
X001771Y012037D02*
X001420Y012037D01*
X001420Y011879D02*
X001613Y011879D01*
X001530Y011720D02*
X001420Y011720D01*
X001420Y011562D02*
X001530Y011562D01*
X001530Y011403D02*
X001420Y011403D01*
X001420Y011245D02*
X001642Y011245D01*
X001792Y011086D02*
X001420Y011086D01*
X001420Y010928D02*
X001634Y010928D01*
X001510Y010769D02*
X001420Y010769D01*
X001420Y010611D02*
X001510Y010611D01*
X001510Y010556D02*
X001510Y010349D01*
X001832Y010026D01*
X002040Y010026D01*
X002040Y010556D01*
X001510Y010556D01*
X001510Y010452D02*
X001420Y010452D01*
X001420Y010294D02*
X001565Y010294D01*
X001420Y010135D02*
X001723Y010135D01*
X002040Y010135D02*
X002080Y010135D01*
X002080Y010294D02*
X002040Y010294D01*
X002040Y010452D02*
X002080Y010452D01*
X002397Y010135D02*
X002751Y010135D01*
X002593Y010294D02*
X002555Y010294D01*
X003369Y010135D02*
X004060Y010135D01*
X003901Y009977D02*
X001420Y009977D01*
X001420Y009818D02*
X003743Y009818D01*
X003584Y009660D02*
X001420Y009660D01*
X001160Y009026D02*
X006222Y009026D01*
X006222Y009184D02*
X003747Y009184D01*
X003946Y009343D02*
X006222Y009343D01*
X006222Y009501D02*
X004104Y009501D01*
X004263Y009660D02*
X006222Y009660D01*
X006226Y009818D02*
X004421Y009818D01*
X004580Y009977D02*
X006890Y009977D01*
X006890Y010135D02*
X004738Y010135D01*
X004897Y010294D02*
X006890Y010294D01*
X006906Y010452D02*
X005055Y010452D01*
X005214Y010611D02*
X007035Y010611D01*
X007194Y010769D02*
X005372Y010769D01*
X005531Y010928D02*
X007352Y010928D01*
X007511Y011086D02*
X005689Y011086D01*
X005848Y011245D02*
X007565Y011245D01*
X007565Y011403D02*
X006006Y011403D01*
X006165Y011562D02*
X007565Y011562D01*
X007565Y011720D02*
X006323Y011720D01*
X006482Y011879D02*
X007565Y011879D01*
X007565Y012037D02*
X006640Y012037D01*
X006799Y012196D02*
X007565Y012196D01*
X007565Y012354D02*
X006957Y012354D01*
X007045Y012513D02*
X007565Y012513D01*
X007565Y012671D02*
X007045Y012671D01*
X007045Y012830D02*
X007565Y012830D01*
X007565Y012988D02*
X007045Y012988D01*
X007045Y013147D02*
X007565Y013147D01*
X007565Y013305D02*
X007045Y013305D01*
X007045Y013781D02*
X007830Y013781D01*
X007989Y013939D02*
X007045Y013939D01*
X007045Y014098D02*
X008147Y014098D01*
X008306Y014256D02*
X007045Y014256D01*
X007045Y014415D02*
X008457Y014415D01*
X008457Y014573D02*
X007045Y014573D01*
X007045Y014732D02*
X008457Y014732D01*
X008477Y014890D02*
X007045Y014890D01*
X007045Y015049D02*
X008477Y015049D01*
X008477Y015207D02*
X007045Y015207D01*
X007045Y015366D02*
X008477Y015366D01*
X008477Y015524D02*
X007045Y015524D01*
X007045Y015683D02*
X008477Y015683D01*
X008477Y015841D02*
X007045Y015841D01*
X007045Y016000D02*
X008477Y016000D01*
X008477Y016158D02*
X007045Y016158D01*
X007045Y016317D02*
X008477Y016317D01*
X008477Y016475D02*
X007045Y016475D01*
X007045Y016634D02*
X008477Y016634D01*
X008477Y016792D02*
X007045Y016792D01*
X007045Y016951D02*
X008477Y016951D01*
X008477Y017109D02*
X007045Y017109D01*
X007045Y017268D02*
X008477Y017268D01*
X008551Y017426D02*
X007045Y017426D01*
X007188Y017585D02*
X009929Y017585D01*
X009506Y017268D02*
X010750Y017268D01*
X010750Y017426D02*
X009432Y017426D01*
X009506Y017109D02*
X010750Y017109D01*
X010750Y016951D02*
X009506Y016951D01*
X009506Y016792D02*
X010750Y016792D01*
X010704Y016634D02*
X009506Y016634D01*
X009506Y016475D02*
X010570Y016475D01*
X010570Y016317D02*
X009506Y016317D01*
X009506Y016158D02*
X010570Y016158D01*
X010490Y016016D02*
X010672Y016016D01*
X010930Y015759D01*
X010930Y015576D01*
X010490Y015576D01*
X010490Y015576D01*
X010050Y015576D01*
X010050Y015394D01*
X010308Y015136D01*
X010470Y015136D01*
X009937Y014752D01*
X009919Y014745D01*
X009899Y014725D01*
X009876Y014708D01*
X009866Y014691D01*
X009602Y014427D01*
X009565Y014339D01*
X009565Y011994D01*
X009602Y011905D01*
X009669Y011838D01*
X009830Y011677D01*
X009918Y011640D01*
X010298Y011640D01*
X010298Y011342D01*
X010391Y011248D01*
X011469Y011248D01*
X011562Y011342D01*
X011562Y012419D01*
X011469Y012513D01*
X010391Y012513D01*
X010298Y012419D01*
X010298Y012120D01*
X010066Y012120D01*
X010045Y012141D01*
X010045Y014192D01*
X010211Y014358D01*
X011318Y015156D01*
X011664Y015156D01*
X011844Y015336D01*
X016615Y015336D01*
X018247Y013704D01*
X018233Y013670D01*
X018233Y013477D01*
X018307Y013298D01*
X018443Y013162D01*
X018621Y013088D01*
X018814Y013088D01*
X018992Y013162D01*
X019129Y013298D01*
X019202Y013477D01*
X019202Y013670D01*
X019129Y013848D01*
X018992Y013984D01*
X018814Y014058D01*
X018621Y014058D01*
X018587Y014044D01*
X016850Y015780D01*
X016762Y015816D01*
X011844Y015816D01*
X011664Y015996D01*
X011316Y015996D01*
X011070Y015750D01*
X011070Y015569D01*
X010930Y015468D01*
X010930Y015576D01*
X010490Y015576D01*
X010490Y015576D01*
X010050Y015576D01*
X010050Y015759D01*
X010308Y016016D01*
X010490Y016016D01*
X010490Y015576D01*
X010490Y015576D01*
X010490Y016016D01*
X010490Y016000D02*
X010490Y016000D01*
X010490Y015841D02*
X010490Y015841D01*
X010490Y015683D02*
X010490Y015683D01*
X010689Y016000D02*
X010723Y016000D01*
X010847Y015841D02*
X011161Y015841D01*
X011070Y015683D02*
X010930Y015683D01*
X010930Y015524D02*
X011008Y015524D01*
X011490Y015576D02*
X016714Y015576D01*
X018718Y013573D01*
X018956Y013147D02*
X023350Y013147D01*
X023350Y013305D02*
X019132Y013305D01*
X019197Y013464D02*
X023350Y013464D01*
X023350Y013622D02*
X019202Y013622D01*
X019156Y013781D02*
X023350Y013781D01*
X023350Y013939D02*
X019037Y013939D01*
X018532Y014098D02*
X023350Y014098D01*
X023350Y014256D02*
X023195Y014256D01*
X022851Y014256D02*
X021996Y014256D01*
X021971Y014231D02*
X022065Y014325D01*
X022065Y015258D01*
X021971Y015351D01*
X021284Y015351D01*
X019420Y017216D01*
X019420Y021942D01*
X019604Y022126D01*
X019789Y021941D01*
X020064Y021826D01*
X020363Y021826D01*
X020639Y021941D01*
X020850Y022152D01*
X020964Y022428D01*
X020964Y022726D01*
X020850Y023002D01*
X020639Y023213D01*
X020363Y023328D01*
X020064Y023328D01*
X019789Y023213D01*
X019577Y023002D01*
X019463Y022726D01*
X019463Y022664D01*
X019044Y022245D01*
X018977Y022177D01*
X018940Y022089D01*
X018940Y017069D01*
X018977Y016980D01*
X020945Y015012D01*
X020945Y014325D01*
X021039Y014231D01*
X021971Y014231D01*
X022065Y014415D02*
X022607Y014415D01*
X022507Y014573D02*
X022065Y014573D01*
X022065Y014732D02*
X022463Y014732D01*
X022463Y014890D02*
X022065Y014890D01*
X022065Y015049D02*
X022523Y015049D01*
X022647Y015207D02*
X022065Y015207D01*
X021505Y014791D02*
X019180Y017116D01*
X019180Y022041D01*
X019716Y022577D01*
X020214Y022577D01*
X019706Y022023D02*
X019501Y022023D01*
X019420Y021864D02*
X019973Y021864D01*
X020455Y021864D02*
X023350Y021864D01*
X023350Y021706D02*
X019420Y021706D01*
X019420Y021547D02*
X023350Y021547D01*
X023350Y021389D02*
X019420Y021389D01*
X019420Y021230D02*
X023350Y021230D01*
X023350Y021072D02*
X019420Y021072D01*
X019420Y020913D02*
X023350Y020913D01*
X023350Y020755D02*
X019420Y020755D01*
X019420Y020596D02*
X023350Y020596D01*
X023350Y020438D02*
X019420Y020438D01*
X019420Y020279D02*
X019958Y020279D01*
X019700Y020121D02*
X019420Y020121D01*
X019420Y019962D02*
X019563Y019962D01*
X019497Y019804D02*
X019420Y019804D01*
X019420Y019645D02*
X019463Y019645D01*
X019463Y019487D02*
X019420Y019487D01*
X019420Y019328D02*
X019503Y019328D01*
X019568Y019170D02*
X019420Y019170D01*
X019420Y019011D02*
X019714Y019011D01*
X019991Y018853D02*
X019420Y018853D01*
X019420Y018694D02*
X021938Y018694D01*
X022096Y018536D02*
X019420Y018536D01*
X019420Y018377D02*
X022255Y018377D01*
X022413Y018219D02*
X019420Y018219D01*
X019420Y018060D02*
X022572Y018060D01*
X022730Y017902D02*
X019420Y017902D01*
X019420Y017743D02*
X022815Y017743D01*
X022815Y017585D02*
X019420Y017585D01*
X019420Y017426D02*
X022815Y017426D01*
X022815Y017268D02*
X019420Y017268D01*
X019526Y017109D02*
X022815Y017109D01*
X022815Y016951D02*
X019685Y016951D01*
X019843Y016792D02*
X022815Y016792D01*
X022815Y016634D02*
X020002Y016634D01*
X020160Y016475D02*
X022815Y016475D01*
X022815Y016317D02*
X020319Y016317D01*
X020477Y016158D02*
X022815Y016158D01*
X022815Y016000D02*
X020636Y016000D01*
X020794Y015841D02*
X022815Y015841D01*
X022815Y015683D02*
X020953Y015683D01*
X021111Y015524D02*
X022815Y015524D01*
X022815Y015366D02*
X021270Y015366D01*
X020908Y015049D02*
X017581Y015049D01*
X017423Y015207D02*
X020750Y015207D01*
X020591Y015366D02*
X017264Y015366D01*
X017106Y015524D02*
X020433Y015524D01*
X020274Y015683D02*
X016947Y015683D01*
X016744Y015207D02*
X011715Y015207D01*
X011490Y015576D02*
X010055Y014541D01*
X009805Y014291D01*
X009805Y012041D01*
X009966Y011880D01*
X010930Y011880D01*
X010298Y012196D02*
X010045Y012196D01*
X010045Y012354D02*
X010298Y012354D01*
X010045Y012513D02*
X023350Y012513D01*
X023350Y012671D02*
X010045Y012671D01*
X010045Y012830D02*
X023350Y012830D01*
X023350Y012988D02*
X011477Y012988D01*
X011469Y012980D02*
X011562Y013074D01*
X011562Y013373D01*
X014276Y013373D01*
X014307Y013298D01*
X014443Y013162D01*
X014621Y013088D01*
X014814Y013088D01*
X014992Y013162D01*
X015129Y013298D01*
X015202Y013477D01*
X015202Y013670D01*
X015129Y013848D01*
X014992Y013984D01*
X014814Y014058D01*
X014621Y014058D01*
X014443Y013984D01*
X014311Y013853D01*
X011562Y013853D01*
X011562Y014151D01*
X011469Y014245D01*
X010391Y014245D01*
X010298Y014151D01*
X010298Y013074D01*
X010391Y012980D01*
X011469Y012980D01*
X011562Y013147D02*
X014480Y013147D01*
X014304Y013305D02*
X011562Y013305D01*
X011562Y013939D02*
X014398Y013939D01*
X014678Y013613D02*
X014718Y013573D01*
X014678Y013613D02*
X010930Y013613D01*
X010298Y013622D02*
X010045Y013622D01*
X010045Y013464D02*
X010298Y013464D01*
X010298Y013305D02*
X010045Y013305D01*
X010045Y013147D02*
X010298Y013147D01*
X010383Y012988D02*
X010045Y012988D01*
X009565Y012988D02*
X008045Y012988D01*
X008045Y012830D02*
X009565Y012830D01*
X009565Y012671D02*
X008045Y012671D01*
X008045Y012513D02*
X009565Y012513D01*
X009565Y012354D02*
X008045Y012354D01*
X008045Y012196D02*
X009565Y012196D01*
X009565Y012037D02*
X008045Y012037D01*
X008045Y011879D02*
X009628Y011879D01*
X009787Y011720D02*
X008045Y011720D01*
X008045Y011562D02*
X010298Y011562D01*
X010298Y011403D02*
X008045Y011403D01*
X008045Y011245D02*
X023350Y011245D01*
X023350Y011403D02*
X011562Y011403D01*
X011562Y011562D02*
X023350Y011562D01*
X023350Y011720D02*
X011562Y011720D01*
X011562Y011879D02*
X023350Y011879D01*
X023350Y012037D02*
X011562Y012037D01*
X011562Y012196D02*
X023350Y012196D01*
X023350Y012354D02*
X011562Y012354D01*
X010298Y013781D02*
X010045Y013781D01*
X010045Y013939D02*
X010298Y013939D01*
X010298Y014098D02*
X010045Y014098D01*
X010109Y014256D02*
X017695Y014256D01*
X017853Y014098D02*
X011562Y014098D01*
X010729Y014732D02*
X017219Y014732D01*
X017061Y014890D02*
X010949Y014890D01*
X011169Y015049D02*
X016902Y015049D01*
X017378Y014573D02*
X010510Y014573D01*
X010290Y014415D02*
X017536Y014415D01*
X017898Y014732D02*
X020945Y014732D01*
X020945Y014890D02*
X017740Y014890D01*
X018057Y014573D02*
X020945Y014573D01*
X020945Y014415D02*
X018215Y014415D01*
X018374Y014256D02*
X021014Y014256D01*
X020116Y015841D02*
X011819Y015841D01*
X011410Y016158D02*
X019799Y016158D01*
X019957Y016000D02*
X011257Y016000D01*
X011410Y016317D02*
X019640Y016317D01*
X019482Y016475D02*
X011410Y016475D01*
X011276Y016634D02*
X019323Y016634D01*
X019165Y016792D02*
X011230Y016792D01*
X011230Y016951D02*
X019006Y016951D01*
X018940Y017109D02*
X011230Y017109D01*
X011230Y017268D02*
X018940Y017268D01*
X018940Y017426D02*
X011230Y017426D01*
X011431Y017585D02*
X018940Y017585D01*
X018940Y017743D02*
X011431Y017743D01*
X011431Y017902D02*
X012843Y017902D01*
X012788Y017925D02*
X012573Y018140D01*
X012457Y018421D01*
X012457Y018725D01*
X012573Y019006D01*
X012788Y019222D01*
X013069Y019338D01*
X013374Y019338D01*
X013655Y019222D01*
X013870Y019006D01*
X013987Y018725D01*
X013987Y018421D01*
X013870Y018140D01*
X013655Y017925D01*
X013374Y017808D01*
X013069Y017808D01*
X012788Y017925D01*
X012652Y018060D02*
X011431Y018060D01*
X011431Y018219D02*
X012540Y018219D01*
X012475Y018377D02*
X006913Y018377D01*
X006913Y018345D02*
X006913Y018435D01*
X007498Y019020D01*
X008069Y019020D01*
X008163Y019114D01*
X008163Y019719D01*
X008069Y019813D01*
X007464Y019813D01*
X007370Y019719D01*
X007370Y019571D01*
X006574Y018775D01*
X006484Y018775D01*
X006352Y018720D01*
X006251Y018619D01*
X006197Y018488D01*
X006197Y018345D01*
X006251Y018214D01*
X006352Y018113D01*
X006484Y018058D01*
X006626Y018058D01*
X006758Y018113D01*
X006859Y018214D01*
X006913Y018345D01*
X006861Y018219D02*
X009929Y018219D01*
X010023Y018961D02*
X009929Y019055D01*
X009929Y019206D01*
X008990Y019206D01*
X008990Y019114D01*
X008896Y019020D01*
X008291Y019020D01*
X008197Y019114D01*
X008197Y019719D01*
X008291Y019813D01*
X008896Y019813D01*
X008990Y019719D01*
X008990Y019626D01*
X009929Y019626D01*
X009929Y019778D01*
X010023Y019872D01*
X010668Y019872D01*
X010671Y019869D01*
X010689Y019879D01*
X010735Y019892D01*
X010967Y019892D01*
X010967Y019464D01*
X011063Y019464D01*
X011451Y019464D01*
X011451Y019735D01*
X011438Y019781D01*
X011415Y019822D01*
X011381Y019856D01*
X011340Y019879D01*
X011294Y019892D01*
X011063Y019892D01*
X011063Y019464D01*
X011063Y019368D01*
X011451Y019368D01*
X011451Y019097D01*
X011438Y019052D01*
X011415Y019011D01*
X012578Y019011D01*
X012509Y018853D02*
X007331Y018853D01*
X007489Y019011D02*
X009973Y019011D01*
X010023Y018961D02*
X010668Y018961D01*
X010671Y018964D01*
X010689Y018953D01*
X010735Y018941D01*
X010967Y018941D01*
X010967Y019368D01*
X011063Y019368D01*
X011063Y018941D01*
X011294Y018941D01*
X011340Y018953D01*
X011381Y018977D01*
X011415Y019011D01*
X011451Y019170D02*
X012737Y019170D01*
X013046Y019328D02*
X011451Y019328D01*
X011451Y019487D02*
X018940Y019487D01*
X018940Y019645D02*
X011451Y019645D01*
X011425Y019804D02*
X018940Y019804D01*
X018940Y019962D02*
X006170Y019962D01*
X006170Y019804D02*
X007455Y019804D01*
X007370Y019645D02*
X006170Y019645D01*
X006170Y019487D02*
X007286Y019487D01*
X007128Y019328D02*
X006170Y019328D01*
X006170Y019170D02*
X006969Y019170D01*
X006811Y019011D02*
X006170Y019011D01*
X006170Y018853D02*
X006652Y018853D01*
X006555Y018416D02*
X007555Y019416D01*
X007767Y019416D01*
X008163Y019487D02*
X008197Y019487D01*
X008197Y019645D02*
X008163Y019645D01*
X008078Y019804D02*
X008282Y019804D01*
X008197Y019328D02*
X008163Y019328D01*
X008163Y019170D02*
X008197Y019170D01*
X008990Y019170D02*
X009929Y019170D01*
X009929Y019645D02*
X008990Y019645D01*
X008905Y019804D02*
X009955Y019804D01*
X009929Y020596D02*
X008972Y020596D01*
X008978Y021230D02*
X009929Y021230D01*
X010023Y021961D02*
X009929Y022055D01*
X009929Y022206D01*
X008990Y022206D01*
X008990Y022114D01*
X008896Y022020D01*
X008291Y022020D01*
X008197Y022114D01*
X008197Y022719D01*
X008291Y022813D01*
X008896Y022813D01*
X008990Y022719D01*
X008990Y022626D01*
X009929Y022626D01*
X009929Y022778D01*
X010023Y022872D01*
X010668Y022872D01*
X010671Y022869D01*
X010689Y022879D01*
X010735Y022892D01*
X010967Y022892D01*
X010967Y022464D01*
X011063Y022464D01*
X011451Y022464D01*
X011451Y022735D01*
X011438Y022781D01*
X011415Y022822D01*
X011381Y022856D01*
X011340Y022879D01*
X011294Y022892D01*
X011063Y022892D01*
X011063Y022464D01*
X011063Y022368D01*
X011451Y022368D01*
X011451Y022097D01*
X011438Y022052D01*
X011415Y022011D01*
X011381Y021977D01*
X011340Y021953D01*
X011294Y021941D01*
X011063Y021941D01*
X011063Y022368D01*
X010967Y022368D01*
X010967Y021941D01*
X010735Y021941D01*
X010689Y021953D01*
X010671Y021964D01*
X010668Y021961D01*
X010023Y021961D01*
X009961Y022023D02*
X008899Y022023D01*
X008990Y022181D02*
X009929Y022181D01*
X009929Y022657D02*
X008990Y022657D01*
X008288Y022023D02*
X008072Y022023D01*
X008163Y022181D02*
X008197Y022181D01*
X008197Y022340D02*
X008163Y022340D01*
X008163Y022498D02*
X008197Y022498D01*
X008197Y022657D02*
X008163Y022657D01*
X007767Y022416D02*
X006392Y023791D01*
X002305Y023791D01*
X001430Y022916D01*
X001430Y020166D01*
X002020Y019576D01*
X002060Y019576D01*
X001717Y019170D02*
X001295Y019170D01*
X001295Y019328D02*
X001558Y019328D01*
X001530Y019357D02*
X001796Y019091D01*
X001510Y018804D01*
X001510Y018596D01*
X002040Y018596D01*
X002040Y018556D01*
X001510Y018556D01*
X001510Y018437D01*
X001295Y018644D01*
X001295Y019962D01*
X001530Y019727D01*
X001530Y019357D01*
X001530Y019487D02*
X001295Y019487D01*
X001295Y019645D02*
X001530Y019645D01*
X001453Y019804D02*
X001295Y019804D01*
X001295Y019011D02*
X001717Y019011D01*
X001559Y018853D02*
X001295Y018853D01*
X001295Y018694D02*
X001510Y018694D01*
X001510Y018536D02*
X001407Y018536D01*
X001055Y018541D02*
X001055Y023041D01*
X002430Y024416D01*
X005430Y024416D01*
X005562Y024083D02*
X023350Y024083D01*
X023350Y023925D02*
X006597Y023925D01*
X006756Y023766D02*
X023350Y023766D01*
X023350Y023608D02*
X006914Y023608D01*
X007073Y023449D02*
X023350Y023449D01*
X023350Y023291D02*
X020451Y023291D01*
X019976Y023291D02*
X007231Y023291D01*
X007390Y023132D02*
X019708Y023132D01*
X019566Y022974D02*
X007549Y022974D01*
X007707Y022815D02*
X009967Y022815D01*
X010967Y022815D02*
X011063Y022815D01*
X011063Y022657D02*
X010967Y022657D01*
X010967Y022498D02*
X011063Y022498D01*
X011063Y022340D02*
X010967Y022340D01*
X010967Y022181D02*
X011063Y022181D01*
X011063Y022023D02*
X010967Y022023D01*
X011422Y022023D02*
X018940Y022023D01*
X018940Y021864D02*
X007571Y021864D01*
X007461Y022023D02*
X007413Y022023D01*
X007370Y022181D02*
X007254Y022181D01*
X006893Y021864D02*
X005746Y021864D01*
X005905Y021706D02*
X007051Y021706D01*
X007210Y021547D02*
X006063Y021547D01*
X006133Y021477D02*
X006170Y021389D01*
X006133Y021477D02*
X004258Y023352D01*
X004191Y023420D01*
X004103Y023456D01*
X002652Y023456D01*
X002564Y023420D01*
X002251Y023106D01*
X001959Y023106D01*
X002404Y023551D01*
X006292Y023551D01*
X007370Y022473D01*
X006734Y022023D02*
X005588Y022023D01*
X005429Y022181D02*
X006576Y022181D01*
X006417Y022340D02*
X005271Y022340D01*
X005112Y022498D02*
X006259Y022498D01*
X006100Y022657D02*
X004954Y022657D01*
X004795Y022815D02*
X005150Y022815D01*
X005072Y022974D02*
X004637Y022974D01*
X004478Y023132D02*
X005080Y023132D01*
X005173Y023291D02*
X004320Y023291D01*
X004120Y023449D02*
X006394Y023449D01*
X005745Y024242D02*
X023350Y024242D01*
X023350Y023132D02*
X020720Y023132D01*
X020862Y022974D02*
X023350Y022974D01*
X023350Y022815D02*
X020927Y022815D01*
X020964Y022657D02*
X023350Y022657D01*
X023350Y022498D02*
X020964Y022498D01*
X020928Y022340D02*
X023350Y022340D01*
X023350Y022181D02*
X020862Y022181D01*
X020721Y022023D02*
X023350Y022023D01*
X023350Y020279D02*
X020470Y020279D01*
X020727Y020121D02*
X023350Y020121D01*
X023350Y019962D02*
X020865Y019962D01*
X021398Y019573D02*
X023055Y017916D01*
X023055Y014823D01*
X023023Y014791D01*
X023295Y015366D02*
X023350Y015366D01*
X023350Y015524D02*
X023295Y015524D01*
X023295Y015683D02*
X023350Y015683D01*
X023350Y015841D02*
X023295Y015841D01*
X023295Y016000D02*
X023350Y016000D01*
X023350Y016158D02*
X023295Y016158D01*
X023295Y016317D02*
X023350Y016317D01*
X023350Y016475D02*
X023295Y016475D01*
X023295Y016634D02*
X023350Y016634D01*
X023350Y016792D02*
X023295Y016792D01*
X023295Y016951D02*
X023350Y016951D01*
X023350Y017109D02*
X023295Y017109D01*
X023295Y017268D02*
X023350Y017268D01*
X023350Y017426D02*
X023295Y017426D01*
X023295Y017585D02*
X023350Y017585D01*
X023350Y017743D02*
X023295Y017743D01*
X023295Y017902D02*
X023350Y017902D01*
X023350Y018060D02*
X023250Y018060D01*
X023350Y018219D02*
X023092Y018219D01*
X022933Y018377D02*
X023350Y018377D01*
X023350Y018536D02*
X022775Y018536D01*
X022616Y018694D02*
X023350Y018694D01*
X023350Y018853D02*
X022458Y018853D01*
X022299Y019011D02*
X023350Y019011D01*
X023350Y019170D02*
X022141Y019170D01*
X021982Y019328D02*
X023350Y019328D01*
X023350Y019487D02*
X021824Y019487D01*
X021665Y019645D02*
X023350Y019645D01*
X023350Y019804D02*
X021468Y019804D01*
X021398Y019573D02*
X020214Y019573D01*
X020713Y019011D02*
X021621Y019011D01*
X021779Y018853D02*
X020436Y018853D01*
X020859Y019170D02*
X021462Y019170D01*
X021304Y019328D02*
X020925Y019328D01*
X018940Y019328D02*
X013397Y019328D01*
X013707Y019170D02*
X018940Y019170D01*
X018940Y019011D02*
X013865Y019011D01*
X013934Y018853D02*
X018940Y018853D01*
X018940Y018694D02*
X013987Y018694D01*
X013987Y018536D02*
X018940Y018536D01*
X018940Y018377D02*
X013969Y018377D01*
X013903Y018219D02*
X018940Y018219D01*
X018940Y018060D02*
X013791Y018060D01*
X013600Y017902D02*
X018940Y017902D01*
X018940Y020121D02*
X006170Y020121D01*
X006170Y020279D02*
X018940Y020279D01*
X018940Y021072D02*
X011451Y021072D01*
X011451Y021230D02*
X018940Y021230D01*
X018940Y021389D02*
X011305Y021389D01*
X011451Y022181D02*
X018981Y022181D01*
X019139Y022340D02*
X011451Y022340D01*
X011451Y022498D02*
X019298Y022498D01*
X019456Y022657D02*
X011451Y022657D01*
X011418Y022815D02*
X019500Y022815D01*
X018940Y021706D02*
X007730Y021706D01*
X007888Y021547D02*
X018940Y021547D01*
X012457Y018694D02*
X007172Y018694D01*
X007014Y018536D02*
X012457Y018536D01*
X011063Y019011D02*
X010967Y019011D01*
X010967Y019170D02*
X011063Y019170D01*
X011063Y019328D02*
X010967Y019328D01*
X010967Y019487D02*
X011063Y019487D01*
X011063Y019645D02*
X010967Y019645D01*
X010967Y019804D02*
X011063Y019804D01*
X011015Y017916D02*
X010990Y017916D01*
X010990Y016326D01*
X010291Y016000D02*
X009506Y016000D01*
X009506Y015841D02*
X010133Y015841D01*
X010050Y015683D02*
X009506Y015683D01*
X009506Y015524D02*
X010050Y015524D01*
X010078Y015366D02*
X009506Y015366D01*
X009506Y015207D02*
X010237Y015207D01*
X010348Y015049D02*
X009506Y015049D01*
X009506Y014890D02*
X010129Y014890D01*
X009906Y014732D02*
X009526Y014732D01*
X009526Y014573D02*
X009748Y014573D01*
X009596Y014415D02*
X009526Y014415D01*
X009526Y014570D02*
X008991Y014570D01*
X009526Y014570D01*
X009506Y014256D02*
X009565Y014256D01*
X009565Y014098D02*
X009506Y014098D01*
X009508Y013939D02*
X009565Y013939D01*
X009565Y013781D02*
X009526Y013781D01*
X009526Y013622D02*
X009565Y013622D01*
X009565Y013464D02*
X009478Y013464D01*
X009565Y013305D02*
X008045Y013305D01*
X008045Y013147D02*
X009565Y013147D01*
X008991Y013464D02*
X008991Y013464D01*
X008991Y013622D02*
X008991Y013622D01*
X008504Y013464D02*
X008192Y013464D01*
X008350Y013622D02*
X008457Y013622D01*
X008555Y014166D02*
X008962Y014166D01*
X008991Y014137D01*
X008991Y014570D02*
X008991Y014570D01*
X008555Y014166D02*
X007805Y013416D01*
X007805Y011041D01*
X007130Y010366D01*
X007130Y009286D01*
X006617Y009343D02*
X006580Y009343D01*
X006580Y009501D02*
X006617Y009501D01*
X006617Y009660D02*
X006580Y009660D01*
X006580Y009818D02*
X006617Y009818D01*
X007370Y009977D02*
X023350Y009977D01*
X023350Y010135D02*
X007370Y010135D01*
X007397Y010294D02*
X023350Y010294D01*
X023350Y010452D02*
X007555Y010452D01*
X007714Y010611D02*
X023350Y010611D01*
X023350Y010769D02*
X007872Y010769D01*
X008018Y010928D02*
X023350Y010928D01*
X023350Y011086D02*
X008045Y011086D01*
X008054Y009818D02*
X023350Y009818D01*
X023350Y009660D02*
X008058Y009660D01*
X008058Y009501D02*
X023350Y009501D01*
X023350Y009343D02*
X008058Y009343D01*
X008058Y009184D02*
X023350Y009184D01*
X023350Y009026D02*
X008058Y009026D01*
X008058Y008867D02*
X023350Y008867D01*
X023350Y008709D02*
X008037Y008709D01*
X007700Y009343D02*
X007663Y009343D01*
X007663Y009501D02*
X007700Y009501D01*
X007700Y009660D02*
X007663Y009660D01*
X007663Y009818D02*
X007700Y009818D01*
X006222Y008867D02*
X001160Y008867D01*
X001160Y008709D02*
X006243Y008709D01*
X004377Y010452D02*
X003590Y010452D01*
X003590Y010611D02*
X004535Y010611D01*
X004694Y010769D02*
X003590Y010769D01*
X003458Y010928D02*
X004852Y010928D01*
X005011Y011086D02*
X003320Y011086D01*
X003478Y011245D02*
X005169Y011245D01*
X005328Y011403D02*
X003590Y011403D01*
X003590Y011562D02*
X005486Y011562D01*
X005440Y011725D02*
X005180Y011725D01*
X005180Y012062D01*
X005180Y012062D01*
X005180Y011725D01*
X004920Y011725D01*
X004874Y011737D01*
X004833Y011761D01*
X004800Y011794D01*
X004776Y011835D01*
X004764Y011881D01*
X004764Y012062D01*
X005180Y012062D01*
X005180Y012062D01*
X005596Y012062D01*
X005596Y011881D01*
X005584Y011835D01*
X005560Y011794D01*
X005527Y011761D01*
X005486Y011737D01*
X005440Y011725D01*
X005645Y011720D02*
X003590Y011720D01*
X003507Y011879D02*
X004764Y011879D01*
X004764Y012037D02*
X003349Y012037D01*
X003429Y012196D02*
X004764Y012196D01*
X004764Y012243D02*
X004764Y012062D01*
X005180Y012062D01*
X005180Y012062D01*
X005596Y012062D01*
X005596Y012243D01*
X005584Y012289D01*
X005560Y012330D01*
X005527Y012364D01*
X005486Y012387D01*
X005440Y012400D01*
X005180Y012400D01*
X004920Y012400D01*
X004874Y012387D01*
X004833Y012364D01*
X004800Y012330D01*
X004776Y012289D01*
X004764Y012243D01*
X004824Y012354D02*
X003588Y012354D01*
X003590Y012513D02*
X004818Y012513D01*
X004784Y012671D02*
X003590Y012671D01*
X003556Y012830D02*
X004784Y012830D01*
X004784Y012988D02*
X003398Y012988D01*
X003408Y013147D02*
X004943Y013147D01*
X005015Y013305D02*
X003567Y013305D01*
X003610Y013464D02*
X004792Y013464D01*
X004737Y013622D02*
X003610Y013622D01*
X003610Y013781D02*
X004737Y013781D01*
X004737Y013939D02*
X003475Y013939D01*
X003331Y014098D02*
X004737Y014098D01*
X004737Y014256D02*
X003490Y014256D01*
X003590Y014415D02*
X004737Y014415D01*
X004737Y014573D02*
X003590Y014573D01*
X003590Y014732D02*
X004737Y014732D01*
X004717Y014890D02*
X003496Y014890D01*
X003337Y015049D02*
X004717Y015049D01*
X004717Y015003D02*
X005251Y015003D01*
X004717Y015003D01*
X004723Y015207D02*
X003441Y015207D01*
X003590Y015366D02*
X004737Y015366D01*
X004737Y015524D02*
X003590Y015524D01*
X003590Y015683D02*
X004737Y015683D01*
X004737Y015841D02*
X003545Y015841D01*
X003386Y016000D02*
X004737Y016000D01*
X004680Y016291D02*
X005240Y016291D01*
X005251Y016302D01*
X005251Y016735D02*
X004611Y016735D01*
X004555Y016791D01*
X004555Y017081D01*
X003060Y018576D01*
X003060Y019286D02*
X004180Y018166D01*
X004161Y018525D02*
X003459Y019226D01*
X003590Y019357D01*
X003590Y019796D01*
X003324Y020062D01*
X003610Y020349D01*
X003610Y020556D01*
X003080Y020556D01*
X003080Y020596D01*
X003610Y020596D01*
X003610Y020804D01*
X003324Y021091D01*
X003590Y021357D01*
X003590Y021796D01*
X003310Y022076D01*
X003590Y022357D01*
X003590Y022796D01*
X003410Y022976D01*
X003956Y022976D01*
X005690Y021242D01*
X005690Y017446D01*
X005675Y017454D01*
X005629Y017466D01*
X005251Y017466D01*
X004873Y017466D01*
X004827Y017454D01*
X004786Y017431D01*
X004753Y017397D01*
X004729Y017356D01*
X004717Y017310D01*
X004717Y017259D01*
X004691Y017285D01*
X004168Y017808D01*
X004251Y017808D01*
X004383Y017863D01*
X004484Y017964D01*
X004538Y018095D01*
X004538Y018238D01*
X004484Y018369D01*
X004383Y018470D01*
X004251Y018525D01*
X004161Y018525D01*
X004150Y018536D02*
X005690Y018536D01*
X005690Y018694D02*
X003991Y018694D01*
X003833Y018853D02*
X005690Y018853D01*
X005690Y019011D02*
X003674Y019011D01*
X003516Y019170D02*
X005690Y019170D01*
X005690Y019328D02*
X003562Y019328D01*
X003590Y019487D02*
X005690Y019487D01*
X005690Y019645D02*
X003590Y019645D01*
X003582Y019804D02*
X005690Y019804D01*
X005690Y019962D02*
X003424Y019962D01*
X003382Y020121D02*
X005690Y020121D01*
X005690Y020279D02*
X003541Y020279D01*
X003610Y020438D02*
X005690Y020438D01*
X005690Y020596D02*
X003610Y020596D01*
X003610Y020755D02*
X005690Y020755D01*
X005690Y020913D02*
X003501Y020913D01*
X003342Y021072D02*
X005690Y021072D01*
X005690Y021230D02*
X003464Y021230D01*
X003590Y021389D02*
X005543Y021389D01*
X005385Y021547D02*
X003590Y021547D01*
X003590Y021706D02*
X005226Y021706D01*
X005068Y021864D02*
X003522Y021864D01*
X003363Y022023D02*
X004909Y022023D01*
X004751Y022181D02*
X003415Y022181D01*
X003573Y022340D02*
X004592Y022340D01*
X004434Y022498D02*
X003590Y022498D01*
X003590Y022657D02*
X004275Y022657D01*
X004117Y022815D02*
X003571Y022815D01*
X003412Y022974D02*
X003958Y022974D01*
X004055Y023216D02*
X002700Y023216D01*
X002060Y022576D01*
X001985Y023132D02*
X002277Y023132D01*
X002144Y023291D02*
X002435Y023291D01*
X002302Y023449D02*
X002635Y023449D01*
X002436Y024083D02*
X005298Y024083D01*
X004055Y023216D02*
X005930Y021341D01*
X005930Y014816D01*
X005684Y014570D01*
X005251Y014570D01*
X005251Y014137D01*
X005251Y013724D01*
X005255Y013720D01*
X005255Y013166D01*
X005180Y013091D01*
X005180Y012771D01*
X005180Y012400D02*
X005180Y012062D01*
X005180Y012062D01*
X005180Y012400D01*
X005180Y012354D02*
X005180Y012354D01*
X005180Y012196D02*
X005180Y012196D01*
X005180Y012037D02*
X005180Y012037D01*
X005180Y011879D02*
X005180Y011879D01*
X005596Y011879D02*
X005803Y011879D01*
X005962Y012037D02*
X005596Y012037D01*
X005596Y012196D02*
X006120Y012196D01*
X006279Y012354D02*
X005536Y012354D01*
X005542Y012513D02*
X006437Y012513D01*
X006565Y012671D02*
X005576Y012671D01*
X005576Y012830D02*
X006565Y012830D01*
X006565Y012988D02*
X005576Y012988D01*
X005482Y013088D02*
X005482Y013088D01*
X005495Y013147D02*
X006565Y013147D01*
X006565Y013305D02*
X005495Y013305D01*
X005710Y013464D02*
X006565Y013464D01*
X006565Y013622D02*
X005766Y013622D01*
X005766Y013781D02*
X006565Y013781D01*
X006565Y013939D02*
X005766Y013939D01*
X005766Y014098D02*
X006565Y014098D01*
X006565Y014256D02*
X005766Y014256D01*
X005868Y014415D02*
X006565Y014415D01*
X006565Y014573D02*
X006026Y014573D01*
X006155Y014732D02*
X006565Y014732D01*
X006565Y014890D02*
X006170Y014890D01*
X006170Y015049D02*
X006565Y015049D01*
X006565Y015207D02*
X006170Y015207D01*
X006170Y015366D02*
X006565Y015366D01*
X006565Y015524D02*
X006170Y015524D01*
X006170Y015683D02*
X006565Y015683D01*
X006565Y015841D02*
X006170Y015841D01*
X006170Y016000D02*
X006565Y016000D01*
X006565Y016158D02*
X006170Y016158D01*
X006170Y016317D02*
X006565Y016317D01*
X006565Y016475D02*
X006170Y016475D01*
X006170Y016634D02*
X006565Y016634D01*
X006565Y016792D02*
X006170Y016792D01*
X006170Y016951D02*
X006565Y016951D01*
X006565Y017109D02*
X006170Y017109D01*
X006170Y017268D02*
X006565Y017268D01*
X006565Y017426D02*
X006170Y017426D01*
X006170Y017585D02*
X006565Y017585D01*
X006668Y017743D02*
X006170Y017743D01*
X006170Y017902D02*
X006826Y017902D01*
X006985Y018060D02*
X006631Y018060D01*
X006479Y018060D02*
X006170Y018060D01*
X006170Y018219D02*
X006249Y018219D01*
X006197Y018377D02*
X006170Y018377D01*
X006170Y018536D02*
X006217Y018536D01*
X006170Y018694D02*
X006327Y018694D01*
X005690Y018377D02*
X004475Y018377D01*
X004538Y018219D02*
X005690Y018219D01*
X005690Y018060D02*
X004524Y018060D01*
X004422Y017902D02*
X005690Y017902D01*
X005690Y017743D02*
X004232Y017743D01*
X004391Y017585D02*
X005690Y017585D01*
X005251Y017466D02*
X005251Y017149D01*
X005251Y017466D01*
X005251Y017426D02*
X005251Y017426D01*
X005251Y017268D02*
X005251Y017268D01*
X005251Y017149D02*
X005251Y017149D01*
X004782Y017426D02*
X004549Y017426D01*
X004691Y017285D02*
X004691Y017285D01*
X004708Y017268D02*
X004717Y017268D01*
X004180Y016791D02*
X004680Y016291D01*
X004474Y016158D02*
X003420Y016158D01*
X003578Y016317D02*
X004315Y016317D01*
X004007Y016475D02*
X003610Y016475D01*
X003610Y016634D02*
X003858Y016634D01*
X003822Y016792D02*
X003610Y016792D01*
X003463Y016951D02*
X003858Y016951D01*
X004012Y017109D02*
X003343Y017109D01*
X003501Y017268D02*
X004029Y017268D01*
X003871Y017426D02*
X003590Y017426D01*
X003590Y017585D02*
X003712Y017585D01*
X002060Y017576D02*
X001055Y018541D01*
X003060Y019286D02*
X003060Y019576D01*
X003060Y021576D02*
X003060Y022576D01*
X005251Y015003D02*
X005251Y015003D01*
X004218Y010294D02*
X003527Y010294D01*
X014956Y013147D02*
X018480Y013147D01*
X018304Y013305D02*
X015132Y013305D01*
X015197Y013464D02*
X018238Y013464D01*
X018233Y013622D02*
X015202Y013622D01*
X015156Y013781D02*
X018170Y013781D01*
X018012Y013939D02*
X015037Y013939D01*
D27*
X006555Y018416D03*
X004180Y018166D03*
X004180Y016791D03*
X005430Y023041D03*
X005430Y024416D03*
D28*
X008593Y022416D02*
X010345Y022416D01*
X010345Y020916D02*
X008593Y020916D01*
X008593Y019416D02*
X010345Y019416D01*
M02*
