G75*
%MOIN*%
%OFA0B0*%
%FSLAX24Y24*%
%IPPOS*%
%LPD*%
%AMOC8*
5,1,8,0,0,1.08239X$1,22.5*
%
%ADD10OC8,0.0740*%
%ADD11OC8,0.0520*%
%ADD12C,0.1181*%
%ADD13C,0.1210*%
%ADD14C,0.0650*%
%ADD15R,0.0800X0.0800*%
%ADD16C,0.0800*%
%ADD17R,0.1831X0.1969*%
%ADD18C,0.0160*%
%ADD19C,0.0356*%
D10*
X002050Y002770D03*
X003050Y002770D03*
X003050Y003770D03*
X002050Y003770D03*
X002050Y004770D03*
X003050Y004770D03*
X003050Y005770D03*
X002050Y005770D03*
X002050Y006770D03*
X003050Y006770D03*
X003050Y007770D03*
X002050Y007770D03*
X002050Y008770D03*
X003050Y008770D03*
X003050Y009770D03*
X002050Y009770D03*
X002050Y010770D03*
X003050Y010770D03*
X003050Y011770D03*
X002050Y011770D03*
X002050Y012770D03*
X003050Y012770D03*
X003050Y013770D03*
X002050Y013770D03*
X002050Y014770D03*
X003050Y014770D03*
D11*
X009990Y015090D03*
X010490Y015840D03*
X010990Y015090D03*
D12*
X020214Y014841D03*
X020214Y011837D03*
D13*
X013222Y010837D03*
D14*
X014718Y005837D03*
X018718Y005837D03*
D15*
X021505Y007055D03*
D16*
X023023Y007055D03*
D17*
X008528Y001517D03*
X005832Y001517D03*
D18*
X000856Y000665D02*
X000824Y000742D01*
X000820Y000784D01*
X000820Y016768D01*
X000825Y016802D01*
X000859Y016862D01*
X000919Y016897D01*
X000954Y016901D01*
X023439Y016901D01*
X023488Y016896D01*
X023579Y016859D01*
X023648Y016790D01*
X023685Y016699D01*
X023690Y016650D01*
X023690Y000902D01*
X023684Y000837D01*
X023634Y000717D01*
X023543Y000626D01*
X023423Y000576D01*
X023358Y000570D01*
X009624Y000570D01*
X009624Y001437D01*
X008608Y001437D01*
X008608Y001597D01*
X008448Y001597D01*
X008448Y001437D01*
X007433Y001437D01*
X007433Y000570D01*
X006927Y000570D01*
X006927Y001437D01*
X005912Y001437D01*
X005912Y001597D01*
X006927Y001597D01*
X006927Y002525D01*
X006915Y002571D01*
X006891Y002612D01*
X006857Y002645D01*
X006816Y002669D01*
X006771Y002681D01*
X005912Y002681D01*
X005912Y001597D01*
X005752Y001597D01*
X005752Y002681D01*
X005103Y002681D01*
X005164Y002706D01*
X005210Y002753D01*
X010606Y002753D01*
X010653Y002706D01*
X010777Y002655D01*
X010912Y002655D01*
X011036Y002706D01*
X011131Y002801D01*
X011183Y002926D01*
X011183Y003060D01*
X011131Y003185D01*
X011036Y003280D01*
X010912Y003331D01*
X010777Y003331D01*
X010653Y003280D01*
X010606Y003233D01*
X005210Y003233D01*
X005164Y003280D01*
X005039Y003331D01*
X004905Y003331D01*
X004780Y003280D01*
X004685Y003185D01*
X004634Y003060D01*
X004634Y002926D01*
X004685Y002801D01*
X004780Y002706D01*
X004861Y002673D01*
X004847Y002669D01*
X004806Y002645D01*
X004772Y002612D01*
X004748Y002571D01*
X004736Y002525D01*
X004736Y001597D01*
X005752Y001597D01*
X005752Y001437D01*
X004736Y001437D01*
X004736Y000570D01*
X001034Y000570D01*
X000992Y000574D01*
X000915Y000606D01*
X000856Y000665D01*
X000865Y000656D02*
X004736Y000656D01*
X004736Y000814D02*
X000820Y000814D01*
X000820Y000973D02*
X004736Y000973D01*
X004736Y001131D02*
X000820Y001131D01*
X000820Y001290D02*
X004736Y001290D01*
X004736Y001607D02*
X000820Y001607D01*
X000820Y001765D02*
X004736Y001765D01*
X004736Y001924D02*
X000820Y001924D01*
X000820Y002082D02*
X004736Y002082D01*
X004736Y002241D02*
X003270Y002241D01*
X003270Y002240D02*
X003580Y002550D01*
X003580Y002990D01*
X003300Y003270D01*
X003580Y003550D01*
X003580Y003990D01*
X003300Y004270D01*
X003580Y004550D01*
X003580Y004990D01*
X003300Y005270D01*
X003580Y005550D01*
X003580Y005990D01*
X003314Y006256D01*
X003600Y006542D01*
X003600Y006750D01*
X003070Y006750D01*
X003070Y006790D01*
X003600Y006790D01*
X003600Y006998D01*
X003314Y007284D01*
X003580Y007550D01*
X003580Y007990D01*
X003300Y008270D01*
X003580Y008550D01*
X003580Y008990D01*
X003300Y009270D01*
X003580Y009550D01*
X003580Y009990D01*
X003300Y010270D01*
X003580Y010550D01*
X003580Y010990D01*
X003300Y011270D01*
X003580Y011550D01*
X003580Y011990D01*
X003300Y012270D01*
X003580Y012550D01*
X003580Y012990D01*
X003300Y013270D01*
X003580Y013550D01*
X003580Y013990D01*
X003314Y014256D01*
X003600Y014542D01*
X003600Y014750D01*
X003070Y014750D01*
X003070Y014790D01*
X003600Y014790D01*
X003600Y014998D01*
X003278Y015320D01*
X003070Y015320D01*
X003070Y014790D01*
X003030Y014790D01*
X003030Y015320D01*
X002822Y015320D01*
X002536Y015034D01*
X002270Y015300D01*
X001830Y015300D01*
X001520Y014990D01*
X001520Y014550D01*
X001800Y014270D01*
X001520Y013990D01*
X001520Y013550D01*
X001800Y013270D01*
X001520Y012990D01*
X001520Y012550D01*
X001786Y012284D01*
X001500Y011998D01*
X001500Y011790D01*
X002030Y011790D01*
X002030Y011750D01*
X001500Y011750D01*
X001500Y011542D01*
X001786Y011256D01*
X001520Y010990D01*
X001520Y010550D01*
X001800Y010270D01*
X001520Y009990D01*
X001520Y009550D01*
X001786Y009284D01*
X001500Y008998D01*
X001500Y008790D01*
X002030Y008790D01*
X002030Y008750D01*
X001500Y008750D01*
X001500Y008542D01*
X001786Y008256D01*
X001520Y007990D01*
X001520Y007550D01*
X001800Y007270D01*
X001520Y006990D01*
X001520Y006550D01*
X001800Y006270D01*
X001520Y005990D01*
X001520Y005550D01*
X001786Y005284D01*
X001500Y004998D01*
X001500Y004790D01*
X002030Y004790D01*
X002030Y004750D01*
X001500Y004750D01*
X001500Y004542D01*
X001786Y004256D01*
X001520Y003990D01*
X001520Y003550D01*
X001800Y003270D01*
X001520Y002990D01*
X001520Y002550D01*
X001830Y002240D01*
X002270Y002240D01*
X002550Y002520D01*
X002830Y002240D01*
X003270Y002240D01*
X003429Y002399D02*
X004736Y002399D01*
X004745Y002558D02*
X003580Y002558D01*
X003580Y002716D02*
X004771Y002716D01*
X004655Y002875D02*
X003580Y002875D01*
X003537Y003033D02*
X004634Y003033D01*
X004692Y003192D02*
X003378Y003192D01*
X003380Y003350D02*
X023690Y003350D01*
X023690Y003192D02*
X011124Y003192D01*
X011183Y003033D02*
X023690Y003033D01*
X023690Y002875D02*
X011161Y002875D01*
X011046Y002716D02*
X023690Y002716D01*
X023690Y002558D02*
X009615Y002558D01*
X009612Y002571D02*
X009588Y002612D01*
X009554Y002645D01*
X009513Y002669D01*
X009467Y002681D01*
X008608Y002681D01*
X008608Y001597D01*
X009624Y001597D01*
X009624Y002525D01*
X009612Y002571D01*
X009624Y002399D02*
X023690Y002399D01*
X023690Y002241D02*
X009624Y002241D01*
X009624Y002082D02*
X023690Y002082D01*
X023690Y001924D02*
X009624Y001924D01*
X009624Y001765D02*
X023690Y001765D01*
X023690Y001607D02*
X009624Y001607D01*
X009624Y001290D02*
X023690Y001290D01*
X023690Y001448D02*
X008608Y001448D01*
X008608Y001607D02*
X008448Y001607D01*
X008448Y001597D02*
X008448Y002681D01*
X007589Y002681D01*
X007544Y002669D01*
X007503Y002645D01*
X007469Y002612D01*
X007445Y002571D01*
X007433Y002525D01*
X007433Y001597D01*
X008448Y001597D01*
X008448Y001448D02*
X005912Y001448D01*
X005912Y001607D02*
X005752Y001607D01*
X005752Y001765D02*
X005912Y001765D01*
X005912Y001924D02*
X005752Y001924D01*
X005752Y002082D02*
X005912Y002082D01*
X005912Y002241D02*
X005752Y002241D01*
X005752Y002399D02*
X005912Y002399D01*
X005912Y002558D02*
X005752Y002558D01*
X005173Y002716D02*
X010643Y002716D01*
X010845Y002993D02*
X004972Y002993D01*
X003538Y003509D02*
X023690Y003509D01*
X023690Y003667D02*
X003580Y003667D01*
X003580Y003826D02*
X023690Y003826D01*
X023690Y003984D02*
X003580Y003984D01*
X003427Y004143D02*
X023690Y004143D01*
X023690Y004301D02*
X003331Y004301D01*
X003489Y004460D02*
X023690Y004460D01*
X023690Y004618D02*
X003580Y004618D01*
X003580Y004777D02*
X023690Y004777D01*
X023690Y004935D02*
X003580Y004935D01*
X003476Y005094D02*
X023690Y005094D01*
X023690Y005252D02*
X003318Y005252D01*
X003440Y005411D02*
X014480Y005411D01*
X014443Y005426D02*
X014307Y005562D01*
X014233Y005740D01*
X014233Y005933D01*
X014307Y006111D01*
X014443Y006248D01*
X014621Y006321D01*
X014814Y006321D01*
X014992Y006248D01*
X015129Y006111D01*
X015202Y005933D01*
X015202Y005740D01*
X015129Y005562D01*
X014992Y005426D01*
X014814Y005352D01*
X014621Y005352D01*
X014443Y005426D01*
X014304Y005569D02*
X003580Y005569D01*
X003580Y005728D02*
X014238Y005728D01*
X014233Y005886D02*
X003580Y005886D01*
X003525Y006045D02*
X014279Y006045D01*
X014398Y006203D02*
X003367Y006203D01*
X003419Y006362D02*
X023690Y006362D01*
X023690Y006520D02*
X023195Y006520D01*
X023134Y006495D02*
X023340Y006580D01*
X023498Y006738D01*
X023583Y006944D01*
X023583Y007166D01*
X023498Y007372D01*
X023340Y007530D01*
X023134Y007615D01*
X022912Y007615D01*
X022706Y007530D01*
X022548Y007372D01*
X022463Y007166D01*
X022463Y006944D01*
X022548Y006738D01*
X022706Y006580D01*
X022912Y006495D01*
X023134Y006495D01*
X022851Y006520D02*
X021996Y006520D01*
X021971Y006495D02*
X022065Y006589D01*
X022065Y007521D01*
X021971Y007615D01*
X021039Y007615D01*
X020945Y007521D01*
X020945Y006589D01*
X021039Y006495D01*
X021971Y006495D01*
X022065Y006679D02*
X022607Y006679D01*
X022507Y006837D02*
X022065Y006837D01*
X022065Y006996D02*
X022463Y006996D01*
X022463Y007154D02*
X022065Y007154D01*
X022065Y007313D02*
X022523Y007313D01*
X022647Y007471D02*
X022065Y007471D01*
X020945Y007471D02*
X003501Y007471D01*
X003580Y007630D02*
X012168Y007630D01*
X012168Y007629D02*
X012292Y007578D01*
X012427Y007578D01*
X012551Y007629D01*
X012598Y007676D01*
X016356Y007676D01*
X016402Y007629D01*
X016526Y007578D01*
X016661Y007578D01*
X016785Y007629D01*
X016880Y007724D01*
X016932Y007848D01*
X016932Y007983D01*
X016880Y008107D01*
X016785Y008202D01*
X016661Y008254D01*
X016526Y008254D01*
X016402Y008202D01*
X016356Y008156D01*
X012598Y008156D01*
X012551Y008202D01*
X012427Y008254D01*
X012292Y008254D01*
X012168Y008202D01*
X012073Y008107D01*
X012022Y007983D01*
X012022Y007848D01*
X012073Y007724D01*
X012168Y007629D01*
X012047Y007788D02*
X003580Y007788D01*
X003580Y007947D02*
X012022Y007947D01*
X012072Y008105D02*
X003465Y008105D01*
X003306Y008264D02*
X023690Y008264D01*
X023690Y008422D02*
X003452Y008422D01*
X003580Y008581D02*
X023690Y008581D01*
X023690Y008739D02*
X003580Y008739D01*
X003580Y008898D02*
X023690Y008898D01*
X023690Y009056D02*
X003514Y009056D01*
X003355Y009215D02*
X023690Y009215D01*
X023690Y009373D02*
X003403Y009373D01*
X003561Y009532D02*
X023690Y009532D01*
X023690Y009690D02*
X003580Y009690D01*
X003580Y009849D02*
X023690Y009849D01*
X023690Y010007D02*
X003563Y010007D01*
X003404Y010166D02*
X012843Y010166D01*
X012788Y010188D02*
X013069Y010072D01*
X013374Y010072D01*
X013655Y010188D01*
X013870Y010403D01*
X013987Y010685D01*
X013987Y010989D01*
X013870Y011270D01*
X013655Y011485D01*
X013374Y011602D01*
X013069Y011602D01*
X012788Y011485D01*
X012573Y011270D01*
X012457Y010989D01*
X012457Y010685D01*
X012573Y010403D01*
X012788Y010188D01*
X012652Y010324D02*
X003354Y010324D01*
X003512Y010483D02*
X012540Y010483D01*
X012475Y010641D02*
X003580Y010641D01*
X003580Y010800D02*
X012457Y010800D01*
X012457Y010958D02*
X003580Y010958D01*
X003453Y011117D02*
X012509Y011117D01*
X012578Y011275D02*
X003305Y011275D01*
X003463Y011434D02*
X012737Y011434D01*
X013046Y011592D02*
X003580Y011592D01*
X003580Y011751D02*
X019463Y011751D01*
X019463Y011687D02*
X019577Y011412D01*
X019789Y011200D01*
X020064Y011086D01*
X020363Y011086D01*
X020639Y011200D01*
X020850Y011412D01*
X020964Y011687D01*
X020964Y011986D01*
X020850Y012262D01*
X020639Y012473D01*
X020363Y012587D01*
X020064Y012587D01*
X019789Y012473D01*
X019577Y012262D01*
X019463Y011986D01*
X019463Y011687D01*
X019503Y011592D02*
X013397Y011592D01*
X013707Y011434D02*
X019568Y011434D01*
X019714Y011275D02*
X013865Y011275D01*
X013934Y011117D02*
X019991Y011117D01*
X020436Y011117D02*
X023690Y011117D01*
X023690Y011275D02*
X020713Y011275D01*
X020859Y011434D02*
X023690Y011434D01*
X023690Y011592D02*
X020925Y011592D01*
X020964Y011751D02*
X023690Y011751D01*
X023690Y011909D02*
X020964Y011909D01*
X020930Y012068D02*
X023690Y012068D01*
X023690Y012226D02*
X020865Y012226D01*
X020727Y012385D02*
X023690Y012385D01*
X023690Y012543D02*
X020470Y012543D01*
X019958Y012543D02*
X003573Y012543D01*
X003580Y012702D02*
X023690Y012702D01*
X023690Y012860D02*
X003580Y012860D01*
X003551Y013019D02*
X023690Y013019D01*
X023690Y013177D02*
X003393Y013177D01*
X003365Y013336D02*
X023690Y013336D01*
X023690Y013494D02*
X003524Y013494D01*
X003580Y013653D02*
X023690Y013653D01*
X023690Y013811D02*
X003580Y013811D01*
X003580Y013970D02*
X023690Y013970D01*
X023690Y014128D02*
X020455Y014128D01*
X020363Y014090D02*
X020639Y014204D01*
X020850Y014415D01*
X020964Y014691D01*
X020964Y014990D01*
X020850Y015266D01*
X020639Y015477D01*
X020363Y015591D01*
X020064Y015591D01*
X019789Y015477D01*
X019577Y015266D01*
X019463Y014990D01*
X019463Y014691D01*
X019577Y014415D01*
X019789Y014204D01*
X020064Y014090D01*
X020363Y014090D01*
X019973Y014128D02*
X003442Y014128D01*
X003344Y014287D02*
X019706Y014287D01*
X019565Y014445D02*
X003503Y014445D01*
X003600Y014604D02*
X019500Y014604D01*
X019463Y014762D02*
X011256Y014762D01*
X011164Y014670D02*
X011410Y014916D01*
X011410Y015264D01*
X011164Y015510D01*
X010816Y015510D01*
X010570Y015264D01*
X010570Y014916D01*
X010816Y014670D01*
X011164Y014670D01*
X010724Y014762D02*
X010284Y014762D01*
X010172Y014650D02*
X010430Y014908D01*
X010430Y015090D01*
X010430Y015272D01*
X010172Y015530D01*
X009990Y015530D01*
X009990Y015090D01*
X010430Y015090D01*
X009990Y015090D01*
X009990Y015090D01*
X009990Y015090D01*
X009990Y014650D01*
X010172Y014650D01*
X009990Y014650D02*
X009990Y015090D01*
X009990Y015090D01*
X009990Y015090D01*
X009550Y015090D01*
X009550Y015272D01*
X009808Y015530D01*
X009990Y015530D01*
X009990Y015090D01*
X009550Y015090D01*
X009550Y014908D01*
X009808Y014650D01*
X009990Y014650D01*
X009990Y014762D02*
X009990Y014762D01*
X009990Y014921D02*
X009990Y014921D01*
X009990Y015079D02*
X009990Y015079D01*
X009990Y015238D02*
X009990Y015238D01*
X009990Y015396D02*
X009990Y015396D01*
X010182Y015555D02*
X000820Y015555D01*
X000820Y015713D02*
X010070Y015713D01*
X010070Y015666D02*
X010316Y015420D01*
X010664Y015420D01*
X010910Y015666D01*
X010910Y016014D01*
X010664Y016260D01*
X010316Y016260D01*
X010070Y016014D01*
X010070Y015666D01*
X010070Y015872D02*
X000820Y015872D01*
X000820Y016030D02*
X010086Y016030D01*
X010245Y016189D02*
X000820Y016189D01*
X000820Y016347D02*
X023690Y016347D01*
X023690Y016189D02*
X010735Y016189D01*
X010894Y016030D02*
X023690Y016030D01*
X023690Y015872D02*
X010910Y015872D01*
X010910Y015713D02*
X023690Y015713D01*
X023690Y015555D02*
X020451Y015555D01*
X019976Y015555D02*
X010798Y015555D01*
X010702Y015396D02*
X010306Y015396D01*
X010430Y015238D02*
X010570Y015238D01*
X010570Y015079D02*
X010430Y015079D01*
X010430Y014921D02*
X010570Y014921D01*
X011410Y014921D02*
X019463Y014921D01*
X019500Y015079D02*
X011410Y015079D01*
X011410Y015238D02*
X019566Y015238D01*
X019708Y015396D02*
X011278Y015396D01*
X009674Y015396D02*
X000820Y015396D01*
X000820Y015238D02*
X001768Y015238D01*
X001609Y015079D02*
X000820Y015079D01*
X000820Y014921D02*
X001520Y014921D01*
X001520Y014762D02*
X000820Y014762D01*
X000820Y014604D02*
X001520Y014604D01*
X001625Y014445D02*
X000820Y014445D01*
X000820Y014287D02*
X001784Y014287D01*
X001658Y014128D02*
X000820Y014128D01*
X000820Y013970D02*
X001520Y013970D01*
X001520Y013811D02*
X000820Y013811D01*
X000820Y013653D02*
X001520Y013653D01*
X001576Y013494D02*
X000820Y013494D01*
X000820Y013336D02*
X001735Y013336D01*
X001707Y013177D02*
X000820Y013177D01*
X000820Y013019D02*
X001549Y013019D01*
X001520Y012860D02*
X000820Y012860D01*
X000820Y012702D02*
X001520Y012702D01*
X001527Y012543D02*
X000820Y012543D01*
X000820Y012385D02*
X001686Y012385D01*
X001728Y012226D02*
X000820Y012226D01*
X000820Y012068D02*
X001570Y012068D01*
X001500Y011909D02*
X000820Y011909D01*
X000820Y011751D02*
X002030Y011751D01*
X001609Y011434D02*
X000820Y011434D01*
X000820Y011592D02*
X001500Y011592D01*
X001767Y011275D02*
X000820Y011275D01*
X000820Y011117D02*
X001647Y011117D01*
X001520Y010958D02*
X000820Y010958D01*
X000820Y010800D02*
X001520Y010800D01*
X001520Y010641D02*
X000820Y010641D01*
X000820Y010483D02*
X001588Y010483D01*
X001746Y010324D02*
X000820Y010324D01*
X000820Y010166D02*
X001696Y010166D01*
X001537Y010007D02*
X000820Y010007D01*
X000820Y009849D02*
X001520Y009849D01*
X001520Y009690D02*
X000820Y009690D01*
X000820Y009532D02*
X001539Y009532D01*
X001697Y009373D02*
X000820Y009373D01*
X000820Y009215D02*
X001717Y009215D01*
X001558Y009056D02*
X000820Y009056D01*
X000820Y008898D02*
X001500Y008898D01*
X001500Y008739D02*
X000820Y008739D01*
X000820Y008581D02*
X001500Y008581D01*
X001620Y008422D02*
X000820Y008422D01*
X000820Y008264D02*
X001779Y008264D01*
X001635Y008105D02*
X000820Y008105D01*
X000820Y007947D02*
X001520Y007947D01*
X001520Y007788D02*
X000820Y007788D01*
X000820Y007630D02*
X001520Y007630D01*
X001599Y007471D02*
X000820Y007471D01*
X000820Y007313D02*
X001758Y007313D01*
X001684Y007154D02*
X000820Y007154D01*
X000820Y006996D02*
X001526Y006996D01*
X001520Y006837D02*
X000820Y006837D01*
X000820Y006679D02*
X001520Y006679D01*
X001550Y006520D02*
X000820Y006520D01*
X000820Y006362D02*
X001709Y006362D01*
X001733Y006203D02*
X000820Y006203D01*
X000820Y006045D02*
X001575Y006045D01*
X001520Y005886D02*
X000820Y005886D01*
X000820Y005728D02*
X001520Y005728D01*
X001520Y005569D02*
X000820Y005569D01*
X000820Y005411D02*
X001660Y005411D01*
X001754Y005252D02*
X000820Y005252D01*
X000820Y005094D02*
X001596Y005094D01*
X001500Y004935D02*
X000820Y004935D01*
X000820Y004777D02*
X002030Y004777D01*
X001583Y004460D02*
X000820Y004460D01*
X000820Y004618D02*
X001500Y004618D01*
X001741Y004301D02*
X000820Y004301D01*
X000820Y004143D02*
X001673Y004143D01*
X001520Y003984D02*
X000820Y003984D01*
X000820Y003826D02*
X001520Y003826D01*
X001520Y003667D02*
X000820Y003667D01*
X000820Y003509D02*
X001562Y003509D01*
X001720Y003350D02*
X000820Y003350D01*
X000820Y003192D02*
X001722Y003192D01*
X001563Y003033D02*
X000820Y003033D01*
X000820Y002875D02*
X001520Y002875D01*
X001520Y002716D02*
X000820Y002716D01*
X000820Y002558D02*
X001520Y002558D01*
X001671Y002399D02*
X000820Y002399D01*
X000820Y002241D02*
X001830Y002241D01*
X002270Y002241D02*
X002830Y002241D01*
X002671Y002399D02*
X002429Y002399D01*
X000820Y001448D02*
X005752Y001448D01*
X006927Y001290D02*
X007433Y001290D01*
X007433Y001131D02*
X006927Y001131D01*
X006927Y000973D02*
X007433Y000973D01*
X007433Y000814D02*
X006927Y000814D01*
X006927Y000656D02*
X007433Y000656D01*
X007433Y001607D02*
X006927Y001607D01*
X006927Y001765D02*
X007433Y001765D01*
X007433Y001924D02*
X006927Y001924D01*
X006927Y002082D02*
X007433Y002082D01*
X007433Y002241D02*
X006927Y002241D01*
X006927Y002399D02*
X007433Y002399D01*
X007442Y002558D02*
X006918Y002558D01*
X008448Y002558D02*
X008608Y002558D01*
X008608Y002399D02*
X008448Y002399D01*
X008448Y002241D02*
X008608Y002241D01*
X008608Y002082D02*
X008448Y002082D01*
X008448Y001924D02*
X008608Y001924D01*
X008608Y001765D02*
X008448Y001765D01*
X009624Y001131D02*
X023690Y001131D01*
X023690Y000973D02*
X009624Y000973D01*
X009624Y000814D02*
X023674Y000814D01*
X023572Y000656D02*
X009624Y000656D01*
X014956Y005411D02*
X018480Y005411D01*
X018443Y005426D02*
X018621Y005352D01*
X018814Y005352D01*
X018992Y005426D01*
X019129Y005562D01*
X019202Y005740D01*
X019202Y005933D01*
X019129Y006111D01*
X018992Y006248D01*
X018814Y006321D01*
X018621Y006321D01*
X018443Y006248D01*
X018307Y006111D01*
X018233Y005933D01*
X018233Y005740D01*
X018307Y005562D01*
X018443Y005426D01*
X018304Y005569D02*
X015132Y005569D01*
X015197Y005728D02*
X018238Y005728D01*
X018233Y005886D02*
X015202Y005886D01*
X015156Y006045D02*
X018279Y006045D01*
X018398Y006203D02*
X015037Y006203D01*
X016402Y007630D02*
X012552Y007630D01*
X012360Y007916D02*
X016594Y007916D01*
X016907Y007788D02*
X023690Y007788D01*
X023690Y007630D02*
X016786Y007630D01*
X016932Y007947D02*
X023690Y007947D01*
X023690Y008105D02*
X016881Y008105D01*
X019037Y006203D02*
X023690Y006203D01*
X023690Y006045D02*
X019156Y006045D01*
X019202Y005886D02*
X023690Y005886D01*
X023690Y005728D02*
X019197Y005728D01*
X019132Y005569D02*
X023690Y005569D01*
X023690Y005411D02*
X018956Y005411D01*
X020945Y006679D02*
X003600Y006679D01*
X003600Y006837D02*
X020945Y006837D01*
X020945Y006996D02*
X003600Y006996D01*
X003444Y007154D02*
X020945Y007154D01*
X020945Y007313D02*
X003342Y007313D01*
X003578Y006520D02*
X021014Y006520D01*
X023438Y006679D02*
X023690Y006679D01*
X023690Y006837D02*
X023539Y006837D01*
X023583Y006996D02*
X023690Y006996D01*
X023690Y007154D02*
X023583Y007154D01*
X023522Y007313D02*
X023690Y007313D01*
X023690Y007471D02*
X023399Y007471D01*
X023690Y010166D02*
X013600Y010166D01*
X013791Y010324D02*
X023690Y010324D01*
X023690Y010483D02*
X013903Y010483D01*
X013969Y010641D02*
X023690Y010641D01*
X023690Y010800D02*
X013987Y010800D01*
X013987Y010958D02*
X023690Y010958D01*
X019700Y012385D02*
X003414Y012385D01*
X003344Y012226D02*
X019563Y012226D01*
X019497Y012068D02*
X003502Y012068D01*
X003580Y011909D02*
X019463Y011909D01*
X020721Y014287D02*
X023690Y014287D01*
X023690Y014445D02*
X020862Y014445D01*
X020928Y014604D02*
X023690Y014604D01*
X023690Y014762D02*
X020964Y014762D01*
X020964Y014921D02*
X023690Y014921D01*
X023690Y015079D02*
X020927Y015079D01*
X020862Y015238D02*
X023690Y015238D01*
X023690Y015396D02*
X020720Y015396D01*
X023615Y016823D02*
X000836Y016823D01*
X000820Y016664D02*
X023689Y016664D01*
X023690Y016506D02*
X000820Y016506D01*
X002332Y015238D02*
X002740Y015238D01*
X002581Y015079D02*
X002491Y015079D01*
X003030Y015079D02*
X003070Y015079D01*
X003070Y014921D02*
X003030Y014921D01*
X003070Y014762D02*
X009696Y014762D01*
X009550Y014921D02*
X003600Y014921D01*
X003519Y015079D02*
X009550Y015079D01*
X009550Y015238D02*
X003360Y015238D01*
X003070Y015238D02*
X003030Y015238D01*
D19*
X004579Y014665D03*
X004606Y013115D03*
X004597Y016141D03*
X011527Y013838D03*
X017323Y009801D03*
X016594Y007916D03*
X012360Y007916D03*
X010011Y006799D03*
X008597Y005784D03*
X007053Y004842D03*
X004972Y002993D03*
X004271Y005587D03*
X010845Y002993D03*
M02*
