%
M48
M72
T01C0.0236
T02C0.0315
T03C0.0400
T04C0.0472
T05C0.1142
%
T01
X1050Y865
X1724Y1780
X1395Y3769
X3930Y5730
X4255Y4955
X5248Y5763
X5845Y6300
X6320Y7249
X7087Y7850
X7740Y7860
X8345Y7857
X9010Y7843
X8793Y8285
X7738Y8585
X8480Y9780
X8235Y10767
X9455Y11705
X8355Y12305
X8380Y13480
X8122Y14456
X7805Y15255
X6380Y16150
X5255Y16230
X6155Y14430
X5280Y13830
X7009Y13744
X5098Y12328
X3950Y12527
X5098Y10854
X4000Y9310
X4071Y8141
X4523Y6705
X6766Y5333
X7201Y5738
X7640Y5333
X8049Y4905
X8482Y5311
X8902Y5724
X9304Y5308
X9746Y5721
X10145Y5308
X10588Y5721
X10167Y6134
X10573Y6533
X9732Y6533
X9311Y6137
X8888Y6536
X8484Y6152
X8060Y6551
X7633Y6159
X7187Y6551
X8075Y5738
X7198Y4912
X6766Y4506
X7212Y4115
X7640Y4506
X8064Y4107
X8467Y4492
X8876Y4890
X9311Y4488
X8891Y4093
X9746Y4090
X10153Y4488
X9732Y4887
X10587Y4887
X10602Y4089
X10624Y3227
X10254Y2799
X9772Y2399
X9356Y2797
X8495Y2797
X7620Y2797
X6792Y2804
X6316Y3391
X6023Y2805
X5233Y2804
X4610Y2435
X4602Y1541
X4577Y793
X6321Y4107
X6306Y4905
X10667Y7383
X10202Y8314
X12197Y9255
X12405Y8480
X12930Y8455
X13922Y7574
X12930Y6772
X12377Y7495
X14055Y9600
X13522Y10072
X12592Y10128
X12100Y11567
X11463Y11582
X13564Y12098
X13941Y12534
X14063Y11601
X15964Y9982
X18233Y9445
X19286Y9379
X18296Y10516
X19728Y10932
X21227Y9721
X21248Y7940
X21180Y6855
X21008Y5663
X19880Y5680
X18305Y5980
X19055Y6830
X19170Y7565
X18424Y8060
X16024Y6012
X9793Y1608
X9796Y836
X16260Y900
X23290Y925
X23011Y7356
X23016Y7853
X18322Y12613
X16805Y14303
X15984Y13282
X15199Y14351
X12138Y13650
X10905Y14255
X10555Y13680
X6268Y8575
X1401Y9773
X1404Y10773
X1401Y12765
X2569Y15553
X1045Y16649
X23175Y16710
T02
X17530Y13095
X17530Y12095
X17530Y11095
X17530Y10095
X17530Y9095
X17530Y8095
X17530Y7095
X17530Y6095
X14530Y6095
X14530Y7095
X14530Y8095
X14530Y9095
X14530Y10095
X14530Y11095
X14530Y12095
X14530Y13095
T03
X3050Y12770
X2050Y12770
X2050Y13770
X3050Y13770
X3050Y14770
X2050Y14770
X2050Y11770
X3050Y11770
X3050Y10770
X2050Y10770
X2050Y9770
X3050Y9770
X3050Y8770
X2050Y8770
X2050Y7770
X3050Y7770
X3050Y6770
X2050Y6770
X2050Y5770
X3050Y5770
X3050Y4770
X2050Y4770
X2050Y3770
X3050Y3770
X3050Y2770
X2050Y2770
T04
X10157Y15355
X11675Y15355
X13882Y15405
X15400Y15405
X17657Y15380
X19175Y15380
X21382Y15405
X22900Y15405
X22426Y12027
X20908Y12027
T05
X15963Y11811
M30
