G75*
%MOIN*%
%OFA0B0*%
%FSLAX24Y24*%
%IPPOS*%
%LPD*%
%AMOC8*
5,1,8,0,0,1.08239X$1,22.5*
%
%ADD10C,0.0000*%
%ADD11OC8,0.0740*%
%ADD12R,0.0315X0.0709*%
%ADD13R,0.0276X0.0709*%
%ADD14R,0.0800X0.0800*%
%ADD15C,0.0800*%
%ADD16R,0.0472X0.0315*%
%ADD17R,0.0472X0.0472*%
%ADD18R,0.0512X0.0591*%
%ADD19R,0.0315X0.1969*%
%ADD20R,0.1831X0.1969*%
%ADD21R,0.0500X0.0250*%
%ADD22R,0.0315X0.0354*%
%ADD23R,0.1000X0.1051*%
%ADD24R,0.0500X0.0300*%
%ADD25C,0.0472*%
%ADD26R,0.0157X0.0098*%
%ADD27R,0.0315X0.0472*%
%ADD28C,0.0160*%
%ADD29C,0.0376*%
%ADD30C,0.0090*%
%ADD31C,0.0100*%
%ADD32C,0.0120*%
D10*
X000570Y000784D02*
X000578Y016758D01*
X000579Y016758D02*
X000576Y016798D01*
X000577Y016838D01*
X000582Y016877D01*
X000591Y016916D01*
X000603Y016954D01*
X000618Y016991D01*
X000637Y017026D01*
X000659Y017059D01*
X000684Y017091D01*
X000712Y017119D01*
X000742Y017145D01*
X000774Y017168D01*
X000809Y017188D01*
X000845Y017205D01*
X000883Y017218D01*
X000921Y017228D01*
X000961Y017234D01*
X023098Y017273D01*
X023830Y016650D02*
X023830Y000902D01*
X023829Y000902D02*
X023830Y000859D01*
X023826Y000815D01*
X023819Y000773D01*
X023808Y000731D01*
X023793Y000690D01*
X023775Y000650D01*
X023754Y000613D01*
X023729Y000577D01*
X023702Y000544D01*
X023671Y000513D01*
X023638Y000485D01*
X023603Y000460D01*
X023565Y000438D01*
X023526Y000419D01*
X023486Y000404D01*
X023444Y000393D01*
X023401Y000385D01*
X023358Y000381D01*
X023358Y000380D02*
X001034Y000380D01*
X000994Y000379D01*
X000954Y000382D01*
X000914Y000388D01*
X000875Y000398D01*
X000837Y000412D01*
X000801Y000429D01*
X000766Y000450D01*
X000734Y000473D01*
X000704Y000499D01*
X000676Y000529D01*
X000651Y000560D01*
X000629Y000594D01*
X000610Y000629D01*
X000595Y000666D01*
X000583Y000705D01*
X000575Y000744D01*
X000570Y000784D01*
X015392Y011811D02*
X015394Y011858D01*
X015400Y011905D01*
X015409Y011951D01*
X015423Y011996D01*
X015440Y012040D01*
X015461Y012083D01*
X015485Y012123D01*
X015512Y012162D01*
X015543Y012198D01*
X015576Y012231D01*
X015612Y012262D01*
X015651Y012289D01*
X015691Y012313D01*
X015734Y012334D01*
X015778Y012351D01*
X015823Y012365D01*
X015869Y012374D01*
X015916Y012380D01*
X015963Y012382D01*
X016010Y012380D01*
X016057Y012374D01*
X016103Y012365D01*
X016148Y012351D01*
X016192Y012334D01*
X016235Y012313D01*
X016275Y012289D01*
X016314Y012262D01*
X016350Y012231D01*
X016383Y012198D01*
X016414Y012162D01*
X016441Y012123D01*
X016465Y012083D01*
X016486Y012040D01*
X016503Y011996D01*
X016517Y011951D01*
X016526Y011905D01*
X016532Y011858D01*
X016534Y011811D01*
X016532Y011764D01*
X016526Y011717D01*
X016517Y011671D01*
X016503Y011626D01*
X016486Y011582D01*
X016465Y011539D01*
X016441Y011499D01*
X016414Y011460D01*
X016383Y011424D01*
X016350Y011391D01*
X016314Y011360D01*
X016275Y011333D01*
X016235Y011309D01*
X016192Y011288D01*
X016148Y011271D01*
X016103Y011257D01*
X016057Y011248D01*
X016010Y011242D01*
X015963Y011240D01*
X015916Y011242D01*
X015869Y011248D01*
X015823Y011257D01*
X015778Y011271D01*
X015734Y011288D01*
X015691Y011309D01*
X015651Y011333D01*
X015612Y011360D01*
X015576Y011391D01*
X015543Y011424D01*
X015512Y011460D01*
X015485Y011499D01*
X015461Y011539D01*
X015440Y011582D01*
X015423Y011626D01*
X015409Y011671D01*
X015400Y011717D01*
X015394Y011764D01*
X015392Y011811D01*
X023099Y017274D02*
X023149Y017276D01*
X023200Y017274D01*
X023251Y017269D01*
X023301Y017260D01*
X023350Y017247D01*
X023398Y017230D01*
X023445Y017210D01*
X023490Y017187D01*
X023533Y017160D01*
X023574Y017130D01*
X023613Y017097D01*
X023649Y017061D01*
X023682Y017023D01*
X023713Y016982D01*
X023740Y016939D01*
X023764Y016894D01*
X023785Y016848D01*
X023802Y016800D01*
X023815Y016751D01*
X023825Y016701D01*
X023831Y016650D01*
D11*
X003050Y014770D03*
X002050Y014770D03*
X002050Y013770D03*
X003050Y013770D03*
X003050Y012770D03*
X002050Y012770D03*
X002050Y011770D03*
X003050Y011770D03*
X003050Y010770D03*
X002050Y010770D03*
X002050Y009770D03*
X003050Y009770D03*
X003050Y008770D03*
X002050Y008770D03*
X002050Y007770D03*
X003050Y007770D03*
X003050Y006770D03*
X002050Y006770D03*
X002050Y005770D03*
X003050Y005770D03*
X003050Y004770D03*
X002050Y004770D03*
X002050Y003770D03*
X003050Y003770D03*
X003050Y002770D03*
X002050Y002770D03*
D12*
X007183Y003461D03*
X007616Y003461D03*
X008049Y003461D03*
X008482Y003461D03*
X008915Y003461D03*
X009348Y003461D03*
X009781Y003461D03*
X009781Y007201D03*
X009348Y007201D03*
X008915Y007201D03*
X008482Y007201D03*
X008049Y007201D03*
X007616Y007201D03*
X007183Y007201D03*
D13*
X006770Y007201D03*
X010195Y007201D03*
X010195Y003461D03*
X006770Y003461D03*
D14*
X020908Y012027D03*
X019175Y015380D03*
X015400Y015405D03*
X011675Y015355D03*
X022900Y015405D03*
D15*
X021382Y015405D03*
X017657Y015380D03*
X013882Y015405D03*
X010157Y015355D03*
X022426Y012027D03*
D16*
X005254Y007027D03*
X005254Y006319D03*
D17*
X005571Y009878D03*
X004745Y009878D03*
X004745Y011356D03*
X005571Y011356D03*
X005565Y012856D03*
X004738Y012856D03*
D18*
X006729Y012856D03*
X007398Y012856D03*
X009070Y012305D03*
X009740Y012305D03*
X009740Y013505D03*
X009070Y013505D03*
X007427Y011363D03*
X006758Y011363D03*
X006751Y009878D03*
X007420Y009878D03*
X009070Y009880D03*
X009740Y009880D03*
X009740Y011080D03*
X009070Y011080D03*
X012893Y011155D03*
X013563Y011155D03*
X013563Y013105D03*
X012894Y013105D03*
X012934Y009105D03*
X013603Y009105D03*
X013590Y006105D03*
X012920Y006105D03*
X005515Y014430D03*
X004845Y014430D03*
X004845Y015455D03*
X005515Y015455D03*
D19*
X007180Y001517D03*
D20*
X005832Y001517D03*
X008528Y001517D03*
D21*
X019880Y006355D03*
X019880Y006855D03*
X019880Y007355D03*
X019880Y007855D03*
X019880Y008355D03*
X019880Y008855D03*
X019880Y009355D03*
X019880Y009855D03*
X022380Y009855D03*
X022380Y009355D03*
X022380Y008855D03*
X022380Y008355D03*
X022380Y007855D03*
X022380Y007355D03*
X022380Y006855D03*
X022380Y006355D03*
D22*
X012079Y006211D03*
X011331Y006211D03*
X011705Y007038D03*
X011331Y008061D03*
X012079Y008061D03*
X011705Y008888D03*
X011356Y010161D03*
X012104Y010161D03*
X011730Y010988D03*
X011356Y012111D03*
X012104Y012111D03*
X011730Y012938D03*
D23*
X019180Y012405D03*
D24*
X019180Y011479D03*
D25*
X017766Y011095D02*
X017293Y011095D01*
X017293Y010095D02*
X017766Y010095D01*
X017766Y009095D02*
X017293Y009095D01*
X017293Y008095D02*
X017766Y008095D01*
X017766Y007095D02*
X017293Y007095D01*
X017293Y006095D02*
X017766Y006095D01*
X014766Y006095D02*
X014293Y006095D01*
X014293Y007095D02*
X014766Y007095D01*
X014766Y008095D02*
X014293Y008095D01*
X014293Y009095D02*
X014766Y009095D01*
X014766Y010095D02*
X014293Y010095D01*
X014293Y011095D02*
X014766Y011095D01*
X014766Y012095D02*
X014293Y012095D01*
X014293Y013095D02*
X014766Y013095D01*
X017293Y013095D02*
X017766Y013095D01*
X017766Y012095D02*
X017293Y012095D01*
D26*
X007290Y015258D03*
X007290Y015455D03*
X007290Y015652D03*
X006770Y015652D03*
X006770Y015455D03*
X006766Y015258D03*
D27*
X006626Y014455D03*
X007334Y014455D03*
D28*
X000806Y000760D02*
X000842Y000688D01*
X000902Y000636D01*
X000978Y000611D01*
X000999Y000610D01*
X001026Y000610D01*
X001113Y000616D01*
X001120Y000610D01*
X004736Y000610D01*
X004736Y001437D01*
X005752Y001437D01*
X005752Y001597D01*
X005752Y002681D01*
X004893Y002681D01*
X004847Y002669D01*
X004806Y002645D01*
X004772Y002612D01*
X004748Y002571D01*
X004736Y002525D01*
X004736Y001597D01*
X005752Y001597D01*
X005912Y001597D01*
X005912Y002681D01*
X006771Y002681D01*
X006816Y002669D01*
X006857Y002645D01*
X006891Y002612D01*
X006897Y002602D01*
X006945Y002650D01*
X006944Y002930D01*
X006931Y002927D01*
X006770Y002927D01*
X006770Y003461D01*
X006770Y003461D01*
X006770Y003995D01*
X006931Y003995D01*
X006977Y003983D01*
X006990Y003975D01*
X007376Y003975D01*
X007389Y003983D01*
X007435Y003995D01*
X007616Y003995D01*
X007616Y003461D01*
X007616Y003461D01*
X007616Y003995D01*
X007797Y003995D01*
X007843Y003983D01*
X007856Y003975D01*
X010399Y003975D01*
X010493Y003882D01*
X010493Y003040D01*
X010399Y002947D01*
X007856Y002947D01*
X007843Y002939D01*
X007797Y002927D01*
X007616Y002927D01*
X007616Y003461D01*
X007616Y003461D01*
X007616Y002927D01*
X007435Y002927D01*
X007424Y002929D01*
X007425Y002640D01*
X007463Y002602D01*
X007469Y002612D01*
X007503Y002645D01*
X007544Y002669D01*
X007589Y002681D01*
X008448Y002681D01*
X008448Y001597D01*
X008608Y001597D01*
X008608Y002681D01*
X009467Y002681D01*
X009513Y002669D01*
X009554Y002645D01*
X009588Y002612D01*
X009612Y002571D01*
X009624Y002525D01*
X009624Y001597D01*
X008608Y001597D01*
X008608Y001437D01*
X009624Y001437D01*
X009624Y000610D01*
X023349Y000610D01*
X023399Y000617D01*
X023493Y000662D01*
X023563Y000740D01*
X023598Y000838D01*
X023600Y000884D01*
X023600Y000896D01*
X023596Y000985D01*
X023600Y000990D01*
X023600Y016636D01*
X023590Y016701D01*
X023536Y016831D01*
X023444Y016938D01*
X023324Y017011D01*
X023190Y017043D01*
X023108Y017043D01*
X023022Y017036D01*
X023014Y017043D01*
X000979Y017004D01*
X000947Y016997D01*
X000878Y016959D01*
X000828Y016898D01*
X000808Y016829D01*
X000808Y016770D01*
X000817Y016688D01*
X000808Y016677D01*
X000808Y016030D01*
X000808Y016030D01*
X000868Y016090D01*
X001243Y016465D01*
X003642Y016465D01*
X003765Y016342D01*
X004190Y015917D01*
X004190Y013917D01*
X004467Y013640D01*
X004982Y013640D01*
X004932Y013761D01*
X004932Y013899D01*
X004963Y013975D01*
X004523Y013975D01*
X004429Y014068D01*
X004429Y014792D01*
X004523Y014885D01*
X004605Y014885D01*
X004605Y015000D01*
X004523Y015000D01*
X004429Y015093D01*
X004429Y015817D01*
X004523Y015910D01*
X005117Y015910D01*
X005058Y015935D01*
X004960Y016033D01*
X004907Y016161D01*
X004907Y016299D01*
X004960Y016427D01*
X005058Y016525D01*
X005186Y016578D01*
X005324Y016578D01*
X005452Y016525D01*
X005550Y016427D01*
X005603Y016299D01*
X005603Y016179D01*
X005725Y016057D01*
X005725Y015910D01*
X005837Y015910D01*
X005931Y015817D01*
X005931Y015665D01*
X006392Y015665D01*
X006524Y015533D01*
X006511Y015579D01*
X006511Y015652D01*
X006613Y015652D01*
X006613Y015652D01*
X006511Y015652D01*
X006511Y015725D01*
X006524Y015771D01*
X006547Y015812D01*
X006581Y015845D01*
X006622Y015869D01*
X006668Y015881D01*
X006770Y015881D01*
X006770Y015664D01*
X006770Y015664D01*
X006770Y015881D01*
X006873Y015881D01*
X006918Y015869D01*
X006959Y015845D01*
X006993Y015812D01*
X007017Y015771D01*
X007029Y015725D01*
X007029Y015665D01*
X007051Y015665D01*
X007051Y015767D01*
X007145Y015861D01*
X007435Y015861D01*
X007529Y015767D01*
X007529Y015587D01*
X007536Y015574D01*
X007549Y015528D01*
X007549Y015491D01*
X007608Y015550D01*
X007736Y015603D01*
X007874Y015603D01*
X008002Y015550D01*
X008100Y015452D01*
X008153Y015324D01*
X008153Y015186D01*
X008100Y015058D01*
X008002Y014960D01*
X007874Y014907D01*
X007736Y014907D01*
X007608Y014960D01*
X007523Y015045D01*
X007215Y015045D01*
X007215Y014943D01*
X007140Y014868D01*
X007153Y014871D01*
X007334Y014871D01*
X007334Y014455D01*
X006997Y014455D01*
X006997Y014195D01*
X007009Y014149D01*
X007033Y014108D01*
X007066Y014075D01*
X007107Y014051D01*
X007153Y014039D01*
X007334Y014039D01*
X007334Y014455D01*
X007334Y014455D01*
X006997Y014455D01*
X006997Y014715D01*
X007000Y014729D01*
X006943Y014671D01*
X006943Y014153D01*
X006849Y014059D01*
X006836Y014059D01*
X006836Y013714D01*
X006465Y013343D01*
X006434Y013312D01*
X007051Y013312D01*
X007054Y013308D01*
X007073Y013319D01*
X007119Y013332D01*
X007350Y013332D01*
X007350Y012904D01*
X007446Y012904D01*
X007834Y012904D01*
X007834Y013175D01*
X007822Y013221D01*
X007798Y013262D01*
X007765Y013296D01*
X007724Y013319D01*
X007678Y013332D01*
X007446Y013332D01*
X007446Y012904D01*
X007446Y012808D01*
X007446Y012381D01*
X007678Y012381D01*
X007724Y012393D01*
X007765Y012417D01*
X007798Y012450D01*
X007822Y012491D01*
X007834Y012537D01*
X007834Y012808D01*
X007446Y012808D01*
X007350Y012808D01*
X007350Y012381D01*
X007119Y012381D01*
X007073Y012393D01*
X007054Y012404D01*
X007051Y012401D01*
X006407Y012401D01*
X006313Y012495D01*
X006313Y012616D01*
X005961Y012616D01*
X005961Y012554D01*
X005867Y012460D01*
X005262Y012460D01*
X005169Y012554D01*
X005169Y013159D01*
X005230Y013220D01*
X005073Y013220D01*
X005134Y013159D01*
X005134Y012554D01*
X005041Y012460D01*
X005000Y012460D01*
X004983Y012419D01*
X004916Y012352D01*
X004345Y011781D01*
X004345Y010982D01*
X004308Y010894D01*
X004241Y010827D01*
X003492Y010078D01*
X003580Y009990D01*
X003580Y009869D01*
X004490Y010779D01*
X004490Y010960D01*
X004442Y010960D01*
X004348Y011054D01*
X004348Y011659D01*
X004442Y011752D01*
X005047Y011752D01*
X005141Y011659D01*
X005141Y011054D01*
X005047Y010960D01*
X004970Y010960D01*
X004970Y010632D01*
X004933Y010544D01*
X004866Y010477D01*
X004664Y010274D01*
X005047Y010274D01*
X005141Y010180D01*
X005141Y009576D01*
X005047Y009482D01*
X004970Y009482D01*
X004970Y009407D01*
X004933Y009319D01*
X004866Y009252D01*
X003580Y007966D01*
X003580Y007550D01*
X003509Y007480D01*
X003714Y007480D01*
X005623Y009388D01*
X005716Y009482D01*
X005269Y009482D01*
X005175Y009576D01*
X005175Y010180D01*
X005269Y010274D01*
X005874Y010274D01*
X005968Y010180D01*
X005968Y010118D01*
X006335Y010118D01*
X006335Y010240D01*
X006428Y010333D01*
X007073Y010333D01*
X007076Y010330D01*
X007095Y010341D01*
X007140Y010353D01*
X007372Y010353D01*
X007372Y009926D01*
X007468Y009926D01*
X007856Y009926D01*
X007856Y010197D01*
X007844Y010243D01*
X007820Y010284D01*
X007786Y010317D01*
X007745Y010341D01*
X007699Y010353D01*
X007468Y010353D01*
X007468Y009926D01*
X007468Y009830D01*
X007856Y009830D01*
X007856Y009559D01*
X007844Y009513D01*
X007843Y009511D01*
X008256Y009511D01*
X008185Y009583D01*
X008132Y009711D01*
X008132Y009849D01*
X008185Y009977D01*
X008283Y010075D01*
X008411Y010128D01*
X008549Y010128D01*
X008654Y010085D01*
X008654Y010242D01*
X008748Y010335D01*
X008860Y010335D01*
X008860Y010625D01*
X008748Y010625D01*
X008654Y010718D01*
X008654Y011442D01*
X008748Y011535D01*
X009393Y011535D01*
X009405Y011523D01*
X009417Y011535D01*
X010062Y011535D01*
X010156Y011442D01*
X010156Y011002D01*
X011039Y010112D01*
X011039Y010405D01*
X011115Y010481D01*
X011115Y010906D01*
X010116Y011904D01*
X010062Y011850D01*
X009417Y011850D01*
X009405Y011862D01*
X009393Y011850D01*
X008748Y011850D01*
X008654Y011943D01*
X008654Y012095D01*
X008637Y012095D01*
X008552Y012010D01*
X008424Y011957D01*
X008286Y011957D01*
X008158Y012010D01*
X008060Y012108D01*
X008007Y012236D01*
X008007Y012374D01*
X008060Y012502D01*
X008158Y012600D01*
X008286Y012653D01*
X008424Y012653D01*
X008552Y012600D01*
X008637Y012515D01*
X008654Y012515D01*
X008654Y012667D01*
X008748Y012760D01*
X009393Y012760D01*
X009405Y012748D01*
X009417Y012760D01*
X010062Y012760D01*
X010156Y012667D01*
X010156Y012523D01*
X010191Y012508D01*
X011427Y011273D01*
X011428Y011276D01*
X011462Y011309D01*
X011503Y011333D01*
X011549Y011345D01*
X011730Y011345D01*
X011730Y010988D01*
X011730Y010631D01*
X011911Y010631D01*
X011957Y010643D01*
X011998Y010667D01*
X012032Y010700D01*
X012055Y010741D01*
X012067Y010787D01*
X012067Y010988D01*
X011730Y010988D01*
X011730Y010988D01*
X011730Y010631D01*
X011595Y010631D01*
X011595Y010483D01*
X011673Y010405D01*
X011673Y009918D01*
X011580Y009824D01*
X011325Y009824D01*
X011466Y009683D01*
X011533Y009616D01*
X011570Y009528D01*
X011570Y009245D01*
X011705Y009245D01*
X011705Y008888D01*
X011705Y008531D01*
X011886Y008531D01*
X011932Y008543D01*
X011973Y008567D01*
X012007Y008600D01*
X012030Y008641D01*
X012042Y008687D01*
X012042Y008888D01*
X011705Y008888D01*
X011705Y008888D01*
X011705Y008531D01*
X011570Y008531D01*
X011570Y008383D01*
X011648Y008305D01*
X011648Y007818D01*
X011555Y007724D01*
X011275Y007724D01*
X011416Y007583D01*
X011483Y007516D01*
X011520Y007428D01*
X011520Y007394D01*
X011524Y007395D01*
X011705Y007395D01*
X011705Y007038D01*
X011705Y006681D01*
X011886Y006681D01*
X011932Y006693D01*
X011973Y006717D01*
X012007Y006750D01*
X012030Y006791D01*
X012042Y006837D01*
X012582Y006837D01*
X012582Y006842D02*
X012582Y006703D01*
X012635Y006575D01*
X012650Y006560D01*
X012598Y006560D01*
X012504Y006467D01*
X012504Y005747D01*
X012340Y005911D01*
X012396Y005968D01*
X012396Y006455D01*
X012303Y006548D01*
X011855Y006548D01*
X011762Y006455D01*
X011762Y005968D01*
X011839Y005890D01*
X011839Y005785D01*
X011876Y005697D01*
X012492Y005081D01*
X012559Y005014D01*
X012647Y004977D01*
X013699Y004977D01*
X013787Y005014D01*
X014473Y005699D01*
X014845Y005699D01*
X014990Y005759D01*
X015102Y005871D01*
X015162Y006017D01*
X015162Y006174D01*
X015102Y006320D01*
X014990Y006431D01*
X014845Y006492D01*
X014265Y006492D01*
X014473Y006699D01*
X014845Y006699D01*
X014990Y006759D01*
X015102Y006871D01*
X015162Y007017D01*
X015162Y007174D01*
X015102Y007320D01*
X014990Y007431D01*
X014845Y007492D01*
X014215Y007492D01*
X014069Y007431D01*
X013957Y007320D01*
X013897Y007174D01*
X013897Y007017D01*
X013957Y006871D01*
X013962Y006867D01*
X013655Y006560D01*
X013267Y006560D01*
X013255Y006548D01*
X013243Y006560D01*
X013210Y006560D01*
X013225Y006575D01*
X013278Y006703D01*
X013278Y006842D01*
X013225Y006970D01*
X013127Y007067D01*
X012999Y007120D01*
X012861Y007120D01*
X012733Y007067D01*
X012635Y006970D01*
X012582Y006842D01*
X012592Y006679D02*
X011520Y006679D01*
X011520Y006682D02*
X011524Y006681D01*
X011705Y006681D01*
X011705Y007038D01*
X011705Y007038D01*
X011705Y007038D01*
X012042Y007038D01*
X012042Y006837D01*
X012042Y006996D02*
X012661Y006996D01*
X012042Y007038D02*
X012042Y007239D01*
X012030Y007285D01*
X012007Y007326D01*
X011973Y007359D01*
X011932Y007383D01*
X011886Y007395D01*
X011705Y007395D01*
X011705Y007038D01*
X012042Y007038D01*
X012042Y007154D02*
X013897Y007154D01*
X013906Y006996D02*
X013199Y006996D01*
X013278Y006837D02*
X013932Y006837D01*
X013773Y006679D02*
X013268Y006679D01*
X013590Y006155D02*
X014530Y007095D01*
X014452Y006679D02*
X016438Y006679D01*
X016438Y006837D02*
X015068Y006837D01*
X015153Y006996D02*
X016438Y006996D01*
X016438Y007154D02*
X015162Y007154D01*
X015105Y007313D02*
X016447Y007313D01*
X016438Y007292D02*
X016438Y006185D01*
X016475Y006096D01*
X016542Y006029D01*
X016679Y005892D01*
X016768Y005855D01*
X016973Y005855D01*
X017069Y005759D01*
X017215Y005699D01*
X017845Y005699D01*
X017990Y005759D01*
X018102Y005871D01*
X018162Y006017D01*
X018162Y006174D01*
X018102Y006320D01*
X017990Y006431D01*
X017845Y006492D01*
X017215Y006492D01*
X017069Y006431D01*
X016973Y006335D01*
X016918Y006335D01*
X016918Y006965D01*
X016957Y006871D01*
X017069Y006759D01*
X017215Y006699D01*
X017845Y006699D01*
X017850Y006701D01*
X019899Y004653D01*
X019966Y004585D01*
X020055Y004549D01*
X021290Y004549D01*
X021379Y004585D01*
X022516Y005723D01*
X022583Y005790D01*
X022620Y005878D01*
X022620Y006070D01*
X022696Y006070D01*
X022790Y006164D01*
X022790Y006546D01*
X022731Y006605D01*
X022790Y006664D01*
X022790Y007046D01*
X022731Y007105D01*
X022742Y007116D01*
X022759Y007116D01*
X022814Y007061D01*
X022942Y007008D01*
X023081Y007008D01*
X023209Y007061D01*
X023307Y007159D01*
X023360Y007287D01*
X023360Y007425D01*
X023307Y007553D01*
X023258Y007602D01*
X023311Y007656D01*
X023364Y007784D01*
X023364Y007922D01*
X023311Y008050D01*
X023213Y008148D01*
X023085Y008201D01*
X022947Y008201D01*
X022819Y008148D01*
X022764Y008093D01*
X022743Y008093D01*
X022731Y008105D01*
X022790Y008164D01*
X022790Y008546D01*
X022731Y008605D01*
X022790Y008664D01*
X022790Y009046D01*
X022731Y009105D01*
X022790Y009164D01*
X022790Y009546D01*
X022731Y009605D01*
X022790Y009664D01*
X022790Y010046D01*
X022696Y010140D01*
X022666Y010140D01*
X022666Y011520D01*
X022743Y011552D01*
X022900Y011710D01*
X022986Y011916D01*
X022986Y012138D01*
X022900Y012344D01*
X022743Y012502D01*
X022537Y012587D01*
X022314Y012587D01*
X022108Y012502D01*
X021951Y012344D01*
X021920Y012269D01*
X021920Y015153D01*
X021902Y015197D01*
X021942Y015294D01*
X021942Y015516D01*
X021857Y015722D01*
X021699Y015880D01*
X021493Y015965D01*
X021271Y015965D01*
X021065Y015880D01*
X020907Y015722D01*
X020822Y015516D01*
X020822Y015294D01*
X020907Y015088D01*
X021065Y014930D01*
X021271Y014845D01*
X021440Y014845D01*
X021440Y012521D01*
X021374Y012587D01*
X020441Y012587D01*
X020348Y012493D01*
X020348Y011806D01*
X020261Y011719D01*
X019566Y011719D01*
X019746Y011719D01*
X019840Y011813D01*
X019840Y012997D01*
X019746Y013091D01*
X019415Y013091D01*
X019415Y014820D01*
X019641Y014820D01*
X019735Y014914D01*
X019735Y015846D01*
X019641Y015940D01*
X019579Y015940D01*
X019704Y016065D01*
X022381Y016065D01*
X022481Y015965D01*
X022434Y015965D01*
X022340Y015871D01*
X022340Y014939D01*
X022434Y014845D01*
X023366Y014845D01*
X023460Y014939D01*
X023460Y015871D01*
X023366Y015965D01*
X023130Y015965D01*
X023108Y016016D01*
X023041Y016083D01*
X022616Y016508D01*
X022528Y016545D01*
X019557Y016545D01*
X019469Y016508D01*
X019402Y016441D01*
X019167Y016207D01*
X018866Y016508D01*
X018778Y016545D01*
X015707Y016545D01*
X015619Y016508D01*
X015355Y016244D01*
X015116Y016483D01*
X015028Y016520D01*
X011982Y016520D01*
X011894Y016483D01*
X011544Y016133D01*
X011477Y016066D01*
X011440Y015978D01*
X011440Y015915D01*
X011209Y015915D01*
X011115Y015821D01*
X011115Y014889D01*
X011209Y014795D01*
X012141Y014795D01*
X012235Y014889D01*
X012235Y015821D01*
X012141Y015915D01*
X012004Y015915D01*
X012129Y016040D01*
X014881Y016040D01*
X014956Y015965D01*
X014934Y015965D01*
X014840Y015871D01*
X014840Y014953D01*
X014437Y015281D01*
X014442Y015294D01*
X014442Y015516D01*
X014357Y015722D01*
X014199Y015880D01*
X013993Y015965D01*
X013771Y015965D01*
X013565Y015880D01*
X013407Y015722D01*
X013322Y015516D01*
X013322Y015294D01*
X013407Y015088D01*
X013565Y014930D01*
X013771Y014845D01*
X013993Y014845D01*
X014139Y014905D01*
X014851Y014325D01*
X014851Y014282D01*
X014904Y014154D01*
X015002Y014056D01*
X015130Y014003D01*
X015268Y014003D01*
X015396Y014056D01*
X015494Y014154D01*
X015547Y014282D01*
X015547Y014420D01*
X015494Y014548D01*
X015396Y014646D01*
X015268Y014699D01*
X015152Y014699D01*
X014972Y014845D01*
X015866Y014845D01*
X015960Y014939D01*
X015960Y015871D01*
X015866Y015965D01*
X015754Y015965D01*
X015854Y016065D01*
X018631Y016065D01*
X018756Y015940D01*
X018709Y015940D01*
X018615Y015846D01*
X018615Y014914D01*
X018709Y014820D01*
X018935Y014820D01*
X018935Y013091D01*
X018614Y013091D01*
X018520Y012997D01*
X018520Y012907D01*
X018519Y012908D01*
X018391Y012961D01*
X018313Y012961D01*
X018162Y013112D01*
X018162Y013174D01*
X018102Y013320D01*
X017990Y013431D01*
X017845Y013492D01*
X017215Y013492D01*
X017069Y013431D01*
X016957Y013320D01*
X016897Y013174D01*
X016897Y013017D01*
X016957Y012871D01*
X017069Y012759D01*
X017215Y012699D01*
X017845Y012699D01*
X017881Y012714D01*
X017974Y012621D01*
X017974Y012543D01*
X016288Y012543D01*
X016416Y012490D02*
X016122Y012612D01*
X015803Y012612D01*
X015509Y012490D01*
X015284Y012264D01*
X015162Y011970D01*
X015162Y011651D01*
X015284Y011357D01*
X015509Y011132D01*
X015803Y011010D01*
X016122Y011010D01*
X016416Y011132D01*
X016642Y011357D01*
X016764Y011651D01*
X016764Y011970D01*
X016642Y012264D01*
X016416Y012490D01*
X016522Y012385D02*
X017022Y012385D01*
X017069Y012431D02*
X016957Y012320D01*
X016897Y012174D01*
X016897Y012017D01*
X016957Y011871D01*
X017069Y011759D01*
X017215Y011699D01*
X017586Y011699D01*
X017794Y011492D01*
X017215Y011492D01*
X017069Y011431D01*
X016957Y011320D01*
X016897Y011174D01*
X016897Y011017D01*
X016957Y010871D01*
X017069Y010759D01*
X017215Y010699D01*
X017773Y010699D01*
X017948Y010525D01*
X017948Y010449D01*
X017845Y010492D01*
X017215Y010492D01*
X017069Y010431D01*
X016957Y010320D01*
X016897Y010174D01*
X016897Y010017D01*
X016957Y009871D01*
X017069Y009759D01*
X017215Y009699D01*
X017586Y009699D01*
X017634Y009652D01*
X017713Y009619D01*
X017586Y009492D01*
X017215Y009492D01*
X017069Y009431D01*
X016957Y009320D01*
X016897Y009174D01*
X016897Y009017D01*
X016957Y008871D01*
X017069Y008759D01*
X017215Y008699D01*
X017812Y008699D01*
X017605Y008492D01*
X017215Y008492D01*
X017069Y008431D01*
X016957Y008320D01*
X016897Y008174D01*
X016897Y008017D01*
X016957Y007871D01*
X016962Y007867D01*
X016475Y007380D01*
X016438Y007292D01*
X016566Y007471D02*
X014894Y007471D01*
X014845Y007699D02*
X014990Y007759D01*
X015102Y007871D01*
X015162Y008017D01*
X015162Y008174D01*
X015102Y008320D01*
X014990Y008431D01*
X014845Y008492D01*
X014215Y008492D01*
X014069Y008431D01*
X013957Y008320D01*
X013950Y008301D01*
X013243Y008301D01*
X013278Y008386D01*
X013278Y008524D01*
X013226Y008650D01*
X013256Y008650D01*
X013269Y008662D01*
X013281Y008650D01*
X013926Y008650D01*
X014019Y008743D01*
X014019Y008809D01*
X014069Y008759D01*
X014215Y008699D01*
X014845Y008699D01*
X014990Y008759D01*
X015102Y008871D01*
X015162Y009017D01*
X015162Y009174D01*
X015102Y009320D01*
X014990Y009431D01*
X014845Y009492D01*
X014215Y009492D01*
X014069Y009431D01*
X014019Y009382D01*
X014019Y009467D01*
X013926Y009560D01*
X013281Y009560D01*
X013269Y009548D01*
X013256Y009560D01*
X013203Y009560D01*
X013203Y009931D01*
X013227Y009874D01*
X013325Y009776D01*
X013453Y009723D01*
X013591Y009723D01*
X013719Y009776D01*
X013774Y009832D01*
X013997Y009832D01*
X014069Y009759D01*
X014215Y009699D01*
X014845Y009699D01*
X014990Y009759D01*
X015102Y009871D01*
X015162Y010017D01*
X015162Y010174D01*
X015102Y010320D01*
X014990Y010431D01*
X014845Y010492D01*
X014215Y010492D01*
X014069Y010431D01*
X013957Y010320D01*
X013954Y010312D01*
X013774Y010312D01*
X013719Y010367D01*
X013591Y010420D01*
X013453Y010420D01*
X013325Y010367D01*
X013227Y010269D01*
X013203Y010212D01*
X013203Y010700D01*
X013216Y010700D01*
X013228Y010712D01*
X013240Y010700D01*
X013885Y010700D01*
X013979Y010793D01*
X013979Y010850D01*
X014069Y010759D01*
X014215Y010699D01*
X014845Y010699D01*
X014990Y010759D01*
X015102Y010871D01*
X015162Y011017D01*
X015162Y011174D01*
X015102Y011320D01*
X014990Y011431D01*
X014845Y011492D01*
X014215Y011492D01*
X014069Y011431D01*
X014033Y011395D01*
X013979Y011395D01*
X013979Y011517D01*
X013885Y011610D01*
X013240Y011610D01*
X013228Y011598D01*
X013216Y011610D01*
X013133Y011610D01*
X013133Y012650D01*
X013216Y012650D01*
X013228Y012662D01*
X013241Y012650D01*
X013885Y012650D01*
X013979Y012743D01*
X013979Y012849D01*
X014069Y012759D01*
X014215Y012699D01*
X014845Y012699D01*
X014990Y012759D01*
X015102Y012871D01*
X015162Y013017D01*
X015162Y013174D01*
X015102Y013320D01*
X014990Y013431D01*
X014845Y013492D01*
X014215Y013492D01*
X014069Y013431D01*
X013983Y013345D01*
X013979Y013345D01*
X013979Y013467D01*
X013885Y013560D01*
X013241Y013560D01*
X013228Y013548D01*
X013216Y013560D01*
X012572Y013560D01*
X012478Y013467D01*
X012478Y012743D01*
X012572Y012650D01*
X012653Y012650D01*
X012653Y011610D01*
X012571Y011610D01*
X012477Y011517D01*
X012477Y010793D01*
X012571Y010700D01*
X012723Y010700D01*
X012723Y010450D01*
X012661Y010476D01*
X012523Y010476D01*
X012401Y010426D01*
X012328Y010498D01*
X011880Y010498D01*
X011787Y010405D01*
X011787Y009918D01*
X011880Y009824D01*
X012328Y009824D01*
X012366Y009862D01*
X012395Y009833D01*
X012523Y009780D01*
X012661Y009780D01*
X012723Y009806D01*
X012723Y009560D01*
X012612Y009560D01*
X012521Y009469D01*
X012475Y009469D01*
X012394Y009550D01*
X012266Y009603D01*
X012127Y009603D01*
X012000Y009550D01*
X011902Y009452D01*
X011849Y009324D01*
X011849Y009245D01*
X011705Y009245D01*
X011705Y008888D01*
X011705Y008888D01*
X012042Y008888D01*
X012042Y008942D01*
X012127Y008907D01*
X012266Y008907D01*
X012394Y008960D01*
X012483Y009049D01*
X012518Y009049D01*
X012518Y008743D01*
X012612Y008650D01*
X012634Y008650D01*
X012582Y008524D01*
X012582Y008386D01*
X012617Y008301D01*
X012396Y008301D01*
X012396Y008305D01*
X012303Y008398D01*
X011855Y008398D01*
X011762Y008305D01*
X011762Y007818D01*
X011855Y007724D01*
X012303Y007724D01*
X012396Y007818D01*
X012396Y007821D01*
X014007Y007821D01*
X014069Y007759D01*
X014215Y007699D01*
X014845Y007699D01*
X015019Y007788D02*
X016883Y007788D01*
X016926Y007947D02*
X015133Y007947D01*
X015162Y008105D02*
X016897Y008105D01*
X016934Y008264D02*
X015125Y008264D01*
X015000Y008422D02*
X017060Y008422D01*
X017118Y008739D02*
X014941Y008739D01*
X015113Y008898D02*
X016946Y008898D01*
X016897Y009056D02*
X015162Y009056D01*
X015145Y009215D02*
X016914Y009215D01*
X017011Y009373D02*
X015049Y009373D01*
X014530Y009095D02*
X014520Y009105D01*
X013603Y009105D01*
X013954Y009532D02*
X017626Y009532D01*
X017596Y009690D02*
X013203Y009690D01*
X013203Y009849D02*
X013253Y009849D01*
X013522Y010072D02*
X014530Y010072D01*
X014530Y010095D01*
X014867Y010483D02*
X017193Y010483D01*
X016962Y010324D02*
X015098Y010324D01*
X015162Y010166D02*
X016897Y010166D01*
X016901Y010007D02*
X015158Y010007D01*
X015079Y009849D02*
X016980Y009849D01*
X017530Y010095D02*
X017770Y009855D01*
X018905Y009855D01*
X018905Y010720D01*
X017530Y012095D01*
X018870Y012095D01*
X019180Y012405D01*
X019175Y012410D01*
X019035Y012410D01*
X019175Y012410D02*
X019175Y015380D01*
X019175Y015860D01*
X019155Y015880D01*
X019180Y015880D01*
X019605Y016305D01*
X022480Y016305D01*
X022905Y015880D01*
X022905Y015410D01*
X022900Y015405D01*
X023460Y015396D02*
X023600Y015396D01*
X023600Y015238D02*
X023460Y015238D01*
X023460Y015079D02*
X023600Y015079D01*
X023600Y014921D02*
X023442Y014921D01*
X023600Y014762D02*
X021920Y014762D01*
X021920Y014604D02*
X023600Y014604D01*
X023600Y014445D02*
X021920Y014445D01*
X021920Y014287D02*
X023600Y014287D01*
X023600Y014128D02*
X021920Y014128D01*
X021920Y013970D02*
X023600Y013970D01*
X023600Y013811D02*
X021920Y013811D01*
X021920Y013653D02*
X023600Y013653D01*
X023600Y013494D02*
X021920Y013494D01*
X021920Y013336D02*
X023600Y013336D01*
X023600Y013177D02*
X021920Y013177D01*
X021920Y013019D02*
X023600Y013019D01*
X023600Y012860D02*
X021920Y012860D01*
X021920Y012702D02*
X023600Y012702D01*
X023600Y012543D02*
X022643Y012543D01*
X022860Y012385D02*
X023600Y012385D01*
X023600Y012226D02*
X022949Y012226D01*
X022986Y012068D02*
X023600Y012068D01*
X023600Y011909D02*
X022983Y011909D01*
X022917Y011751D02*
X023600Y011751D01*
X023600Y011592D02*
X022783Y011592D01*
X022666Y011434D02*
X023600Y011434D01*
X023600Y011275D02*
X022666Y011275D01*
X022666Y011117D02*
X023600Y011117D01*
X023600Y010958D02*
X022666Y010958D01*
X022666Y010800D02*
X023600Y010800D01*
X023600Y010641D02*
X022666Y010641D01*
X022666Y010483D02*
X023600Y010483D01*
X023600Y010324D02*
X022666Y010324D01*
X022666Y010166D02*
X023600Y010166D01*
X023600Y010007D02*
X022790Y010007D01*
X022790Y009849D02*
X023600Y009849D01*
X023600Y009690D02*
X022790Y009690D01*
X022790Y009532D02*
X023600Y009532D01*
X023600Y009373D02*
X022790Y009373D01*
X022790Y009215D02*
X023600Y009215D01*
X023600Y009056D02*
X022780Y009056D01*
X022790Y008898D02*
X023600Y008898D01*
X023600Y008739D02*
X022790Y008739D01*
X022756Y008581D02*
X023600Y008581D01*
X023600Y008422D02*
X022790Y008422D01*
X022790Y008264D02*
X023600Y008264D01*
X023600Y008105D02*
X023256Y008105D01*
X023354Y007947D02*
X023600Y007947D01*
X023600Y007788D02*
X023364Y007788D01*
X023285Y007630D02*
X023600Y007630D01*
X023600Y007471D02*
X023341Y007471D01*
X023360Y007313D02*
X023600Y007313D01*
X023600Y007154D02*
X023302Y007154D01*
X023600Y006996D02*
X022790Y006996D01*
X022790Y006837D02*
X023600Y006837D01*
X023600Y006679D02*
X022790Y006679D01*
X022790Y006520D02*
X023600Y006520D01*
X023600Y006362D02*
X022790Y006362D01*
X022790Y006203D02*
X023600Y006203D01*
X023600Y006045D02*
X022620Y006045D01*
X022620Y005886D02*
X023600Y005886D01*
X023600Y005728D02*
X022521Y005728D01*
X022362Y005569D02*
X023600Y005569D01*
X023600Y005411D02*
X022204Y005411D01*
X022045Y005252D02*
X023600Y005252D01*
X023600Y005094D02*
X021887Y005094D01*
X021728Y004935D02*
X023600Y004935D01*
X023600Y004777D02*
X021570Y004777D01*
X021411Y004618D02*
X023600Y004618D01*
X023600Y004460D02*
X005079Y004460D01*
X005237Y004618D02*
X019934Y004618D01*
X019775Y004777D02*
X005396Y004777D01*
X005554Y004935D02*
X019617Y004935D01*
X019458Y005094D02*
X013867Y005094D01*
X014026Y005252D02*
X019300Y005252D01*
X019141Y005411D02*
X014184Y005411D01*
X014343Y005569D02*
X018983Y005569D01*
X018824Y005728D02*
X017913Y005728D01*
X018108Y005886D02*
X018666Y005886D01*
X018507Y006045D02*
X018162Y006045D01*
X018150Y006203D02*
X018349Y006203D01*
X018190Y006362D02*
X018060Y006362D01*
X018032Y006520D02*
X016918Y006520D01*
X016918Y006362D02*
X016999Y006362D01*
X016815Y006095D02*
X016678Y006232D01*
X016678Y007244D01*
X017530Y008095D01*
X017548Y008095D01*
X018906Y009454D01*
X018906Y009854D01*
X018905Y009855D01*
X019880Y009855D01*
X019564Y010140D02*
X019519Y010095D01*
X019145Y010095D01*
X019145Y010768D01*
X019108Y010856D01*
X018109Y011855D01*
X018520Y011855D01*
X018520Y011813D01*
X018614Y011719D01*
X018794Y011719D01*
X018770Y011696D01*
X018770Y011263D01*
X018864Y011169D01*
X019496Y011169D01*
X019566Y011239D01*
X020408Y011239D01*
X020496Y011276D01*
X020687Y011467D01*
X021374Y011467D01*
X021440Y011533D01*
X021440Y009229D01*
X020306Y008095D01*
X020241Y008095D01*
X020231Y008105D01*
X020290Y008164D01*
X020290Y008546D01*
X020231Y008605D01*
X020290Y008664D01*
X020290Y009046D01*
X020231Y009105D01*
X020290Y009164D01*
X020290Y009546D01*
X020231Y009605D01*
X020290Y009664D01*
X020290Y010046D01*
X020196Y010140D01*
X019564Y010140D01*
X019145Y010166D02*
X021440Y010166D01*
X021440Y010324D02*
X019145Y010324D01*
X019145Y010483D02*
X021440Y010483D01*
X021440Y010641D02*
X019145Y010641D01*
X019132Y010800D02*
X021440Y010800D01*
X021440Y010958D02*
X019006Y010958D01*
X018848Y011117D02*
X021440Y011117D01*
X021440Y011275D02*
X020494Y011275D01*
X020654Y011434D02*
X021440Y011434D01*
X021920Y011434D02*
X022186Y011434D01*
X022186Y011520D02*
X022186Y010140D01*
X022064Y010140D01*
X021970Y010046D01*
X021970Y009664D01*
X022029Y009605D01*
X021970Y009546D01*
X021970Y009164D01*
X022029Y009105D01*
X021970Y009046D01*
X021970Y008664D01*
X022029Y008605D01*
X021970Y008546D01*
X021970Y008164D01*
X022029Y008105D01*
X021970Y008046D01*
X021970Y007664D01*
X022029Y007605D01*
X021970Y007546D01*
X021970Y007164D01*
X022029Y007105D01*
X022019Y007095D01*
X021432Y007095D01*
X021377Y007150D01*
X021249Y007203D01*
X021111Y007203D01*
X020983Y007150D01*
X020885Y007052D01*
X020832Y006924D01*
X020832Y006786D01*
X020885Y006658D01*
X020983Y006560D01*
X021111Y006507D01*
X021249Y006507D01*
X021377Y006560D01*
X021432Y006615D01*
X022019Y006615D01*
X022029Y006605D01*
X021970Y006546D01*
X021970Y006164D01*
X022064Y006070D01*
X022140Y006070D01*
X022140Y006025D01*
X021143Y005029D01*
X020202Y005029D01*
X019899Y005332D01*
X019949Y005332D01*
X020077Y005385D01*
X020175Y005483D01*
X020228Y005611D01*
X020228Y005749D01*
X020175Y005877D01*
X020120Y005932D01*
X020120Y006070D01*
X020196Y006070D01*
X020290Y006164D01*
X020290Y006546D01*
X020231Y006605D01*
X020290Y006664D01*
X020290Y007046D01*
X020231Y007105D01*
X020290Y007164D01*
X020290Y007546D01*
X020231Y007605D01*
X020241Y007615D01*
X020453Y007615D01*
X020541Y007652D01*
X020608Y007719D01*
X021883Y008994D01*
X021920Y009082D01*
X021920Y011785D01*
X021951Y011710D01*
X022108Y011552D01*
X022186Y011520D01*
X022069Y011592D02*
X021920Y011592D01*
X021920Y011751D02*
X021934Y011751D01*
X022426Y012027D02*
X022426Y009901D01*
X022380Y009855D01*
X022401Y009876D01*
X021970Y009849D02*
X021920Y009849D01*
X021920Y010007D02*
X021970Y010007D01*
X021920Y010166D02*
X022186Y010166D01*
X022186Y010324D02*
X021920Y010324D01*
X021920Y010483D02*
X022186Y010483D01*
X022186Y010641D02*
X021920Y010641D01*
X021920Y010800D02*
X022186Y010800D01*
X022186Y010958D02*
X021920Y010958D01*
X021920Y011117D02*
X022186Y011117D01*
X022186Y011275D02*
X021920Y011275D01*
X020908Y012027D02*
X020360Y011479D01*
X019180Y011479D01*
X018770Y011434D02*
X018531Y011434D01*
X018372Y011592D02*
X018770Y011592D01*
X018583Y011751D02*
X018214Y011751D01*
X017694Y011592D02*
X016739Y011592D01*
X016764Y011751D02*
X017091Y011751D01*
X016942Y011909D02*
X016764Y011909D01*
X016723Y012068D02*
X016897Y012068D01*
X016919Y012226D02*
X016658Y012226D01*
X017069Y012431D02*
X017215Y012492D01*
X017845Y012492D01*
X017990Y012431D01*
X018086Y012335D01*
X018107Y012335D01*
X018027Y012415D01*
X017974Y012543D01*
X018037Y012385D02*
X018058Y012385D01*
X018322Y012613D02*
X017839Y013095D01*
X017530Y013095D01*
X017850Y012702D02*
X017893Y012702D01*
X018255Y013019D02*
X018542Y013019D01*
X018161Y013177D02*
X018935Y013177D01*
X018935Y013336D02*
X018086Y013336D01*
X018935Y013494D02*
X013952Y013494D01*
X013563Y013105D02*
X014530Y013105D01*
X014530Y013095D01*
X014850Y012702D02*
X017209Y012702D01*
X016968Y012860D02*
X015091Y012860D01*
X015162Y013019D02*
X016897Y013019D01*
X016898Y013177D02*
X015161Y013177D01*
X015086Y013336D02*
X016973Y013336D01*
X016874Y013954D02*
X016735Y013954D01*
X016607Y014007D01*
X016509Y014105D01*
X016456Y014233D01*
X016456Y014372D01*
X016509Y014500D01*
X016607Y014598D01*
X016735Y014651D01*
X016874Y014651D01*
X016937Y014624D01*
X017417Y014838D01*
X017417Y014873D01*
X017340Y014905D01*
X017182Y015063D01*
X017097Y015269D01*
X017097Y015491D01*
X017182Y015697D01*
X017340Y015855D01*
X017546Y015940D01*
X017768Y015940D01*
X017974Y015855D01*
X018132Y015697D01*
X018217Y015491D01*
X018217Y015269D01*
X018132Y015063D01*
X017974Y014905D01*
X017897Y014873D01*
X017897Y014685D01*
X017898Y014641D01*
X017897Y014638D01*
X017897Y014634D01*
X017880Y014593D01*
X017864Y014551D01*
X017862Y014549D01*
X017861Y014546D01*
X017829Y014515D01*
X017798Y014482D01*
X017795Y014481D01*
X017793Y014479D01*
X017752Y014462D01*
X017133Y014186D01*
X017100Y014105D01*
X017002Y014007D01*
X016874Y013954D01*
X016910Y013970D02*
X018935Y013970D01*
X018935Y014128D02*
X017109Y014128D01*
X017359Y014287D02*
X018935Y014287D01*
X018935Y014445D02*
X017715Y014445D01*
X017884Y014604D02*
X018935Y014604D01*
X018935Y014762D02*
X017897Y014762D01*
X017990Y014921D02*
X018615Y014921D01*
X018615Y015079D02*
X018139Y015079D01*
X018204Y015238D02*
X018615Y015238D01*
X018615Y015396D02*
X018217Y015396D01*
X018191Y015555D02*
X018615Y015555D01*
X018615Y015713D02*
X018116Y015713D01*
X017934Y015872D02*
X018640Y015872D01*
X018666Y016030D02*
X015819Y016030D01*
X015960Y015872D02*
X017380Y015872D01*
X017198Y015713D02*
X015960Y015713D01*
X015960Y015555D02*
X017123Y015555D01*
X017097Y015396D02*
X015960Y015396D01*
X015960Y015238D02*
X017110Y015238D01*
X017176Y015079D02*
X015960Y015079D01*
X015942Y014921D02*
X017325Y014921D01*
X017247Y014762D02*
X015074Y014762D01*
X014840Y015079D02*
X014685Y015079D01*
X014840Y015238D02*
X014491Y015238D01*
X014442Y015396D02*
X014840Y015396D01*
X014840Y015555D02*
X014426Y015555D01*
X014361Y015713D02*
X014840Y015713D01*
X014840Y015872D02*
X014207Y015872D01*
X013905Y015405D02*
X013882Y015405D01*
X013905Y015405D02*
X015199Y014351D01*
X015439Y014604D02*
X016622Y014604D01*
X016487Y014445D02*
X015537Y014445D01*
X015547Y014287D02*
X016456Y014287D01*
X016500Y014128D02*
X015469Y014128D01*
X014929Y014128D02*
X011229Y014128D01*
X011253Y014186D02*
X011253Y014324D01*
X011200Y014452D01*
X011102Y014550D01*
X010974Y014603D01*
X010896Y014603D01*
X010547Y014953D01*
X010632Y015038D01*
X010717Y015244D01*
X010717Y015466D01*
X010632Y015672D01*
X010474Y015830D01*
X010268Y015915D01*
X010046Y015915D01*
X009840Y015830D01*
X009682Y015672D01*
X009597Y015466D01*
X009597Y015244D01*
X009682Y015038D01*
X009840Y014880D01*
X010011Y014809D01*
X010021Y014799D01*
X010557Y014264D01*
X010557Y014186D01*
X010610Y014058D01*
X010708Y013960D01*
X010836Y013907D01*
X010974Y013907D01*
X011102Y013960D01*
X011200Y014058D01*
X011253Y014186D01*
X011253Y014287D02*
X014851Y014287D01*
X014703Y014445D02*
X011203Y014445D01*
X010896Y014604D02*
X014509Y014604D01*
X014314Y014762D02*
X010737Y014762D01*
X010579Y014921D02*
X011115Y014921D01*
X011115Y015079D02*
X010649Y015079D01*
X010715Y015238D02*
X011115Y015238D01*
X011115Y015396D02*
X010717Y015396D01*
X010681Y015555D02*
X011115Y015555D01*
X011115Y015713D02*
X010591Y015713D01*
X010373Y015872D02*
X011165Y015872D01*
X011462Y016030D02*
X005725Y016030D01*
X005603Y016189D02*
X011599Y016189D01*
X011544Y016133D02*
X011544Y016133D01*
X011680Y015930D02*
X011680Y015360D01*
X011675Y015355D01*
X012235Y015396D02*
X013322Y015396D01*
X013338Y015555D02*
X012235Y015555D01*
X012235Y015713D02*
X013403Y015713D01*
X013557Y015872D02*
X012185Y015872D01*
X012119Y016030D02*
X014891Y016030D01*
X014980Y016280D02*
X012030Y016280D01*
X011680Y015930D01*
X011758Y016347D02*
X005583Y016347D01*
X005472Y016506D02*
X011947Y016506D01*
X012235Y015238D02*
X013345Y015238D01*
X013416Y015079D02*
X012235Y015079D01*
X012235Y014921D02*
X013588Y014921D01*
X012505Y013494D02*
X010313Y013494D01*
X010156Y013651D02*
X010156Y013867D01*
X010062Y013960D01*
X009417Y013960D01*
X009405Y013948D01*
X009393Y013960D01*
X008748Y013960D01*
X008654Y013867D01*
X008654Y013698D01*
X008577Y013775D01*
X008449Y013828D01*
X008311Y013828D01*
X008183Y013775D01*
X008085Y013677D01*
X008032Y013549D01*
X008032Y013411D01*
X008085Y013283D01*
X008183Y013185D01*
X008311Y013132D01*
X008449Y013132D01*
X008577Y013185D01*
X008654Y013262D01*
X008654Y013143D01*
X008748Y013050D01*
X009393Y013050D01*
X009405Y013062D01*
X009417Y013050D01*
X010062Y013050D01*
X010070Y013058D01*
X011039Y012089D01*
X011039Y011868D01*
X011132Y011774D01*
X011580Y011774D01*
X011673Y011868D01*
X011673Y012355D01*
X011580Y012448D01*
X011358Y012448D01*
X010156Y013651D01*
X010156Y013653D02*
X018935Y013653D01*
X018935Y013811D02*
X010156Y013811D01*
X009962Y013505D02*
X011356Y012111D01*
X011673Y012068D02*
X011787Y012068D01*
X011787Y012226D02*
X011673Y012226D01*
X011644Y012385D02*
X011816Y012385D01*
X011787Y012355D02*
X011787Y011868D01*
X011848Y011807D01*
X011805Y011764D01*
X011752Y011636D01*
X011752Y011498D01*
X011805Y011370D01*
X011830Y011345D01*
X011730Y011345D01*
X011730Y010988D01*
X011730Y010988D01*
X012067Y010988D01*
X012067Y011189D01*
X012060Y011219D01*
X012170Y011219D01*
X012298Y011272D01*
X012396Y011370D01*
X012449Y011498D01*
X012449Y011636D01*
X012396Y011764D01*
X012357Y011803D01*
X012421Y011868D01*
X012421Y012355D01*
X012328Y012448D01*
X011880Y012448D01*
X011787Y012355D01*
X011730Y012581D02*
X011911Y012581D01*
X011957Y012593D01*
X011998Y012617D01*
X012032Y012650D01*
X012055Y012691D01*
X012067Y012737D01*
X012067Y012938D01*
X011730Y012938D01*
X011730Y012581D01*
X011730Y012938D01*
X011730Y012938D01*
X011730Y012938D01*
X011393Y012938D01*
X011393Y012737D01*
X011405Y012691D01*
X011428Y012650D01*
X011462Y012617D01*
X011503Y012593D01*
X011549Y012581D01*
X011730Y012581D01*
X011730Y012702D02*
X011730Y012702D01*
X011730Y012860D02*
X011730Y012860D01*
X011730Y012938D02*
X011730Y012938D01*
X012067Y012938D01*
X012067Y013139D01*
X012055Y013185D01*
X012032Y013226D01*
X011998Y013259D01*
X011957Y013283D01*
X011911Y013295D01*
X011730Y013295D01*
X011549Y013295D01*
X011503Y013283D01*
X011462Y013259D01*
X011428Y013226D01*
X011405Y013185D01*
X011393Y013139D01*
X011393Y012938D01*
X011730Y012938D01*
X011730Y013295D01*
X011730Y012938D01*
X011730Y012938D01*
X011730Y013019D02*
X011730Y013019D01*
X011730Y013177D02*
X011730Y013177D01*
X012057Y013177D02*
X012478Y013177D01*
X012478Y013019D02*
X012067Y013019D01*
X012067Y012860D02*
X012478Y012860D01*
X012520Y012702D02*
X012058Y012702D01*
X012392Y012385D02*
X012653Y012385D01*
X012653Y012543D02*
X011264Y012543D01*
X011402Y012702D02*
X011105Y012702D01*
X010947Y012860D02*
X011393Y012860D01*
X011393Y013019D02*
X010788Y013019D01*
X010630Y013177D02*
X011403Y013177D01*
X011112Y013970D02*
X016699Y013970D01*
X016805Y014303D02*
X017657Y014682D01*
X017657Y015380D01*
X018730Y016305D02*
X019155Y015880D01*
X019155Y015400D01*
X019175Y015380D01*
X019735Y015396D02*
X020822Y015396D01*
X020838Y015555D02*
X019735Y015555D01*
X019735Y015713D02*
X020903Y015713D01*
X021057Y015872D02*
X019710Y015872D01*
X019669Y016030D02*
X022416Y016030D01*
X022340Y015872D02*
X021707Y015872D01*
X021861Y015713D02*
X022340Y015713D01*
X022340Y015555D02*
X021926Y015555D01*
X021942Y015396D02*
X022340Y015396D01*
X022340Y015238D02*
X021919Y015238D01*
X021920Y015079D02*
X022340Y015079D01*
X022358Y014921D02*
X021920Y014921D01*
X021680Y015105D02*
X021680Y009130D01*
X020405Y007855D01*
X019880Y007855D01*
X019470Y007788D02*
X019439Y007788D01*
X019465Y007762D02*
X019367Y007860D01*
X019239Y007913D01*
X019100Y007913D01*
X018972Y007860D01*
X018875Y007762D01*
X018822Y007634D01*
X018822Y007496D01*
X018875Y007368D01*
X018972Y007270D01*
X019100Y007217D01*
X019239Y007217D01*
X019348Y007262D01*
X019470Y007226D01*
X019470Y007164D01*
X019529Y007105D01*
X019494Y007070D01*
X019307Y007070D01*
X019252Y007125D01*
X019124Y007178D01*
X018986Y007178D01*
X018858Y007125D01*
X018760Y007027D01*
X018707Y006899D01*
X018707Y006761D01*
X018760Y006633D01*
X018858Y006535D01*
X018986Y006482D01*
X019124Y006482D01*
X019252Y006535D01*
X019307Y006590D01*
X019514Y006590D01*
X019470Y006546D01*
X019470Y006164D01*
X019564Y006070D01*
X019640Y006070D01*
X019640Y005932D01*
X019585Y005877D01*
X019532Y005749D01*
X019532Y005699D01*
X018162Y007068D01*
X018162Y007174D01*
X018102Y007320D01*
X017990Y007431D01*
X017845Y007492D01*
X017265Y007492D01*
X017473Y007699D01*
X017845Y007699D01*
X017990Y007759D01*
X018102Y007871D01*
X018162Y008017D01*
X018162Y008174D01*
X018105Y008313D01*
X019042Y009250D01*
X019109Y009318D01*
X019146Y009406D01*
X019146Y009615D01*
X019519Y009615D01*
X019529Y009605D01*
X019470Y009546D01*
X019470Y009164D01*
X019529Y009105D01*
X019470Y009046D01*
X019470Y008664D01*
X019529Y008605D01*
X019470Y008546D01*
X019470Y008164D01*
X019529Y008105D01*
X019470Y008046D01*
X019470Y007750D01*
X019465Y007762D01*
X019470Y007947D02*
X018133Y007947D01*
X018162Y008105D02*
X019529Y008105D01*
X019470Y008264D02*
X018125Y008264D01*
X018214Y008422D02*
X019470Y008422D01*
X019504Y008581D02*
X018372Y008581D01*
X018531Y008739D02*
X019470Y008739D01*
X019470Y008898D02*
X018689Y008898D01*
X018848Y009056D02*
X019480Y009056D01*
X019470Y009215D02*
X019006Y009215D01*
X019132Y009373D02*
X019470Y009373D01*
X019470Y009532D02*
X019146Y009532D01*
X018233Y009445D02*
X017879Y009445D01*
X017530Y009095D01*
X017693Y008581D02*
X013255Y008581D01*
X013278Y008422D02*
X014060Y008422D01*
X014015Y008739D02*
X014118Y008739D01*
X014686Y008061D02*
X012079Y008061D01*
X011762Y008105D02*
X011648Y008105D01*
X011648Y007947D02*
X011762Y007947D01*
X011791Y007788D02*
X011619Y007788D01*
X011370Y007630D02*
X016724Y007630D01*
X017403Y007630D02*
X018822Y007630D01*
X018832Y007471D02*
X017894Y007471D01*
X018105Y007313D02*
X018930Y007313D01*
X018928Y007154D02*
X018162Y007154D01*
X018235Y006996D02*
X018747Y006996D01*
X018707Y006837D02*
X018394Y006837D01*
X018552Y006679D02*
X018741Y006679D01*
X018711Y006520D02*
X018894Y006520D01*
X018869Y006362D02*
X019470Y006362D01*
X019470Y006520D02*
X019216Y006520D01*
X019055Y006830D02*
X019855Y006830D01*
X019880Y006855D01*
X020290Y006837D02*
X020832Y006837D01*
X020861Y006996D02*
X020290Y006996D01*
X020280Y007154D02*
X020992Y007154D01*
X021180Y006855D02*
X022380Y006855D01*
X021980Y007154D02*
X021368Y007154D01*
X020876Y006679D02*
X020290Y006679D01*
X020290Y006520D02*
X021079Y006520D01*
X021281Y006520D02*
X021970Y006520D01*
X021970Y006362D02*
X020290Y006362D01*
X020290Y006203D02*
X021970Y006203D01*
X022140Y006045D02*
X020120Y006045D01*
X020166Y005886D02*
X022001Y005886D01*
X021842Y005728D02*
X020228Y005728D01*
X020211Y005569D02*
X021684Y005569D01*
X021525Y005411D02*
X020103Y005411D01*
X019979Y005252D02*
X021367Y005252D01*
X021208Y005094D02*
X020137Y005094D01*
X020102Y004789D02*
X021243Y004789D01*
X022380Y005926D01*
X022380Y006355D01*
X021970Y007313D02*
X020290Y007313D01*
X020290Y007471D02*
X021970Y007471D01*
X022004Y007630D02*
X020488Y007630D01*
X020677Y007788D02*
X021970Y007788D01*
X021970Y007947D02*
X020836Y007947D01*
X020994Y008105D02*
X022029Y008105D01*
X021970Y008264D02*
X021153Y008264D01*
X021311Y008422D02*
X021970Y008422D01*
X022004Y008581D02*
X021470Y008581D01*
X021628Y008739D02*
X021970Y008739D01*
X021970Y008898D02*
X021787Y008898D01*
X021909Y009056D02*
X021980Y009056D01*
X021970Y009215D02*
X021920Y009215D01*
X021920Y009373D02*
X021970Y009373D01*
X021970Y009532D02*
X021920Y009532D01*
X021920Y009690D02*
X021970Y009690D01*
X021440Y009690D02*
X020290Y009690D01*
X020290Y009532D02*
X021440Y009532D01*
X021440Y009373D02*
X020290Y009373D01*
X020290Y009215D02*
X021425Y009215D01*
X021267Y009056D02*
X020280Y009056D01*
X020290Y008898D02*
X021108Y008898D01*
X020950Y008739D02*
X020290Y008739D01*
X020256Y008581D02*
X020791Y008581D01*
X020633Y008422D02*
X020290Y008422D01*
X020290Y008264D02*
X020474Y008264D01*
X020316Y008105D02*
X020231Y008105D01*
X019880Y007355D02*
X019170Y007565D01*
X018900Y007788D02*
X018019Y007788D01*
X017796Y007095D02*
X017530Y007095D01*
X017796Y007095D02*
X020102Y004789D01*
X019880Y005680D02*
X019880Y006355D01*
X019640Y006045D02*
X019186Y006045D01*
X019028Y006203D02*
X019470Y006203D01*
X019345Y005886D02*
X019594Y005886D01*
X019532Y005728D02*
X019503Y005728D01*
X017873Y006679D02*
X016918Y006679D01*
X016918Y006837D02*
X016991Y006837D01*
X016438Y006520D02*
X014294Y006520D01*
X014530Y006095D02*
X013651Y005217D01*
X012695Y005217D01*
X012079Y005833D01*
X012079Y006211D01*
X011762Y006203D02*
X011648Y006203D01*
X011648Y006045D02*
X011762Y006045D01*
X011648Y005968D02*
X011555Y005874D01*
X011107Y005874D01*
X011014Y005968D01*
X011014Y006455D01*
X011040Y006481D01*
X011040Y007281D01*
X010677Y007644D01*
X010640Y007732D01*
X010640Y008856D01*
X010066Y009429D01*
X010062Y009425D01*
X009417Y009425D01*
X009405Y009437D01*
X009393Y009425D01*
X008999Y009425D01*
X009886Y008537D01*
X010009Y008414D01*
X010009Y007729D01*
X010033Y007735D01*
X010195Y007735D01*
X010195Y007201D01*
X010195Y007201D01*
X010513Y007201D01*
X010513Y006823D01*
X010500Y006777D01*
X010477Y006736D01*
X010443Y006703D01*
X010402Y006679D01*
X010356Y006667D01*
X010195Y006667D01*
X010195Y007201D01*
X010513Y007201D01*
X010513Y007579D01*
X010500Y007625D01*
X010477Y007666D01*
X010443Y007699D01*
X010402Y007723D01*
X010356Y007735D01*
X010195Y007735D01*
X010195Y007201D01*
X010195Y007201D01*
X010195Y007201D01*
X010195Y006667D01*
X010033Y006667D01*
X009988Y006679D01*
X009974Y006687D01*
X008289Y006687D01*
X008276Y006679D01*
X008230Y006667D01*
X008049Y006667D01*
X008049Y007201D01*
X008049Y007201D01*
X008049Y006667D01*
X007868Y006667D01*
X007822Y006679D01*
X007809Y006687D01*
X007010Y006687D01*
X007010Y006442D01*
X006973Y006354D01*
X003580Y002961D01*
X003580Y002550D01*
X003270Y002240D01*
X003265Y002240D01*
X003265Y001443D01*
X003142Y001320D01*
X002817Y000995D01*
X001293Y000995D01*
X001170Y001118D01*
X000800Y001488D01*
X000800Y000796D01*
X000806Y000760D01*
X000800Y000814D02*
X004736Y000814D01*
X004736Y000656D02*
X000880Y000656D01*
X000800Y000973D02*
X004736Y000973D01*
X004736Y001131D02*
X002953Y001131D01*
X003111Y001290D02*
X004736Y001290D01*
X004736Y001607D02*
X003265Y001607D01*
X003265Y001765D02*
X004736Y001765D01*
X004736Y001924D02*
X003265Y001924D01*
X003265Y002082D02*
X004736Y002082D01*
X004736Y002241D02*
X003270Y002241D01*
X003429Y002399D02*
X004736Y002399D01*
X004745Y002558D02*
X003580Y002558D01*
X003580Y002716D02*
X006945Y002716D01*
X006944Y002875D02*
X003580Y002875D01*
X003652Y003033D02*
X006466Y003033D01*
X006464Y003037D02*
X006488Y002996D01*
X006521Y002963D01*
X006562Y002939D01*
X006608Y002927D01*
X006770Y002927D01*
X006770Y003461D01*
X006770Y003461D01*
X006770Y003995D01*
X006608Y003995D01*
X006562Y003983D01*
X006521Y003959D01*
X006488Y003926D01*
X006464Y003885D01*
X006452Y003839D01*
X006452Y003461D01*
X006770Y003461D01*
X006770Y003461D01*
X006452Y003461D01*
X006452Y003083D01*
X006464Y003037D01*
X006452Y003192D02*
X003811Y003192D01*
X003969Y003350D02*
X006452Y003350D01*
X006452Y003509D02*
X004128Y003509D01*
X004286Y003667D02*
X006452Y003667D01*
X006452Y003826D02*
X004445Y003826D01*
X004603Y003984D02*
X006566Y003984D01*
X006770Y003984D02*
X006770Y003984D01*
X006770Y003826D02*
X006770Y003826D01*
X006770Y003667D02*
X006770Y003667D01*
X006770Y003509D02*
X006770Y003509D01*
X006770Y003350D02*
X006770Y003350D01*
X006770Y003192D02*
X006770Y003192D01*
X006770Y003033D02*
X006770Y003033D01*
X007183Y003461D02*
X007187Y001607D01*
X007180Y001517D01*
X008448Y001607D02*
X008608Y001607D01*
X008608Y001765D02*
X008448Y001765D01*
X008448Y001924D02*
X008608Y001924D01*
X008608Y002082D02*
X008448Y002082D01*
X008448Y002241D02*
X008608Y002241D01*
X008608Y002399D02*
X008448Y002399D01*
X008448Y002558D02*
X008608Y002558D01*
X009615Y002558D02*
X023600Y002558D01*
X023600Y002716D02*
X007425Y002716D01*
X007424Y002875D02*
X023600Y002875D01*
X023600Y003033D02*
X010485Y003033D01*
X010493Y003192D02*
X023600Y003192D01*
X023600Y003350D02*
X010493Y003350D01*
X010493Y003509D02*
X023600Y003509D01*
X023600Y003667D02*
X010493Y003667D01*
X010493Y003826D02*
X023600Y003826D01*
X023600Y003984D02*
X007839Y003984D01*
X007616Y003984D02*
X007616Y003984D01*
X007616Y003826D02*
X007616Y003826D01*
X007616Y003667D02*
X007616Y003667D01*
X007616Y003509D02*
X007616Y003509D01*
X007616Y003350D02*
X007616Y003350D01*
X007616Y003192D02*
X007616Y003192D01*
X007616Y003033D02*
X007616Y003033D01*
X007393Y003984D02*
X006973Y003984D01*
X005713Y005094D02*
X012479Y005094D01*
X012321Y005252D02*
X005871Y005252D01*
X006030Y005411D02*
X012162Y005411D01*
X012004Y005569D02*
X006188Y005569D01*
X006347Y005728D02*
X011863Y005728D01*
X011839Y005886D02*
X011567Y005886D01*
X011648Y005968D02*
X011648Y006455D01*
X011555Y006548D01*
X011520Y006548D01*
X011520Y006682D01*
X011583Y006520D02*
X011827Y006520D01*
X011762Y006362D02*
X011648Y006362D01*
X011331Y006211D02*
X011280Y006262D01*
X011280Y007380D01*
X010880Y007780D01*
X010880Y008955D01*
X009955Y009880D01*
X009740Y009880D01*
X010123Y009373D02*
X009050Y009373D01*
X009209Y009215D02*
X010281Y009215D01*
X010440Y009056D02*
X009367Y009056D01*
X009526Y008898D02*
X010598Y008898D01*
X010640Y008739D02*
X009684Y008739D01*
X009843Y008581D02*
X010640Y008581D01*
X010640Y008422D02*
X010001Y008422D01*
X010009Y008264D02*
X010640Y008264D01*
X010640Y008105D02*
X010009Y008105D01*
X010009Y007947D02*
X010640Y007947D01*
X010640Y007788D02*
X010009Y007788D01*
X010195Y007630D02*
X010195Y007630D01*
X010195Y007471D02*
X010195Y007471D01*
X010195Y007313D02*
X010195Y007313D01*
X010195Y007154D02*
X010195Y007154D01*
X010195Y006996D02*
X010195Y006996D01*
X010195Y006837D02*
X010195Y006837D01*
X010195Y006679D02*
X010195Y006679D01*
X010400Y006679D02*
X011040Y006679D01*
X011040Y006837D02*
X010513Y006837D01*
X010513Y006996D02*
X011040Y006996D01*
X011040Y007154D02*
X010513Y007154D01*
X010513Y007313D02*
X011008Y007313D01*
X010850Y007471D02*
X010513Y007471D01*
X010498Y007630D02*
X010691Y007630D01*
X011330Y008062D02*
X011331Y008061D01*
X011330Y008062D02*
X011330Y009480D01*
X010955Y009855D01*
X009740Y011080D01*
X010156Y011117D02*
X010904Y011117D01*
X010746Y011275D02*
X010156Y011275D01*
X010156Y011434D02*
X010587Y011434D01*
X010429Y011592D02*
X007863Y011592D01*
X007863Y011682D02*
X007851Y011728D01*
X007827Y011769D01*
X007794Y011803D01*
X007753Y011827D01*
X007707Y011839D01*
X007475Y011839D01*
X007475Y011411D01*
X007863Y011411D01*
X007863Y011682D01*
X007838Y011751D02*
X010270Y011751D01*
X010632Y012068D02*
X011039Y012068D01*
X011039Y011909D02*
X010790Y011909D01*
X010949Y011751D02*
X011800Y011751D01*
X011787Y011909D02*
X011673Y011909D01*
X011752Y011592D02*
X011107Y011592D01*
X011266Y011434D02*
X011779Y011434D01*
X011730Y011275D02*
X011730Y011275D01*
X011730Y011117D02*
X011730Y011117D01*
X011730Y010988D02*
X011730Y010988D01*
X011730Y010958D02*
X011730Y010958D01*
X011730Y010800D02*
X011730Y010800D01*
X011730Y010641D02*
X011730Y010641D01*
X011596Y010483D02*
X011864Y010483D01*
X011787Y010324D02*
X011673Y010324D01*
X011673Y010166D02*
X011787Y010166D01*
X011787Y010007D02*
X011673Y010007D01*
X011604Y009849D02*
X011856Y009849D01*
X011459Y009690D02*
X012723Y009690D01*
X012583Y009532D02*
X012413Y009532D01*
X011981Y009532D02*
X011568Y009532D01*
X011570Y009373D02*
X011869Y009373D01*
X011705Y009215D02*
X011705Y009215D01*
X011705Y009056D02*
X011705Y009056D01*
X011705Y008898D02*
X011705Y008898D01*
X011705Y008888D02*
X011705Y008888D01*
X011705Y008739D02*
X011705Y008739D01*
X011705Y008581D02*
X011705Y008581D01*
X011570Y008422D02*
X012582Y008422D01*
X012605Y008581D02*
X011987Y008581D01*
X012042Y008739D02*
X012523Y008739D01*
X012518Y008898D02*
X012042Y008898D01*
X011762Y008264D02*
X011648Y008264D01*
X012367Y007788D02*
X014040Y007788D01*
X014165Y007471D02*
X011502Y007471D01*
X011705Y007313D02*
X011705Y007313D01*
X011705Y007154D02*
X011705Y007154D01*
X011705Y007038D02*
X011705Y007038D01*
X011705Y006996D02*
X011705Y006996D01*
X011705Y006837D02*
X011705Y006837D01*
X012014Y007313D02*
X013954Y007313D01*
X015060Y006362D02*
X016438Y006362D01*
X016438Y006203D02*
X015150Y006203D01*
X015162Y006045D02*
X016527Y006045D01*
X016694Y005886D02*
X015108Y005886D01*
X014913Y005728D02*
X017146Y005728D01*
X016815Y006095D02*
X017530Y006095D01*
X019182Y007154D02*
X019480Y007154D01*
X022380Y007355D02*
X022381Y007356D01*
X023011Y007356D01*
X023016Y007853D02*
X022382Y007853D01*
X022380Y007855D01*
X022731Y008105D02*
X022776Y008105D01*
X021440Y009849D02*
X020290Y009849D01*
X020290Y010007D02*
X021440Y010007D01*
X020292Y011751D02*
X019777Y011751D01*
X019840Y011909D02*
X020348Y011909D01*
X020348Y012068D02*
X019840Y012068D01*
X019840Y012226D02*
X020348Y012226D01*
X020348Y012385D02*
X019840Y012385D01*
X019840Y012543D02*
X020397Y012543D01*
X019840Y012702D02*
X021440Y012702D01*
X021440Y012860D02*
X019840Y012860D01*
X019818Y013019D02*
X021440Y013019D01*
X021440Y013177D02*
X019415Y013177D01*
X019415Y013336D02*
X021440Y013336D01*
X021440Y013494D02*
X019415Y013494D01*
X019415Y013653D02*
X021440Y013653D01*
X021440Y013811D02*
X019415Y013811D01*
X019415Y013970D02*
X021440Y013970D01*
X021440Y014128D02*
X019415Y014128D01*
X019415Y014287D02*
X021440Y014287D01*
X021440Y014445D02*
X019415Y014445D01*
X019415Y014604D02*
X021440Y014604D01*
X021440Y014762D02*
X019415Y014762D01*
X019735Y014921D02*
X021088Y014921D01*
X020916Y015079D02*
X019735Y015079D01*
X019735Y015238D02*
X020845Y015238D01*
X021382Y015403D02*
X021680Y015105D01*
X021382Y015403D02*
X021382Y015405D01*
X022619Y016506D02*
X023600Y016506D01*
X023596Y016664D02*
X000808Y016664D01*
X000808Y016506D02*
X005038Y016506D01*
X004927Y016347D02*
X003760Y016347D01*
X003918Y016189D02*
X004907Y016189D01*
X004963Y016030D02*
X004077Y016030D01*
X004190Y015872D02*
X004484Y015872D01*
X004429Y015713D02*
X004190Y015713D01*
X004190Y015555D02*
X004429Y015555D01*
X004429Y015396D02*
X004190Y015396D01*
X004190Y015238D02*
X004429Y015238D01*
X004444Y015079D02*
X004190Y015079D01*
X004190Y014921D02*
X004605Y014921D01*
X004429Y014762D02*
X004190Y014762D01*
X004190Y014604D02*
X004429Y014604D01*
X004429Y014445D02*
X004190Y014445D01*
X004190Y014287D02*
X004429Y014287D01*
X004429Y014128D02*
X004190Y014128D01*
X004190Y013970D02*
X004961Y013970D01*
X004932Y013811D02*
X004296Y013811D01*
X004454Y013653D02*
X004977Y013653D01*
X005116Y013177D02*
X005187Y013177D01*
X005169Y013019D02*
X005134Y013019D01*
X005134Y012860D02*
X005169Y012860D01*
X005169Y012702D02*
X005134Y012702D01*
X005124Y012543D02*
X005179Y012543D01*
X004949Y012385D02*
X007105Y012385D01*
X007350Y012385D02*
X007446Y012385D01*
X007446Y012543D02*
X007350Y012543D01*
X007350Y012702D02*
X007446Y012702D01*
X007446Y012860D02*
X010268Y012860D01*
X010121Y012702D02*
X010426Y012702D01*
X010585Y012543D02*
X010156Y012543D01*
X010315Y012385D02*
X010743Y012385D01*
X010902Y012226D02*
X010473Y012226D01*
X010055Y012305D02*
X011355Y011005D01*
X011355Y010162D01*
X011356Y010161D01*
X011039Y010166D02*
X010985Y010166D01*
X011039Y010324D02*
X010828Y010324D01*
X010671Y010483D02*
X011115Y010483D01*
X011115Y010641D02*
X010513Y010641D01*
X010356Y010800D02*
X011115Y010800D01*
X011063Y010958D02*
X010199Y010958D01*
X011424Y011275D02*
X011428Y011275D01*
X012067Y011117D02*
X012477Y011117D01*
X012477Y011275D02*
X012301Y011275D01*
X012422Y011434D02*
X012477Y011434D01*
X012449Y011592D02*
X012553Y011592D01*
X012653Y011751D02*
X012401Y011751D01*
X012421Y011909D02*
X012653Y011909D01*
X012653Y012068D02*
X012421Y012068D01*
X012421Y012226D02*
X012653Y012226D01*
X013133Y012226D02*
X013240Y012226D01*
X013216Y012168D02*
X013216Y012029D01*
X013269Y011901D01*
X013367Y011803D01*
X013495Y011750D01*
X013633Y011750D01*
X013761Y011803D01*
X013819Y011861D01*
X013966Y011862D01*
X014069Y011759D01*
X014215Y011699D01*
X014845Y011699D01*
X014990Y011759D01*
X015102Y011871D01*
X015162Y012017D01*
X015162Y012174D01*
X015102Y012320D01*
X014990Y012431D01*
X014845Y012492D01*
X014215Y012492D01*
X014069Y012431D01*
X013980Y012342D01*
X013814Y012341D01*
X013761Y012393D01*
X013633Y012446D01*
X013495Y012446D01*
X013367Y012393D01*
X013269Y012295D01*
X013216Y012168D01*
X013216Y012068D02*
X013133Y012068D01*
X013133Y011909D02*
X013265Y011909D01*
X013133Y011751D02*
X013494Y011751D01*
X013634Y011751D02*
X014091Y011751D01*
X013903Y011592D02*
X015187Y011592D01*
X015162Y011751D02*
X014969Y011751D01*
X015118Y011909D02*
X015162Y011909D01*
X015162Y012068D02*
X015202Y012068D01*
X015141Y012226D02*
X015268Y012226D01*
X015404Y012385D02*
X015037Y012385D01*
X014530Y012108D02*
X014530Y012095D01*
X014530Y012108D02*
X013564Y012098D01*
X013770Y012385D02*
X014022Y012385D01*
X013937Y012702D02*
X014209Y012702D01*
X013358Y012385D02*
X013133Y012385D01*
X013133Y012543D02*
X015638Y012543D01*
X015252Y011434D02*
X014985Y011434D01*
X015120Y011275D02*
X015366Y011275D01*
X015546Y011117D02*
X015162Y011117D01*
X015138Y010958D02*
X016921Y010958D01*
X016897Y011117D02*
X016379Y011117D01*
X016560Y011275D02*
X016939Y011275D01*
X017074Y011434D02*
X016673Y011434D01*
X017530Y011095D02*
X017716Y011095D01*
X018296Y010516D01*
X017948Y010483D02*
X017867Y010483D01*
X017831Y010641D02*
X013203Y010641D01*
X013203Y010483D02*
X014193Y010483D01*
X013962Y010324D02*
X013762Y010324D01*
X013282Y010324D02*
X013203Y010324D01*
X012723Y010483D02*
X012344Y010483D01*
X012511Y010132D02*
X012104Y010161D01*
X012352Y009849D02*
X012379Y009849D01*
X012511Y010132D02*
X012592Y010128D01*
X012723Y010641D02*
X011949Y010641D01*
X012067Y010800D02*
X012477Y010800D01*
X012477Y010958D02*
X012067Y010958D01*
X012881Y011051D02*
X012919Y011051D01*
X012963Y011007D01*
X012963Y009266D01*
X012934Y009105D01*
X013979Y010800D02*
X014029Y010800D01*
X014530Y011095D02*
X014530Y011155D01*
X013563Y011155D01*
X013979Y011434D02*
X014074Y011434D01*
X015030Y010800D02*
X017029Y010800D01*
X018689Y011275D02*
X018770Y011275D01*
X019566Y011719D02*
X019566Y011719D01*
X021418Y012543D02*
X021440Y012543D01*
X021920Y012543D02*
X022208Y012543D01*
X021991Y012385D02*
X021920Y012385D01*
X023460Y015555D02*
X023600Y015555D01*
X023600Y015713D02*
X023460Y015713D01*
X023460Y015872D02*
X023600Y015872D01*
X023600Y016030D02*
X023094Y016030D01*
X022936Y016189D02*
X023600Y016189D01*
X023600Y016347D02*
X022777Y016347D01*
X023539Y016823D02*
X000808Y016823D01*
X000917Y016981D02*
X023374Y016981D01*
X019466Y016506D02*
X018869Y016506D01*
X019027Y016347D02*
X019308Y016347D01*
X018730Y016305D02*
X015755Y016305D01*
X015380Y015930D01*
X015380Y015880D01*
X014980Y016280D01*
X015063Y016506D02*
X015616Y016506D01*
X015458Y016347D02*
X015252Y016347D01*
X015380Y015880D02*
X015380Y015425D01*
X015400Y015405D01*
X012478Y013336D02*
X010471Y013336D01*
X010109Y013019D02*
X007834Y013019D01*
X007834Y013177D02*
X008202Y013177D01*
X008063Y013336D02*
X006458Y013336D01*
X006616Y013494D02*
X008032Y013494D01*
X008075Y013653D02*
X006775Y013653D01*
X006836Y013811D02*
X008270Y013811D01*
X008490Y013811D02*
X008654Y013811D01*
X008654Y013177D02*
X008558Y013177D01*
X008689Y012702D02*
X007834Y012702D01*
X007834Y012543D02*
X008101Y012543D01*
X008011Y012385D02*
X007691Y012385D01*
X008011Y012226D02*
X004790Y012226D01*
X004632Y012068D02*
X008100Y012068D01*
X008610Y012068D02*
X008654Y012068D01*
X008689Y011909D02*
X004473Y011909D01*
X004440Y011751D02*
X004345Y011751D01*
X004345Y011592D02*
X004348Y011592D01*
X004345Y011434D02*
X004348Y011434D01*
X004345Y011275D02*
X004348Y011275D01*
X004345Y011117D02*
X004348Y011117D01*
X004335Y010958D02*
X004490Y010958D01*
X004490Y010800D02*
X004214Y010800D01*
X004352Y010641D02*
X004055Y010641D01*
X004193Y010483D02*
X003897Y010483D01*
X004035Y010324D02*
X003738Y010324D01*
X003876Y010166D02*
X003580Y010166D01*
X003563Y010007D02*
X003718Y010007D01*
X004079Y009690D02*
X004348Y009690D01*
X004348Y009576D02*
X004430Y009494D01*
X003580Y008644D01*
X003580Y008990D01*
X003479Y009090D01*
X004348Y009959D01*
X004348Y009576D01*
X004392Y009532D02*
X003921Y009532D01*
X003762Y009373D02*
X004309Y009373D01*
X004150Y009215D02*
X003604Y009215D01*
X003514Y009056D02*
X003992Y009056D01*
X003833Y008898D02*
X003580Y008898D01*
X003580Y008739D02*
X003675Y008739D01*
X004036Y008422D02*
X004656Y008422D01*
X004498Y008264D02*
X003878Y008264D01*
X003719Y008105D02*
X004339Y008105D01*
X004181Y007947D02*
X003580Y007947D01*
X003580Y007788D02*
X004022Y007788D01*
X003864Y007630D02*
X003580Y007630D01*
X003050Y007770D02*
X003050Y007775D01*
X004730Y009455D01*
X004730Y009863D01*
X004745Y009878D01*
X005141Y009849D02*
X005175Y009849D01*
X005175Y010007D02*
X005141Y010007D01*
X005141Y010166D02*
X005175Y010166D01*
X004872Y010483D02*
X008860Y010483D01*
X008737Y010324D02*
X007775Y010324D01*
X007856Y010166D02*
X008654Y010166D01*
X008215Y010007D02*
X007856Y010007D01*
X008132Y009849D02*
X007468Y009849D01*
X007468Y010007D02*
X007372Y010007D01*
X007372Y010166D02*
X007468Y010166D01*
X007468Y010324D02*
X007372Y010324D01*
X007379Y010888D02*
X007148Y010888D01*
X007102Y010900D01*
X007083Y010911D01*
X007080Y010908D01*
X006436Y010908D01*
X006342Y011002D01*
X006342Y011116D01*
X005968Y011116D01*
X005968Y011054D01*
X005874Y010960D01*
X005269Y010960D01*
X005175Y011054D01*
X005175Y011659D01*
X005269Y011752D01*
X005874Y011752D01*
X005968Y011659D01*
X005968Y011596D01*
X006342Y011596D01*
X006342Y011725D01*
X006436Y011819D01*
X007080Y011819D01*
X007083Y011816D01*
X007102Y011827D01*
X007148Y011839D01*
X007379Y011839D01*
X007379Y011411D01*
X007475Y011411D01*
X007475Y011316D01*
X007863Y011316D01*
X007863Y011045D01*
X007851Y010999D01*
X007827Y010958D01*
X008654Y010958D01*
X008654Y010800D02*
X004970Y010800D01*
X004970Y010958D02*
X006386Y010958D01*
X006751Y011356D02*
X006758Y011363D01*
X006751Y011356D02*
X005571Y011356D01*
X005175Y011434D02*
X005141Y011434D01*
X005141Y011592D02*
X005175Y011592D01*
X005267Y011751D02*
X005049Y011751D01*
X005141Y011275D02*
X005175Y011275D01*
X005175Y011117D02*
X005141Y011117D01*
X004745Y011356D02*
X004730Y011342D01*
X004730Y010680D01*
X003050Y009000D01*
X003050Y008770D01*
X002030Y008750D02*
X001500Y008750D01*
X001500Y008542D01*
X001786Y008256D01*
X001520Y007990D01*
X001520Y007550D01*
X001800Y007270D01*
X001520Y006990D01*
X001520Y006550D01*
X001800Y006270D01*
X001520Y005990D01*
X001520Y005550D01*
X001786Y005284D01*
X001500Y004998D01*
X001500Y004790D01*
X002030Y004790D01*
X002030Y004750D01*
X001500Y004750D01*
X001500Y004542D01*
X001786Y004256D01*
X001593Y004063D01*
X001593Y004064D01*
X001465Y004117D01*
X001326Y004117D01*
X001198Y004064D01*
X001165Y004031D01*
X001165Y009516D01*
X001204Y009478D01*
X001332Y009425D01*
X001470Y009425D01*
X001594Y009476D01*
X001786Y009284D01*
X001500Y008998D01*
X001500Y008790D01*
X002030Y008790D01*
X002030Y008750D01*
X001620Y008422D02*
X001165Y008422D01*
X001165Y008264D02*
X001779Y008264D01*
X001635Y008105D02*
X001165Y008105D01*
X001165Y007947D02*
X001520Y007947D01*
X001520Y007788D02*
X001165Y007788D01*
X001165Y007630D02*
X001520Y007630D01*
X001599Y007471D02*
X001165Y007471D01*
X001165Y007313D02*
X001758Y007313D01*
X001684Y007154D02*
X001165Y007154D01*
X001165Y006996D02*
X001526Y006996D01*
X001520Y006837D02*
X001165Y006837D01*
X001165Y006679D02*
X001520Y006679D01*
X001550Y006520D02*
X001165Y006520D01*
X001165Y006362D02*
X001709Y006362D01*
X001733Y006203D02*
X001165Y006203D01*
X001165Y006045D02*
X001575Y006045D01*
X001520Y005886D02*
X001165Y005886D01*
X001165Y005728D02*
X001520Y005728D01*
X001520Y005569D02*
X001165Y005569D01*
X001165Y005411D02*
X001660Y005411D01*
X001754Y005252D02*
X001165Y005252D01*
X001165Y005094D02*
X001596Y005094D01*
X001500Y004935D02*
X001165Y004935D01*
X001165Y004777D02*
X002030Y004777D01*
X001583Y004460D02*
X001165Y004460D01*
X001165Y004618D02*
X001500Y004618D01*
X001741Y004301D02*
X001165Y004301D01*
X001165Y004143D02*
X001673Y004143D01*
X001572Y003770D02*
X001395Y003769D01*
X001572Y003770D02*
X002050Y003770D01*
X001720Y003350D02*
X001165Y003350D01*
X001198Y003474D02*
X001326Y003421D01*
X001465Y003421D01*
X001593Y003474D01*
X001595Y003476D01*
X001800Y003270D01*
X001520Y002990D01*
X001520Y002550D01*
X001830Y002240D01*
X002270Y002240D01*
X002550Y002520D01*
X002830Y002240D01*
X002845Y002240D01*
X002845Y001617D01*
X002643Y001415D01*
X001467Y001415D01*
X001165Y001717D01*
X001165Y003507D01*
X001198Y003474D01*
X001165Y003192D02*
X001722Y003192D01*
X001563Y003033D02*
X001165Y003033D01*
X001165Y002875D02*
X001520Y002875D01*
X001520Y002716D02*
X001165Y002716D01*
X001165Y002558D02*
X001520Y002558D01*
X001671Y002399D02*
X001165Y002399D01*
X001165Y002241D02*
X001830Y002241D01*
X002270Y002241D02*
X002830Y002241D01*
X002845Y002082D02*
X001165Y002082D01*
X001165Y001924D02*
X002845Y001924D01*
X002845Y001765D02*
X001165Y001765D01*
X001275Y001607D02*
X002835Y001607D01*
X002676Y001448D02*
X001434Y001448D01*
X000999Y001290D02*
X000800Y001290D01*
X000800Y001448D02*
X000840Y001448D01*
X000800Y001131D02*
X001157Y001131D01*
X002429Y002399D02*
X002671Y002399D01*
X003050Y002770D02*
X006770Y006490D01*
X006770Y007201D01*
X006768Y007628D01*
X005839Y007628D01*
X005616Y007404D01*
X005254Y007027D01*
X004919Y007313D02*
X004774Y007313D01*
X004858Y007251D02*
X004858Y006804D01*
X004951Y006710D01*
X005556Y006710D01*
X005650Y006804D01*
X005650Y007093D01*
X005787Y007236D01*
X005939Y007388D01*
X006472Y007388D01*
X006472Y006780D01*
X006530Y006723D01*
X006530Y006589D01*
X003580Y003639D01*
X003580Y003990D01*
X003573Y003996D01*
X004184Y004607D01*
X004186Y004607D01*
X004324Y004607D01*
X004452Y004660D01*
X004550Y004758D01*
X004603Y004886D01*
X004603Y005024D01*
X004550Y005152D01*
X004452Y005250D01*
X004324Y005303D01*
X004186Y005303D01*
X004058Y005250D01*
X003960Y005152D01*
X003907Y005024D01*
X003907Y004924D01*
X003580Y004597D01*
X003580Y004990D01*
X003573Y004996D01*
X003959Y005382D01*
X003999Y005382D01*
X004127Y005435D01*
X004225Y005533D01*
X004278Y005661D01*
X004278Y005799D01*
X004225Y005927D01*
X004127Y006025D01*
X003999Y006078D01*
X003861Y006078D01*
X003733Y006025D01*
X003635Y005927D01*
X003582Y005799D01*
X003582Y005661D01*
X003600Y005617D01*
X003580Y005597D01*
X003580Y005990D01*
X003510Y006060D01*
X003522Y006060D01*
X006183Y008721D01*
X008583Y008721D01*
X009148Y008155D01*
X009148Y007715D01*
X008289Y007715D01*
X008276Y007723D01*
X008230Y007735D01*
X008049Y007735D01*
X007868Y007735D01*
X007822Y007723D01*
X007809Y007715D01*
X006992Y007715D01*
X006990Y007720D01*
X006972Y007763D01*
X006971Y007764D01*
X006938Y007798D01*
X006904Y007831D01*
X006904Y007831D01*
X006904Y007831D01*
X006860Y007849D01*
X006816Y007867D01*
X006816Y007867D01*
X006815Y007868D01*
X006768Y007867D01*
X005792Y007867D01*
X005703Y007831D01*
X005636Y007763D01*
X005478Y007606D01*
X005476Y007605D01*
X005445Y007572D01*
X005413Y007540D01*
X005412Y007538D01*
X005226Y007345D01*
X004951Y007345D01*
X004858Y007251D01*
X004858Y007154D02*
X004616Y007154D01*
X004457Y006996D02*
X004858Y006996D01*
X004858Y006837D02*
X004299Y006837D01*
X004140Y006679D02*
X006530Y006679D01*
X006472Y006837D02*
X005650Y006837D01*
X005650Y006996D02*
X006472Y006996D01*
X006472Y007154D02*
X005708Y007154D01*
X005864Y007313D02*
X006472Y007313D01*
X006770Y007201D02*
X007183Y007201D01*
X007616Y007201D01*
X008049Y007201D02*
X008049Y007735D01*
X008049Y007201D01*
X008049Y007201D01*
X008049Y007154D02*
X008049Y007154D01*
X008049Y006996D02*
X008049Y006996D01*
X008049Y006837D02*
X008049Y006837D01*
X008049Y006679D02*
X008049Y006679D01*
X007824Y006679D02*
X007010Y006679D01*
X007010Y006520D02*
X011040Y006520D01*
X011014Y006362D02*
X006976Y006362D01*
X006822Y006203D02*
X011014Y006203D01*
X011014Y006045D02*
X006664Y006045D01*
X006505Y005886D02*
X011095Y005886D01*
X012365Y005886D02*
X012504Y005886D01*
X012504Y006045D02*
X012396Y006045D01*
X012396Y006203D02*
X012504Y006203D01*
X012504Y006362D02*
X012396Y006362D01*
X012331Y006520D02*
X012558Y006520D01*
X013590Y006155D02*
X013590Y006105D01*
X009989Y006679D02*
X008274Y006679D01*
X008049Y007313D02*
X008049Y007313D01*
X008049Y007471D02*
X008049Y007471D01*
X008049Y007630D02*
X008049Y007630D01*
X009148Y007788D02*
X006947Y007788D01*
X006971Y007764D02*
X006971Y007764D01*
X005884Y008422D02*
X008881Y008422D01*
X008723Y008581D02*
X006042Y008581D01*
X005766Y008898D02*
X005725Y008898D01*
X005607Y008739D02*
X005567Y008739D01*
X005449Y008581D02*
X005408Y008581D01*
X005290Y008422D02*
X005250Y008422D01*
X005132Y008264D02*
X005091Y008264D01*
X004973Y008105D02*
X004933Y008105D01*
X004815Y007947D02*
X004774Y007947D01*
X004656Y007788D02*
X004616Y007788D01*
X004498Y007630D02*
X004457Y007630D01*
X004339Y007471D02*
X004299Y007471D01*
X004181Y007313D02*
X004140Y007313D01*
X004008Y007181D02*
X005919Y009091D01*
X005960Y009091D01*
X005886Y009018D01*
X003600Y006732D01*
X003600Y006750D01*
X003070Y006750D01*
X003070Y006790D01*
X003600Y006790D01*
X003600Y006998D01*
X003538Y007060D01*
X003709Y007060D01*
X003712Y007058D01*
X003885Y007058D01*
X004008Y007181D01*
X004022Y007154D02*
X003982Y007154D01*
X003864Y006996D02*
X003600Y006996D01*
X003600Y006837D02*
X003705Y006837D01*
X003982Y006520D02*
X004843Y006520D01*
X004838Y006500D02*
X004838Y006319D01*
X005254Y006319D01*
X005254Y006319D01*
X005254Y006656D01*
X005514Y006656D01*
X005559Y006644D01*
X005600Y006620D01*
X005634Y006587D01*
X005658Y006546D01*
X005670Y006500D01*
X005670Y006319D01*
X005254Y006319D01*
X005254Y006319D01*
X005254Y006656D01*
X004994Y006656D01*
X004948Y006644D01*
X004907Y006620D01*
X004873Y006587D01*
X004850Y006546D01*
X004838Y006500D01*
X004838Y006362D02*
X003823Y006362D01*
X003665Y006203D02*
X004838Y006203D01*
X004838Y006137D02*
X004850Y006092D01*
X004873Y006051D01*
X004907Y006017D01*
X004948Y005993D01*
X004994Y005981D01*
X005254Y005981D01*
X005514Y005981D01*
X005559Y005993D01*
X005600Y006017D01*
X005634Y006051D01*
X005658Y006092D01*
X005670Y006137D01*
X005670Y006319D01*
X005254Y006319D01*
X005254Y006319D01*
X005254Y005981D01*
X005254Y006319D01*
X005254Y006319D01*
X004838Y006319D01*
X004838Y006137D01*
X004880Y006045D02*
X004080Y006045D01*
X004242Y005886D02*
X005827Y005886D01*
X005985Y006045D02*
X005628Y006045D01*
X005670Y006203D02*
X006144Y006203D01*
X006302Y006362D02*
X005670Y006362D01*
X005665Y006520D02*
X006461Y006520D01*
X005668Y005728D02*
X004278Y005728D01*
X004240Y005569D02*
X005510Y005569D01*
X005351Y005411D02*
X004068Y005411D01*
X004062Y005252D02*
X003829Y005252D01*
X003936Y005094D02*
X003670Y005094D01*
X003580Y004935D02*
X003907Y004935D01*
X003760Y004777D02*
X003580Y004777D01*
X003580Y004618D02*
X003601Y004618D01*
X003878Y004301D02*
X004242Y004301D01*
X004400Y004460D02*
X004036Y004460D01*
X004351Y004618D02*
X004559Y004618D01*
X004558Y004777D02*
X004717Y004777D01*
X004603Y004935D02*
X004876Y004935D01*
X005034Y005094D02*
X004574Y005094D01*
X004448Y005252D02*
X005193Y005252D01*
X005254Y006045D02*
X005254Y006045D01*
X005254Y006203D02*
X005254Y006203D01*
X005254Y006362D02*
X005254Y006362D01*
X005254Y006520D02*
X005254Y006520D01*
X005347Y007471D02*
X004933Y007471D01*
X005091Y007630D02*
X005502Y007630D01*
X005660Y007788D02*
X005250Y007788D01*
X005408Y007947D02*
X009148Y007947D01*
X009148Y008105D02*
X005567Y008105D01*
X005725Y008264D02*
X009040Y008264D01*
X008236Y009532D02*
X007848Y009532D01*
X007856Y009690D02*
X008140Y009690D01*
X008480Y009780D02*
X008945Y009780D01*
X008732Y010641D02*
X004970Y010641D01*
X004713Y010324D02*
X006419Y010324D01*
X006335Y010166D02*
X005968Y010166D01*
X005571Y009878D02*
X006751Y009878D01*
X006751Y009878D01*
X005607Y009373D02*
X004956Y009373D01*
X004829Y009215D02*
X005449Y009215D01*
X005290Y009056D02*
X004670Y009056D01*
X004512Y008898D02*
X005132Y008898D01*
X004973Y008739D02*
X004353Y008739D01*
X004195Y008581D02*
X004815Y008581D01*
X005097Y009532D02*
X005219Y009532D01*
X005175Y009690D02*
X005141Y009690D01*
X004348Y009849D02*
X004238Y009849D01*
X004105Y011030D02*
X003050Y009975D01*
X003050Y009770D01*
X002050Y009770D02*
X001474Y009770D01*
X001401Y009773D01*
X001165Y009373D02*
X001697Y009373D01*
X001717Y009215D02*
X001165Y009215D01*
X001165Y009056D02*
X001558Y009056D01*
X001500Y008898D02*
X001165Y008898D01*
X001165Y008739D02*
X001500Y008739D01*
X001500Y008581D02*
X001165Y008581D01*
X003580Y010844D02*
X003580Y010990D01*
X003300Y011270D01*
X003580Y011550D01*
X003580Y011990D01*
X003300Y012270D01*
X003580Y012550D01*
X003580Y012990D01*
X003300Y013270D01*
X003580Y013550D01*
X003580Y013990D01*
X003314Y014256D01*
X003600Y014542D01*
X003600Y014750D01*
X003070Y014750D01*
X003070Y014790D01*
X003030Y014790D01*
X003030Y015320D01*
X002822Y015320D01*
X002536Y015034D01*
X002270Y015300D01*
X001830Y015300D01*
X001520Y014990D01*
X001520Y014550D01*
X001800Y014270D01*
X001520Y013990D01*
X001520Y013550D01*
X001800Y013270D01*
X001593Y013063D01*
X001470Y013114D01*
X001331Y013114D01*
X001203Y013061D01*
X001165Y013022D01*
X001165Y015793D01*
X001417Y016045D01*
X003468Y016045D01*
X003770Y015743D01*
X003770Y013743D01*
X003893Y013620D01*
X004293Y013220D01*
X004403Y013220D01*
X004342Y013159D01*
X004342Y012554D01*
X004391Y012505D01*
X003902Y012016D01*
X003865Y011928D01*
X003865Y011129D01*
X003580Y010844D01*
X003580Y010958D02*
X003694Y010958D01*
X003852Y011117D02*
X003453Y011117D01*
X003305Y011275D02*
X003865Y011275D01*
X003865Y011434D02*
X003463Y011434D01*
X003580Y011592D02*
X003865Y011592D01*
X003865Y011751D02*
X003580Y011751D01*
X003580Y011909D02*
X003865Y011909D01*
X003953Y012068D02*
X003502Y012068D01*
X003344Y012226D02*
X004112Y012226D01*
X004270Y012385D02*
X003414Y012385D01*
X003573Y012543D02*
X004353Y012543D01*
X004342Y012702D02*
X003580Y012702D01*
X003580Y012860D02*
X004342Y012860D01*
X004342Y013019D02*
X003551Y013019D01*
X003393Y013177D02*
X004360Y013177D01*
X004177Y013336D02*
X003365Y013336D01*
X003524Y013494D02*
X004019Y013494D01*
X003860Y013653D02*
X003580Y013653D01*
X003580Y013811D02*
X003770Y013811D01*
X003770Y013970D02*
X003580Y013970D01*
X003442Y014128D02*
X003770Y014128D01*
X003770Y014287D02*
X003344Y014287D01*
X003503Y014445D02*
X003770Y014445D01*
X003770Y014604D02*
X003600Y014604D01*
X003600Y014790D02*
X003600Y014998D01*
X003278Y015320D01*
X003070Y015320D01*
X003070Y014790D01*
X003600Y014790D01*
X003600Y014921D02*
X003770Y014921D01*
X003770Y015079D02*
X003519Y015079D01*
X003360Y015238D02*
X003770Y015238D01*
X003770Y015396D02*
X001165Y015396D01*
X001165Y015238D02*
X001768Y015238D01*
X001609Y015079D02*
X001165Y015079D01*
X001165Y014921D02*
X001520Y014921D01*
X001520Y014762D02*
X001165Y014762D01*
X001165Y014604D02*
X001520Y014604D01*
X001625Y014445D02*
X001165Y014445D01*
X001165Y014287D02*
X001784Y014287D01*
X001658Y014128D02*
X001165Y014128D01*
X001165Y013970D02*
X001520Y013970D01*
X001520Y013811D02*
X001165Y013811D01*
X001165Y013653D02*
X001520Y013653D01*
X001576Y013494D02*
X001165Y013494D01*
X001165Y013336D02*
X001735Y013336D01*
X001707Y013177D02*
X001165Y013177D01*
X001165Y012509D02*
X001203Y012470D01*
X001331Y012417D01*
X001470Y012417D01*
X001598Y012470D01*
X001599Y012472D01*
X001786Y012284D01*
X001500Y011998D01*
X001500Y011790D01*
X002030Y011790D01*
X002030Y011750D01*
X001500Y011750D01*
X001500Y011542D01*
X001786Y011256D01*
X001599Y011069D01*
X001473Y011121D01*
X001335Y011121D01*
X001207Y011068D01*
X001165Y011026D01*
X001165Y012509D01*
X001165Y012385D02*
X001686Y012385D01*
X001728Y012226D02*
X001165Y012226D01*
X001165Y012068D02*
X001570Y012068D01*
X001500Y011909D02*
X001165Y011909D01*
X001165Y011751D02*
X002030Y011751D01*
X001609Y011434D02*
X001165Y011434D01*
X001165Y011592D02*
X001500Y011592D01*
X001767Y011275D02*
X001165Y011275D01*
X001165Y011117D02*
X001325Y011117D01*
X001484Y011117D02*
X001647Y011117D01*
X004105Y011030D02*
X004105Y011880D01*
X004780Y012555D01*
X004780Y012848D01*
X004738Y012856D01*
X005565Y012856D02*
X006729Y012856D01*
X006729Y012856D01*
X006313Y012543D02*
X005950Y012543D01*
X005876Y011751D02*
X006367Y011751D01*
X007379Y011751D02*
X007475Y011751D01*
X007475Y011592D02*
X007379Y011592D01*
X007379Y011434D02*
X007475Y011434D01*
X007475Y011316D02*
X007475Y010888D01*
X007707Y010888D01*
X007753Y010900D01*
X007794Y010924D01*
X007827Y010958D01*
X007863Y011117D02*
X008654Y011117D01*
X008654Y011275D02*
X007863Y011275D01*
X007863Y011434D02*
X008654Y011434D01*
X007475Y011316D02*
X007379Y011316D01*
X007379Y010888D01*
X007379Y010958D02*
X007475Y010958D01*
X007475Y011117D02*
X007379Y011117D01*
X007379Y011275D02*
X007475Y011275D01*
X008609Y012543D02*
X008654Y012543D01*
X009740Y012305D02*
X010055Y012305D01*
X009962Y013505D02*
X009740Y013505D01*
X010581Y014128D02*
X007647Y014128D01*
X007636Y014108D02*
X007660Y014149D01*
X007672Y014195D01*
X007672Y014455D01*
X007672Y014715D01*
X007660Y014761D01*
X007636Y014802D01*
X007602Y014835D01*
X007561Y014859D01*
X007516Y014871D01*
X007334Y014871D01*
X007334Y014455D01*
X007334Y014455D01*
X007334Y014455D01*
X007334Y014039D01*
X007516Y014039D01*
X007561Y014051D01*
X007602Y014075D01*
X007636Y014108D01*
X007672Y014287D02*
X010534Y014287D01*
X010376Y014445D02*
X007672Y014445D01*
X007672Y014455D02*
X007334Y014455D01*
X007672Y014455D01*
X007672Y014604D02*
X010217Y014604D01*
X010059Y014762D02*
X007659Y014762D01*
X007703Y014921D02*
X007193Y014921D01*
X007334Y014762D02*
X007334Y014762D01*
X007334Y014604D02*
X007334Y014604D01*
X007334Y014455D02*
X007334Y014455D01*
X007334Y014445D02*
X007334Y014445D01*
X007334Y014287D02*
X007334Y014287D01*
X007334Y014128D02*
X007334Y014128D01*
X007021Y014128D02*
X006919Y014128D01*
X006943Y014287D02*
X006997Y014287D01*
X006997Y014445D02*
X006943Y014445D01*
X006943Y014604D02*
X006997Y014604D01*
X006836Y013970D02*
X010698Y013970D01*
X010905Y014255D02*
X010157Y015003D01*
X010157Y015355D01*
X009634Y015555D02*
X007992Y015555D01*
X008123Y015396D02*
X009597Y015396D01*
X009600Y015238D02*
X008153Y015238D01*
X008109Y015079D02*
X009665Y015079D01*
X009800Y014921D02*
X007907Y014921D01*
X007618Y015555D02*
X007541Y015555D01*
X007529Y015713D02*
X009723Y015713D01*
X009941Y015872D02*
X006908Y015872D01*
X006770Y015872D02*
X006770Y015872D01*
X006632Y015872D02*
X005876Y015872D01*
X005931Y015713D02*
X006511Y015713D01*
X006502Y015555D02*
X006518Y015555D01*
X006770Y015713D02*
X006770Y015713D01*
X007029Y015713D02*
X007051Y015713D01*
X004845Y015455D02*
X004845Y014430D01*
X003770Y014762D02*
X003070Y014762D01*
X003070Y014921D02*
X003030Y014921D01*
X003030Y015079D02*
X003070Y015079D01*
X003070Y015238D02*
X003030Y015238D01*
X002740Y015238D02*
X002332Y015238D01*
X002491Y015079D02*
X002581Y015079D01*
X003641Y015872D02*
X001244Y015872D01*
X001165Y015713D02*
X003770Y015713D01*
X003770Y015555D02*
X001165Y015555D01*
X001402Y016030D02*
X003483Y016030D01*
X001125Y016347D02*
X000808Y016347D01*
X000808Y016189D02*
X000967Y016189D01*
X007350Y013177D02*
X007446Y013177D01*
X007446Y013019D02*
X007350Y013019D01*
X010021Y014799D02*
X010021Y014799D01*
X012894Y013105D02*
X012893Y013055D01*
X012893Y011155D01*
X012881Y011051D01*
X012104Y011570D02*
X012100Y011567D01*
X012104Y011570D02*
X012104Y012111D01*
X005924Y009056D02*
X005884Y009056D01*
X003780Y006045D02*
X003525Y006045D01*
X003580Y005886D02*
X003618Y005886D01*
X003580Y005728D02*
X003582Y005728D01*
X004920Y004301D02*
X023600Y004301D01*
X023600Y004143D02*
X004762Y004143D01*
X004083Y004143D02*
X003719Y004143D01*
X003580Y003984D02*
X003925Y003984D01*
X003766Y003826D02*
X003580Y003826D01*
X003580Y003667D02*
X003608Y003667D01*
X005752Y002558D02*
X005912Y002558D01*
X005912Y002399D02*
X005752Y002399D01*
X005752Y002241D02*
X005912Y002241D01*
X005912Y002082D02*
X005752Y002082D01*
X005752Y001924D02*
X005912Y001924D01*
X005912Y001765D02*
X005752Y001765D01*
X005752Y001607D02*
X005912Y001607D01*
X005752Y001448D02*
X003265Y001448D01*
X008608Y001448D02*
X023600Y001448D01*
X023600Y001290D02*
X009624Y001290D01*
X009624Y001131D02*
X023600Y001131D01*
X023596Y000973D02*
X009624Y000973D01*
X009624Y000814D02*
X023589Y000814D01*
X023479Y000656D02*
X009624Y000656D01*
X009624Y001607D02*
X023600Y001607D01*
X023600Y001765D02*
X009624Y001765D01*
X009624Y001924D02*
X023600Y001924D01*
X023600Y002082D02*
X009624Y002082D01*
X009624Y002241D02*
X023600Y002241D01*
X023600Y002399D02*
X009624Y002399D01*
D29*
X009772Y002399D03*
X009356Y002797D03*
X008495Y002797D03*
X007620Y002797D03*
X006792Y002804D03*
X006316Y003391D03*
X006023Y002805D03*
X005233Y002804D03*
X004610Y002435D03*
X004602Y001541D03*
X004577Y000793D03*
X001724Y001780D03*
X001050Y000865D03*
X001395Y003769D03*
X003930Y005730D03*
X004255Y004955D03*
X005248Y005763D03*
X005845Y006300D03*
X006320Y007249D03*
X007087Y007850D03*
X007740Y007860D03*
X008345Y007857D03*
X009010Y007843D03*
X008793Y008285D03*
X007738Y008585D03*
X008480Y009780D03*
X008235Y010767D03*
X009455Y011705D03*
X008355Y012305D03*
X008380Y013480D03*
X008122Y014456D03*
X007805Y015255D03*
X006380Y016150D03*
X005255Y016230D03*
X006155Y014430D03*
X005280Y013830D03*
X007009Y013744D03*
X005098Y012328D03*
X003950Y012527D03*
X005098Y010854D03*
X004000Y009310D03*
X004071Y008141D03*
X004523Y006705D03*
X006766Y005333D03*
X007201Y005738D03*
X007640Y005333D03*
X008049Y004905D03*
X008482Y005311D03*
X008902Y005724D03*
X009304Y005308D03*
X009746Y005721D03*
X010145Y005308D03*
X010588Y005721D03*
X010167Y006134D03*
X010573Y006533D03*
X009732Y006533D03*
X009311Y006137D03*
X008888Y006536D03*
X008484Y006152D03*
X008060Y006551D03*
X007633Y006159D03*
X007187Y006551D03*
X008075Y005738D03*
X007198Y004912D03*
X006766Y004506D03*
X007212Y004115D03*
X007640Y004506D03*
X008064Y004107D03*
X008467Y004492D03*
X008876Y004890D03*
X009311Y004488D03*
X008891Y004093D03*
X009746Y004090D03*
X010153Y004488D03*
X009732Y004887D03*
X010587Y004887D03*
X010602Y004089D03*
X010624Y003227D03*
X010254Y002799D03*
X009793Y001608D03*
X009796Y000836D03*
X006321Y004107D03*
X006306Y004905D03*
X010667Y007383D03*
X010202Y008314D03*
X012197Y009255D03*
X012405Y008480D03*
X012930Y008455D03*
X013922Y007574D03*
X012930Y006772D03*
X012377Y007495D03*
X014055Y009600D03*
X013522Y010072D03*
X012592Y010128D03*
X012100Y011567D03*
X011463Y011582D03*
X013564Y012098D03*
X013941Y012534D03*
X014063Y011601D03*
X015964Y009982D03*
X018233Y009445D03*
X019286Y009379D03*
X018296Y010516D03*
X019728Y010932D03*
X021227Y009721D03*
X021248Y007940D03*
X021180Y006855D03*
X021008Y005663D03*
X019880Y005680D03*
X018305Y005980D03*
X019055Y006830D03*
X019170Y007565D03*
X018424Y008060D03*
X016024Y006012D03*
X016260Y000900D03*
X023290Y000925D03*
X023011Y007356D03*
X023016Y007853D03*
X018322Y012613D03*
X016805Y014303D03*
X015984Y013282D03*
X015199Y014351D03*
X012138Y013650D03*
X010905Y014255D03*
X010555Y013680D03*
X006268Y008575D03*
X001401Y009773D03*
X001404Y010773D03*
X001401Y012765D03*
X002569Y015553D03*
X001045Y016649D03*
X023175Y016710D03*
D30*
X007550Y015456D02*
X007291Y015456D01*
X007290Y015455D01*
X007005Y015455D02*
X006770Y015455D01*
X006770Y015652D02*
X006773Y015652D01*
D31*
X006770Y015652D02*
X006764Y015652D01*
X006764Y015873D01*
X006860Y015969D01*
X007558Y015969D01*
X007673Y015854D01*
X007673Y015579D01*
X007550Y015456D01*
X007805Y015255D02*
X007293Y015255D01*
X007290Y015258D01*
X007005Y015455D02*
X007005Y015030D01*
X006626Y014651D01*
X006626Y014455D01*
X006626Y013801D01*
X006255Y013430D01*
X004380Y013430D01*
X003980Y013830D01*
X003980Y015830D01*
X003555Y016255D01*
X001330Y016255D01*
X000955Y015880D01*
X000955Y001630D01*
X001380Y001205D01*
X002730Y001205D01*
X003055Y001530D01*
X003055Y002765D01*
X003050Y002770D01*
X003050Y003770D02*
X004235Y004955D01*
X004255Y004955D01*
X003955Y005675D02*
X003050Y004770D01*
X003955Y005675D02*
X003930Y005730D01*
X003435Y006270D02*
X006096Y008931D01*
X008670Y008931D01*
X009358Y008242D01*
X009358Y007639D01*
X009348Y007201D01*
X009781Y007201D02*
X009799Y007647D01*
X009799Y008327D01*
X008825Y009301D01*
X005833Y009301D01*
X003799Y007268D01*
X003796Y007270D01*
X002554Y007270D01*
X002552Y007268D01*
X002552Y007268D01*
X002518Y007234D01*
X002516Y007234D01*
X002052Y006770D01*
X002050Y006770D01*
X002558Y006270D02*
X003435Y006270D01*
X002558Y006270D02*
X002543Y006256D01*
X002543Y006255D01*
X002058Y005770D01*
X002050Y005770D01*
X002050Y010770D02*
X001499Y010770D01*
X001404Y010773D01*
X001401Y012765D02*
X001636Y012770D01*
X002050Y012770D01*
X004845Y014430D02*
X004845Y014920D01*
X004855Y014930D01*
X006151Y014930D01*
X006626Y014455D01*
X006155Y014430D02*
X005515Y014430D01*
X005515Y014065D01*
X005280Y013830D01*
X006505Y015255D02*
X006763Y015255D01*
X006766Y015258D01*
X006505Y015255D02*
X006305Y015455D01*
X005515Y015455D01*
X005515Y015970D01*
X005255Y016230D01*
X008380Y013480D02*
X009045Y013480D01*
X009070Y013505D01*
X009070Y012305D02*
X008355Y012305D01*
X009070Y011080D02*
X009070Y009880D01*
X012197Y009255D02*
X012940Y009265D01*
X012934Y009105D01*
X015400Y015405D02*
X015400Y015410D01*
D32*
X012934Y009105D02*
X012933Y008439D01*
X012930Y008455D01*
X012930Y006772D02*
X012930Y006095D01*
X012920Y006105D01*
M02*
