G75*
%MOIN*%
%OFA0B0*%
%FSLAX24Y24*%
%IPPOS*%
%LPD*%
%AMOC8*
5,1,8,0,0,1.08239X$1,22.5*
%
%ADD10C,0.0000*%
D10*
X000570Y000784D02*
X000578Y016758D01*
X000579Y016758D02*
X000576Y016798D01*
X000577Y016838D01*
X000582Y016877D01*
X000591Y016916D01*
X000603Y016954D01*
X000618Y016991D01*
X000637Y017026D01*
X000659Y017059D01*
X000684Y017091D01*
X000712Y017119D01*
X000742Y017145D01*
X000774Y017168D01*
X000809Y017188D01*
X000845Y017205D01*
X000883Y017218D01*
X000921Y017228D01*
X000961Y017234D01*
X023098Y017273D01*
X023830Y016650D02*
X023830Y000902D01*
X023829Y000902D02*
X023830Y000859D01*
X023826Y000815D01*
X023819Y000773D01*
X023808Y000731D01*
X023793Y000690D01*
X023775Y000650D01*
X023754Y000613D01*
X023729Y000577D01*
X023702Y000544D01*
X023671Y000513D01*
X023638Y000485D01*
X023603Y000460D01*
X023565Y000438D01*
X023526Y000419D01*
X023486Y000404D01*
X023444Y000393D01*
X023401Y000385D01*
X023358Y000381D01*
X023358Y000380D02*
X001034Y000380D01*
X000994Y000379D01*
X000954Y000382D01*
X000914Y000388D01*
X000875Y000398D01*
X000837Y000412D01*
X000801Y000429D01*
X000766Y000450D01*
X000734Y000473D01*
X000704Y000499D01*
X000676Y000529D01*
X000651Y000560D01*
X000629Y000594D01*
X000610Y000629D01*
X000595Y000666D01*
X000583Y000705D01*
X000575Y000744D01*
X000570Y000784D01*
X015392Y011811D02*
X015394Y011858D01*
X015400Y011905D01*
X015409Y011951D01*
X015423Y011996D01*
X015440Y012040D01*
X015461Y012083D01*
X015485Y012123D01*
X015512Y012162D01*
X015543Y012198D01*
X015576Y012231D01*
X015612Y012262D01*
X015651Y012289D01*
X015691Y012313D01*
X015734Y012334D01*
X015778Y012351D01*
X015823Y012365D01*
X015869Y012374D01*
X015916Y012380D01*
X015963Y012382D01*
X016010Y012380D01*
X016057Y012374D01*
X016103Y012365D01*
X016148Y012351D01*
X016192Y012334D01*
X016235Y012313D01*
X016275Y012289D01*
X016314Y012262D01*
X016350Y012231D01*
X016383Y012198D01*
X016414Y012162D01*
X016441Y012123D01*
X016465Y012083D01*
X016486Y012040D01*
X016503Y011996D01*
X016517Y011951D01*
X016526Y011905D01*
X016532Y011858D01*
X016534Y011811D01*
X016532Y011764D01*
X016526Y011717D01*
X016517Y011671D01*
X016503Y011626D01*
X016486Y011582D01*
X016465Y011539D01*
X016441Y011499D01*
X016414Y011460D01*
X016383Y011424D01*
X016350Y011391D01*
X016314Y011360D01*
X016275Y011333D01*
X016235Y011309D01*
X016192Y011288D01*
X016148Y011271D01*
X016103Y011257D01*
X016057Y011248D01*
X016010Y011242D01*
X015963Y011240D01*
X015916Y011242D01*
X015869Y011248D01*
X015823Y011257D01*
X015778Y011271D01*
X015734Y011288D01*
X015691Y011309D01*
X015651Y011333D01*
X015612Y011360D01*
X015576Y011391D01*
X015543Y011424D01*
X015512Y011460D01*
X015485Y011499D01*
X015461Y011539D01*
X015440Y011582D01*
X015423Y011626D01*
X015409Y011671D01*
X015400Y011717D01*
X015394Y011764D01*
X015392Y011811D01*
X023099Y017274D02*
X023149Y017276D01*
X023200Y017274D01*
X023251Y017269D01*
X023301Y017260D01*
X023350Y017247D01*
X023398Y017230D01*
X023445Y017210D01*
X023490Y017187D01*
X023533Y017160D01*
X023574Y017130D01*
X023613Y017097D01*
X023649Y017061D01*
X023682Y017023D01*
X023713Y016982D01*
X023740Y016939D01*
X023764Y016894D01*
X023785Y016848D01*
X023802Y016800D01*
X023815Y016751D01*
X023825Y016701D01*
X023831Y016650D01*
M02*
