%
M48
M72
T01C0.0236
T02C0.0400
T03C0.0472
%
T01
X1180Y805
X4577Y733
X4602Y1541
X4610Y2435
X5233Y2804
X6023Y2805
X6316Y3391
X6792Y2804
X7620Y2797
X8495Y2797
X9356Y2797
X9772Y2399
X10254Y2799
X10624Y3227
X10602Y4089
X10153Y4488
X9746Y4090
X9311Y4488
X8891Y4093
X8467Y4492
X8064Y4107
X7640Y4506
X7212Y4115
X6766Y4506
X6321Y4107
X6306Y4905
X6766Y5333
X7201Y5738
X7640Y5333
X8049Y4905
X8482Y5311
X8902Y5724
X9304Y5308
X9746Y5721
X10145Y5308
X10588Y5721
X10167Y6134
X10573Y6533
X9732Y6533
X9311Y6137
X8888Y6536
X8484Y6152
X8060Y6551
X7633Y6159
X7187Y6551
X6320Y7249
X7087Y7850
X7740Y7860
X8345Y7857
X9010Y7843
X8793Y8285
X7738Y8585
X8480Y9780
X8235Y10767
X9455Y11705
X8355Y12305
X8380Y13480
X7009Y13744
X6146Y14454
X8372Y15456
X6380Y16150
X5494Y16137
X2569Y15553
X1045Y16649
X1387Y12765
X3950Y12527
X5098Y12328
X5098Y10854
X4000Y9310
X4071Y8141
X4523Y6705
X5845Y6300
X5248Y5763
X4283Y5030
X3893Y5628
X1370Y3769
X7198Y4912
X8075Y5738
X8876Y4890
X9732Y4887
X10587Y4887
X12930Y5355
X15430Y6280
X16937Y6241
X18305Y5980
X19055Y6830
X19055Y7355
X18460Y8190
X17730Y8780
X17905Y9555
X18310Y9960
X17605Y10555
X18305Y11080
X17805Y12605
X16780Y13055
X17230Y14255
X15080Y14230
X14680Y12555
X13830Y12105
X14655Y11605
X14205Y11105
X14655Y10580
X14630Y9580
X12930Y8455
X12405Y8480
X12255Y9255
X12530Y10180
X11730Y11630
X12580Y12105
X12138Y13650
X10905Y14255
X10555Y13680
X6268Y8575
X10202Y8314
X10667Y7383
X12377Y7495
X14015Y7538
X19880Y5680
X20605Y6605
X21180Y6855
X21355Y7330
X23368Y8024
X23430Y755
X16260Y810
X9786Y796
X9793Y1608
X1391Y9773
X1394Y10773
X23355Y16580
T02
X3050Y14770
X2050Y14770
X2050Y13770
X3050Y13770
X3050Y12770
X2050Y12770
X2050Y11770
X3050Y11770
X3050Y10770
X2050Y10770
X2050Y9770
X3050Y9770
X3050Y8770
X2050Y8770
X2050Y7770
X3050Y7770
X3050Y6770
X2050Y6770
X2050Y5770
X3050Y5770
X3050Y4770
X2050Y4770
X2050Y3770
X3050Y3770
X3050Y2770
X2050Y2770
T03
X10157Y15355
X11675Y15355
X13882Y15405
X15400Y15405
X17657Y15380
X19175Y15380
X21382Y15405
X22900Y15405
X22426Y12027
X20908Y12027
M30
